<svg xmlns="http://www.w3.org/2000/svg" width="96" height="64"><circle cx="48" cy="24" r="17.5" fill="#1c7cc6"/><path d="M53.6 29.2c-.9 1.1-2.1 1.9-3.4 2.3-.8.3-1.6.4-2.4.4-3.3 0-6.3-2.1-7.3-5.3-.6-2-.5-4.1.4-5.9s2.5-3.2 4.5-3.8c.8-.3 1.6-.4 2.4-.4 3.3 0 6.3 2.1 7.3 5.3v.1l-2.8.8 6.8 4.9 2.7-8-3.1 1v-.1c-1.6-4.8-6-8-11-8-1.2 0-2.4.2-3.6.6-6.1 2-9.3 8.4-7.4 14.6 1.6 4.8 6 8 11 8 1.2 0 2.4-.2 3.6-.6 2-.7 3.8-1.9 5.1-3.4l-2.8-2.5z" fill="#fff"/><path d="M28.5 51.9h.7c.4 0 .7-.1.9-.3.2-.2.3-.5.3-.8s-.1-.6-.3-.8c-.2-.2-.4-.3-.8-.3-.3 0-.6.1-.8.3-.2.2-.3.4-.3.7H27c0-.4.1-.7.3-1 .2-.3.5-.5.8-.7s.7-.3 1.2-.3c.7 0 1.3.2 1.7.5.4.4.6.9.6 1.5 0 .3-.1.6-.3.9-.2.3-.5.5-.8.6.4.1.7.3.9.6.2.3.3.6.3 1 0 .6-.2 1.1-.7 1.5-.4.4-1 .6-1.7.6s-1.2-.2-1.7-.5-.6-.7-.6-1.3h1.2c0 .3.1.6.3.8s.5.3.8.3c.4 0 .7-.1.9-.3s.3-.5.3-.8c0-.4-.1-.7-.3-.9s-.5-.3-1-.3h-.7v-1zm8-3v1h-.1c-.7 0-1.2.2-1.6.5s-.6.9-.7 1.5c.4-.4.9-.6 1.5-.6s1.1.2 1.5.7c.4.4.5 1 .5 1.7s-.2 1.3-.6 1.8c-.4.4-1 .7-1.7.7s-1.3-.3-1.7-.8-.7-1.2-.7-2.1v-.4c0-1.2.3-2.2.9-2.9.6-.7 1.5-1.1 2.7-1.1-.1 0 0 0 0 0zm-1.3 3.4c-.3 0-.5.1-.7.2-.2.1-.4.3-.5.6v.4c0 .5.1.9.3 1.3.2.3.5.5.9.5s.6-.1.8-.4.3-.6.3-1-.1-.8-.3-1-.4-.6-.8-.6zm7.9.7c0 1-.2 1.8-.6 2.3-.4.5-1 .8-1.7.8-.8 0-1.3-.3-1.7-.8s-.6-1.3-.6-2.2v-1.2c0-1 .2-1.8.6-2.3.4-.5 1-.8 1.8-.8s1.4.2 1.7.7c.4.5.6 1.2.6 2.2l-.1 1.3zm-1.2-1.3c0-.7-.1-1.2-.3-1.5s-.5-.5-.9-.5-.7.1-.9.4c-.2.3-.3.8-.3 1.4v1.6c0 .7.1 1.2.3 1.5s.5.5.9.5.7-.2.8-.5c.2-.3.3-.8.3-1.4v-1.5h.1zm7.4 2.8 1.8-5.6h1.4L50 56h-1.2l-2.5-7.1h1.4l1.6 5.6zm5.3 1.5h-1.2v-7.1h1.2V56zm5.7-3.2h-2.9V55h3.4v1h-4.6v-7.1h4.6v1h-3.4v2h2.9v.9zm7.1 1.5 1.1-5.4h1.2L68 56h-1.2l-1.4-5.2-1.3 5.2h-1.2l-1.6-7.1h1.2l1.1 5.3 1.4-5.3h1l1.4 5.4z" fill="#787878"/></svg>