<svg xmlns="http://www.w3.org/2000/svg" width="96" height="64"><path d="M59.8 16.2 57 27.8l-2.8-11.6H46v4.2c-1-3.7-4.7-4.7-8-4.7-4 0-8.4 1.8-8.6 7H35c0-1.6 1.4-2.5 2.8-2.5 1.7 0 2.4.7 2.4 1.9 0 1.1-.7 1.6-2.4 1.6h-1.9v3.9h1.7c.9 0 2.3.5 2.3 1.9 0 1.6-1 2.3-2.4 2.3-2.4-.2-3.1-1.9-3.1-3.7h-5.9c0 1.1 0 8.4 8.9 8.3 4.4 0 7.5-1.8 8.4-4.2v3.9h5.6V23.5L54.5 36h4.9l3.1-12.5V36h5.6V16.2h-8.4.1zM46 27.8c-.7-1.4-1.7-2.1-2.3-2.3 1.2-.5 1.7-1.2 2.3-2.6v4.9z" fill="red"/><path d="M18.2 51.9h.7c.4 0 .7-.1.9-.3.2-.2.3-.5.3-.8s-.1-.6-.3-.8c-.2-.2-.4-.3-.8-.3-.3 0-.6.1-.8.3-.2.2-.3.4-.3.7h-1.2c0-.4.1-.7.3-1 .2-.3.5-.5.8-.7s.7-.3 1.2-.3c.7 0 1.3.2 1.7.5.4.4.6.9.6 1.5 0 .3-.1.6-.3.9-.2.3-.5.5-.8.6.4.1.7.3.9.6.2.3.3.6.3 1 0 .6-.2 1.1-.7 1.5-.4.4-1 .6-1.7.6s-1.2-.2-1.7-.5-.7-.8-.7-1.5h1.2c0 .3.1.6.3.8s.5.3.8.3c.4 0 .7-.1.9-.3s.3-.5.3-.8c0-.4-.1-.7-.3-.9s-.5-.3-1-.3h-.7v-.8h.1zm6.1-3 2.1 5.4 2-5.4H30V56h-1.2v-2.3l.1-3.1-2.1 5.4h-.9l-2.1-5.5.1 3.1V56h-1.2v-7.1h1.6zm13.6 5.5h-2.8l-.5 1.6h-1.3l2.7-7.1h1.1l2.7 7.1h-1.3l-.6-1.6zm-2.4-1h2.1l-1-2.9-1.1 2.9zm5.1 2.6v-7.1h2.1c.6 0 1.2.1 1.7.4.5.3.9.7 1.1 1.2s.4 1.1.4 1.8v.4c0 .7-.1 1.3-.4 1.8s-.7.9-1.1 1.2c-.5.3-1.1.4-1.7.4h-2.1V56zm1.2-6.1V55h.8c.6 0 1.1-.2 1.5-.6.3-.4.5-1 .5-1.7v-.4c0-.8-.2-1.4-.5-1.8s-.8-.6-1.5-.6h-.8zm11 6.1h-1.2v-3.2h-3.2V56h-1.2v-7.1h1.2v3h3.2v-3h1.2V56zm5.6-3.2h-2.9V55h3.4v1h-4.6v-7.1h4.6v1h-3.4v2h2.9v.9zm5.2 1.4c0-.3-.1-.6-.3-.7s-.6-.3-1.2-.5-1-.4-1.4-.6c-.6-.4-1-.9-1-1.6 0-.6.2-1 .7-1.4s1.1-.6 1.8-.6c.5 0 .9.1 1.3.3s.7.4.9.8c.2.3.3.7.3 1.1h-1.2c0-.4-.1-.7-.3-.9s-.6-.3-1-.3-.7.1-.9.3-.3.4-.3.7.1.5.4.6c.2.2.6.3 1.2.5s1 .3 1.3.6c.3.2.6.5.7.7.2.3.2.6.2 1 0 .6-.2 1.1-.7 1.4-.5.4-1.1.5-1.8.5-.5 0-1-.1-1.4-.3s-.8-.5-1-.8-.4-.7-.4-1.2h1.2c0 .4.1.7.4.9s.6.3 1.1.3c.4 0 .8-.1 1-.3.3 0 .4-.2.4-.5zm3.6 1.8H66v-7.1h1.2V56zm4.1-1.5 1.8-5.6h1.4L71.9 56h-1.2l-2.5-7.1h1.4l1.7 5.6zm8.1-1.7h-2.9V55h3.4v1h-4.6v-7.1h4.6v1h-3.4v2h2.9v.9z" fill="#787878"/></svg>