<svg xmlns="http://www.w3.org/2000/svg" width="132" height="26"><path d="M127 25H5c-2.2 0-4-1.8-4-4V5c0-2.2 1.8-4 4-4h122c2.2 0 4 1.8 4 4v16c0 2.2-1.8 4-4 4z" fill="#fff"/><path d="M51.2 12.4h.7c.4 0 .7-.1.9-.3s.3-.5.3-.8-.1-.6-.3-.8-.4-.3-.8-.3c-.3 0-.6.1-.8.3s-.3.4-.3.7h-1.2c0-.4.1-.7.3-1s.5-.5.8-.7.7-.3 1.2-.3c.7 0 1.3.2 1.7.5s.6.9.6 1.5c0 .3-.1.6-.3.9s-.5.5-.8.6c.4.1.7.3.9.6s.3.6.3 1c0 .6-.2 1.1-.7 1.5s-1 .6-1.7.6-1.2-.2-1.7-.5-.7-.8-.7-1.5h1.2c0 .3.1.6.3.8s.5.3.8.3c.4 0 .7-.1.9-.3s.3-.5.3-.8c0-.4-.1-.7-.3-.9s-.6-.3-1-.3h-.7l.1-.8zm6.2-3 2.1 5.4 2-5.4h1.6v7.1h-1.2v-2.3L62 11l-2.1 5.5H59L56.9 11l.1 3.1v2.3h-1.2v-7h1.6zm13.8 5.4h-2.8l-.6 1.7h-1.3l2.7-7.1h1.1l2.7 7.1h-1.3l-.5-1.7zm-2.4-1h2.1l-1-2.9-1.1 2.9zm5.2 2.7V9.4h2.1c.6 0 1.2.1 1.7.4s.9.7 1.1 1.2.4 1.1.4 1.8v.4c0 .7-.1 1.3-.4 1.8s-.7.9-1.1 1.2c-.4.3-1.1.4-1.7.4l-2.1-.1zm1.2-6.1v5.1h.8c.6 0 1.1-.2 1.5-.6s.5-1 .5-1.7v-.4c0-.8-.2-1.4-.5-1.8s-.8-.6-1.5-.6h-.8zm11.1 6.1H85v-3.2h-3.2v3.2h-1.2V9.4h1.2v3H85v-3h1.2v7.1h.1zm5.7-3.2h-2.9v2.2h3.4v1h-4.6V9.4h4.6v1h-3.4v2H92v.9zm5.3 1.4c0-.3-.1-.6-.3-.7s-.6-.3-1.2-.5-1-.4-1.4-.6c-.6-.4-1-.9-1-1.6 0-.6.2-1 .7-1.4s1.1-.6 1.8-.6c.5 0 .9.1 1.3.3s.8.4 1 .7.3.7.3 1.1h-1.2c0-.4-.1-.7-.3-.9s-.6-.3-1-.3-.7.1-.9.3-.3.4-.3.7.1.5.4.7.6.3 1.2.5 1 .4 1.3.6.6.5.7.7.2.6.2 1c0 .6-.2 1.1-.7 1.4-.5.3-1.1.5-1.8.5-.5 0-1-.1-1.4-.3s-.8-.5-1-.8-.4-.7-.4-1.2h1.2c0 .4.1.7.4.9s.6.3 1.1.3c.4 0 .8-.1 1-.3s.3-.2.3-.5zm3.7 1.8h-1.2V9.4h1.2v7.1zm4.1-1.5 1.8-5.6h1.4l-2.6 7.1h-1.2L102 9.4h1.4l1.7 5.6zm8.3-1.7h-2.9v2.2h3.4v1h-4.6V9.4h4.6v1h-3.4v2h2.9v.9z" fill="#787878"/><path d="m27.8 7.5-1.6 6.4-1.6-6.4H20v2.4c-.6-2.1-2.6-2.6-4.4-2.6-2.2 0-4.7.9-4.8 3.9h3.1c0-.9.8-1.4 1.6-1.4.9 0 1.4.4 1.4 1 0 .5-.4.9-1.4.9h-1v2.1h.9c.5 0 1.3.3 1.3 1 0 .9-.6 1.3-1.4 1.3-1.4-.1-1.7-1.1-1.7-2h-3.1c0 .6 0 4.6 5 4.6 2.4 0 4.1-1 4.6-2.4v2.1h3.1v-6.9l1.7 6.9h2.8l1.7-6.9v6.9h3.1v-11l-4.7.1zm-7.7 6.4c-.4-.8-.9-1.2-1.3-1.3.7-.3 1-.7 1.3-1.5v2.8z" fill="#f33"/></svg>