<svg xmlns="http://www.w3.org/2000/svg" viewBox="0 0 15 16" width="16" height="16"><path d="M11.7 16h-.5c-1-.1-1.9-.5-3.1-1.2-2.1-1.2-4-2.9-5.4-4.9C1.5 8.3.7 6.7.3 5.1 0 4.2-.1 3.4.1 2.7c.1-.5.3-.9.7-1.2.3-.3.6-.5.9-.7l.6-.5c.2-.2.4-.3.7-.3.3 0 .6.1.9.4.2.2 1 1.1 1 1.1l1 1.1c.5.6.4 1.1-.1 1.6l-.3.2c-.5.3-.9.6-1.3 1-.2.1-.2.3-.2.5.2.6.5 1.3 1.1 2 1 1.3 2 2.4 3.1 3.2.2.1.3.2.5.3.1.1.2.1.3.2.1.1.2.1.3.1.2 0 .3-.1.3-.1.5-.4 1-.8 1.4-1.2.2-.2.5-.3.8-.3.3 0 .6.1.9.4.7.7 1.3 1.5 2 2.2.5.5.4 1.1-.2 1.6l-.4.4c-.3.2-.6.5-.9.7-.4.4-.9.6-1.5.6z" fill="#898989"/></svg>