<svg width="21" height="15" xmlns="http://www.w3.org/2000/svg"><g stroke="#898989" stroke-width="1.7" fill="none" fill-rule="evenodd" stroke-linecap="round" stroke-linejoin="round"><path d="M11.493 4H2.507C1.67 4 1 4.632 1 5.421v5.158C1 11.369 1.67 12 2.507 12h1.172v2l2.902-2h4.912C12.33 12 13 11.368 13 10.579V5.42C12.944 4.631 12.274 4 11.493 4z"/><path d="M12.856 8.2h2.268l2.551 1.8V8.2h1.02C19.434 8.2 20 7.655 20 6.945v-4.69C20 1.545 19.433 1 18.696 1h-8.392C9.567 1 9 1.545 9 2.255v1.472"/></g></svg>