<svg xmlns="http://www.w3.org/2000/svg" width="132" height="26"><style>.st2{fill:#1c7cc6}</style><path d="M127 25H5c-2.2 0-4-1.8-4-4V5c0-2.2 1.8-4 4-4h122c2.2 0 4 1.8 4 4v16c0 2.2-1.8 4-4 4z" fill="#fff"/><path d="M60.5 12.4h.7c.4 0 .7-.1.9-.3s.3-.5.3-.8-.1-.6-.3-.8-.4-.3-.8-.3c-.3 0-.6.1-.8.3s-.3.4-.3.7H59c0-.4.1-.7.3-1s.5-.5.8-.7.7-.3 1.2-.3c.7 0 1.3.2 1.7.5s.6.9.6 1.5c0 .3-.1.6-.3.9s-.5.5-.8.6c.4.1.7.3.9.6s.3.6.3 1c0 .6-.2 1.1-.7 1.5s-1 .6-1.7.6-1.2-.2-1.7-.5-.6-.7-.6-1.3h1.2c0 .3.1.6.3.8s.5.3.8.3c.4 0 .7-.1.9-.3s.3-.5.3-.8c0-.4-.1-.7-.3-.9s-.6-.3-1-.3h-.7v-1zm8.1-3v1h-.1c-.7 0-1.2.2-1.6.5s-.6.9-.7 1.5c.4-.4.9-.6 1.5-.6s1.1.2 1.5.7.5 1 .5 1.7-.2 1.3-.6 1.8c-.4.5-1 .7-1.7.7s-1.3-.3-1.7-.8c-.4-.5-.7-1.2-.7-2.1v-.4c0-1.2.3-2.2.9-2.9s1.5-1.1 2.7-1.1zm-1.3 3.4c-.3 0-.5.1-.7.2s-.4.3-.5.6v.4c0 .5.1.9.3 1.3s.5.5.9.5.6-.1.8-.4.3-.6.3-1-.1-.8-.3-1-.5-.6-.8-.6zm8 .7c0 1-.2 1.8-.6 2.3-.4.5-1 .8-1.7.8-.8 0-1.3-.3-1.7-.8-.4-.5-.6-1.3-.6-2.2v-1.2c0-1 .2-1.8.6-2.3s1-.8 1.8-.8 1.4.2 1.7.7.6 1.2.6 2.2v1.3h-.1zm-1.2-1.3c0-.7-.1-1.2-.3-1.5s-.4-.5-.8-.5-.7.1-.9.4-.3.8-.3 1.4v1.6c0 .7.1 1.2.3 1.5s.5.5.9.5.7-.2.8-.5.3-.8.3-1.4v-1.5zm7.6 2.8 1.8-5.6h1.4l-2.6 7.1h-1.2l-2.5-7.1H80l1.7 5.6zm5.4 1.5h-1.2V9.4h1.2v7.1zm5.8-3.2H90v2.2h3.4v1h-4.6V9.4h4.6v1H90v2h2.9v.9zm7.2 1.4 1.1-5.4h1.2l-1.6 7.1h-1.2l-1.4-5.2-1.4 5.2h-1.2l-1.6-7h1.2l1.1 5.3 1.4-5.3h1l1.4 5.3z" fill="#787878"/><path class="st2" d="M25.7 11.2h3c.2 0 .4-.2.4-.4v-3c0-.3-.3-.4-.5-.2l-3.2 3c-.2.2 0 .6.3.6z"/><path class="st2" d="M21.9 21c-2.3 0-4.4-1-5.9-2.8s-2-4-1.6-6.4c.5-2.9 2.8-5.4 5.5-6.1.7-.2 1.3-.3 1.9-.3 3.1 0 5.7 1.7 7 4.5v.2l-1.8.8c-.9-2-2.9-3.3-5.1-3.3-1.7 0-3.3.8-4.3 2.1-1.1 1.4-1.4 3-1.1 4.7.5 2.1 2.3 3.9 4.4 4.2.3.1.7.1 1 .1 2.3 0 4.2-1.3 5.1-3.5.1-.4.5-.6 1-.6.3 0 .5.1.6.2.1 0 .1.1.1.1.3.4.3.7.2 1-1.2 3.2-3.9 5.1-7 5.1z"/></svg>