<svg width="56" height="48" fill="none" xmlns="http://www.w3.org/2000/svg"><path fill-rule="evenodd" clip-rule="evenodd" d="M50.067 40.346H8.11c-1.863 0-3.372-1.465-3.372-3.272V6.057c0-1.807 1.509-3.272 3.372-3.272h40.042c2.92 0 5.287 2.297 5.287 5.13v29.159c0 1.807-1.51 3.272-3.373 3.272z" fill="#9FA8B9"/><mask id="a" maskUnits="userSpaceOnUse" x="0" y="6" width="49" height="39"><path fill-rule="evenodd" clip-rule="evenodd" d="M0 6.75h48.7v37.562H0V6.75z" fill="#fff"/></mask><g mask="url(#a)"><path fill-rule="evenodd" clip-rule="evenodd" d="M45.328 44.312H3.373C1.51 44.312 0 42.847 0 41.039V10.023C0 8.215 1.51 6.75 3.373 6.75H45.33c1.863 0 3.372 1.465 3.372 3.273v31.016c0 1.807-1.509 3.273-3.373 3.273z" fill="#BFC8D8"/></g><path fill-rule="evenodd" clip-rule="evenodd" d="M44.652 28.052h9.438c.483 0 .875-.381.875-.85v-5.62a.864.864 0 00-.875-.85h-9.438c-2.083 0-3.772 1.638-3.772 3.66 0 2.021 1.689 3.66 3.772 3.66z" fill="#9FA8B9"/><path fill-rule="evenodd" clip-rule="evenodd" d="M42.484 24.392c0-1.273 1.063-2.305 2.375-2.305 1.311 0 2.373 1.032 2.373 2.305 0 1.272-1.062 2.304-2.373 2.304-1.312 0-2.375-1.032-2.375-2.304z" fill="#BFC8D8"/><path fill-rule="evenodd" clip-rule="evenodd" d="M22.769 31.923c-1.383 0-2.825-.418-3.955-1.145a.638.638 0 00-.53-.07.6.6 0 00-.383.364l-.713 1.933a.58.58 0 00.22.682c1.042.722 2.68 1.234 4.302 1.358v2.353c0 .326.274.593.611.593h1.875a.604.604 0 00.612-.593V34.88c2.835-.65 4.706-2.768 4.706-5.402 0-2.708-1.494-4.455-4.992-5.838-2.574-1.034-3.318-1.65-3.318-2.747 0-.914.669-1.894 2.546-1.894 1.813 0 2.962.635 3.451.907.154.082.34.099.51.041a.608.608 0 00.365-.348l.745-1.907a.586.586 0 00-.264-.722c-1.055-.598-2.228-.948-3.567-1.059v-2.247a.603.603 0 00-.612-.593h-1.85a.603.603 0 00-.61.593v2.434c-2.751.62-4.5 2.593-4.5 5.14 0 3.105 2.549 4.505 5.297 5.555 2.12.83 2.985 1.668 2.985 2.888.001 1.34-1.178 2.242-2.931 2.242z" fill="#E0EBFF"/></svg>