<svg width="56" height="48" fill="none" xmlns="http://www.w3.org/2000/svg"><mask id="a" maskUnits="userSpaceOnUse" x="0" y="0" width="39" height="44"><path fill-rule="evenodd" clip-rule="evenodd" d="M0 .087h38.495V43.49H0V.087z" fill="#fff"/></mask><g mask="url(#a)"><path fill-rule="evenodd" clip-rule="evenodd" d="M35.878 43.491H2.618A2.626 2.626 0 010 40.858V2.72A2.626 2.626 0 012.617.087h33.26a2.625 2.625 0 012.618 2.634v38.137a2.625 2.625 0 01-2.617 2.633z" fill="#9FA8B9"/></g><path fill-rule="evenodd" clip-rule="evenodd" d="M40.686 48H6.314A2.321 2.321 0 014 45.671V6.33A2.322 2.322 0 016.314 4h34.372A2.322 2.322 0 0143 6.33v39.341A2.321 2.321 0 0140.686 48z" fill="#BDC8DB"/><path fill-rule="evenodd" clip-rule="evenodd" d="M21.403 24h-9.807A1.597 1.597 0 0110 22.404v-9.808c0-.88.715-1.596 1.596-1.596h9.807c.882 0 1.597.715 1.597 1.596v9.808c0 .88-.715 1.596-1.597 1.596z" fill="#E0EBFF"/><path fill-rule="evenodd" clip-rule="evenodd" d="M36.955 16h-9.911C26.467 16 26 15.552 26 15s.467-1 1.044-1h9.911c.577 0 1.045.448 1.045 1s-.468 1-1.045 1zM36.955 20h-9.911C26.467 20 26 19.552 26 19c0-.553.467-1 1.044-1h9.911c.577 0 1.045.447 1.045 1 0 .552-.468 1-1.045 1z" fill="#9FA8B9"/><path fill-rule="evenodd" clip-rule="evenodd" d="M21.403 42h-9.807A1.597 1.597 0 0110 40.404v-9.808c0-.882.715-1.596 1.596-1.596h9.807c.882 0 1.597.714 1.597 1.596v9.808c0 .88-.715 1.596-1.597 1.596z" fill="#E0EBFF"/><path fill-rule="evenodd" clip-rule="evenodd" d="M36.955 34h-9.911C26.467 34 26 33.552 26 33s.467-1 1.044-1h9.911c.577 0 1.045.448 1.045 1s-.468 1-1.045 1zM36.955 39h-9.911C26.467 39 26 38.552 26 38c0-.553.467-1 1.044-1h9.911c.577 0 1.045.447 1.045 1 0 .552-.468 1-1.045 1z" fill="#9FA8B9"/></svg>