<svg width="56" height="48" fill="none" xmlns="http://www.w3.org/2000/svg"><mask id="a" maskUnits="userSpaceOnUse" x="11" y="9" width="38" height="32"><path fill-rule="evenodd" clip-rule="evenodd" d="M11.663 9.868H48.64v30.765H11.663V9.868z" fill="#fff"/></mask><g mask="url(#a)"><path fill-rule="evenodd" clip-rule="evenodd" d="M41.779 40.633H18.525a6.862 6.862 0 01-6.862-6.861V16.73a6.862 6.862 0 016.862-6.862h23.254a6.862 6.862 0 016.862 6.862v17.042a6.862 6.862 0 01-6.862 6.86z" fill="#9FA8B9"/></g><path fill-rule="evenodd" clip-rule="evenodd" d="M42.574 38.587v6.514a.472.472 0 01-.722.4l-11.054-6.914h11.776z" fill="#9FA8B9"/><path fill-rule="evenodd" clip-rule="evenodd" d="M7.604 34.095h25.771c4.2 0 7.605-3.404 7.605-7.604V7.604A7.605 7.605 0 0033.375 0H7.605A7.604 7.604 0 000 7.604v18.887c0 4.2 3.404 7.604 7.604 7.604z" fill="#BFC8D8"/><path fill-rule="evenodd" clip-rule="evenodd" d="M6.723 32.738v8.508c0 .464.504.754.905.52l15.437-9.028H6.723z" fill="#BFC8D8"/><path fill-rule="evenodd" clip-rule="evenodd" d="M20.49 6.88l3.07 6.22 6.864.998-4.967 4.842 1.173 6.836-6.14-3.228-6.14 3.228 1.173-6.836-4.968-4.842 6.865-.998 3.07-6.22z" fill="#E0EBFF"/></svg>