<svg width="56" height="48" fill="none" xmlns="http://www.w3.org/2000/svg"><mask id="a" maskUnits="userSpaceOnUse" x="0" y="2" width="51" height="40"><path fill-rule="evenodd" clip-rule="evenodd" d="M0 2h50.713v39.464H0V2z" fill="#fff"/></mask><g mask="url(#a)"><path fill-rule="evenodd" clip-rule="evenodd" d="M48.205 41.464H2.507A2.508 2.508 0 010 38.956V4.507a2.507 2.507 0 012.507-2.506h45.698a2.507 2.507 0 012.508 2.506v34.449a2.508 2.508 0 01-2.508 2.508z" fill="#BDC8DB"/></g><path fill-rule="evenodd" clip-rule="evenodd" d="M50.713 8.614H0V4.477A2.477 2.477 0 012.477 2h45.759a2.477 2.477 0 012.477 2.477v4.137z" fill="#9FA8B9"/><mask id="b" maskUnits="userSpaceOnUse" x="36" y="27" width="20" height="20"><path fill-rule="evenodd" clip-rule="evenodd" d="M36.472 27.237H56v18.874H36.472V27.237z" fill="#fff"/></mask><g mask="url(#b)"><path fill-rule="evenodd" clip-rule="evenodd" d="M44.735 39.941A3.91 3.91 0 1148 32.837a3.91 3.91 0 01-3.265 7.104zm7.71 1.624a.538.538 0 01.003-.622c.244-.347.462-.717.647-1.117.182-.4.32-.807.426-1.218a.54.54 0 01.469-.408l1.201-.112c.49-.045.85-.48.805-.971l-.25-2.68a.894.894 0 00-.97-.806l-.974.09c-.372.035-.711-.174-.884-.505a7.444 7.444 0 00-1.207-1.687c-.256-.273-.343-.662-.186-1.003l.365-.795c.254-.554.058-1.082-.391-1.288l-2.445-1.124a.893.893 0 00-1.183.438l-.413.899c-.156.34-.509.531-.884.512a7.456 7.456 0 00-2.065.184c-.365.084-.744-.036-.96-.34l-.5-.707c-.351-.496-.908-.59-1.31-.305l-2.197 1.556a.893.893 0 00-.212 1.244l.697.983a.539.539 0 01-.003.622 7.19 7.19 0 00-.646 1.117c-.184.4-.322.808-.427 1.218a.54.54 0 01-.47.409l-1.2.111a.89.89 0 00-.805.972l.25 2.68c.045.49.48.85.97.805l.974-.09c.372-.035.712.174.884.506a7.475 7.475 0 001.207 1.688c.257.271.343.66.187 1.001l-.365.797c-.255.552-.059 1.081.388 1.287l2.447 1.124a.892.892 0 001.183-.438l.413-.9c.156-.34.51-.53.883-.512.7.035 1.395-.026 2.066-.183.365-.085.743.035.96.34l.5.707c.35.495.907.589 1.31.305l2.196-1.557a.892.892 0 00.212-1.243l-.697-.984z" fill="#9FA8B9"/></g><path fill-rule="evenodd" clip-rule="evenodd" d="M33.544 22.288l-13.463-7.773c-.693-.401-1.56.1-1.56.9v15.547c0 .8.867 1.3 1.56.9l13.463-7.772a1.04 1.04 0 000-1.802z" fill="#E0EBFF"/></svg>