<svg width="32" height="33" fill="none" xmlns="http://www.w3.org/2000/svg"><path fill-rule="evenodd" clip-rule="evenodd" d="M2.686 2.77A7.825 7.825 0 015.522.866C6.537.456 7.701.175 9.412.101 11.114.02 11.661 0 16.005 0c4.345 0 4.892.02 6.596.1 1.704.081 2.868.356 3.883.765a7.825 7.825 0 012.835 1.906c.885.912 1.431 1.838 1.841 2.918.39 1.047.663 2.247.741 4.005.078 1.758.098 2.321.098 6.803 0 4.481-.02 5.045-.098 6.802-.078 1.758-.344 2.959-.741 4.005a8.123 8.123 0 01-1.847 2.925 7.825 7.825 0 01-2.836 1.906c-1.015.402-2.179.684-3.883.764-1.704.08-2.25.101-6.595.101s-4.891-.02-6.595-.1c-1.704-.081-2.868-.356-3.883-.765a7.826 7.826 0 01-2.836-1.906A8.123 8.123 0 01.84 27.304C.449 26.258.176 25.057.098 23.3.02 21.542 0 20.978 0 16.497c0-4.482.02-5.045.098-6.803s.344-2.958.741-4.005c.41-1.08.956-2.006 1.847-2.918zm22.751.866c-.566-.228-1.411-.496-2.972-.57-1.684-.08-2.192-.094-6.465-.094s-4.78.013-6.465.094c-1.561.074-2.407.342-2.972.57A4.972 4.972 0 004.722 4.87c-.56.577-.904 1.128-1.197 1.9-.22.583-.481 1.455-.553 3.065-.071 1.737-.09 2.26-.09 6.668s.012 4.931.09 6.669c.072 1.61.332 2.482.553 3.066.293.771.638 1.321 1.197 1.898.56.577 1.093.933 1.84 1.235.566.228 1.412.496 2.973.57 1.684.074 2.192.094 6.465.094s4.78-.014 6.465-.094c1.561-.074 2.407-.342 2.972-.57a4.97 4.97 0 001.841-1.235c.56-.577.904-1.127 1.197-1.898.22-.584.481-1.456.553-3.066.071-1.738.09-2.261.09-6.669 0-4.407-.012-4.93-.09-6.668-.072-1.61-.332-2.482-.553-3.066-.293-.771-.638-1.322-1.197-1.899a4.971 4.971 0 00-1.84-1.234z" fill="url(#paint0_radial)"/><path fill-rule="evenodd" clip-rule="evenodd" d="M16.5 25A8.5 8.5 0 018 16.5C8 11.803 11.803 8 16.5 8a8.5 8.5 0 010 17zm0-2.981a5.517 5.517 0 005.519-5.519 5.517 5.517 0 00-5.519-5.519 5.517 5.517 0 00-5.519 5.519 5.517 5.517 0 005.519 5.519z" fill="url(#paint1_radial)"/><path fill-rule="evenodd" clip-rule="evenodd" d="M24 9a2 2 0 100-4 2 2 0 000 4z" fill="#654C9F"/><defs><radialGradient id="paint0_radial" cx="0" cy="0" r="1" gradientUnits="userSpaceOnUse" gradientTransform="matrix(46.20094 -2.49754 2.57514 47.63645 .582 29.979)"><stop stop-color="#FED576"/><stop offset=".263" stop-color="#F47133"/><stop offset=".609" stop-color="#BC3081"/><stop offset="1" stop-color="#4C63D2"/></radialGradient><radialGradient id="paint1_radial" cx="0" cy="0" r="1" gradientUnits="userSpaceOnUse" gradientTransform="rotate(-3 451.73 -146.916) scale(24.5827)"><stop stop-color="#FED576"/><stop offset=".263" stop-color="#F47133"/><stop offset=".609" stop-color="#BC3081"/><stop offset="1" stop-color="#4C63D2"/></radialGradient></defs></svg>