<svg width="33" height="33" fill="none" xmlns="http://www.w3.org/2000/svg"><mask id="a" maskUnits="userSpaceOnUse" x="0" y="0" width="33" height="33"><path fill-rule="evenodd" clip-rule="evenodd" d="M0 0h33v33H0V0z" fill="#fff"/></mask><g mask="url(#a)"><path fill-rule="evenodd" clip-rule="evenodd" d="M16.5 0C7.387 0 0 7.387 0 16.5c0 6.99 4.35 12.964 10.487 15.369-.144-1.306-.274-3.314.057-4.739.3-1.287 1.933-8.203 1.933-8.203s-.493-.99-.493-2.451c0-2.294 1.33-4.007 2.985-4.007 1.408 0 2.088 1.057 2.088 2.324 0 1.415-.902 3.532-1.367 5.494-.39 1.642.823 2.982 2.443 2.982 2.932 0 5.186-3.093 5.186-7.556 0-3.95-2.84-6.713-6.892-6.713-4.695 0-7.45 3.521-7.45 7.16 0 1.419.547 2.94 1.227 3.766a.492.492 0 01.114.471c-.125.522-.403 1.642-.458 1.871-.072.303-.24.367-.552.221-2.06-.959-3.347-3.972-3.347-6.392 0-5.205 3.782-9.985 10.902-9.985 5.726.006 10.174 4.085 10.174 9.536 0 5.685-3.583 10.263-8.562 10.263-1.672 0-3.244-.869-3.782-1.895 0 0-.827 3.15-1.028 3.923-.372 1.433-1.378 3.23-2.05 4.325 1.582.49 3.229.737 4.885.736C25.613 33 33 25.613 33 16.5S25.613 0 16.5 0z" fill="#BD081C"/></g></svg>