<svg width="213" height="75" fill="none" xmlns="http://www.w3.org/2000/svg"><path fill-rule="evenodd" clip-rule="evenodd" d="M0 74.087h74.088V0H0v74.087z" fill="#5FAF4B"/><path fill-rule="evenodd" clip-rule="evenodd" d="M62.532 29.882c0-2.351 0-6.31-3.247-9.451-2.057-1.98-5.501-2.722-9.393-2.722H25.507v9.05h23.038c.767 0 1.462.075 1.958.248.669.223 2.18.965 2.155 3.365v13.345c.024 2.399-1.487 3.167-2.156 3.365-.495.173-1.066.247-1.81.247H35.38V30.873h-9.873v25.482l24.385.025c3.892 0 7.336-.816 9.393-2.796 3.247-3.117 3.247-7.026 3.247-9.377V29.882z" fill="#fff"/><mask id="a" maskUnits="userSpaceOnUse" x="0" y="0" width="213" height="75"><path fill-rule="evenodd" clip-rule="evenodd" d="M0 74.088h212.486V0H0v74.088z" fill="#fff"/></mask><g mask="url(#a)" fill-rule="evenodd" clip-rule="evenodd"><path d="M11.519 56.38h9.873V30.873h-9.873V56.38zM11.519 26.76h9.873v-9.05h-9.873v9.05z" fill="#fff"/><path d="M91.486 34.69c0-1.283.183-2.384.548-3.209.366-.825.914-1.559 1.555-2.017a6.193 6.193 0 012.376-1.008c.914-.184 2.1-.276 3.38-.276h6.542c1.816 0 3.286.087 4.41.347.996.167 1.752.493 2.347.98a3.574 3.574 0 011.21 2.03c.164.771.246 1.79.246 3.055h-5.249v-.177c0-.64-.182-1.008-.639-1.283-.367-.274-1.006-.366-1.92-.372h-5.758c-1.371.006-2.376.281-2.833.83-.457.55-.732 1.632-.732 2.823v2.014c0 1.374.183 2.29.64 2.748.457.55 1.28.734 2.468.744h6.032c.64-.01.731-.01 1.097-.102s.731-.184.914-.275c.274-.183.366-.367.549-.733.09-.366.182-.732.182-1.638h5.484v2.011c0 .825-.091 1.56-.274 2.2-.183.642-.549 1.192-1.006 1.651-.457.458-1.188.825-2.01 1.1-.823.275-2.011.367-3.29.367h-8.41c-1.28 0-2.466-.092-3.38-.276a6.193 6.193 0 01-2.376-1.008c-.732-.367-1.19-1.008-1.555-1.834-.365-.917-.548-1.925-.548-3.209V34.69zM126.216 39.172l3.126-6.694 3.271 6.694h-6.397zm6.671-10.991h-7.09s-9.635 18.214-9.635 18.307l6.398.012 1.828-3.664h10.054l1.838 3.664h6.387l-9.78-18.32zM161.861 35.048c0 .733-.179 1.559-.446 1.834-.268.275-.803.459-1.516.459h-9.006v-4.58h8.561c.891 0 1.515.092 1.872.367.356.183.535.636.535 1.37v.55zm4.902 2.5c.415-.582.581-1.498.581-2.664v-1.391c0-.824-.09-1.556-.272-2.198-.183-.641-.455-1.19-.819-1.648-.365-.55-1.002-.825-1.639-1.1-.637-.274-1.547-.366-2.549-.366H145.41V46.5h5.483v-4.58h8.775c.822 0 1.462.183 1.736.548.274.365.457 1.005.457 1.918V46.5h5.483v-3.298c0-.732 0-1.374-.171-1.832-.171-.55-.342-.915-.6-1.19a3.073 3.073 0 00-.857-.641c-.342-.183-.685-.275-1.114-.367v-.291c.997-.25 1.745-.75 2.161-1.332zM198.418 38.933c0 1.142-.27 1.933-.721 2.372-.54.44-1.351.614-2.522.614h-9.552V32.76h9.552c1.171 0 2.072.176 2.522.615.451.351.721 1.142.721 2.371v3.187zm3.852-9.258c-1.088-1.027-2.994-1.495-5.714-1.495H180.14V46.5h16.416c2.72 0 4.626-.467 5.714-1.495 1.088-.934 1.632-2.616 1.632-4.857v-5.616c0-2.242-.544-3.923-1.632-4.857zM171 32.76h5.483v-4.58H171v4.58zM171 46.5h5.483V34.591H171V46.5zM208.534 29.617h.63c.228 0 .416-.049.562-.148a.451.451 0 00.22-.39c0-.216-.055-.37-.164-.46-.11-.092-.309-.14-.595-.143h-.653v1.141zm0 .622v1.563h-.698V27.86h1.301c.465 0 .832.106 1.1.318.269.211.403.512.403.901 0 .347-.174.615-.523.808.188.095.32.23.396.4.076.172.113.385.113.638 0 .254.006.432.016.538a.898.898 0 00.063.264v.075h-.718c-.04-.106-.059-.406-.059-.9 0-.235-.051-.404-.153-.508-.102-.103-.272-.155-.51-.155h-.731zm3.383-.355c0-.514-.115-.99-.347-1.432a2.72 2.72 0 00-.981-1.058 2.57 2.57 0 00-1.388-.396c-.49 0-.946.126-1.367.38a2.687 2.687 0 00-.992 1.05 3 3 0 00-.362 1.456c0 .526.12 1.011.359 1.457.239.446.569.797.99 1.056a2.58 2.58 0 001.372.387c.493 0 .952-.13 1.376-.395.425-.262.754-.617.988-1.062.235-.445.352-.927.352-1.443zm-6.001.003c0-.625.143-1.205.432-1.74a3.239 3.239 0 011.199-1.263 3.14 3.14 0 011.654-.46c.592 0 1.144.152 1.654.46.51.307.909.728 1.199 1.263.288.535.432 1.115.432 1.74 0 .63-.146 1.213-.439 1.75a3.28 3.28 0 01-1.201 1.263 3.129 3.129 0 01-1.645.46 3.113 3.113 0 01-1.654-.465 3.275 3.275 0 01-1.197-1.265 3.601 3.601 0 01-.434-1.743z" fill="#444445"/></g></svg>