<svg width="37" height="30" fill="none" xmlns="http://www.w3.org/2000/svg"><mask id="a" maskUnits="userSpaceOnUse" x="0" y="0" width="37" height="30"><path fill-rule="evenodd" clip-rule="evenodd" d="M0 0h37v30H0V0z" fill="#fff"/></mask><g mask="url(#a)"><path fill-rule="evenodd" clip-rule="evenodd" d="M11.633 30c13.965 0 21.602-11.54 21.602-21.55 0-.325 0-.656-.024-.98A15.41 15.41 0 0037 3.547a15.095 15.095 0 01-4.363 1.193A7.595 7.595 0 0035.976.554a15.211 15.211 0 01-4.819 1.836c-2.871-3.053-7.684-3.2-10.739-.33a7.57 7.57 0 00-2.196 7.24A21.581 21.581 0 012.575 1.386a7.57 7.57 0 002.35 10.111 7.567 7.567 0 01-3.445-.945v.095a7.574 7.574 0 006.092 7.423 7.556 7.556 0 01-3.428.13 7.606 7.606 0 007.092 5.262A15.254 15.254 0 010 26.598a21.537 21.537 0 0011.633 3.396" fill="#1DA1F2"/></g></svg>