<svg width="40" height="28" fill="none" xmlns="http://www.w3.org/2000/svg"><mask id="a" maskUnits="userSpaceOnUse" x="0" y="0" width="40" height="28"><path fill-rule="evenodd" clip-rule="evenodd" d="M0 0h40v28H0V0z" fill="#fff"/></mask><g mask="url(#a)"><path fill-rule="evenodd" clip-rule="evenodd" d="M15.91 19.905V8.095L26.367 14 15.91 19.905zM39.169 4.373A5 5 0 0035.633.838C32.513 0 20 0 20 0S7.488 0 4.373.838A5 5 0 00.837 4.373C0 7.492 0 14 0 14s0 6.51.837 9.627a5 5 0 003.536 3.535C7.494 28 20 28 20 28s12.512 0 15.633-.838a5 5 0 003.536-3.535C40 20.509 40 14 40 14s0-6.51-.831-9.627z" fill="red"/></g></svg>