<svg xmlns="http://www.w3.org/2000/svg" width="96" height="64"><style>.st0{fill:#e9941a}.st2{fill:#fff}</style><circle class="st0" cx="48" cy="24" r="17.5"/><path d="M21.3 54.4h-2.8L18 56h-1.3l2.7-7.1h1.1l2.7 7.1h-1.3l-.6-1.6zm-2.4-1H21l-1-2.9-1.1 2.9zm6.4 0V56H24v-7.1h2.7c.8 0 1.4.2 1.9.6.5.4.7 1 .7 1.6 0 .7-.2 1.2-.7 1.6-.5.4-1.1.6-1.9.6h-1.4v.1zm0-1h1.5c.4 0 .8-.1 1-.3s.3-.5.3-.9-.1-.7-.4-.9c-.2-.2-.6-.3-1-.4h-1.5v2.5h.1zm6.3 1V56h-1.2v-7.1h2.7c.8 0 1.4.2 1.9.6.5.4.7 1 .7 1.6 0 .7-.2 1.2-.7 1.6-.5.4-1.1.6-1.9.6h-1.5v.1zm0-1h1.5c.4 0 .8-.1 1-.3s.3-.5.3-.9-.1-.7-.4-.9c-.2-.2-.6-.3-1-.4h-1.5v2.5h.1zM38 55h3.2v1h-4.5v-7.1H38V55zm5.5 1h-1.2v-7.1h1.2V56zm7-2.3c-.1.8-.4 1.3-.8 1.8-.5.4-1.1.6-1.9.6-.6 0-1.1-.1-1.5-.4-.4-.3-.8-.7-1-1.1s-.4-1.1-.4-1.7v-.7c0-.7.1-1.3.4-1.8s.6-.9 1-1.2 1-.4 1.5-.4c.8 0 1.4.2 1.9.6.5.4.8 1 .8 1.8h-1.2c-.1-.5-.2-.9-.4-1.1-.2-.2-.6-.3-1.1-.3s-1 .2-1.2.6-.4 1-.4 1.7v.6c0 .8.1 1.4.4 1.8.3.4.7.6 1.2.6s.8-.1 1.1-.3.4-.6.5-1.1h1.1zm5 .7h-2.8l-.5 1.6h-1.3l2.7-7.1h1.1l2.7 7.1h-1.3l-.6-1.6zm-2.4-1h2.1l-1-2.9-1.1 2.9zm9.7-3.5h-2.2V56h-1.2v-6.1h-2.2v-1h5.6v1zM65 56h-1.2v-7.1H65V56zm7.2-3.4c0 .7-.1 1.3-.4 1.8-.2.5-.6.9-1 1.2s-1 .4-1.5.4c-.6 0-1.1-.1-1.5-.4-.5-.3-.8-.7-1-1.2s-.4-1.1-.4-1.8v-.4c0-.7.1-1.3.4-1.8.2-.5.6-.9 1-1.2s1-.4 1.5-.4 1.1.1 1.5.4c.4.3.8.7 1 1.2s.4 1.1.4 1.8v.4zm-1.2-.3c0-.8-.1-1.4-.4-1.8s-.7-.6-1.3-.6c-.5 0-1 .2-1.3.6-.3.4-.5 1-.5 1.8v.4c0 .8.2 1.4.5 1.8.3.4.7.6 1.3.6.5 0 1-.2 1.3-.6.3-.4.4-1 .4-1.8v-.4zm8.1 3.7h-1.2l-3.2-5v5h-1.2v-7.1h1.2l3.2 5.1v-5.1h1.2V56z" fill="#787878"/><path class="st2" d="M51.6 12.6v-.1H39.7c-.4 0-.7.3-.7.7v21.4c0 .4.3.7.7.7h16.6c.4 0 .7-.3.7-.7V17.8h-5.4v-5.2z"/><path class="st2" d="M52.6 12.4v4.5H57"/><path class="st0" d="M45.3 20.3h9.4v.6h-9.4v-.6zm0 3.4h9.4v.6h-9.4v-.6zm0 3.4h9.4v.6h-9.4v-.6zm-4-6.9h.7v.7h-.7v-.7zm.7.7h.7v.7H42v-.7zm.7-.7h.7v.7h-.7v-.7zm.7-.7h.7v.7h-.7v-.7zm-2.1 4.1h.7v.7h-.7v-.7zm.7.7h.7v.7H42v-.7zm.7-.7h.7v.7h-.7v-.7zm.7-.7h.7v.7h-.7v-.7zm-2.1 3.5h.7v.7h-.7v-.7zm.7.7h.7v.7H42v-.7zm.7-.7h.7v.7h-.7v-.7zm0 1.4h.7v.7h-.7v-.7zm-1.4 0h.7v.7h-.7v-.7z"/></svg>