<svg xmlns="http://www.w3.org/2000/svg" width="132" height="26"><path d="M127 25H5c-2.2 0-4-1.8-4-4V5c0-2.2 1.8-4 4-4h122c2.2 0 4 1.8 4 4v16c0 2.2-1.8 4-4 4z" fill="#fff"/><path d="M54.5 14.8h-2.8l-.6 1.7h-1.3l2.7-7.1h1.1l2.7 7.1H55l-.5-1.7zm-2.4-1h2.1l-1-2.9-1.1 2.9zm6.4.1v2.6h-1.2V9.4H60c.8 0 1.4.2 1.9.6.5.4.7 1 .7 1.6 0 .7-.2 1.2-.7 1.6s-1.1.6-1.9.6l-1.5.1zm0-1H60c.4 0 .8-.1 1-.3s.3-.5.3-.9-.1-.7-.4-.9-.6-.3-1-.4h-1.5v2.5h.1zm6.5 1v2.6h-1.2V9.4h2.7c.8 0 1.4.2 1.9.6.5.4.7 1 .7 1.6 0 .7-.2 1.2-.7 1.6s-1.1.6-1.9.6l-1.5.1zm0-1h1.5c.4 0 .8-.1 1-.3s.3-.5.3-.9-.1-.7-.4-.9-.6-.3-1-.4H65v2.5zm6.5 2.6h3.2v1h-4.5V9.4h1.2v6.1h.1zm5.6 1h-1.2V9.4h1.2v7.1zm7-2.3c-.1.8-.4 1.4-.8 1.8s-1.1.6-1.9.6c-.6 0-1.1-.1-1.5-.4s-.8-.7-1-1.1-.4-1.1-.4-1.7v-.7c0-.7.1-1.3.4-1.8s.6-.9 1-1.2 1-.4 1.5-.4c.8 0 1.4.2 1.9.6s.8 1 .8 1.8h-1.2c-.1-.5-.2-.9-.4-1.1s-.6-.3-1.1-.3-.9.2-1.2.6-.4 1-.4 1.7v.6c0 .8.1 1.4.4 1.8.3.4.7.6 1.2.6s.8-.1 1.1-.3.4-.6.5-1.1h1.1zm5.2.6h-2.8l-.5 1.7h-1.3l2.7-7.1h1.1l2.7 7.1h-1.3l-.6-1.7zm-2.4-1H89l-1-2.9-1.1 2.9zm9.8-3.4h-2.2v6.1h-1.2v-6.1H91v-1h5.6l.1 1zm2.3 6.1h-1.2V9.4H99v7.1zm7.3-3.4c0 .7-.1 1.3-.4 1.8s-.6.9-1 1.2c-.4.3-1 .4-1.5.4-.6 0-1.1-.1-1.5-.4s-.8-.7-1-1.2-.4-1.1-.4-1.8v-.4c0-.7.1-1.3.4-1.8s.6-.9 1-1.2 1-.4 1.5-.4 1.1.1 1.5.4.8.7 1 1.2.4 1.1.4 1.8v.4zm-1.2-.3c0-.8-.1-1.4-.4-1.8s-.7-.6-1.3-.6c-.5 0-1 .2-1.3.6s-.5 1-.5 1.8v.4c0 .8.2 1.4.5 1.8s.7.6 1.3.6c.5 0 1-.2 1.3-.6s.4-1 .4-1.8v-.4zm8.2 3.7H112l-3.2-5v5h-1.2V9.4h1.2l3.2 5.1V9.4h1.2v7.1h.1z" fill="#787878"/><path d="m21.5 10.2-6 6.1L12 13m19.2-2.8-6 6.1m0-6.1 6 6.1" fill="none" stroke="#f29611" stroke-width="2" stroke-linecap="round" stroke-linejoin="round" stroke-miterlimit="10"/></svg>