<svg xmlns="http://www.w3.org/2000/svg" width="132" height="26"><path d="M127 25H5c-2.2 0-4-1.8-4-4V5c0-2.2 1.8-4 4-4h122c2.2 0 4 1.8 4 4v16c0 2.2-1.8 4-4 4z" fill="#fff"/><path d="M53 16.6V9.5h2.4c.8 0 1.4.2 1.8.5s.6.8.6 1.4c0 .3-.1.6-.3.9s-.4.5-.8.6c.4.1.7.3.9.6s.3.6.3 1c0 .7-.2 1.2-.6 1.5-.4.4-1 .5-1.8.5H53v.1zm1.2-4.2h1.2c.4 0 .7-.1.9-.3s.3-.4.3-.7c0-.4-.1-.6-.3-.8s-.5-.2-.9-.2h-1.2v2zm0 1v2.2h1.4c.4 0 .7-.1.9-.3s.3-.5.3-.8c0-.7-.4-1.1-1.1-1.1h-1.5zm9.1 1.5h-2.8l-.5 1.7h-1.3l2.7-7.1h1.1l2.7 7.1h-1.3l-.6-1.7zm-2.4-1H63L62 11l-1.1 2.9zm6.5 1.7h3.2v1h-4.5V9.5h1.2v6.1h.1zm8.3-.7h-2.8l-.6 1.7H71l2.7-7.1h1.1l2.7 7.1h-1.3l-.5-1.7zm-2.4-1h2.1l-1-2.9-1.1 2.9zm10.8 2.7h-1.2l-3.2-5v5h-1.2V9.5h1.2l3.2 5.1V9.5h1.2v7.1zm7-2.4c-.1.8-.3 1.4-.8 1.8s-1.1.6-1.9.6c-.6 0-1.1-.1-1.5-.4-.4-.3-.8-.7-1-1.1s-.4-1.1-.4-1.7v-.7c0-.7.1-1.3.4-1.8.2-.5.6-.9 1-1.2s1-.4 1.5-.4c.8 0 1.4.2 1.9.6s.8 1 .8 1.8h-1.2c-.1-.5-.2-.9-.4-1.1s-.6-.3-1.1-.3-1 .2-1.2.6-.4 1-.4 1.7v.6c0 .8.1 1.4.4 1.8.3.4.7.6 1.2.6s.8-.1 1.1-.3.4-.6.5-1.1h1.1zm2.5 2.4h-1.2V9.5h1.2v7.1zm7.3 0h-1.2l-3.2-5v5h-1.2V9.5h1.2l3.2 5.1V9.5h1.2v7.1zm7-1c-.3.3-.6.6-1.1.8-.5.2-1 .3-1.6.3s-1.1-.1-1.6-.4-.8-.7-1.1-1.2-.4-1.1-.4-1.8v-.6c0-1.1.3-1.9.8-2.5s1.2-.9 2.2-.9c.8 0 1.4.2 1.9.6.5.4.7 1 .8 1.7h-1.2c-.1-.9-.6-1.3-1.5-1.3-.6 0-1 .2-1.3.6s-.4 1-.4 1.8v.5c0 .8.2 1.4.5 1.8.3.4.8.6 1.4.6s1.1-.1 1.3-.4v-1.4h-1.5v-.9h2.7l.1 2.7z" fill="#787878"/><path d="M28.1 12 17.4 5.8c-.6-.4-1.4.1-1.4.8V19c0 .7.8 1.2 1.4.8l10.7-6.2c.6-.4.6-1.3 0-1.6z" fill="#8edc00"/></svg>