<svg xmlns="http://www.w3.org/2000/svg" width="96" height="64"><style>.st1{fill:#fff}</style><circle cx="48" cy="24" r="17.5" fill="#f15b4d"/><path class="st1" d="M38.3 26.8h4.8v6.3h-4.8v-6.3zm6.6-3.5h4.8v9.8h-4.8v-9.8z"/><path class="st1" d="m54.1 13.5-5.2 6.9h2.8v12.7h5V20.4h3"/><path d="M26.5 56v-7.1h2.4c.8 0 1.4.2 1.8.5s.6.8.6 1.4c0 .3-.1.6-.3.9s-.4.5-.8.6c.4.1.7.3.9.6.2.3.3.6.3 1 0 .7-.2 1.2-.6 1.5-.4.4-1 .5-1.8.5l-2.5.1zm1.2-4.1h1.2c.4 0 .7-.1.9-.3.2-.2.3-.4.3-.7 0-.4-.1-.6-.3-.8s-.5-.2-.9-.2h-1.2v2zm0 .9V55h1.4c.4 0 .7-.1.9-.3.2-.2.3-.5.3-.8 0-.7-.4-1.1-1.1-1.1h-1.5zm9.3 0h-3V55h3.4v1h-4.6v-7.1h4.6v1H34v2h3v.9zm7.1 3.2h-1.2l-3.2-5v5h-1.2v-7.1h1.2l3.2 5.1v-5.1h1.2V56zm5.6-3.2h-2.9V55h3.4v1h-4.6v-7.1h4.6v1h-3.4v2h2.9v.9zm5.6.2h-2.9v3h-1.2v-7.1h4.5v1h-3.3V52h2.9v1zm2.7 3h-1.2v-7.1H58V56zm6.5-6.1h-2.2V56h-1.2v-6.1h-2.2v-1h5.6v1zm4.6 4.3c0-.3-.1-.6-.3-.7s-.6-.3-1.2-.5-1-.4-1.4-.6c-.6-.4-1-.9-1-1.6 0-.6.2-1 .7-1.4s1.1-.6 1.8-.6c.5 0 .9.1 1.3.3s.7.4.9.8c.2.3.3.7.3 1.1H69c0-.4-.1-.7-.3-.9-.2-.2-.6-.3-1-.3s-.7.1-.9.3c-.2.2-.3.4-.3.7s.1.5.4.6c.2.2.6.3 1.2.5s1 .3 1.3.6c.3.2.6.5.7.7.2.3.2.6.2 1 0 .6-.2 1.1-.7 1.4-.5.4-1.1.5-1.8.5-.5 0-1-.1-1.4-.3s-.8-.5-1-.8-.4-.7-.4-1.1h1.2c0 .4.1.7.4.9s.6.3 1.1.3c.4 0 .8-.1 1-.3.3-.1.4-.3.4-.6z" fill="#787878"/></svg>