<svg xmlns="http://www.w3.org/2000/svg" width="132" height="26"><path d="M127 25H5c-2.2 0-4-1.8-4-4V5c0-2.2 1.8-4 4-4h122c2.2 0 4 1.8 4 4v16c0 2.2-1.8 4-4 4z" fill="#fff"/><path d="M59.7 16.5V9.4h2.4c.8 0 1.4.2 1.8.5.4.3.6.8.6 1.4 0 .3-.1.6-.3.9-.2.3-.4.5-.8.6.4.1.7.3.9.6s.3.6.3 1c0 .7-.2 1.2-.6 1.5-.4.3-1 .5-1.8.5h-2.5v.1zm1.3-4.1h1.2c.4 0 .7-.1.9-.3s.3-.4.3-.7c0-.4-.1-.6-.3-.8s-.5-.2-.9-.2H61v2zm0 .9v2.2h1.4c.4 0 .7-.1.9-.3s.3-.5.3-.8c0-.7-.4-1.1-1.1-1.1H61zm9.3 0h-2.9v2.2h3.4v1h-4.6V9.4h4.6v1h-3.4v2h2.9v.9zm7.2 3.2h-1.2l-3.2-5v5h-1.2V9.4h1.2l3.2 5.1V9.4h1.2v7.1zm5.8-3.2h-2.9v2.2h3.4v1h-4.6V9.4h4.6v1h-3.4v2h2.9v.9zm5.7.2h-2.9v3h-1.2V9.4h4.5v1h-3.3v2.1H89v1zm2.8 3h-1.2V9.4h1.2v7.1zm6.6-6.1h-2.2v6.1H95v-6.1h-2.2v-1h5.6v1zm4.6 4.3c0-.3-.1-.6-.3-.7s-.6-.3-1.2-.5-1-.4-1.4-.6c-.6-.4-1-.9-1-1.6 0-.6.2-1 .7-1.4s1.1-.6 1.8-.6c.5 0 .9.1 1.3.3s.7.4.9.8.3.7.3 1.1H103c0-.4-.1-.7-.3-.9s-.6-.3-1-.3-.7.1-.9.3-.3.4-.3.7.1.5.4.7.6.3 1.2.5 1 .4 1.3.6.6.5.7.7.2.6.2 1c0 .6-.2 1.1-.7 1.4-.5.3-1.1.5-1.8.5-.5 0-1-.1-1.4-.3s-.8-.5-1-.8-.4-.8-.4-1.2h1.2c0 .4.1.7.4.9s.6.3 1.1.3c.4 0 .8-.1 1-.3s.3-.3.3-.6z" fill="#787878"/><path d="M17.6 15h-4.3c-.2 0-.4.2-.4.4v4.3c0 .2.2.4.4.4h4.3c.2 0 .4-.2.4-.4v-4.3c0-.2-.2-.4-.4-.4zm5.9-4h-4c-.3 0-.5.2-.5.5v8c0 .3.2.5.5.5h4c.3 0 .5-.2.5-.5v-8c0-.3-.2-.5-.5-.5zm8.5-1-4.2-5.6c-.2-.2-.5-.2-.7 0L23 10h2v9.4c0 .3.3.6.6.6h3.9c.3 0 .6-.3.6-.6V10H32z" fill="#f15b4d"/></svg>