<svg xmlns="http://www.w3.org/2000/svg" xml:space="preserve" viewBox="0 0 148 22"><path d="M1.79 3.06h16.25c2.08 0 3.21.19 4.16.65 1.46.76 2.05 1.97 2.05 4.26 0 2.35-.81 3.56-2.51 3.89 2.43.46 3.24 1.51 3.24 4.13 0 2.27-.65 3.7-2.08 4.45-.84.43-2.02.62-4.1.62H1.79v-18zm14.55 7.18c1.05 0 1.43-.05 1.78-.22.43-.24.7-.73.7-1.35 0-.73-.35-1.27-.95-1.48-.35-.11-.62-.13-1.67-.13H7.14v3.18h9.2zm.6 6.83c1.11 0 1.32-.03 1.67-.13.54-.19.86-.73.86-1.48 0-.78-.32-1.32-.92-1.54-.32-.11-.54-.13-1.75-.13H7.14v3.29h9.8zM48.79 3.14c2.78.51 4.13 1.94 4.51 4.83.11.73.16 2.19.16 4.37 0 4.35-.46 6.1-2 7.37-1.08.92-2.59 1.35-5.21 1.46-.97.05-3.37.08-5.13.08-4.29 0-6.48-.08-7.56-.3-2-.35-3.16-1.11-3.83-2.43-.7-1.32-.86-2.65-.86-6.59 0-3.02.05-3.78.38-4.99.51-1.92 1.57-2.94 3.59-3.54 1.51-.43 3.16-.54 7.91-.54 5.18.01 6.78.06 8.04.28zM35.35 7.92c-.73.57-.94 1.46-.94 4.05 0 2.65.22 3.62.89 4.18.73.59 1.62.7 5.75.7 4.72 0 5.7-.16 6.32-1.03.51-.65.65-1.57.65-3.97 0-4.54-.08-4.59-6.83-4.59-4.03.01-5.14.14-5.84.66zm30.19-4.86h7.34l9.85 18h-5.99l-1.78-3.21H63.35l-1.73 3.21h-6.21l10.13-18zm7.5 11.04-3.89-7.18-3.83 7.18h7.72zm16.42-6.59h-8.02V3.06h21.51v4.45h-8.02v13.55h-5.48V7.51zm16.53-4.45h4.64v3.37h-4.64V3.06zm0 5.4h4.64v12.61h-4.64V8.46zm8.99-5.4h15.55c3.81 0 5.59.43 6.83 1.67 1 .97 1.4 2.11 1.59 4.4.05.84.11 2.08.11 2.94 0 1.62-.11 3.48-.27 4.51-.3 2.16-1.81 3.83-3.78 4.21-1.03.22-1.84.27-3.75.27h-16.28v-18zm14.65 13.71c1.49 0 1.59 0 2.24-.22 1.32-.41 1.67-1.35 1.67-4.45 0-3.78-.65-4.56-3.81-4.56h-9.29v9.23h9.19zm11.32-12.83c0-.63.14-1.21.43-1.74s.69-.96 1.2-1.27 1.07-.46 1.66-.46c.59 0 1.15.15 1.66.46.51.31.91.73 1.2 1.27s.43 1.12.43 1.74c0 .61-.14 1.18-.42 1.71s-.67.96-1.19 1.28-1.08.49-1.69.49c-.61 0-1.17-.16-1.68-.48s-.91-.75-1.19-1.28-.41-1.1-.41-1.72zm.54 0c0 .53.12 1.02.37 1.48.25.45.58.81 1.01 1.06.43.26.89.39 1.38.39.5 0 .96-.13 1.39-.39.43-.26.76-.62 1.01-1.06.24-.45.36-.94.36-1.47s-.12-1.02-.36-1.46c-.24-.45-.58-.8-1.01-1.06a2.63 2.63 0 0 0-1.39-.39c-.5 0-.96.13-1.38.38-.43.26-.76.61-1.01 1.06-.25.45-.37.94-.37 1.46zm2.08.35v1.57h-.65V1.92h1.28c.47 0 .84.1 1.1.3s.39.5.39.88-.2.67-.59.87c.38.15.57.47.57.95v.28c0 .27.03.46.08.58v.07h-.67c-.04-.11-.07-.31-.07-.6s0-.46-.01-.51c-.05-.3-.25-.45-.61-.46h-.82zm0-.59h.72c.22-.01.4-.06.54-.16s.2-.24.2-.4c0-.23-.06-.38-.18-.48-.12-.09-.34-.14-.65-.14h-.64V3.7z" fill="#444445"/></svg>