<svg xmlns="http://www.w3.org/2000/svg" width="132" height="26"><path d="M127 25H5c-2.2 0-4-1.8-4-4V5c0-2.2 1.8-4 4-4h122c2.2 0 4 1.8 4 4v16c0 2.2-1.8 4-4 4z" fill="#fff"/><path d="M64.6 14.2c-.1.8-.4 1.4-.8 1.8-.4.4-1.1.6-1.9.6-.6 0-1.1-.1-1.5-.4s-.8-.7-1-1.1-.4-1.1-.4-1.7v-.7c0-.7.1-1.3.4-1.8s.6-.9 1-1.2 1-.4 1.5-.4c.8 0 1.4.2 1.9.6s.8 1 .8 1.8h-1.2c-.1-.5-.2-.9-.4-1.1s-.6-.3-1.1-.3-.9.2-1.2.6-.4 1-.4 1.7v.6c0 .8.1 1.4.4 1.8.3.4.7.6 1.2.6s.8-.1 1.1-.3.4-.6.5-1.1h1.1zm5.2.6H67l-.6 1.7h-1.3l2.7-7.1h1.1l2.7 7.1h-1.3l-.5-1.7zm-2.4-1h2.1l-1-2.9-1.1 2.9zm9.7-3.4h-2.2v6.1h-1.2v-6.1h-2.2v-1h5.6v1zm4.4 4.4h-2.8l-.6 1.7h-1.3l2.7-7.1h1.1l2.7 7.1H82l-.5-1.7zm-2.4-1h2.1l-1-2.9-1.1 2.9zm6.4 1.7h3.2v1h-4.5V9.4h1.2v6.1h.1zm9.7-2.4c0 .7-.1 1.3-.4 1.8-.2.5-.6.9-1 1.2-.4.3-1 .4-1.5.4-.6 0-1.1-.1-1.5-.4-.5-.3-.8-.7-1-1.2s-.4-1.1-.4-1.8v-.4c0-.7.1-1.3.4-1.8.2-.5.6-.9 1-1.2s1-.4 1.5-.4c.6 0 1.1.1 1.5.4.4.3.8.7 1 1.2s.4 1.1.4 1.8v.4zm-1.3-.3c0-.8-.1-1.4-.4-1.8s-.7-.6-1.3-.6c-.5 0-1 .2-1.3.6-.3.4-.5 1-.5 1.8v.4c0 .8.2 1.4.5 1.8.3.4.7.6 1.3.6.5 0 1-.2 1.3-.6.3-.4.4-1 .4-1.8v-.4zm8 2.8c-.3.3-.6.6-1.1.8-.5.2-1 .3-1.6.3s-1.1-.1-1.6-.4-.8-.7-1.1-1.2-.4-1.1-.4-1.8v-.6c0-1.1.3-1.9.8-2.5s1.2-.9 2.2-.9c.8 0 1.4.2 1.9.6.5.4.7 1 .8 1.7h-1.2c-.1-.9-.6-1.3-1.5-1.3-.6 0-1 .2-1.3.6s-.4 1-.4 1.8v.5c0 .8.2 1.4.5 1.8.3.4.8.6 1.4.6s1.1-.1 1.3-.4v-1.4h-1.5v-.9h2.7l.1 2.7z" fill="#787878"/><path d="m22.1 19.9-7-2.6V6.8l7 2.6v10.5zm0 0 7-2.6V6.8l-7 2.6v10.5z" fill="none" stroke="#62c6c1" stroke-width="2" stroke-linecap="round" stroke-linejoin="round" stroke-miterlimit="10"/></svg>