<svg xmlns="http://www.w3.org/2000/svg" width="96" height="64"><style>.st1,.st2{stroke:#1a1a1a;stroke-width:.1;stroke-miterlimit:10}.st1{fill-rule:evenodd;clip-rule:evenodd;fill:#666}.st2{fill:none}.st5,.st6{fill-rule:evenodd;clip-rule:evenodd;fill:#fff}.st6{opacity:.24;fill:gray;stroke:#1a1a1a;enable-background:new}.st6,.st7,.st8{stroke-width:.1;stroke-miterlimit:10}.st7{opacity:.24;fill:none;stroke:#1a1a1a;enable-background:new}.st8{fill-rule:evenodd;clip-rule:evenodd;fill:#fff;stroke:#999}.st10,.st9{opacity:.24;enable-background:new}.st9{fill:none;stroke:#cdcfd0;stroke-width:.1;stroke-miterlimit:10}.st10{fill-rule:evenodd;clip-rule:evenodd;fill:#fff}</style><path d="M17.6 53.7c-.1.8-.4 1.3-.8 1.8-.5.4-1.1.6-1.9.6-.6 0-1.1-.1-1.5-.4-.4-.3-.8-.7-1-1.1s-.4-1.1-.4-1.7v-.7c0-.7.1-1.3.4-1.8.2-.5.6-.9 1-1.2s1-.4 1.5-.4c.8 0 1.4.2 1.9.6.5.4.8 1 .8 1.8h-1.2c-.1-.5-.2-.9-.4-1.1-.2-.2-.6-.3-1.1-.3s-1 .2-1.2.6c-.3.4-.4 1-.4 1.7v.6c0 .8.1 1.4.4 1.8.3.4.7.6 1.2.6s.8-.1 1.1-.3c.3-.2.4-.6.5-1.1h1.1zm6.8-1.1c0 .7-.1 1.3-.4 1.8-.2.5-.6.9-1 1.2s-1 .4-1.5.4c-.6 0-1.1-.1-1.5-.4-.4-.3-.8-.7-1-1.2s-.4-1.1-.4-1.8v-.4c0-.7.1-1.3.4-1.8s.6-.9 1-1.2 1-.4 1.5-.4c.6 0 1.1.1 1.5.4.4.3.8.7 1 1.2s.4 1.1.4 1.8v.4zm-1.3-.3c0-.8-.2-1.4-.4-1.8-.3-.4-.7-.6-1.3-.6-.5 0-1 .2-1.3.6-.3.4-.5 1-.5 1.8v.4c0 .8.2 1.4.5 1.8.3.4.7.6 1.3.6.5 0 1-.2 1.3-.6.3-.4.4-1 .4-1.8v-.4zm8.1 3.7H30l-3.2-5v5h-1.2v-7.1h1.2L30 54v-5.1h1.2V56zm5.6-3h-2.9v3h-1.2v-7.1h4.5v1h-3.3V52h2.9v1zm2.7 3h-1.2v-7.1h1.2V56zm7-.9c-.3.3-.6.6-1.1.8s-1 .3-1.6.3-1.1-.1-1.6-.4-.8-.7-1.1-1.2c-.2-.5-.4-1.1-.4-1.8v-.6c0-1.1.3-1.9.8-2.5s1.2-.9 2.2-.9c.8 0 1.4.2 1.9.6.5.4.7 1 .8 1.7h-1.2c-.1-.9-.6-1.3-1.5-1.3-.6 0-1 .2-1.3.6-.3.4-.4 1-.4 1.8v.5c0 .8.2 1.4.5 1.8.3.4.8.6 1.4.6.6 0 1.1-.1 1.3-.4v-1.4h-1.5v-.9h2.7l.1 2.7zm6.5-6.2v4.8c0 .8-.2 1.4-.7 1.8-.5.4-1.1.7-1.9.7-.8 0-1.5-.2-1.9-.7-.5-.4-.7-1-.7-1.8V49H49v4.7c0 .5.1.8.4 1.1.2.3.6.4 1.1.4 1 0 1.4-.5 1.4-1.5V49l1.1-.1zm4 4.4h-1.4V56h-1.2v-7.1h2.5c.8 0 1.5.2 1.9.6.4.4.7.9.7 1.6 0 .5-.1.9-.3 1.2s-.5.6-1 .7l1.6 3h-1.3L57 53.3zm-1.4-1h1.3c.4 0 .7-.1 1-.3.2-.2.4-.5.4-.9s-.1-.7-.3-.9-.5-.3-1-.3h-1.3v2.4h-.1zm9 2.1h-2.8l-.6 1.6h-1.3l2.7-7.1h1.1l2.7 7.1h-1.3l-.5-1.6zm-2.4-1h2.1l-1-2.9-1.1 2.9zm9.6-3.5h-2.2V56h-1.2v-6.1h-2.2v-1h5.6v1zm6.5 2.7c0 .7-.1 1.3-.4 1.8-.2.5-.6.9-1 1.2s-1 .4-1.5.4c-.6 0-1.1-.1-1.5-.4-.5-.3-.8-.7-1-1.2s-.4-1.1-.4-1.8v-.4c0-.7.1-1.3.4-1.8.2-.5.6-.9 1-1.2s1-.4 1.5-.4c.6 0 1.1.1 1.5.4.4.3.8.7 1 1.2s.4 1.1.4 1.8v.4zm-1.3-.3c0-.8-.1-1.4-.4-1.8-.3-.4-.7-.6-1.3-.6-.5 0-1 .2-1.3.6-.3.4-.5 1-.5 1.8v.4c0 .8.2 1.4.5 1.8s.7.6 1.3.6c.5 0 1-.2 1.3-.6s.4-1 .4-1.8v-.4zm5.1 1h-1.4V56h-1.2v-7.1H82c.8 0 1.5.2 1.9.6.4.4.7.9.7 1.6 0 .5-.1.9-.3 1.2-.2.3-.5.6-1 .7l1.6 3h-1.3l-1.5-2.7zm-1.4-1H82c.4 0 .7-.1 1-.3.2-.2.4-.5.4-.9s-.1-.7-.3-.9-.5-.3-1-.3h-1.3l-.1 2.4z" fill="#787878"/><path class="st1" d="M46.1 36.7c1.7 1.2 3.6 2 5.7 2 6.2 0 11.2-6.2 11.3-13.8C63.2 17.2 58.2 11 52 11c-2 0-3.8.6-5.4 1.7-.7-.2-1.5-.2-2.3-.2-5.8.3-10.3 5.9-10.1 12.7.2 6.7 5 11.9 10.8 11.6h.6c.1-.1.5-.1.5-.1z"/><path class="st2" d="M45.6 36.2h-.7c-5.6 0-10.1-5.2-10-11.6C34.9 18.2 39.4 13 45 13c.4 0 .7 0 1.1.1"/><path class="st1" d="M51.8 11.1C58 11.1 63 17.3 62.9 25s-5.1 13.8-11.3 13.8S40.4 32.6 40.5 25c.1-7.7 5.2-13.9 11.3-13.9z"/><path class="st2" d="M45 36.8c-5.8.3-10.6-4.9-10.8-11.6s4.3-12.4 10.1-12.7c.8 0 1.6 0 2.3.2"/><path class="st2" d="m53.3 21.2.1.1c.5.4 1.1.2 1.1.2s2.1-.7 4-1.4c1.1-.4 2.2-.8 2.8-1 .1 0 .2-.1.2-.2.1-.1.1-.3.1-.3-2.6-6.3-7.5-7.1-8-7.2-.4-.1-.4.4-.4.4v2.4m-11 9.4c1.8.7 3.3 1.4 4 1.7.3.1.4.2.4.2.2 1.1.7 1.7.7 1.7v.3c-.5 2.9-1.5 5.7-1.8 6.3-.1.1-.1.2-.2.3m8.3-9.4s2.1-.9 3.4-1.4c1.4-.6 2.9-1.2 4-1.7.1 0 .3-.1.3-.1s.1 0 .2-.1c.3-.2.7-.5.6-1.1-.2-.9-.9-.7-1.2-.6"/><path class="st2" d="M53.4 14.2s0 3-.4 6c0 0 0 .7.3.9 0 0 .1.1.4.1 0 0 1.2-.4 2.3-.8.9-.3 1.7-.6 1.7-.6m-9.6 16.8s1-2.1 1.8-4c.5-1.3.9-2.5 1-2.7.2-.6.3-.7.3-.7.4.1.8.4.8.4 2 1.8 3.6 3.5 3.6 3.5l1 1s.1 0 .2.3c.2.3-.1.2-.1.2l-.2-.1c-.2-.1-.4-.3-.5-.2m1.7-14.4 2.1-.7s-.4.1-.8.1m-3.9 4.2c.3.1.5 0 .5 0s.9-.3 2.9-1.1c.4-.2 1.2-.5 1.8-.8.8-.3 1-.7.8-1.1 0 0-.1-.2-.4-.3-.2 0-.4 0-.8.1h-.1L58 21l-2.5 1s-1 .2-.8 1c0 0 0 .4.4.5l3.2-1.2 1.4-.6c.2-.1.3-.1.5-.2.3-.1-.5.1-.5.1s.5-.1.5-.6c-.1-.5-.2-.6-.6-.6m-1.1 3.1 1.9-.9"/><path class="st1" d="M57.5 29.8s.6.7 1.3 1.8"/><path class="st2" d="M50.5 19.8c-.1.9-.3 1.5-.3 1.6 0 .2-.2.3-.2.5s.1.7.8.7 1-.7 1.1-.8c0-.1.2-.2.4-.4.1-.1.1-.2.1-.2.6-3.6.6-7.2.6-8.7v-.1c0-1.1-.8-1.1-.8-1.1h-.1s-.8-.1-.9 1v.9m-9.7 7.6c.3-.7 1.1-.4 1-.4.7.2 2.1.7 3.3 1.1 1.7.6 3.1 1.1 3.1 1.1v.3s.4.4.4 1.1-.4 1-.8 1.2h-.1s-2-.9-4-1.6c-.8-.3-1.7-.6-2.4-.9h-.1c-.8-.3-.6-1.1-.6-1.1l.2-.8zm9-9.4s.5-.1.5.5c0 1.4-.2 4.3-.9 8 0 0-.1.5-.2.9-.1.3-.3.6-.5.8-.4.4-.7.4-1.2.2-.2-.1-1.5-.5-2.8-.9-1.1-.3-2.2-.7-3.1-.9h-.1c-.5-.1-.3-.6-.3-.6s2.2-6.8 8.6-8zm-1.9 17.4c.2-.6.3-1.2.4-1.8v-.1s-.1-.3 0-.3c0-.1.2-.2.6-.2.3 0 1.2.3 1.1 1.4 0 0 0 .1.1.2s.2.3.2.4-.8 2.5-1.7 4.7c-.5 1.2-1 2.4-1.4 3.2-.4.9-1.2.4-1.2.4l-.2-.2s-.7-.4-.2-1.4c.3-.6.7-1.7 1.1-2.7.3-.7.5-1.5.8-2.1.2-.9.4-1.5.4-1.5.1 0 .3.3.3.3.2.3.2.6.2.6-.4 2.1-1.5 5.2-1.7 5.5-.1.2-.2.4-.4.6m4.2-6.7c.1-.2.3-.3.7-.3 0 0 .6-.1 1.2.5.3.3 1.4 1.4 2.6 2.7 1 1.1 1.9 2.1 2.4 2.8l.2.2c.3.3 0 .7 0 .7s-4.4 4.4-10.2 1.7c0 0-.4-.1-.1-.6 0-.1.1-.2.2-.3m5.4-7.3-1.1-1.1-.2-.2c-.2-.1-.5-.3-.5-.8s.5-1 .8-1.1.5 0 .8.1c0 0 .1.1.2.1s.2.1.3.1c.2 0 .2.1.2.1s2.8 3.1 5.3 6.5c.7 1 .1 1.4 0 1.6 0 0-.5.7-1.2-.2v-.1c-.2-.1-.3-.2-.3-.2-.5-.6-1.6-2-1.6-2s-1-1.2-2.5-2.7c-.4-.4-.3-.8-.3-.8 0-.5.4-.5.4-.5.2.1.5.4.6.4l2.5 2.7s.8.9 1.1 1.3c.2.3.2.2-.1.1 0 0-.2-.1-.3 0 0 0 .5.4.2.8l-.2.2m-2.5-8.4c.2-.2.4-.3.6-.4.2-.1 1.9-.8 3.8-1.7 1-.5 1.9-1 2.5-1.3-.1 0 .5-.3.5.2.1.2 1.3 6.2-2.2 11.4 0 0 0 .1-.1.1s-.2 0-.3-.2-.2-.3-.3-.5c-.4-.6-.7-1.1-.7-1.1m1.4-9 .7-.4s.5-.2.5.2c.1.4 1 5.6-2.1 10.2M62.1 20c-.2-.7-1-.4-1.2-.4-.8.3-1.8.7-3 1.1-2 .8-4 1.4-4.1 1.4-.3.1-.5.2-.9.4s-.4 1-.4 1c.1.8.7 1.1.9 1.1h.6c.2 0 .4-.1.4-.1s2.2-.9 4.2-1.8c.9-.4 2.1-1 2.8-1.3 1-.3 1-.7.7-1.4zm-11.9 1.5s-.7.4-1.2 1.2m1-.8s-.6.4-1 1.1m-.4 2.1s0 .8.4 1.4m-.5-1.3s0 1 .5 1.6m1.7 1s.7.1 1.2-.1m-1 .5s.7.1 1.5-.1m1.2-3.3s0 .7-.3 1.4m1.1-1.5s.1.7-.3 1.7m-1.7-5.1s.8.3 1.3 1m-1.8-.5s.5.2 1 .8"/><path class="st2" d="M49 22.9c-.2-.1-2.3-.9-4-1.5-.8-.3-1.6-.6-2.3-.8-.9-.3-1.1.4-1.1.4s-.6 1.2.6 1.7m9.7-.9c.4-1.6.6-3.8.6-4.3.2-1.8.2-3.3.3-4.5v-.1c0-.7-.1-1-.3-1.2s-.4-.2-.4-.2-.5 0-.6.4c-.1.2-.2.5-.2.5m2 13.8c.7.8 3.1 3.4 3.4 3.7.9 1 1.9 2.3 2.6 3.2.4.6.3 1 .3 1s0 .1-.1.1c0 0-.1.1-.1.2-.2.2-.6.4-1 0l-.1-.1m-7.7-6.5c-.1.3-.2.8-.2.8-.1.3-.5 1.9-1.2 3.9-.5 1.4-1.1 2.8-1.5 3.8-.3.7-1 .4-1 .4s-.4-.2-.6-.6m2.3-12.9c.4 0 .7.3.7.8 0 .4-.3.8-.6.8-.4 0-.7-.3-.7-.8s.3-.8.6-.8zm1.9-2c.1-.2.3-.3.6-.3.4 0 .6.3.6.8 0 .4-.4.8-.8.8s-.7-.3-.6-.7m2.5 1.5c.1-.3.4-.5.8-.5s.8.3.7.8c0 .4-.4.8-.8.8-.2 0-.4-.1-.5-.2m-.6 2.1h.3c.4.1.8.5.8.9s-.3.7-.8.6c-.4-.1-.7-.4-.7-.7m-2.8-.3c.1-.2.2-.3.4-.3.3 0 .7.3.7.8.1.5-.1.9-.5.9-.3 0-.7-.3-.7-.7"/><path class="st2" d="M50.4 22.3s.5 0 .6-.6c0 0 .1-.5-.4-.6m-.4 1s.2 0 .2-.3c0 0 0-.3-.1-.3m2.6 2.7c.2 0 .5-.1.5-.6 0-.6-.4-.6-.4-.6m-.3 1c.1-.1.1-.2.1-.4 0-.3-.2-.4-.2-.4m-.4 4.5s.5-.1.5-.6c0-.6-.5-.6-.6-.6m-.2.9s.2-.1.2-.3c0-.3-.2-.4-.2-.4M49.2 28s.5-.1.5-.6-.4-.6-.5-.6h-.1"/><path class="st2" d="M49.1 27.7s.1-.1.1-.3c0-.2-.1-.3-.1-.3m-1-2.5s.5-.1.5-.6-.5-.7-.5-.7m-.2 1s.2-.1.2-.3c0-.2-.2-.3-.2-.3"/><path d="M51.1 22.8c.9 0 1.6.8 1.6 1.9 0 1-.7 1.9-1.6 1.9s-1.6-.8-1.6-1.9c0-1 .7-1.9 1.6-1.9z" fill-rule="evenodd" clip-rule="evenodd" fill="#fff" stroke="#1a1a1a" stroke-width=".1" stroke-miterlimit="10"/><path class="st2" d="M45.3 35.6s.3.3.5-.1c.3-.8.8-2 1.3-3.3.7-1.9 1.3-4 1.3-4.2.1-.4.2-.8.1-1.5-.2-.8-.7-1-.7-1-.5-.3-2.6-1.1-3.7-1.6-.9-.4-1.8-.7-2.5-1-.5-.2-.5.4-.5.4s-1.1 6.9 3.8 12.1c0-.1.3.1.4.2zm15-12.9s.2 0 .2.2.8 4.4-1.5 8.6c-.1.2-.3.1-.3.1m.3-12.3s.5-.2.3-.6-2-4.3-5.9-5.5m-3.6.1s-.1-.3-.4-.2c-.3.1-2.6.6-4.3 2.6"/><path d="M53.1 30.6s-1.5 3.1-4.3 4.3" fill="none" stroke="#cdcfd0" stroke-width=".1" stroke-miterlimit="10"/><path class="st1" d="M49.9 15s.1-.9.1-1.4c0 0 0-.2-.2-.2s-.9.1-2 .5c0 0 1.3.5 2.1 1.1z"/><path class="st5" d="M47.8 21.5 43.1 20s-.1 0-.1-.1c-.1-.1-.2-.2-.1-.5.1-.4 1-2.4 2.2-3.7 0 0 1.2-1.2 2.8-1.9 0 0 1 .4 2 1.1 0 0-.4 2.4-.6 3.4s-.3 1.9-.6 2.3-.9.9-.9.9zM46.6 24s0-.3.1-.5.1-.4.2-.5v-.2s0-.2-.2-.3c-.2-.1-.3-.2-.5-.2-.2-.1-.9-.4-1-.4-.2-.1-.9-.3-1.1-.5S43 21 43 21s-.3 0-.4.2c-.1.2-.2.4-.2.6s.1.5.5.8c.2.1.8.3 1.4.5.9.4 2 .8 2.3.9zm-4.4-.4s1.2.5 2.2 1 1.9.9 2.2 1c0 0 .1 1.1.7 1.7v.4c0 .1-.2.9-.2 1.1s-.5 1.9-.6 2.4c-.1.4-.8 2.7-1.1 3.1 0 0-.4-.4-.9-1.1-.5-.7-1.1-1.7-1.4-2.5-.3-.7-.7-1.8-.9-3.1s-.3-2.7-.2-3.5c0-.5.2-.5.2-.5zM47 35.7s.2-.2.5-.8c0 0 .4-1.1.6-1.5s.3-.9.4-1.2c.1-.3.2-.8.3-1s.2-.9.3-1.1c.1-.3.1-.4.1-.6 0-.1 0-.5-.4-.8 0 0-.9 2.6-1.3 3.7s-.7 1.8-.7 1.9c0 .1-.2.5-.1.8-.1.4.1.6.3.6z"/><path class="st1" d="m53.7 29.3 1.8 1.8c.9 1 1.7 2 1.7 2s.4-.4.6-.8c0 0-.5-.6-1.2-1.4-1-1.1-2.3-2.5-2.3-2.5l-.3-.2s-.1.7-.3 1.1zm6.2-6.4L55.3 25s-.6.3-.6 1c0 0-.1.5.4 1 .2.2 1 1.2 1.8 2.2s1.6 2.1 1.6 2.1 2.1-3.7 1.4-8.4zm-.5-2.4s-.9.4-1.9.8l-2.2.8s-.7.2-.6.9c0 0 .1.4.5.4l4.6-1.8c-.1.1-.2-.6-.4-1.1zm-6-6.8s0 2.9-.2 5c0 0 .5.7 1 2.4 0 0 .7-.2 1.5-.5.7-.2 1.5-.5 2.1-.7.7-.3 1.3-.4 1.3-.4s-1.6-4.3-5.7-5.8zm-1.6 2.9s.3-1.9.3-3.3l-.8-.1-.2 2.6c0 .1.4.4.7.8z"/><path class="st5" d="M51.2 29.1s-.2.2-.3.6-.6 1.7-.8 2.3c-.2.5-1.3 2.9-1.3 2.9s2.2-.7 4.3-4.3c0 0-.4-.4-.8-.7-.4-.4-.8-.8-1.1-.8z"/><path class="st1" d="m48.8 35-.5 1s4.4 1.6 8.1-2.1c0 0-.6-.7-1.4-1.5l-1.9-1.9s-1.5 3.2-4.3 4.5z"/><path class="st5" d="M54 28.2s-.3.9-.3 1.1c0 0-.2-.3-.3-.6 0-.3.1-.6.4-.6 0 0 .2 0 .2.1zm-.9-9.5s-.1 1.2-.2 1.5v.1c0 .3 0 .8.3.9s.4.1.4.1l.4-.1c.1-.1-.4-1.7-.9-2.5zm-2-2.8s.4.3.7.7c0 0-.1.6-.2 1.3-.1.5-.2.9-.3 1.2-.2.9-.6.9-.6.9l-.1-.1-.1-.1s.2-1.5.3-2 .3-1.9.3-1.9z"/><path class="st2" d="M53.7 21.3c.3 0 .7-.1.7-.1s2.1-.7 4.1-1.4c.8-.3 1.2-.4 1.6-.6 0 0 .3-.1.4-.2.2-.2 0-.5 0-.5s-2-5.1-7.1-6m-5.6 9c.4.1.7.2 1.1-.2.4-.3.5-.8.6-1 0-.1.1-.4.1-.4.4-2.4.7-5 .9-6.7v-.1c.1-.9-.6-.5-.6-.5s-4.6.9-6.9 6.8c0 0-.1.2 0 .4s.2.2.2.2 1.8.5 2.7.8c1 .4 1.9.7 1.9.7s.5-.4.7-.6.4-.4.5-1c.1-.5.9-4 1-6.1v-.4c0-.2-.1-.1-.2-.1 0 0-2.4.1-4.8 2.4m-3.1 8.4s0-.6.6-.4h.1c.5.2.9.4 1.4.6 1.1.5 2.8 1.1 3.2 1.4 0 0 .4.1.6.9.2.8 0 1.1-.1 1.5 0 .2-.5 2.1-1.2 4.1-.2.6-.5 1.2-.7 1.9v.1c-.2.7-.6.1-.6.1s-3.7-3.9-3.3-10.2zm9.4 5c.1 0 .2-.1.3-.1 0 0 .5-.1 1 .5.2.3 1.6 1.5 2.8 2.8.5.6 1.3 1.4 1.9 2.1v.1c.2.2.2.5-.1.8 0 0-4.1 3.6-9 1.1M50.7 20c.1 0 .1.1.2.1.7.1.9-.8.9-.8.3-1.7.5-4.1.6-5.8.1-1.3-.7-1.2-.7-1.2s-.3 0-.5.2M46.6 24c.2.1.4.1.6 0 .1-.1.2-.2.3-.4 0-.1.1-.4 0-.7-.1-.3-.3-.4-.3-.4s-.7-.3-1.6-.6c-.6-.3-1.3-.5-2-.8-1.3-.5-1.4.6-1.2 1 .1.4.6.6.6.6l3.6 1.3s.1-.6.3-1.1c0 0 .1-.3-.3-.4 0 0-2.2-.9-3.7-1.5m5.7 7.8s.1-.3.4-.2c.3.1.7.7.5 1.3 0 .1-.2.9-1.1 3.3-.2.6-.5 1.3-.7 1.9v.1c-.3.9-.8.4-.8.4s-.5-.2-.2-1.2l.2-.5m6.9-5.8c.1-.1.3-.1.4 0 .3.1.6.4.6.4s1.3 1.4 2.6 2.9c.3.4.6.7.9 1.1.8 1 .4 1.4.4 1.4s-.4.5-1-.1l-.3-.3"/><path class="st2" d="M51.3 13.2s-.1 2.8-.7 6.6c0 0 0 .1.2.2 0 0 .4-.1.6-.8.2-.6.6-2.6.7-5.1v-.9c0-.2-.1 0-.1.1"/><path class="st6" d="M20.2 34.4c1.2.9 2.5 1.4 4 1.4 4.3 0 7.8-4.3 7.8-9.5 0-5.3-3.4-9.5-7.7-9.6-1.4 0-2.6.4-3.7 1.2-.5-.1-1-.2-1.6-.1-4 .2-7.1 4.1-7 8.7s3.5 8.2 7.5 8h.4c.1 0 .3-.1.3-.1z"/><path class="st7" d="M19.9 34.1h-.5c-3.8 0-7-3.6-6.9-8 0-4.4 3.1-8 7-8h.7"/><path class="st6" d="M24.2 16.8c4.3 0 7.7 4.3 7.7 9.6s-3.5 9.5-7.8 9.5-7.7-4.3-7.7-9.6c0-5.2 3.5-9.5 7.8-9.5z"/><path class="st7" d="M19.5 34.5c-4 .2-7.3-3.4-7.5-8-.1-4.6 3-8.6 7-8.7.5 0 1.1 0 1.6.1"/><path class="st7" d="M25.2 23.8s.1 0 0 0c.4.3.8.2.8.2s1.4-.5 2.8-.9c.8-.3 1.5-.5 1.9-.7 0 0 .1 0 .2-.1v-.2c-1.8-4.3-5.2-4.9-5.5-5-.3 0-.3.3-.3.3v1.7m-7.6 6.3c1.2.5 2.3 1 2.7 1.2.2.1.3.2.3.2.2.8.5 1.2.5 1.2v.2c-.4 2-1 3.9-1.2 4.4 0 .1-.1.1-.1.2m5.7-6.6s1.4-.6 2.4-1c.9-.4 2-.9 2.8-1.2.1 0 .2-.1.2-.1l.1-.1c.2-.1.5-.3.4-.7-.2-.6-.6-.5-.8-.4"/><path class="st7" d="M25.3 18.9s0 2-.3 4.2c0 0 0 .5.2.6 0 0 .1.1.3.1 0 0 .9-.3 1.6-.5l1.2-.4m-6.7 11.5s.7-1.5 1.2-2.8c.4-.9.6-1.7.7-1.9.1-.4.2-.5.2-.5.3 0 .5.3.5.3 1.4 1.3 2.5 2.5 2.5 2.5l.7.7.2.2c.1.2-.1.2-.1.2l-.1-.1c-.1-.1-.3-.2-.4-.1m1.3-10.1 1.4-.5s-.2.1-.6.1m-2.7 2.9c.2.1.4 0 .4 0s.6-.2 2-.8c.3-.1.8-.4 1.3-.5.5-.2.7-.5.6-.8 0 0 0-.2-.3-.2-.1 0-.3 0-.6.1h-.1l-1.2.5s-.7.3-1.7.7c0 0-.7.2-.6.7 0 0 0 .3.2.3l2.2-.9s.5-.2.9-.4c.1-.1.2-.1.4-.1.2-.1-.4.1-.4.1s.4-.1.3-.4-.1-.4-.4-.4m-.6 2.2 1.3-.6"/><path class="st6" d="M28.1 29.7s.4.5.9 1.2"/><path class="st7" d="M23.3 22.8c-.1.6-.2 1-.2 1.1s-.1.2-.2.3c0 .1.1.5.6.5s.7-.5.7-.6.2-.2.3-.3c.1-.1.1-.2.1-.2.4-2.5.4-5 .4-6v-.1c0-.7-.5-.7-.5-.7h-.1s-.6-.1-.6.7v.6m-6.7 5.4c.2-.5.8-.3.7-.3.5.2 1.4.5 2.3.8 1.1.4 2.1.8 2.1.8v.2s.3.3.3.8-.3.7-.6.8h-.1s-1.4-.6-2.7-1.1c-.6-.2-1.2-.4-1.7-.6h-.1c-.6-.2-.4-.8-.4-.8l.2-.6zm6.2-6.5s.4 0 .3.4c0 1-.2 3-.6 5.5 0 0 0 .3-.1.6-.1.2-.2.4-.3.5-.3.2-.5.3-.9.1-.1-.1-1-.4-1.9-.6-.7-.2-1.6-.5-2.1-.6-.3-.1-.2-.4-.2-.4s1.3-4.7 5.8-5.5zM22 29l.3-1.2v-.3s.2-.2.4-.2.8.2.7 1v.1c.1.1.1.2.1.3 0 .1-.5 1.7-1.1 3.3-.3.8-.7 1.6-1 2.2s-.8.3-.8.3l-.1-.1s-.5-.3-.1-.9c.2-.4.5-1.1.7-1.9.2-.5.4-1 .5-1.5.2-.7.4-1.1.4-1.1.1 0 .2.2.2.2.2.2.1.4.1.4-.3 1.4-1.1 3.6-1.2 3.8-.1.1-.1.3-.3.4m3-4.6c.1-.1.2-.2.4-.2 0 0 .4-.1.8.4.2.2 1 1 1.8 1.9.7.7 1.3 1.4 1.7 1.9l.1.1c.2.2 0 .5 0 .5s-3 3-7.1 1.2c0 0-.3-.1-.1-.4 0-.1.1-.1.1-.2m3.9-5.1c-.5-.5-.8-.7-.8-.7l-.2-.1c-.1-.1-.3-.2-.4-.6 0-.4.3-.7.5-.8s.4 0 .5.1c0 0 .1.1.2.1 0 0 .1.1.2.1h.2s1.9 2.1 3.6 4.5c.5.7.1 1 0 1.1 0 0-.4.5-.8-.1-.1-.1-.1-.2-.1-.2-.3-.4-1.1-1.4-1.1-1.4s-.6-.9-1.8-2c-.2-.2-.1-.4-.1-.4 0-.3.3-.4.3-.4.2 0 .4.3.4.3l1.7 1.8s.5.6.8.9c.1.2.1.2-.1.1 0 0-.2-.1-.2 0 0 0 .3.3.1.5l-.1.1m-1.7-5.8c.1-.1.3-.2.4-.3.1-.1 1.3-.6 2.6-1.2.7-.3 1.3-.7 1.7-.9 0 0 .3-.2.4.1 0 .2.9 4.3-1.5 7.9l-.1.1c-.1 0-.2 0-.2-.1-.1-.1-.2-.2-.2-.4-.3-.4-.5-.7-.5-.7m1-6.2.5-.3s.3-.1.4.2c0 .3.7 3.8-1.4 7.1m1.7-8.8c-.2-.5-.7-.3-.8-.2-.5.2-1.3.5-2 .8-1.4.5-2.8 1-2.9 1-.2.1-.3.1-.6.3-.3.2-.3.7-.3.7 0 .6.5.8.6.8h.7s1.5-.6 2.9-1.3c.6-.3 1.4-.7 1.9-.9.7-.4.7-.7.5-1.2zm-8.2 1s-.5.3-.8.8m.6-.5s-.4.3-.7.7m-.2 1.6s0 .6.3 1m-.4-1s0 .7.3 1.1m1.2.7s.5.1.8-.1m-.6.4s.5.1 1-.1m.8-2.3s0 .5-.2 1m.8-1s.1.5-.2 1.2m-1.2-3.6s.6.2.9.7m-1.2-.3s.3.1.7.5"/><path class="st7" d="M22.2 24.9c-.1 0-1.6-.6-2.8-1-.6-.2-1.1-.4-1.6-.5-.6-.2-.7.3-.7.3s-.4.9.4 1.1m6.8-.7c.3-1.1.4-2.6.4-3 .1-1.2.2-2.3.2-3.1 0-.5-.1-.7-.2-.8-.1-.1-.3-.1-.3-.1s-.3 0-.4.3c-.1.1-.1.3-.1.3m1.3 9.5c.5.6 2.1 2.3 2.3 2.6.6.7 1.3 1.6 1.8 2.2.3.4.2.7.2.7l-.1.1-.1.1c-.1.1-.4.3-.7 0l-.1-.1m-5.1-4.5c0 .2-.1.5-.1.5-.1.2-.4 1.3-.9 2.7-.4 1-.8 2-1.1 2.6-.2.5-.7.3-.7.3s-.3-.1-.4-.4m1.6-8.9c.2 0 .5.2.5.5s-.2.6-.4.6-.5-.2-.5-.5c0-.4.2-.6.4-.6zm1.4-1.4c.1-.1.2-.2.4-.2.3 0 .4.2.4.5s-.3.6-.5.6c-.3 0-.5-.2-.4-.5m1.6 1.1c.1-.2.3-.4.5-.4.3 0 .5.2.5.5s-.3.5-.6.5c-.1 0-.3-.1-.4-.1m-.2 1.5h.2c.3.1.5.3.5.6s-.2.5-.5.4c-.2 0-.5-.2-.5-.5m-1.9-.1c.1-.1.2-.2.3-.2.2 0 .5.2.5.5s-.1.6-.3.6c-.2 0-.5-.2-.5-.5"/><path class="st7" d="M23.2 24.5s.3 0 .4-.4c0 0 0-.4-.3-.4m-.3.7s.1 0 .2-.2c0 0 0-.2-.1-.2m1.8 1.8c.1 0 .3-.1.3-.4 0-.4-.3-.4-.3-.4"/><path class="st7" d="M24.8 25.7s.1-.1.1-.3c0-.2-.1-.3-.1-.3m-.4 3.1s.3-.1.3-.4c0-.4-.4-.4-.4-.4"/><path class="st7" d="M24.2 28s.2 0 .2-.2-.1-.3-.1-.3m-1.9.9s.3-.1.3-.4c0-.4-.2-.4-.3-.4h-.1"/><path class="st7" d="M22.3 28.2s.1-.1.1-.2-.1-.2-.1-.2m-.7-1.7s.3-.1.3-.4c0-.4-.3-.5-.3-.5m-.1.7s.1-.1.1-.2c0-.2-.1-.2-.1-.2"/><path class="st8" d="M23.7 24.9c.6 0 1.1.6 1.1 1.3 0 .7-.5 1.3-1.1 1.3s-1.1-.6-1.1-1.3c0-.7.5-1.3 1.1-1.3z"/><path class="st7" d="M19.7 33.7s.2.2.4-.1c.2-.5.6-1.4.9-2.3.5-1.3.9-2.7.9-2.9.1-.3.2-.5 0-1.1-.1-.5-.5-.7-.5-.7-.3-.2-1.8-.8-2.5-1.1-.6-.3-1.2-.5-1.7-.7-.3-.1-.4.3-.4.3s-.7 4.8 2.7 8.3c-.1.1.1.2.2.3zM30 24.8s.1 0 .2.1c0 .1.5 3.1-1 5.9-.1.1-.2 0-.2 0m.1-8.4s.3-.1.2-.4c-.1-.3-1.4-3-4.1-3.8m-2.4.1s-.1-.2-.3-.2c-.2 0-1.8.4-3 1.8m4.8-1.6s0-.3-.1-.3c0 0-.3-.1-.3.1"/><path class="st9" d="M25.1 30.3s-1 2.1-3 3"/><path class="st6" d="M22.9 19.4s.1-.6.1-1c0 0 0-.1-.1-.1s-.7.1-1.4.4c-.1 0 .8.3 1.4.7z"/><path class="st5" d="m21.4 23.9-3.2-1h-.1c-.1-.1-.1-.2-.1-.3.1-.3.7-1.7 1.5-2.6 0 0 .8-.8 1.9-1.3 0 0 .7.3 1.4.8 0 0-.3 1.7-.4 2.3s-.2 1.3-.4 1.6c-.2.2-.6.5-.6.5zm-.9 1.8s0-.2.1-.3c0-.1.1-.3.1-.3V25s0-.1-.1-.2-.2-.1-.4-.2c-.1-.1-.6-.3-.7-.3s-.5-.3-.7-.3c-.2-.1-.8-.3-.8-.3s-.2 0-.3.1c-.1.1-.1.3-.1.4 0 .2.1.4.3.5.1.1.5.2 1 .4.7.3 1.5.5 1.6.6zm-3-.3s.8.3 1.6.7c.7.3 1.3.6 1.5.7 0 0 .1.8.5 1.2v.3s-.1.6-.2.8c0 .1-.3 1.3-.4 1.6-.1.3-.6 1.9-.8 2.1 0 0-.3-.3-.6-.8s-.7-1.2-.9-1.7c-.2-.5-.5-1.3-.6-2.1-.1-.9-.2-1.8-.1-2.4-.1-.4 0-.4 0-.4z"/><path class="st10" d="M20.8 33.8s.2-.1.3-.5c0 0 .3-.8.4-1.1s.2-.6.3-.8c.1-.2.2-.5.2-.7 0-.1.2-.6.2-.8 0-.2.1-.3.1-.4s0-.3-.3-.5c0 0-.6 1.8-.9 2.5-.3.7-.5 1.2-.5 1.3 0 .1-.1.4-.1.6s.2.3.3.4z"/><path class="st6" d="M25.5 29.3s.6.6 1.2 1.3l1.2 1.4s.3-.3.4-.6c0 0-.3-.4-.8-.9-.7-.8-1.6-1.7-1.6-1.7l-.2-.1c0-.1-.1.3-.2.6zm4.3-4.4-3.2 1.4s-.4.2-.4.7c0 0 0 .4.3.7.1.1.7.8 1.3 1.5.6.7 1.1 1.4 1.1 1.4s1.4-2.4.9-5.7zm-.4-1.6s-.7.3-1.3.5l-1.6.6s-.5.2-.4.6c0 0 .1.2.3.3l3.2-1.2s-.1-.5-.2-.8zm-4.1-4.7s0 2-.1 3.4c0 0 .3.5.7 1.7 0 0 .5-.1 1-.3.5-.2 1-.4 1.4-.5.5-.2.9-.3.9-.3s-1.1-3-3.9-4zm-1.1 2s.2-1.3.2-2.3l-.5-.1-.1 1.8c-.1.1.1.3.4.6z"/><path class="st5" d="M23.7 29.2s-.1.1-.2.4-.4 1.2-.6 1.6c-.1.4-.9 2-.9 2s1.5-.5 3-3l-.5-.5c-.2-.2-.5-.5-.8-.5z"/><path class="st6" d="m22.1 33.3-.3.7s3.1 1.1 5.6-1.4c0 0-.4-.5-1-1l-1.3-1.3s-1 2.1-3 3z"/><path class="st5" d="M25.7 28.6s-.2.6-.2.7c0 0-.2-.2-.2-.4s.1-.4.3-.4c0 0 .1 0 .1.1zm-.6-6.6s-.1.8-.1 1v.1c0 .2 0 .5.2.6s.3 0 .3 0l.3-.1c0 .1-.4-1.1-.7-1.6zm-1.4-1.9s.3.2.5.5c0 0-.1.4-.1.9-.1.3-.1.6-.2.9-.1.6-.4.6-.4.6s-.1 0-.1-.1v-.1s.2-1.1.2-1.4.1-1.3.1-1.3z"/><path class="st7" d="M25.5 23.8c.2 0 .5-.1.5-.1s1.5-.5 2.8-1c.6-.2.8-.3 1.1-.4 0 0 .2 0 .3-.2.1-.2 0-.4 0-.4s-1.4-3.5-4.9-4.1m-3.9 6.3c.3.1.5.1.8-.1s.3-.5.4-.7v-.3c.3-1.7.5-3.4.6-4.6v-.1c0-.6-.4-.4-.4-.4s-3.2.6-4.8 4.7c0 0-.1.1 0 .3.1.1.2.1.2.1s1.3.4 1.8.6c.8.3 1.4.5 1.4.5s.3-.3.5-.4c.2-.2.2-.3.3-.7.1-.4.6-2.7.7-4.2v-.3c0-.1-.1-.1-.1-.1s-1.7.1-3.3 1.7m-2.2 5.8s0-.4.4-.3c.3.1.6.3 1 .4.8.3 1.9.8 2.2 1 0 0 .3.1.4.6s0 .7 0 1c0 .1-.4 1.5-.9 2.8-.1.4-.3.9-.5 1.3-.2.5-.4.1-.4.1s-2.4-2.5-2.2-6.9zm6.5 3.5h.2s.4-.1.7.4c.2.2 1.1 1 1.9 1.9.3.4.9 1 1.3 1.5.1.2.2.4-.1.5 0 0-2.8 2.5-6.2.7m1.8-11.3h.2c.5 0 .6-.5.6-.5.2-1.2.3-2.8.4-4 .1-.9-.5-.8-.5-.8s-.2 0-.3.2m-3.2 7.9c.2.1.3.1.4 0 .1 0 .2-.2.2-.3 0-.1.1-.3 0-.5s-.2-.3-.2-.3-.5-.2-1.1-.4c-.4-.2-.9-.4-1.4-.5-.9-.3-.9.4-.8.7.1.2.4.4.4.4l2.5.9s0-.4.2-.7c0 0 .1-.2-.2-.3 0 0-1.5-.7-2.6-1m4 5.3s.1-.2.3-.1c.2.1.4.5.3.9 0 .1-.1.6-.8 2.3-.2.4-.3.9-.5 1.3v.1c-.2.6-.6.3-.6.3s-.4-.2-.1-.8l.1-.4m4.9-4.1c.1 0 .2-.1.3 0 .2.1.4.3.4.3l1.8 2c.2.2.4.5.6.7.6.7.3 1 .3 1s-.3.4-.7-.1l-.2-.2"/><path class="st7" d="M23.8 18.2s0 1.9-.5 4.6c0 0 0 .1.1.1 0 0 .3-.1.4-.5s.4-1.8.5-3.6v-.7c0-.2-.1 0-.1.1"/><path class="st6" d="M73.6 34.4c1.2.9 2.5 1.4 4 1.4 4.3 0 7.8-4.3 7.8-9.5 0-5.3-3.4-9.5-7.7-9.6-1.4 0-2.6.4-3.7 1.2-.5-.1-1-.2-1.6-.1-4 .2-7.1 4.1-7 8.7s3.5 8.2 7.5 8h.4l.3-.1z"/><path class="st7" d="M73.2 34.1h-.5c-3.8 0-7-3.6-6.9-8s3.1-8 7-8h.7"/><path class="st6" d="M77.5 16.8c4.3 0 7.7 4.3 7.7 9.6s-3.5 9.5-7.8 9.5-7.7-4.3-7.7-9.6 3.6-9.5 7.8-9.5z"/><path class="st7" d="M72.8 34.5c-4 .2-7.3-3.4-7.5-8-.1-4.6 3-8.6 7-8.7.5 0 1.1 0 1.6.1"/><path class="st7" d="M78.5 23.8c.1 0 .1 0 0 0 .4.3.8.2.8.2s1.4-.5 2.8-.9c.8-.3 1.5-.5 1.9-.7 0 0 .1 0 .2-.1v-.2c-1.8-4.3-5.2-4.9-5.5-5-.3 0-.3.3-.3.3v1.7m-7.5 6.3c1.2.5 2.3 1 2.7 1.2.2.1.3.2.3.2.1.8.5 1.2.5 1.2v.2c-.4 2-1 3.9-1.2 4.4 0 .1-.1.1-.1.2m5.6-6.6s1.4-.6 2.4-1c.9-.4 2-.9 2.8-1.2.1 0 .2-.1.2-.1l.1-.1c.2-.1.5-.3.4-.7-.2-.6-.6-.5-.8-.4"/><path class="st7" d="M78.6 18.9s0 2-.3 4.2c0 0 0 .5.2.6 0 0 .1.1.3.1 0 0 .9-.3 1.6-.5l1.2-.4m-6.7 11.5s.7-1.5 1.2-2.8c.4-.9.6-1.7.7-1.9.1-.4.2-.5.2-.5.3 0 .5.3.5.3C78.9 30.8 80 32 80 32l.7.7.2.2c.1.2-.1.2-.1.2l-.1-.1c-.1-.1-.3-.2-.4-.1m1.3-10.1 1.4-.5s-.2.1-.6.1m-2.6 2.9c.2.1.4 0 .4 0s.6-.2 2-.8c.3-.1.8-.4 1.3-.5.5-.2.7-.5.6-.8 0 0 0-.2-.3-.2-.1 0-.3 0-.6.1h-.1l-1.2.5s-.7.3-1.7.7c0 0-.7.2-.6.7-.1 0-.1.3.2.3l2.2-.9s.5-.2.9-.4c.1-.1.2-.1.4-.1.2-.1-.3.1-.3.1s.4-.1.3-.4-.1-.4-.4-.4m-.8 2.2 1.3-.6"/><path class="st6" d="M81.4 29.7s.4.5.9 1.2"/><path class="st7" d="M76.6 22.8c-.1.6-.2 1-.2 1.1s-.1.2-.2.3c0 .1.1.5.6.5s.7-.5.7-.6.2-.2.3-.3c.1-.1.1-.2.1-.2.4-2.5.4-5 .4-6v-.1c0-.7-.5-.7-.5-.7h-.1s-.6-.1-.6.7v.6m-6.7 5.4c.2-.5.8-.3.7-.3.5.2 1.4.5 2.3.8 1.1.4 2.1.8 2.1.8v.2s.3.3.3.8-.3.7-.6.8h-.1s-1.4-.6-2.7-1.1c-.6-.2-1.2-.4-1.7-.6h-.1c-.6-.2-.4-.8-.4-.8l.2-.6zm6.2-6.5s.4 0 .3.4c0 1-.2 3-.6 5.5 0 0 0 .3-.1.6-.1.2-.2.4-.3.5-.3.2-.5.3-.9.1-.1-.1-1-.4-1.9-.6-.7-.2-1.6-.5-2.1-.6-.3-.1-.2-.4-.2-.4s1.3-4.7 5.8-5.5zm-1.3 12 .3-1.2v-.3s.2-.2.4-.2.8.2.7 1v.1c.1.1.1.2.1.3 0 .1-.5 1.7-1.1 3.3-.3.8-.7 1.6-1 2.2-.3.6-.8.3-.8.3l-.1-.1s-.5-.3-.1-.9c.2-.4.5-1.1.7-1.9.2-.5.4-1 .5-1.5.3-.7.4-1.1.4-1.1.1 0 .2.2.2.2.2.2.1.4.1.4-.3 1.4-1.1 3.6-1.2 3.8-.1.1-.1.3-.3.4m3-4.6c.1-.1.2-.2.4-.2 0 0 .4-.1.8.4.2.2 1 1 1.8 1.9.7.7 1.3 1.4 1.7 1.9l.1.1c.2.2 0 .5 0 .5s-3 3-7.1 1.2c0 0-.3-.1-.1-.4 0-.1.1-.1.1-.2m4-5.1c-.5-.5-.8-.7-.8-.7l-.2-.1c-.1-.1-.3-.2-.4-.6 0-.4.3-.7.5-.8s.4 0 .5.1c0 0 .1.1.2.1 0 0 .1.1.2.1h.2s1.9 2.1 3.6 4.5c.5.7.1 1 0 1.1 0 0-.4.5-.8-.1-.1-.1-.1-.2-.1-.2-.3-.4-1.1-1.4-1.1-1.4s-.7-.9-1.8-2c-.2-.2-.1-.4-.1-.4 0-.3.3-.4.3-.4.2 0 .4.3.4.3l1.7 1.8s.5.6.8.9c.1.2.1.2-.1.1 0 0-.2-.1-.2 0 0 0 .3.3.1.5l-.1.1m-1.8-5.8c.1-.1.3-.2.4-.3.1-.1 1.3-.6 2.6-1.2.7-.3 1.3-.7 1.7-.9 0 0 .3-.2.4.1 0 .2.9 4.3-1.5 7.9l-.1.1c-.1 0-.2 0-.2-.1-.1-.1-.2-.2-.2-.4-.3-.4-.5-.7-.5-.7m1-6.2.5-.3s.3-.1.4.2c0 .3.7 3.8-1.4 7.1m1.7-8.8c-.2-.5-.7-.3-.8-.2-.5.2-1.3.5-2 .8-1.4.5-2.8 1-2.9 1-.2.1-.3.1-.6.3-.3.1-.3.6-.3.6 0 .6.5.8.6.8h.7s1.5-.6 2.9-1.3c.6-.3 1.4-.7 1.9-.9.7-.3.7-.6.5-1.1zm-8.2 1s-.5.3-.8.8m.7-.5s-.4.3-.7.7m-.3 1.6s0 .6.3 1m-.4-1s0 .7.3 1.1m1.2.7s.5.1.8-.1m-.6.4s.5.1 1-.1m.8-2.3s0 .5-.2 1m.8-1s.1.5-.2 1.2m-1.2-3.6s.6.2.9.7m-1.2-.3s.3.1.7.5"/><path class="st7" d="M75.6 24.9c-.1 0-1.6-.6-2.8-1-.6-.2-1.1-.4-1.6-.5-.6-.2-.7.3-.7.3s-.4.9.4 1.1m6.7-.7c.3-1.1.4-2.6.4-3 .1-1.2.2-2.3.2-3.1 0-.5-.1-.7-.2-.8-.1-.1-.3-.1-.3-.1s-.3 0-.4.3c-.1.1-.1.3-.1.3m1.4 9.5c.5.6 2.1 2.3 2.3 2.6.6.7 1.3 1.6 1.8 2.2.3.4.2.7.2.7l-.1.1-.1.1c-.1.1-.4.3-.7 0l-.1-.1m-5.2-4.5c0 .2-.1.5-.1.5-.1.2-.4 1.3-.9 2.7-.4 1-.8 2-1.1 2.6-.2.5-.7.3-.7.3s-.3-.1-.4-.4m1.7-8.9c.2 0 .5.2.5.5s-.2.6-.4.6-.5-.2-.5-.5c-.1-.4.1-.6.4-.6zm1.3-1.4c.1-.1.2-.2.4-.2.3 0 .4.2.4.5s-.3.6-.5.6c-.3 0-.5-.2-.4-.5m1.6 1.1c.1-.2.3-.4.5-.4.3 0 .5.2.5.5s-.3.5-.6.5c-.1 0-.3-.1-.4-.1m-.2 1.5h.2c.3.1.5.3.5.6s-.2.5-.5.4c-.2 0-.5-.2-.5-.5m-1.9-.1c.1-.1.2-.2.3-.2.2 0 .5.2.5.5s-.1.6-.3.6c-.2 0-.5-.2-.5-.5"/><path class="st7" d="M76.5 24.5s.3 0 .4-.4c0 0 0-.4-.3-.4"/><path class="st7" d="M76.4 24.4s.1 0 .2-.2c0 0 0-.2-.1-.2m1.7 1.8c.1 0 .3-.1.3-.4 0-.4-.3-.4-.3-.4m-.1.7s.1-.1.1-.3c0-.2-.1-.3-.1-.3m-.4 3.1s.3-.1.3-.4c0-.4-.4-.4-.4-.4"/><path class="st7" d="M77.6 28s.2 0 .2-.2-.1-.3-.1-.3m-2 .9s.3-.1.3-.4c0-.4-.2-.4-.3-.4h-.1"/><path class="st7" d="M75.6 28.2s.1-.1.1-.2-.1-.2-.1-.2m-.6-1.7s.3-.1.3-.4c0-.4-.3-.5-.3-.5m-.2.7s.1-.1.1-.2c0-.2-.1-.2-.1-.2"/><path class="st8" d="M77 24.9c.6 0 1.1.6 1.1 1.3 0 .7-.5 1.3-1.1 1.3s-1.1-.6-1.1-1.3c0-.7.5-1.3 1.1-1.3z"/><path class="st7" d="M73 33.7s.2.2.4-.1c.2-.5.6-1.4.9-2.3.5-1.3.9-2.7.9-2.9.1-.3.2-.5 0-1.1-.1-.5-.5-.7-.5-.7-.3-.2-1.8-.8-2.5-1.1-.6-.3-1.2-.5-1.7-.7-.3-.1-.4.3-.4.3s-.7 4.8 2.7 8.3c0 .1.1.2.2.3zm10.4-8.9s.1 0 .2.1c0 .1.5 3.1-1 5.9-.1.1-.2 0-.2 0m.1-8.4s.3-.1.2-.4c-.1-.3-1.4-3-4.1-3.8m-2.5.1s-.1-.2-.3-.2c-.2 0-1.8.4-3 1.8m4.8-1.6s0-.3-.1-.3c0 0-.3-.1-.3.1"/><path class="st9" d="M78.4 30.3s-1 2.1-3 3"/><path class="st6" d="M76.2 19.4s.1-.6.1-1c0 0 0-.1-.1-.1s-.7.1-1.4.4c0 0 .8.3 1.4.7z"/><path class="st5" d="m74.7 23.9-3.2-1h-.1c-.1-.1-.1-.2-.1-.3.1-.3.7-1.7 1.5-2.6 0 0 .8-.8 1.9-1.3 0 0 .7.3 1.4.8 0 0-.3 1.7-.4 2.3s-.2 1.3-.4 1.6c-.2.2-.6.5-.6.5zm-.8 1.8s0-.2.1-.3c0-.1.1-.3.1-.3V25s0-.1-.1-.2-.2-.1-.4-.2c-.1-.1-.6-.3-.7-.3s-.6-.3-.8-.3c-.2-.1-.8-.3-.8-.3s-.2 0-.3.1-.1.3-.1.4.1.4.3.5c.1.1.5.2 1 .4.7.3 1.5.5 1.7.6zm-3-.3s.8.3 1.6.7c.7.3 1.3.6 1.5.7 0 0 .1.8.5 1.2v.3c0 .1-.1.6-.2.8 0 .1-.3 1.3-.4 1.6s-.6 1.9-.8 2.1c0 0-.3-.3-.6-.8s-.7-1.2-.9-1.7c-.2-.5-.5-1.3-.6-2.1-.1-.9-.2-1.8-.1-2.4-.2-.4 0-.4 0-.4z"/><path class="st10" d="M74.2 33.8s.2-.1.3-.5c0 0 .3-.8.4-1.1s.2-.6.3-.8c.1-.2.2-.5.2-.7 0-.1.2-.6.2-.8 0-.2.1-.3.1-.4s0-.3-.3-.5c0 0-.6 1.8-.9 2.5-.3.7-.5 1.2-.5 1.3 0 .1-.1.4-.1.6 0 .3.2.3.3.4z"/><path class="st6" d="M78.8 29.3s.6.6 1.2 1.3l1.2 1.4s.3-.3.4-.6c0 0-.3-.4-.8-.9-.7-.8-1.6-1.7-1.6-1.7l-.2-.1c.1-.1-.1.3-.2.6zm4.3-4.4-3.2 1.4s-.4.2-.4.7c0 0 0 .4.3.7.1.1.7.8 1.3 1.5.6.7 1.1 1.4 1.1 1.4s1.4-2.4.9-5.7zm-.3-1.6s-.7.3-1.3.5l-1.6.6s-.5.2-.4.6c0 0 .1.2.3.3l3.2-1.2s-.1-.5-.2-.8zm-4.2-4.7s0 2-.1 3.4c0 0 .3.5.7 1.7 0 0 .5-.1 1-.3.5-.2 1-.4 1.4-.5.5-.2.9-.3.9-.3s-1.1-3-3.9-4zm-1.1 2s.2-1.3.2-2.3l-.5-.1-.2 1.9s.3.2.5.5z"/><path class="st5" d="M77.1 29.2s-.1.1-.2.4-.4 1.2-.6 1.6c-.1.4-.9 2-.9 2s1.5-.5 3-3l-.5-.5c-.3-.2-.6-.5-.8-.5z"/><path class="st6" d="m75.4 33.3-.3.7s3.1 1.1 5.6-1.4c0 0-.4-.5-1-1l-1.3-1.3s-1 2.1-3 3z"/><path class="st5" d="M79.1 28.6s-.2.6-.2.7c0 0-.2-.2-.2-.4s.1-.4.4-.3c-.2-.1-.1-.1 0 0zm-.7-6.6s-.1.8-.1 1v.1c0 .2 0 .5.2.6s.3 0 .3 0l.3-.1c0 .1-.3-1.1-.7-1.6zM77 20.1s.3.2.5.5c0 0-.1.4-.1.9-.1.3-.1.6-.2.9-.1.6-.4.6-.4.6s-.1 0-.1-.1v-.1s.2-1.1.2-1.4.1-1.3.1-1.3z"/><path class="st7" d="M78.8 23.8c.2 0 .5-.1.5-.1s1.5-.5 2.8-1c.6-.2.8-.3 1.1-.4 0 0 .2 0 .3-.2.1-.2 0-.4 0-.4s-1.4-3.5-4.9-4.1m-3.9 6.3c.3.1.5.1.8-.1s.3-.5.4-.7v-.3c.3-1.7.5-3.4.6-4.6v-.1c0-.6-.4-.4-.4-.4s-3.2.6-4.8 4.7c0 0-.1.1 0 .3.1.1.2.1.2.1s1.3.4 1.8.6c.8.3 1.4.5 1.4.5s.3-.3.5-.4c.2-.2.2-.3.3-.7s.6-2.7.7-4.2v-.3c0-.1-.1-.1-.1-.1s-1.7.1-3.3 1.7m-2.1 5.8s0-.4.4-.3c.3.1.6.3 1 .4.8.3 1.9.8 2.2 1 0 0 .3.1.4.6s0 .7 0 1c0 .1-.4 1.5-.9 2.8-.1.4-.3.9-.5 1.3-.2.5-.4.1-.4.1s-2.5-2.5-2.2-6.9zm6.4 3.5h.2s.4-.1.7.4c.2.2 1.1 1 1.9 1.9.3.4.9 1 1.3 1.5.1.2.2.4-.1.5 0 0-2.8 2.5-6.2.7m1.8-11.3h.2c.5 0 .6-.5.6-.5.2-1.2.3-2.8.4-4 .1-.9-.5-.8-.5-.8s-.2 0-.3.2m-3.2 7.9c.2.1.3.1.4 0 .1 0 .2-.2.2-.3 0-.1.1-.3 0-.5s-.2-.3-.2-.3-.5-.2-1.1-.4c-.4-.2-.9-.4-1.4-.5-.9-.3-.9.4-.8.7.1.2.4.4.4.4l2.5.9s0-.4.2-.7c0 0 .1-.2-.2-.3 0 0-1.5-.7-2.6-1m4 5.3s.1-.2.3-.1c.2.1.4.5.3.9 0 .1-.1.6-.8 2.3-.2.4-.3.9-.5 1.3v.1c-.2.5-.6.2-.6.2s-.4-.2-.1-.8l.1-.4m4.9-4c.1 0 .2-.1.3 0 .2.1.4.3.4.3l1.8 2c.2.2.4.5.6.7.6.7.3 1 .3 1s-.3.4-.7-.1l-.2-.2"/><path class="st7" d="M77.1 18.2s0 1.9-.5 4.6c0 0 0 .1.1.1 0 0 .3-.1.4-.5s.4-1.8.5-3.6v-.7c0-.2-.1 0-.1.1"/><path d="m25.7 25.1 2.8 3.2v-6.4m42.8 3.2-2.8 3.2v-6.4" fill-rule="evenodd" clip-rule="evenodd" fill="#4d4d4d"/></svg>