<svg xmlns="http://www.w3.org/2000/svg" width="132" height="26"><path d="M127 25H5c-2.2 0-4-1.8-4-4V5c0-2.2 1.8-4 4-4h122c2.2 0 4 1.8 4 4v16c0 2.2-1.8 4-4 4z" fill="#fff"/><path d="M50.4 14.2c-.1.8-.4 1.4-.8 1.8s-1.1.6-1.9.6c-.6 0-1.1-.1-1.5-.4s-.8-.7-1-1.1-.4-1.1-.4-1.7v-.7c0-.7.1-1.3.4-1.8s.6-.9 1-1.2 1-.4 1.5-.4c.8 0 1.4.2 1.9.6s.8 1 .8 1.8h-1.2c-.1-.5-.2-.9-.4-1.1s-.6-.3-1.1-.3-.9.2-1.2.6-.4 1-.4 1.7v.6c0 .8.1 1.4.4 1.8.3.4.7.6 1.2.6s.8-.1 1.1-.3.4-.6.5-1.1h1.1zm6.9-1.1c0 .7-.1 1.3-.4 1.8s-.6.9-1 1.2c-.4.3-1 .4-1.5.4-.6 0-1.1-.1-1.5-.4s-.8-.7-1-1.2-.4-1.1-.4-1.8v-.4c0-.7.1-1.3.4-1.8s.6-.9 1-1.2 1-.4 1.5-.4 1.1.1 1.5.4.8.7 1 1.2.4 1.1.4 1.8v.4zm-1.2-.3c0-.8-.1-1.4-.4-1.8s-.7-.6-1.3-.6c-.5 0-1 .2-1.3.6s-.5 1-.5 1.8v.4c0 .8.2 1.4.5 1.8s.7.6 1.3.6c.5 0 1-.2 1.3-.6s.4-1 .4-1.8v-.4zm8.2 3.7H63l-3.2-5v5h-1.2V9.4h1.2l3.2 5.1V9.4h1.2l.1 7.1zm5.6-3H67v3h-1.2V9.4h4.5v1H67v2.1h2.9v1zm2.8 3h-1.2V9.4h1.2v7.1zm7.1-.9c-.3.3-.6.6-1.1.8-.5.2-1 .3-1.6.3s-1.1-.1-1.6-.4-.8-.7-1.1-1.2-.4-1.1-.4-1.8v-.6c0-1.1.3-1.9.8-2.5s1.2-.9 2.2-.9c.8 0 1.4.2 1.9.6.5.4.7 1 .8 1.7h-1.2c-.1-.9-.6-1.3-1.5-1.3-.6 0-1 .2-1.3.6s-.4 1-.4 1.8v.5c0 .8.2 1.4.5 1.8.3.4.8.6 1.3.6.6 0 1.1-.1 1.3-.4v-1.4h-1.5v-.9h2.7v2.7h.2zm6.7-6.2v4.8c0 .8-.2 1.4-.7 1.8-.5.4-1.1.7-1.9.7s-1.5-.2-1.9-.7-.7-1-.7-1.8V9.4h1.2v4.8c0 .5.1.8.4 1.1.2.3.6.4 1.1.4 1 0 1.4-.5 1.4-1.5V9.4h1.1zm4 4.4h-1.4v2.7h-1.2V9.4h2.5c.8 0 1.5.2 1.9.6.4.4.7.9.7 1.6 0 .5-.1.9-.3 1.2s-.5.6-1 .7l1.6 3v.1H92l-1.5-2.8zm-1.4-1h1.3c.4 0 .7-.1 1-.3s.4-.5.4-.9-.1-.7-.3-.9c-.2-.2-.5-.3-1-.3h-1.3l-.1 2.4zm9.1 2h-2.8l-.6 1.7h-1.3l2.7-7.1h1.1l2.7 7.1h-1.3l-.5-1.7zm-2.4-1h2.1l-1-2.9-1.1 2.9zm9.7-3.4h-2.2v6.1h-1.2v-6.1h-2.2v-1h5.6v1zm6.6 2.7c0 .7-.1 1.3-.4 1.8-.2.5-.6.9-1 1.2-.4.3-1 .4-1.5.4-.6 0-1.1-.1-1.5-.4-.5-.3-.8-.7-1-1.2s-.4-1.1-.4-1.8v-.4c0-.7.1-1.3.4-1.8.2-.5.6-.9 1-1.2s1-.4 1.5-.4c.6 0 1.1.1 1.5.4.4.3.8.7 1 1.2s.4 1.1.4 1.8v.4zm-1.2-.3c0-.8-.1-1.4-.4-1.8s-.7-.6-1.3-.6c-.5 0-1 .2-1.3.6-.3.4-.5 1-.5 1.8v.4c0 .8.2 1.4.5 1.8.3.4.7.6 1.3.6.5 0 1-.2 1.3-.6.3-.4.4-1 .4-1.8v-.4zm5.1 1h-1.4v2.7h-1.2V9.4h2.5c.8 0 1.5.2 1.9.6.4.4.7.9.7 1.6 0 .5-.1.9-.3 1.2s-.5.6-1 .7l1.6 3v.1h-1.3l-1.5-2.8zm-1.3-1h1.3c.4 0 .7-.1 1-.3s.4-.5.4-.9-.1-.7-.3-.9c-.2-.2-.5-.3-1-.3h-1.3l-.1 2.4z" fill="#787878"/><path d="M22.2 6.9a6.7 6.7 0 1 0 0 13.4 6.7 6.7 0 0 0 0-13.4zm0 10.1c-1.9 0-3.4-1.5-3.4-3.4s1.5-3.4 3.4-3.4 3.4 1.5 3.4 3.4-1.5 3.4-3.4 3.4zm.6-12.1h-1.3c-.3 0-.6.2-.6.6l-.2 2.4h3l-.2-2.4c-.1-.3-.4-.6-.7-.6zM16.5 7l-.9.9c-.2.2-.2.6 0 .8l1.5 1.8 2.1-2.1L17.3 7c-.2-.3-.6-.2-.8 0zm-3 5.9v1.3c0 .3.2.6.6.6l2.4.2v-3l-2.4.2c-.4.1-.6.4-.6.7zm2.1 6.4.9.9c.2.2.6.2.8 0l1.8-1.5-2.1-2.1-1.5 1.8c-.2.3-.1.6.1.9zm5.9 3h1.3c.3 0 .6-.2.6-.6l.2-2.4h-3l.2 2.4c.1.3.4.6.7.6zm6.4-2.1.9-.9c.2-.2.2-.6 0-.8l-1.5-1.8-2.1 2.1 1.8 1.5c.3.1.6.1.9-.1zm3-6v-1.3c0-.3-.2-.6-.6-.6l-2.4-.2v3l2.4-.2c.3-.1.6-.3.6-.7zm-2.1-6.3-.9-.9c-.2-.2-.6-.2-.8 0l-1.8 1.5 2.1 2.1 1.5-1.8c.1-.3.1-.7-.1-.9z" fill="#facb51"/></svg>