<svg xmlns="http://www.w3.org/2000/svg" width="132" height="26"><path d="M127 25H5c-2.2 0-4-1.8-4-4V5c0-2.2 1.8-4 4-4h122c2.2 0 4 1.8 4 4v16c0 2.2-1.8 4-4 4z" fill="#fff"/><path d="M50.3 14.2c-.1.8-.4 1.4-.8 1.8-.4.4-1.1.6-1.9.6-.6 0-1.1-.1-1.5-.4-.4-.3-.8-.7-1-1.1s-.4-1.1-.4-1.7v-.7c0-.7.1-1.3.4-1.8.2-.5.6-.9 1-1.2s1-.4 1.5-.4c.8 0 1.4.2 1.9.6s.8 1 .8 1.8H49c-.1-.5-.2-.9-.4-1.1s-.6-.3-1.1-.3-1 .2-1.2.6-.4 1-.4 1.7v.6c0 .8.1 1.4.4 1.8.3.4.7.6 1.2.6s.8-.1 1.1-.3.4-.6.5-1.1h1.2zm6.8-1.1c0 .7-.1 1.3-.4 1.8-.2.5-.6.9-1 1.2-.4.3-1 .4-1.5.4-.6 0-1.1-.1-1.5-.4-.5-.3-.8-.7-1-1.2s-.4-1.1-.4-1.8v-.4c0-.7.1-1.3.4-1.8.2-.5.6-.9 1-1.2s1-.4 1.5-.4c.6 0 1.1.1 1.5.4.4.3.8.7 1 1.2s.4 1.1.4 1.8v.4zm-1.2-.3c0-.8-.1-1.4-.4-1.8s-.7-.6-1.3-.6c-.5 0-1 .2-1.3.6-.3.4-.5 1-.5 1.8v.4c0 .8.2 1.4.5 1.8.3.4.7.6 1.3.6.5 0 1-.2 1.3-.6.3-.4.4-1 .4-1.8v-.4zm5.2 1h-1.4v2.7h-1.2V9.4H61c.8 0 1.5.2 1.9.6.4.4.7.9.7 1.6 0 .5-.1.9-.3 1.2s-.5.6-1 .7l1.6 3v.1h-1.3l-1.5-2.8zm-1.4-1H61c.4 0 .7-.1 1-.3s.4-.5.4-.9-.1-.7-.3-.9-.5-.3-1-.3h-1.3v2.4h-.1zm9.3.5h-3v2.2h3.4v1h-4.6V9.4h4.6v1H66v2h3v.9zm4.1 3.2V9.4h2.1c.6 0 1.2.1 1.7.4.5.3.9.7 1.1 1.2.3.5.4 1.1.4 1.8v.4c0 .7-.1 1.3-.4 1.8s-.7.9-1.1 1.2c-.5.3-1.1.4-1.7.4l-2.1-.1zm1.3-6.1v5.1h.8c.6 0 1.1-.2 1.5-.6s.5-1 .5-1.7v-.4c0-.8-.2-1.4-.5-1.8-.3-.4-.8-.6-1.5-.6h-.8zm9.5 2.9H81v2.2h3.4v1h-4.6V9.4h4.6v1H81v2h2.9v.9zm2.9.6v2.6h-1.2V9.4h2.7c.8 0 1.4.2 1.9.6.5.4.7 1 .7 1.6 0 .7-.2 1.2-.7 1.6-.5.4-1.1.6-1.9.6l-1.5.1zm0-1h1.5c.4 0 .8-.1 1-.3s.3-.5.3-.9-.1-.7-.4-.9-.6-.3-1-.4h-1.5l.1 2.5zm10.9.2c0 .7-.1 1.3-.4 1.8-.2.5-.6.9-1 1.2-.4.3-1 .4-1.5.4-.6 0-1.1-.1-1.5-.4-.5-.3-.8-.7-1-1.2s-.4-1.1-.4-1.8v-.4c0-.7.1-1.3.4-1.8.2-.5.6-.9 1-1.2s1-.4 1.5-.4c.6 0 1.1.1 1.5.4.4.3.8.7 1 1.2s.4 1.1.4 1.8v.4zm-1.2-.3c0-.8-.1-1.4-.4-1.8s-.7-.6-1.3-.6c-.5 0-1 .2-1.3.6-.3.4-.5 1-.5 1.8v.4c0 .8.2 1.4.5 1.8.3.4.7.6 1.3.6.5 0 1-.2 1.3-.6.3-.4.4-1 .4-1.8v-.4zm6.2 1.9c0-.3-.1-.6-.3-.7s-.6-.3-1.2-.5-1-.4-1.4-.6c-.6-.4-1-.9-1-1.6 0-.6.2-1 .7-1.4s1.1-.6 1.8-.6c.5 0 .9.1 1.3.3s.7.4.9.8c.2.3.3.7.3 1.1h-1.2c0-.4-.1-.7-.3-.9-.2-.2-.6-.3-1-.3s-.7.1-.9.3c-.2.2-.3.4-.3.7s.1.5.4.7c.2.2.6.3 1.2.5s1 .4 1.3.6c.3.2.6.5.7.7s.2.6.2 1c0 .6-.2 1.1-.7 1.4-.5.3-1.1.5-1.8.5-.5 0-1-.1-1.4-.3s-.8-.5-1-.8-.4-.7-.4-1.2h1.2c0 .4.1.7.4.9s.6.3 1.1.3c.4 0 .8-.1 1-.3.3-.1.4-.3.4-.6zm3.8 1.8h-1.2V9.4h1.2v7.1zm6.6-6.1h-2.2v6.1h-1.2v-6.1h-2.2v-1h5.6v1z" fill="#787878"/><path d="M23.3 15.9c0-.5-.1-.9-.4-1.2s-.8-.6-1.4-.8c-.7-.3-1.2-.5-1.7-.7s-.9-.5-1.2-.9c-.3-.3-.6-.7-.8-1.1s-.3-1-.3-1.5c0-1 .3-1.9 1-2.5.7-.7 1.5-1 2.6-1.2V4h1.5v2c1.1.2 1.9.6 2.5 1.4.6.7.9 1.6.9 2.8h-2.7c0-.7-.2-1.3-.5-1.6-.2-.4-.6-.6-1.2-.6-.5 0-.9.1-1.2.4-.3.3-.4.7-.4 1.2s.1.8.4 1.1.8.6 1.5.9c.7.3 1.3.6 1.8.8s.9.6 1.2.9c.3.3.6.7.7 1.1.2.4.3.9.3 1.5 0 1-.3 1.9-1 2.5-.6.6-1.5 1-2.7 1.1v1.8h-1.5v-1.8c-1.3-.1-2.2-.6-2.9-1.3-.7-.8-1-1.8-1-3h2.7c0 .7.2 1.3.5 1.7.3.4.8.6 1.5.6.5 0 1-.1 1.3-.4.4-.3.5-.7.5-1.2z" fill="#0af"/></svg>