<svg xmlns="http://www.w3.org/2000/svg" width="96" height="64"><style>.st2{fill:#fff}</style><path d="M20.4 54.4c-.1.8-.4 1.3-.8 1.8-.5.4-1.1.6-1.9.6-.6 0-1.1-.1-1.5-.4-.4-.3-.8-.7-1-1.1s-.4-1.1-.4-1.7v-.7c0-.7.1-1.3.4-1.8s.6-.9 1-1.2 1-.4 1.5-.4c.8 0 1.4.2 1.9.6.5.4.8 1 .8 1.8h-1.2c-.1-.5-.2-.9-.4-1.1-.2-.2-.6-.3-1.1-.3s-1 .2-1.2.6-.5.9-.5 1.7v.6c0 .8.1 1.4.4 1.8.3.4.7.6 1.2.6s.8-.1 1.1-.3.4-.6.5-1.1h1.2zm6.8-1.1c0 .7-.1 1.3-.4 1.8-.2.5-.6.9-1 1.2s-1 .4-1.5.4c-.6 0-1.1-.1-1.5-.4-.5-.3-.8-.7-1-1.2s-.4-1.1-.4-1.8V53c0-.7.1-1.3.4-1.8.2-.5.6-.9 1-1.2s1-.4 1.5-.4 1.1.1 1.5.4c.4.3.8.7 1 1.2s.4 1.1.4 1.8v.3zm-1.2-.4c0-.8-.1-1.4-.4-1.8s-.7-.6-1.3-.6c-.5 0-1 .2-1.3.6-.3.4-.5 1-.5 1.8v.4c0 .8.2 1.4.5 1.8.3.4.7.6 1.3.6.5 0 1-.2 1.3-.6.3-.4.4-1 .4-1.8v-.4zm5.1 1.1h-1.4v2.7h-1.2v-7.1H31c.8 0 1.5.2 1.9.6.4.4.7.9.7 1.6 0 .5-.1.9-.3 1.2s-.5.6-1 .7l1.6 3v.1h-1.3L31.1 54zm-1.4-1H31c.4 0 .7-.1 1-.3.2-.2.4-.5.4-.9s-.1-.7-.3-.9-.5-.3-1-.3h-1.3V53h-.1zm9.1.5h-2.9v2.2h3.4v1h-4.6v-7.1h4.6v1h-3.4v2h2.9v.9zm4 3.2v-7.1h2.1c.6 0 1.2.1 1.7.4.5.3.9.7 1.1 1.2s.4 1.1.4 1.8v.4c0 .7-.1 1.3-.4 1.8s-.7.9-1.1 1.2c-.5.3-1.1.4-1.7.4h-2.1v-.1zm1.3-6.1v5.1h.8c.6 0 1.1-.2 1.5-.6.3-.4.5-1 .5-1.7V53c0-.8-.2-1.4-.5-1.8s-.8-.6-1.5-.6h-.8zm9.4 2.9h-2.9v2.2H54v1h-4.6v-7.1H54v1h-3.4v2h2.9v.9zm2.8.6v2.6H55v-7.1h2.7c.8 0 1.4.2 1.9.6.5.4.7 1 .7 1.6 0 .7-.2 1.2-.7 1.6-.5.4-1.1.6-1.9.6h-1.4v.1zm0-1h1.5c.4 0 .8-.1 1-.3s.3-.5.3-.9-.1-.7-.4-.9c-.2-.2-.6-.3-1-.4h-1.5v2.5h.1zm10.8.2c0 .7-.1 1.3-.4 1.8-.2.5-.6.9-1 1.2s-1 .4-1.5.4c-.6 0-1.1-.1-1.5-.4-.5-.3-.8-.7-1-1.2s-.4-1.1-.4-1.8V53c0-.7.1-1.3.4-1.8.2-.5.6-.9 1-1.2s1-.4 1.5-.4 1.1.1 1.5.4c.4.3.8.7 1 1.2s.4 1.1.4 1.8v.3zm-1.3-.4c0-.8-.1-1.4-.4-1.8s-.7-.6-1.3-.6c-.5 0-1 .2-1.3.6-.3.4-.5 1-.5 1.8v.4c0 .8.2 1.4.5 1.8.3.4.7.6 1.3.6.5 0 1-.2 1.3-.6.3-.4.4-1 .4-1.8v-.4zm6.2 2c0-.3-.1-.6-.3-.7s-.6-.3-1.2-.5-1-.4-1.4-.6c-.6-.4-1-.9-1-1.6 0-.6.2-1 .7-1.4s1.1-.6 1.8-.6c.5 0 .9.1 1.3.3s.7.4.9.8c.2.3.3.7.3 1.1H72c0-.4-.1-.7-.3-.9-.2-.2-.6-.3-1-.3s-.7.1-.9.3c-.2.2-.3.4-.3.7s.1.5.4.6c.2.2.6.3 1.2.5s1 .3 1.3.6c.3.2.6.5.7.7.2.3.2.6.2 1 0 .6-.2 1.1-.7 1.4-.5.4-1.1.5-1.8.5-.5 0-1-.1-1.4-.3s-.8-.5-1-.8-.4-.7-.4-1.2h1.2c0 .4.1.7.4.9s.6.3 1.1.3c.4 0 .8-.1 1-.3.2 0 .3-.3.3-.5zm3.7 1.8h-1.2v-7.1h1.2v7.1zm6.5-6.1H80v6.1h-1.2v-6.1h-2.2v-1h5.6v1z" fill="#787878"/><circle cx="48" cy="24.2" r="17.5" fill="#0af"/><path class="st2" d="M46.6 32.4v-2h-.3c-2.2-.2-3.4-.7-3.4-.7h-.1v-1.9h.2s2.6.4 4.5.4c2.1 0 2.3-.7 2.3-1.5 0-.9-.6-1.3-3-1.8-2.5-.6-4.1-1.9-4.1-3.7 0-1.5 1.5-3 3.6-3.5l.2-.1v-2h2.3v1.9h.3c1.7.2 2.9.6 2.9.6h.1V20H52s-2.1-.3-4.1-.3c-1.9 0-2.4.9-2.4 1.4 0 .7.2 1.3 2.6 1.6 2.8.4 4.7 2 4.7 3.9 0 1.8-1.4 3.3-3.6 3.7H49v2.1h-2.4z"/><path class="st2" d="M48 37c-7.2 0-13.1-5.9-13.1-13S40.7 11 48 11c3.6 0 6.9 1.4 9.3 3.9l-1.8 1.9c-2-2.1-4.6-3.2-7.7-3.2-5.8 0-10.6 4.7-10.6 10.5S42 34.6 47.8 34.6s10.6-4.7 10.6-10.5v-.7h-3l4.3-5.5 4.3 5.5h-3v.6c.1 3.4-1.2 6.7-3.7 9.1-2.5 2.6-5.8 3.9-9.3 3.9z"/></svg>