<svg xmlns="http://www.w3.org/2000/svg" width="96" height="64"><path d="M48 6.7c-3.2 0-6.2.9-8.8 2.4L48 24.2V6.7z" fill="#ed1b24"/><path d="M39.2 9c-2.7 1.6-4.9 3.9-6.4 6.6L48 24.2 39.2 9z" fill="#a3248f"/><path d="M55.6 8.3c-2.2-1.1-4.9-1.7-7.5-1.7v17.5l7.5-15.8z" fill="#ef3f3f"/><path d="M65.5 23c-.2-3.2-1.3-6.2-3-8.7L48 24.2 65.5 23z" fill="#f9a61a"/><path d="M32.7 15.6c-1.5 2.5-2.2 5.4-2.2 8.6v.4l17.5-.4-15.3-8.6z" fill="#5c2e91"/><path d="M62.5 14.3c-1.7-2.5-4.2-4.7-7-6L48 24.1l14.5-9.8z" fill="#f68121"/><path d="M65.5 23 48 24.2l15.7 7.9c1.2-2.3 1.8-5.1 1.8-7.9V23z" fill="#fef200"/><path d="M30.5 24.5c.1 3.2 1 6.2 2.6 8.8L48 24.1l-17.5.4z" fill="#21409a"/><path d="M48.8 41.6c3.2-.1 6.2-1.2 8.8-2.8L48 24.1l.8 17.5z" fill="#00a65e"/><path d="M57.5 38.9c2.6-1.7 4.8-4.1 6.1-6.8L48 24.2l9.5 14.7z" fill="#71bf45"/><path d="M33.1 33.3c1.7 2.6 4 4.9 6.7 6.3L48 24.2l-14.9 9.1z" fill="#0065b3"/><path d="M39.8 39.7c2.4 1.3 5.3 2 8.2 2h.8L48 24.2l-8.2 15.5z" fill="#01aaad"/><path d="M23.7 54.4c-.1.8-.4 1.3-.8 1.8-.5.4-1.1.6-1.9.6-.6 0-1.1-.1-1.5-.4-.4-.3-.8-.7-1-1.1s-.5-1.1-.5-1.8v-.7c0-.7.1-1.3.4-1.8s.6-.9 1-1.2 1-.4 1.5-.4c.8 0 1.4.2 1.9.6.5.4.8 1 .8 1.8h-1.2c-.1-.5-.2-.9-.4-1.1-.2-.2-.6-.3-1.1-.3s-1 .2-1.2.6-.4 1-.4 1.7v.6c0 .8.1 1.4.4 1.8.3.4.7.6 1.2.6s.8-.1 1.1-.3.4-.6.5-1.1h1.2v.1zm6.3-4.8v4.8c0 .8-.2 1.4-.7 1.8-.5.4-1.1.7-1.9.7s-1.5-.2-1.9-.7c-.5-.4-.7-1-.7-1.8v-4.7H26v4.7c0 .5.1.8.4 1.1.2.3.6.4 1.1.4 1 0 1.4-.5 1.4-1.5v-4.7l1.1-.1zm5 5.3c0-.3-.1-.6-.3-.7s-.6-.3-1.2-.5-1-.4-1.4-.6c-.6-.4-1-.9-1-1.6 0-.6.2-1 .7-1.4s1.1-.6 1.8-.6c.5 0 .9.1 1.3.3s.7.4.9.8c.2.3.3.7.3 1.1H35c0-.4-.1-.7-.3-.9s-.6-.3-1-.3-.7.1-.9.3-.3.4-.3.7.1.5.4.6c.2.2.6.3 1.2.5s1 .3 1.3.6c.3.2.6.5.7.7.2.3.2.6.2 1 0 .6-.2 1.1-.7 1.4-.5.4-1.1.5-1.8.5-.5 0-1-.1-1.4-.3s-.8-.5-1-.8-.4-.7-.4-1.2h1.2c0 .4.1.7.4.9.3.2.6.3 1.1.3.4 0 .8-.1 1-.3.2 0 .3-.3.3-.5zm7.5-4.3h-2.2v6.1H39v-6.1h-2.2v-1h5.6v1h.1zm6.4 2.7c0 .7-.1 1.3-.4 1.8-.2.5-.6.9-1 1.2s-1 .4-1.5.4c-.6 0-1.1-.1-1.5-.4-.5-.3-.8-.7-1-1.2-.3-.5-.5-1.1-.5-1.7V53c0-.7.1-1.3.4-1.8.2-.5.6-.9 1-1.2s1-.4 1.5-.4 1.1.1 1.5.4c.4.3.8.7 1 1.2s.4 1.1.4 1.8l.1.3zm-1.2-.4c0-.8-.1-1.4-.4-1.8s-.7-.6-1.3-.6c-.5 0-1 .2-1.3.6-.3.4-.5 1-.5 1.8v.4c0 .8.2 1.4.5 1.8.3.4.7.6 1.3.6.5 0 1-.2 1.3-.6.3-.4.4-1 .4-1.8v-.4zm4.1-3.3 2.1 5.4 2-5.4h1.6v7.1h-1.2v-2.3l.1-3.1-2.1 5.5h-.9l-2.1-5.5.1 3.1v2.3h-1.2v-7.1h1.6zm8.4 7.1H59v-7.1h1.2v7.1zm2.7-1h3.8v1h-5.3v-.8l3.7-5.3h-3.7v-1h5.2v.8l-3.7 5.3zm9-2.2H69v2.2h3.4v1h-4.6v-7.1h4.6v1H69v2h2.9v.9zm4.1.5h-1.4v2.7h-1.2v-7.1h2.5c.8 0 1.5.2 1.9.6.4.4.7.9.7 1.6 0 .5-.1.9-.3 1.2-.2.3-.5.6-1 .7l1.6 3v.1h-1.3L76 54zm-1.4-1h1.3c.4 0 .7-.1 1-.3.2-.2.4-.5.4-.9s-.1-.7-.3-.9c-.2-.2-.5-.3-1-.3h-1.3l-.1 2.4z" fill="#787878"/></svg>