<svg xmlns="http://www.w3.org/2000/svg" width="132" height="26"><style>.st1{fill:none;stroke:#bb29e6;stroke-width:2;stroke-miterlimit:10}</style><path d="M127 25H5c-2.2 0-4-1.8-4-4V5c0-2.2 1.8-4 4-4h122c2.2 0 4 1.8 4 4v16c0 2.2-1.8 4-4 4z" fill="#fff"/><path class="st1" d="M29.5 13.2s-.3-.1-.6-.1c-.3-.1-.6-.4-.7-.7-.1-.5-.2-.9-.3-1.3-.1-.3 0-.7.3-1l.4-.4c.3-.2.3-.6.1-.9l-1.2-1.6c-.1-.2-.5-.2-.7 0l-.4.4c-.3.2-.7.3-1 .1-.4-.3-.8-.5-1.3-.7-.3-.1-.6-.5-.6-.8v-.6c.1-.3-.2-.6-.5-.6h-2c-.3 0-.6.3-.6.6v.6c0 .4-.2.7-.6.8l-1.2.6c-.3.2-.7.2-1-.1l-.4-.4c-.2-.1-.6-.1-.8.2l-1.2 1.6c-.2.3-.2.7.1.9l.4.4c.3.2.4.6.3 1l-.3 1.3c0 .4-.3.7-.7.7-.3.1-.6.1-.6.1-.3.1-.5.4-.5.7l.4 2c.1.3.4.5.7.5 0 0 .3-.1.5-.1.3-.1.7.1.9.4.2.4.5.7.8 1.1.3.3.3.7.1 1-.1.3-.2.5-.2.5-.1.3 0 .7.3.8l1.8.9c.3.1.7 0 .8-.3 0 0 .1-.3.2-.5.2-.3.5-.5.9-.5h1.4c.4 0 .7.2.9.5.1.3.2.5.2.5.1.3.5.4.8.3l1.8-.9c.3-.1.4-.5.3-.8 0 0-.1-.3-.2-.5-.2-.3-.1-.7.1-1 .3-.3.6-.7.8-1.1.2-.3.6-.4.9-.4.3.1.5.1.5.1.3.1.6-.1.7-.5l.4-2c.4-.4.2-.7-.2-.8z"/><circle class="st1" cx="22" cy="13" r="3"/><path d="M55.9 14.2c-.1.8-.4 1.4-.8 1.8-.4.4-1.1.6-1.9.6-.6 0-1.1-.1-1.5-.4s-.8-.7-1-1.1-.4-1.1-.4-1.7v-.7c0-.7.1-1.3.4-1.8s.6-.9 1-1.2 1-.4 1.5-.4c.8 0 1.4.2 1.9.6s.8 1 .8 1.8h-1.2c-.1-.5-.2-.9-.4-1.1s-.6-.3-1.1-.3-.9.2-1.2.6-.4 1-.4 1.7v.6c0 .8.1 1.4.4 1.8.3.4.7.6 1.2.6s.8-.1 1.1-.3.4-.6.5-1.1h1.1zm6.4-4.8v4.8c0 .8-.2 1.4-.7 1.8-.5.4-1.1.7-1.9.7-.8 0-1.5-.2-1.9-.7s-.7-1-.7-1.8V9.4h1.2v4.8c0 .5.1.8.4 1.1s.6.4 1.1.4c1 0 1.4-.5 1.4-1.5V9.4h1.1zm5.2 5.3c0-.3-.1-.6-.3-.7s-.6-.3-1.2-.5-1-.4-1.4-.6c-.6-.4-1-.9-1-1.6 0-.6.2-1 .7-1.4.5-.4 1.1-.6 1.8-.6.5 0 .9.1 1.3.3s.7.4.9.8.3.7.3 1.1h-1.2c0-.4-.1-.7-.3-.9s-.6-.3-1-.3-.7.1-.9.3-.3.4-.3.7.1.5.4.7.6.3 1.2.5 1 .4 1.3.6.6.5.7.7.2.6.2 1c0 .6-.2 1.1-.7 1.4-.5.3-1.1.5-1.8.5-.5 0-1-.1-1.4-.3s-.8-.5-1-.8-.4-.7-.4-1.2h1.2c0 .4.1.7.4.9s.6.3 1.1.3c.4 0 .8-.1 1-.3s.4-.3.4-.6zm7.5-4.3h-2.2v6.1h-1.2v-6.1h-2.2v-1H75v1zm6.6 2.7c0 .7-.1 1.3-.4 1.8s-.6.9-1 1.2c-.4.3-1 .4-1.5.4-.6 0-1.1-.1-1.5-.4s-.8-.7-1-1.2-.4-1.1-.4-1.8v-.4c0-.7.1-1.3.4-1.8s.6-.9 1-1.2 1-.4 1.5-.4 1.1.1 1.5.4.8.7 1 1.2.4 1.1.4 1.8v.4zm-1.2-.3c0-.8-.1-1.4-.4-1.8s-.7-.6-1.3-.6c-.5 0-1 .2-1.3.6s-.5 1-.5 1.8v.4c0 .8.2 1.4.5 1.8s.7.6 1.3.6c.5 0 1-.2 1.3-.6s.4-1 .4-1.8v-.4zm4.1-3.4 2.1 5.4 2-5.4h1.6v7.1H89v-2.3l.1-3.1-2.1 5.4h-.9L84 11l.1 3.1v2.3h-1.2v-7h1.6zm8.6 7.1h-1.2V9.4h1.2v7.1zm2.8-1h3.8v1h-5.3v-.8l3.7-5.3h-3.7v-1h5.2v.8l-3.7 5.3zm9.1-2.2h-2.9v2.2h3.4v1h-4.6V9.4h4.6v1h-3.4v2h2.9v.9zm4.2.5h-1.4v2.7h-1.2V9.4h2.5c.8 0 1.5.2 1.9.6s.7.9.7 1.6c0 .5-.1.9-.3 1.2s-.5.6-1 .7l1.6 3v.1h-1.3l-1.5-2.8zm-1.4-1h1.3c.4 0 .7-.1 1-.3s.4-.5.4-.9-.1-.7-.3-.9-.5-.3-1-.3h-1.3l-.1 2.4z" fill="#787878"/></svg>