<svg xmlns="http://www.w3.org/2000/svg" width="96" height="64"><style>.st2{fill:#fff}</style><circle cx="48" cy="24.2" r="17.5" fill="#366ee7"/><path d="M19.1 56.7v-7.1h2.1c.6 0 1.2.1 1.7.4.5.3.9.7 1.1 1.2s.4 1.1.4 1.8v.4c0 .7-.1 1.3-.4 1.8s-.7.9-1.1 1.2c-.5.3-1.1.4-1.7.4h-2.1v-.1zm1.2-6.1v5.1h.8c.6 0 1.1-.2 1.5-.6.3-.4.5-1 .5-1.7V53c0-.8-.2-1.4-.5-1.8s-.8-.6-1.5-.6h-.8zm6.6 6.1h-1.2v-7.1h1.2v7.1zm3.1-7.1 2.1 5.4 2-5.4h1.6v7.1h-1.2v-2.3l.1-3.1-2.1 5.5h-.9l-2.1-5.5.1 3.1v2.3h-1.2v-7.1H30zm11.3 3.9h-2.9v2.2h3.4v1h-4.6v-7.1h4.6v1h-3.4v2h2.9v.9zm7.2 3.2h-1.2l-3.2-5v5h-1.2v-7.1h1.2l3.2 5.1v-5.1h1.2v7.1zm5.1-1.8c0-.3-.1-.6-.3-.7-.2-.2-.6-.3-1.2-.5s-1-.4-1.4-.6c-.6-.4-1-.9-1-1.6 0-.6.2-1 .7-1.4s1.1-.6 1.8-.6c.5 0 .9.1 1.3.3.4.2.7.4.9.8.2.3.3.7.3 1.1h-1.2c0-.4-.1-.7-.3-.9s-.6-.3-1-.3-.7.1-.9.3-.3.3-.3.7c0 .3.1.5.4.6.2.2.6.3 1.2.5s1 .3 1.3.6c.3.2.6.5.7.7.2.3.2.6.2 1 0 .6-.2 1.1-.7 1.4-.5.4-1.1.5-1.8.5-.5 0-1-.1-1.4-.3s-.8-.5-1-.8-.4-.7-.4-1.2h1.2c0 .4.1.7.4.9.3.2.7.3 1.1.3.4 0 .8-.1 1-.3.3 0 .4-.3.4-.5zm3.7 1.8H56v-7.1h1.2v7.1h.1zm7.2-3.4c0 .7-.1 1.3-.4 1.8-.2.5-.6.9-1 1.2s-1 .4-1.5.4c-.6 0-1.1-.1-1.5-.4-.5-.3-.8-.7-1-1.2s-.4-1.1-.4-1.8V53c0-.7.1-1.3.4-1.8.2-.5.6-.9 1-1.2s1-.4 1.5-.4c.6 0 1.1.1 1.5.4.4.3.8.7 1 1.2.2.5.4 1.1.4 1.8v.3zm-1.3-.4c0-.8-.1-1.4-.4-1.8-.3-.4-.7-.6-1.3-.6-.5 0-1 .2-1.3.6-.3.4-.5 1-.5 1.8v.4c0 .8.2 1.4.5 1.8s.7.6 1.3.6c.5 0 1-.2 1.3-.6s.4-1 .4-1.8v-.4zm8.1 3.8h-1.2l-3.2-5v5h-1.2v-7.1h1.2l3.2 5.1v-5.1h1.2v7.1zm5.2-1.8c0-.3-.1-.6-.3-.7-.2-.2-.6-.4-1.2-.6-.6-.2-1-.4-1.4-.6-.6-.4-1-.9-1-1.6 0-.6.2-1 .7-1.4s1.1-.6 1.8-.6c.5 0 .9.1 1.3.3s.7.4.9.8c.2.3.3.7.3 1.1h-1.2c0-.4-.1-.7-.3-.9s-.6-.3-1-.3-.7.1-.9.3c-.2.2-.3.4-.3.7s.1.5.4.6c.2.2.6.3 1.2.5s1 .3 1.3.6c.3.2.6.5.7.7.2.3.2.6.2 1 0 .6-.2 1.1-.7 1.4-.5.4-1.1.5-1.8.5-.5 0-1-.1-1.4-.3s-.8-.5-1-.8-.4-.7-.4-1.2h1.2c0 .4.1.7.4.9s.6.3 1.1.3c.4 0 .8-.1 1-.3.3.1.4-.2.4-.4z" fill="#787878"/><path class="st2" d="m38.6 33.7 3.9-.6-3.4-3.4m17.5-10.6.7-.7c.4-.4.4-1.1 0-1.6l-1.9-1.9c-.4-.4-1.1-.4-1.6 0l-.7.7 3.5 3.5zm-18.3.2 4.2-4.2 14.7 14.7L53 34 38.3 19.3z"/><path d="m43.9 16.3-2.5 2.5m4.5-.5L44 20.2m5.9 2.2-1.8 1.8m5.7 2L51.9 28m-4.1-7.7-2.5 2.5m6.5 1.4-2.5 2.5m6.4 1.5-2.5 2.5" fill="#366ee7" stroke="#366ee7" stroke-miterlimit="10"/><path class="st2" d="m49.3 19.5 3-3 3.4 3.4-3 3-3.4-3.4zM40 28.9l3-3 3.4 3.4-3 3-3.4-3.4z"/></svg>