<svg xmlns="http://www.w3.org/2000/svg" width="132" height="26"><style>.st2{fill:none;stroke:#2964e3;stroke-width:2;stroke-linecap:round;stroke-linejoin:round;stroke-miterlimit:10}</style><path d="M127 25H5c-2.2 0-4-1.8-4-4V5c0-2.2 1.8-4 4-4h122c2.2 0 4 1.8 4 4v16c0 2.2-1.8 4-4 4z" fill="#fff"/><path d="M52 16.5V9.4h2.1c.6 0 1.2.1 1.7.4s.9.7 1.1 1.2.4 1.1.4 1.8v.4c0 .7-.1 1.3-.4 1.8s-.7.9-1.1 1.2c-.4.3-1.1.4-1.7.4l-2.1-.1zm1.3-6.1v5.1h.8c.6 0 1.1-.2 1.5-.6s.5-1 .5-1.7v-.4c0-.8-.2-1.4-.5-1.8s-.8-.6-1.5-.6h-.8zm6.7 6.1h-1.2V9.4H60v7.1zm3.2-7.1 2.1 5.4 2-5.4h1.6v7.1h-1.2v-2.3l.1-3.1-2.1 5.5h-.9L62.7 11l.1 3.1v2.3h-1.2v-7h1.6zm11.4 3.9h-2.9v2.2h3.4v1h-4.6V9.4H75v1h-3.4v2h2.9l.1.9zm7.2 3.2h-1.2l-3.2-5v5h-1.2V9.4h1.2l3.2 5.1V9.4h1.2v7.1zm5.3-1.8c0-.3-.1-.6-.3-.7s-.6-.3-1.2-.5-1-.4-1.4-.6c-.6-.4-1-.9-1-1.6 0-.6.2-1 .7-1.4s1.1-.6 1.8-.6c.5 0 .9.1 1.3.3s.8.4 1 .7.3.7.3 1.1h-1.2c0-.4-.1-.7-.3-.9s-.6-.3-1-.3-.7.1-.9.3-.3.4-.3.7.1.5.4.7.6.3 1.2.5 1 .4 1.3.6.6.5.7.7.2.6.2 1c0 .6-.2 1.1-.7 1.4-.5.3-1.1.5-1.8.5-.5 0-1-.1-1.4-.3s-.8-.5-1-.8-.5-.7-.5-1.1h1.2c0 .4.1.7.4.9s.6.3 1.1.3c.4 0 .8-.1 1-.3s.4-.3.4-.6zm3.7 1.8h-1.2V9.4h1.2v7.1zm7.3-3.4c0 .7-.1 1.3-.4 1.8s-.6.9-1 1.2c-.4.3-1 .4-1.5.4-.6 0-1.1-.1-1.5-.4s-.8-.7-1-1.2-.4-1.1-.4-1.8v-.4c0-.7.1-1.3.4-1.8s.6-.9 1-1.2 1-.4 1.5-.4 1.1.1 1.5.4.8.7 1 1.2.4 1.1.4 1.8v.4zm-1.2-.3c0-.8-.1-1.4-.4-1.8s-.7-.6-1.3-.6c-.5 0-1 .2-1.3.6s-.5 1-.5 1.8v.4c0 .8.2 1.4.5 1.8s.7.6 1.3.6c.5 0 1-.2 1.3-.6s.4-1 .4-1.8v-.4zm8.2 3.7h-1.2l-3.2-5v5h-1.2V9.4h1.2l3.2 5.1V9.4h1.2v7.1zm5.3-1.8c0-.3-.1-.6-.3-.7s-.6-.3-1.2-.5-1-.4-1.4-.6c-.6-.4-1-.9-1-1.6 0-.6.2-1 .7-1.4s1.1-.6 1.8-.6c.5 0 .9.1 1.3.3s.7.4.9.8.3.7.3 1.1h-1.2c0-.4-.1-.7-.3-.9s-.6-.3-1-.3-.7.1-.9.3-.3.4-.3.7.1.5.4.7.6.3 1.2.5 1 .4 1.3.6.6.5.7.7.2.6.2 1c0 .6-.2 1.1-.7 1.4-.5.3-1.1.5-1.8.5-.5 0-1-.1-1.4-.3s-.8-.5-1-.8-.4-.7-.4-1.2h1.2c0 .4.1.7.4.9s.6.3 1.1.3c.4 0 .8-.1 1-.3s.4-.3.4-.6z" fill="#787878"/><path class="st2" d="M14 4.9h16v16H14v-16z"/><path d="M27.1 13.3V8.7c0-.3-.3-.6-.6-.6h-4.6c-.3 0-.5.4-.3.7l4.8 4.9c.2.2.7 0 .7-.4zm-10-.6v4.7c0 .3.3.6.6.6h4.6c.3 0 .5-.4.3-.7l-4.8-4.9c-.3-.3-.7-.1-.7.3z" fill="#2964e3"/><path class="st2" d="m25.7 9.4-7 7"/></svg>