<svg xmlns="http://www.w3.org/2000/svg" width="96" height="64"><path d="M15.3 56.7v-7.1h2.1c.6 0 1.2.1 1.7.4.5.3.9.7 1.1 1.2.3.5.4 1.1.4 1.8v.4c0 .7-.1 1.3-.4 1.8s-.7.9-1.1 1.2c-.5.3-1.1.4-1.7.4h-2.1v-.1zm1.2-6.1v5.1h.8c.6 0 1.1-.2 1.5-.6.3-.4.5-1 .5-1.7V53c0-.8-.2-1.4-.5-1.8-.3-.4-.8-.6-1.5-.6h-.8zm7.4 2.3 1.6-3.4h1.4L24.5 54v2.6h-1.2V54l-2.4-4.5h1.4l1.6 3.4zm9.4 3.8h-1.2l-3.2-5v5h-1.2v-7.1h1.2l3.2 5.1v-5.1h1.2v7.1zm7.2-3.4c0 .7-.1 1.3-.4 1.8-.2.5-.6.9-1 1.2s-1 .4-1.5.4c-.6 0-1.1-.1-1.5-.4-.5-.3-.8-.7-1-1.2s-.4-1.1-.4-1.8V53c0-.7.1-1.3.4-1.8.2-.5.6-.9 1-1.2s1-.4 1.5-.4c.6 0 1.1.1 1.5.4.4.3.8.7 1 1.2s.4 1.1.4 1.8v.3zm-1.3-.4c0-.8-.1-1.4-.4-1.8-.3-.4-.7-.6-1.3-.6-.5 0-1 .2-1.3.6-.3.4-.5 1-.5 1.8v.4c0 .8.2 1.4.5 1.8s.7.6 1.3.6c.5 0 1-.2 1.3-.6s.4-1 .4-1.8v-.4zm10.4 1.5c-.1.8-.4 1.3-.8 1.8-.5.4-1.1.6-1.9.6-.6 0-1.1-.1-1.5-.4-.4-.3-.8-.7-1-1.1s-.4-1.1-.4-1.8v-.7c0-.7.1-1.3.4-1.8.2-.5.6-.9 1-1.2s1-.4 1.5-.4c.8 0 1.4.2 1.9.6.5.4.8 1 .8 1.8h-1.2c-.1-.5-.2-.9-.4-1.1-.2-.2-.6-.3-1.1-.3s-1 .2-1.2.6c-.3.4-.4 1-.4 1.7v.6c0 .8.1 1.4.4 1.8.3.4.7.6 1.2.6s.8-.1 1.1-.3.4-.6.5-1.1h1.1v.1zm6.8 2.3h-1.2v-3.2H52v3.2h-1.2v-7.1H52v3h3.2v-3h1.2v7.1zm5.5-1.7h-2.8l-.6 1.7h-1.3l2.7-7.1H61l2.7 7.1h-1.3l-.5-1.7zm-2.4-1h2.1l-1-2.9-1.1 2.9zm7.7 0h-1.4v2.7h-1.2v-7.1h2.5c.8 0 1.5.2 1.9.6.4.4.7.9.7 1.6 0 .5-.1.9-.3 1.2-.2.3-.5.6-1 .7l1.6 3v.1h-1.3L67.2 54zm-1.4-1h1.3c.4 0 .7-.1 1-.3.2-.2.4-.5.4-.9s-.1-.7-.3-.9-.5-.3-1-.3h-1.3l-.1 2.4zm9.9-2.4h-2.2v6.1h-1.2v-6.1h-2.2v-1h5.6v1zm4.6 4.3c0-.3-.1-.6-.3-.7-.2-.2-.6-.3-1.2-.5s-1-.4-1.4-.6c-.6-.4-1-.9-1-1.6 0-.6.2-1 .7-1.4s1.1-.6 1.8-.6c.5 0 .9.1 1.3.3s.7.4.9.8c.2.3.3.7.3 1.1h-1.2c0-.4-.1-.7-.3-.9s-.6-.3-1-.3-.7.1-.9.3c-.2.2-.3.4-.3.7s.1.5.4.6c.2.2.6.3 1.2.5s1 .3 1.3.6c.3.2.6.5.7.7.2.3.2.6.2 1 0 .6-.2 1.1-.7 1.4-.5.4-1.1.5-1.8.5-.5 0-1-.1-1.4-.3s-.8-.5-1-.8-.4-.7-.4-1.2h1.2c0 .4.1.7.4.9s.6.3 1.1.3c.4 0 .8-.1 1-.3.3 0 .4-.3.4-.5z" fill="#787878"/><circle cx="48" cy="24.2" r="17.5" fill="#2a387a"/><path d="M57.8 16.4c-1.1 0-1.9.9-1.9 1.9 0 .3.1.6.2.9l-4.6 5.4c-.2-.1-.4-.1-.6-.1-.5 0-.9.2-1.1.4L46 22.8c-.1-1-.9-1.7-1.9-1.7s-1.9.9-1.9 1.9c0 .2.1.5.1.7l-3.4 3.4c-.2-.1-.5-.2-.8-.2-1.1 0-1.9.9-1.9 1.9s.9 1.9 1.9 1.9c1.1 0 1.9-.9 1.9-1.9 0-.2 0-.5-.1-.7l3.4-3.4c.2.1.5.2.8.2.6 0 1.1-.3 1.4-.7l3.5 2v.2c0 1.1.9 1.9 1.9 1.9s1.9-.9 1.9-1.9c0-.3-.1-.6-.2-.9l4.6-5.4c.2.1.4.1.6.1 1.1 0 1.9-.9 1.9-1.9.1-1-.9-1.9-1.9-1.9z" fill="#fff"/></svg>