<svg xmlns="http://www.w3.org/2000/svg" width="132" height="26"><path d="M127 25H5c-2.2 0-4-1.8-4-4V5c0-2.2 1.8-4 4-4h122c2.2 0 4 1.8 4 4v16c0 2.2-1.8 4-4 4z" fill="#fff"/><path d="M47.8 13.4h-2.9v2.2h3.4v1h-4.6V9.5h4.6v1h-3.4v2h2.9v.9zm4.1-1.4 1.5-2.6h1.4L52.6 13l2.2 3.6h-1.4L51.9 14l-1.5 2.6H49l2.2-3.6L49 9.5h1.4l1.5 2.5zm9.6 4.6h-1.2v-3.2h-3.2v3.2h-1.2V9.5h1.2v3h3.2v-3h1.2v7.1zm5.6-1.7h-2.8l-.6 1.7h-1.3l2.7-7.1h1.1l2.7 7.1h-1.3l-.5-1.7zm-2.4-1h2.1l-1-2.9-1.1 2.9zM75 9.5v4.8c0 .8-.2 1.4-.7 1.8-.5.4-1.1.7-1.9.7s-1.5-.2-1.9-.7-.7-1-.7-1.8V9.5H71v4.8c0 .5.1.8.4 1.1s.6.4 1.1.4c1 0 1.4-.5 1.4-1.5V9.5H75zm5.2 5.2c0-.3-.1-.6-.3-.7s-.6-.3-1.2-.5-1-.4-1.4-.6c-.6-.4-1-.9-1-1.6 0-.6.2-1 .7-1.4s1.1-.6 1.8-.6c.5 0 .9.1 1.3.3s.7.4.9.8.3.7.3 1.1h-1.2c0-.4-.1-.7-.3-.9s-.6-.3-1-.3-.7.1-.9.3-.3.4-.3.7.1.5.4.7.6.3 1.2.5 1 .4 1.3.6.6.5.7.7.2.6.2 1c0 .6-.2 1.1-.7 1.4-.5.3-1.1.5-1.8.5-.5 0-1-.1-1.4-.3s-.8-.5-1-.8-.4-.7-.4-1.2h1.2c0 .4.1.7.4.9s.6.3 1.1.3c.4 0 .8-.1 1-.3s.4-.3.4-.6zm7.5-4.3h-2.2v6.1h-1.2v-6.1h-2.2v-1h5.6v1zm8.2 0h-2.2v6.1h-1.2v-6.1h-2.2v-1h5.6v1zm3.4 2.4 1.6-3.4h1.4l-2.4 4.5v2.6h-1.2v-2.6l-2.4-4.5h1.4l1.6 3.4zm5.1 1.1v2.6h-1.2v-7h2.7c.8 0 1.4.2 1.9.6.5.4.7 1 .7 1.6 0 .7-.2 1.2-.7 1.6s-1.1.6-1.9.6h-1.5zm0-1h1.5c.4 0 .8-.1 1-.3s.3-.5.3-.9-.1-.7-.4-.9-.6-.3-1-.4h-1.5l.1 2.5zm9.4.5h-2.9v2.2h3.4v1h-4.6V9.5h4.6v1h-3.4v2h2.9v.9zm5.4 1.3c0-.3-.1-.6-.3-.7s-.6-.3-1.2-.5-1-.4-1.4-.6c-.6-.4-1-.9-1-1.6 0-.6.2-1 .7-1.4s1.1-.6 1.8-.6c.5 0 .9.1 1.3.3s.7.4.9.8.3.7.3 1.1h-1.2c0-.4-.1-.7-.3-.9s-.6-.3-1-.3-.7.1-.9.3-.3.4-.3.7.1.5.4.7.6.3 1.2.5 1 .4 1.3.6.6.5.7.7.2.6.2 1c0 .6-.2 1.1-.7 1.4-.5.3-1.1.5-1.8.5-.5 0-1-.1-1.4-.3s-.8-.5-1-.8-.4-.7-.4-1.2h1.2c0 .4.1.7.4.9s.6.3 1.1.3c.4 0 .8-.1 1-.3s.4-.3.4-.6z" fill="#787878"/><path d="M27.4 19H14.6c-.3 0-.6-.3-.6-.6V8.6c0-.3.3-.6.6-.6h12.9c.2 0 .5.3.5.6v9.9c0 .3-.3.5-.6.5z" fill="none" stroke="#00aeef" stroke-width="2" stroke-linecap="round" stroke-linejoin="round" stroke-miterlimit="10"/><path d="M15 16h-4.2c-.4 0-.8-.4-.8-.8v-3.3c0-.5.4-.9.8-.9H15v5zm12 0h4.2c.5 0 .8-.4.8-.8v-3.3c0-.5-.4-.8-.8-.8H27V16z" fill="#00aeef"/></svg>