<svg xmlns="http://www.w3.org/2000/svg" width="96" height="64"><style>.st2{fill:none;stroke:#fff;stroke-miterlimit:10}</style><circle cx="48" cy="24.2" r="17.5" fill="#00aeef"/><path d="M14.8 53.5h-2.9v2.2h3.4v1h-4.6v-7.1h4.6v1h-3.4v2h2.9v.9zm3.9-1.4 1.5-2.6h1.4L19.5 53l2.2 3.6h-1.4L18.8 54l-1.5 2.6h-1.4l2.2-3.6-2.2-3.5h1.4l1.4 2.6zm9.6 4.6H27v-3.2h-3.2v3.2h-1.2v-7.1h1.2v3H27v-3h1.2v7.1h.1zm5.5-1.7H31l-.6 1.7h-1.3l2.7-7.1H33l2.7 7.1h-1.3l-.6-1.7zm-2.4-1h2.1l-1-2.9-1.1 2.9zm10.2-4.4v4.8c0 .8-.2 1.4-.7 1.8-.5.4-1.1.7-1.9.7-.8 0-1.5-.2-1.9-.7-.5-.4-.7-1-.7-1.8v-4.7h1.2v4.7c0 .5.1.8.4 1.1.2.3.6.4 1.1.4 1 0 1.4-.5 1.4-1.5v-4.7l1.1-.1zm5 5.3c0-.3-.1-.6-.3-.7s-.6-.3-1.2-.5-1-.4-1.4-.6c-.6-.4-1-.9-1-1.6 0-.6.2-1 .7-1.4s1.1-.6 1.8-.6c.5 0 .9.1 1.3.3s.7.4.9.8c.2.3.3.7.3 1.1h-1.2c0-.4-.1-.7-.3-.9s-.6-.3-1-.3-.7.1-.9.3-.3.4-.3.7.1.5.4.6c.2.2.6.3 1.2.5s1 .3 1.3.6c.3.2.6.5.7.7.2.3.2.6.2 1 0 .6-.2 1.1-.7 1.4-.5.4-1.1.5-1.8.5-.5 0-1-.1-1.4-.3s-.8-.5-1-.8-.4-.7-.4-1.2h1.2c0 .4.1.7.4.9s.6.3 1.1.3c.4 0 .8-.1 1-.3.3 0 .4-.3.4-.5zm7.5-4.3h-2.2v6.1h-1.2v-6.1h-2.2v-1h5.6v1zm8 0h-2.2v6.1h-1.2v-6.1h-2.2v-1h5.6v1zm3.3 2.3 1.6-3.4h1.4L66 54.1v2.6h-1.2v-2.6l-2.4-4.5h1.4l1.6 3.3zm5 1.1v2.6h-1.2v-7.1h2.7c.8 0 1.4.2 1.9.6.5.4.7 1 .7 1.6 0 .7-.2 1.2-.7 1.6-.5.4-1.1.6-1.9.6h-1.5v.1zm0-.9h1.5c.4 0 .8-.1 1-.3s.3-.5.3-.9-.1-.7-.4-.9c-.2-.2-.6-.3-1-.4h-1.5l.1 2.5zm9.3.4h-2.9v2.2h3.4v1h-4.6v-7.1h4.6v1h-3.4v2h2.9v.9zm5.2 1.4c0-.3-.1-.6-.3-.7s-.6-.3-1.2-.5-1-.4-1.4-.6c-.6-.4-1-.9-1-1.6 0-.6.2-1 .7-1.4s1.1-.6 1.8-.6c.5 0 .9.1 1.3.3s.7.4.9.8c.2.3.3.7.3 1.1h-1.2c0-.4-.1-.7-.3-.9-.2-.2-.6-.3-1-.3s-.7.1-.9.3c-.2.2-.3.4-.3.7s.1.5.4.6c.2.2.6.3 1.2.5s1 .3 1.3.6c.3.2.6.5.7.7.2.3.2.6.2 1 0 .6-.2 1.1-.7 1.4-.5.4-1.1.5-1.8.5-.5 0-1-.1-1.4-.3s-.8-.5-1-.8-.4-.7-.4-1.2H82c0 .4.1.7.4.9s.6.3 1.1.3c.4 0 .8-.1 1-.3.3 0 .4-.3.4-.5z" fill="#787878"/><path class="st2" d="m36.9 27.2-.5-.4c-1.5-1.6-1.4-4.1.2-5.6 1.6-1.5 4.1-1.4 5.6.2l5.1 5.4c1.5 1.6 1.4 4.1-.2 5.6-1.6 1.5-4.1 1.4-5.6-.2l-.5-.5"/><path class="st2" d="M37.3 20.6c.4-.2.7-.3 1.1-.4 4.2-.9 9.9-1.6 9.9-1.6H48c1.4-.2 2.9.1 3.9 1.1l3.3 3.6c1.5 1.6 1.4 4.1-.2 5.6-.1.1-.3.2-.4.3 0 0-2.2 1-9 4"/><path class="st2" d="m36.6 27.4 5.1-1.6s3 .6 2.2 4.4L39 32.7"/><path class="st2" d="M39.3 29.4c.7 1.6.6 2.9-.2 3.2s-1.9-.4-2.6-2c-.7-1.6-.7-3 .1-3.3.9-.2 2 .6 2.7 2.1zm16.8-5s3-1.5 3.8-2.2c.8-.6 1.3-1.8.1-2.9s-2.1-1.3-1.2-1.7 1.6-.7 1.6-.7l-1.5-1.2s-2.2.7-3 .9-1.1.9-.2 1.5c1 .6 1.3.7 1.8 1.1s.4.9 0 1.1-3.9 1.6-3.9 1.6"/></svg>