<svg xmlns="http://www.w3.org/2000/svg" width="132" height="26"><path d="M127 25H5c-2.2 0-4-1.8-4-4V5c0-2.2 1.8-4 4-4h122c2.2 0 4 1.8 4 4v16c0 2.2-1.8 4-4 4z" fill="#fff"/><path d="M61.9 13.5H59v3h-1.2V9.4h4.5v1H59v2.1h2.9v1zm5.6-.2h-2.9v2.2H68v1h-4.6V9.4H68v1h-3.4v2h2.9v.9zm5.6 1.5h-2.8l-.6 1.7h-1.3l2.7-7.1h1.1l2.7 7.1h-1.3l-.5-1.7zm-2.4-1h2.1l-1-2.9-1.1 2.9zm9.7-3.4h-2.2v6.1H77v-6.1h-2.2v-1h5.6v1zm6.2-1v4.8c0 .8-.2 1.4-.7 1.8-.5.4-1.1.7-1.9.7s-1.5-.2-1.9-.7-.7-1-.7-1.8V9.4h1.2v4.8c0 .5.1.8.4 1.1.2.3.6.4 1.1.4 1 0 1.4-.5 1.4-1.5V9.4h1.1zm4.1 4.4h-1.4v2.7h-1.2V9.4h2.5c.8 0 1.5.2 1.9.6s.7.9.7 1.6c0 .5-.1.9-.3 1.2-.2.3-.5.6-1 .7l1.6 3v.1h-1.3l-1.5-2.8zm-1.4-1h1.3c.4 0 .7-.1 1-.3s.4-.5.4-.9-.1-.7-.3-.9c-.2-.2-.5-.3-1-.3h-1.3l-.1 2.4zm9.3.5h-2.9v2.2h3.4v1h-4.6V9.4H99v1h-3.4v2h2.9l.1.9zm5.3 1.4c0-.3-.1-.6-.3-.7-.2-.2-.6-.3-1.2-.5s-1-.4-1.4-.6c-.6-.4-1-.9-1-1.6 0-.6.2-1 .7-1.4s1.1-.6 1.8-.6c.5 0 .9.1 1.3.3s.7.4.9.8.3.7.3 1.1h-1.2c0-.4-.1-.7-.3-.9-.2-.2-.6-.3-1-.3s-.7.1-.9.3c-.2.2-.3.4-.3.7s.1.5.4.7.6.3 1.2.5 1 .4 1.3.6.6.5.7.7.2.6.2 1c0 .6-.2 1.1-.7 1.4-.5.4-1.1.5-1.8.5-.5 0-1-.1-1.4-.3s-.8-.5-1-.8-.4-.7-.4-1.2h1.2c0 .4.1.7.4.9s.6.3 1.1.3c.4 0 .8-.1 1-.3.3-.1.4-.3.4-.6z" fill="#787878"/><path d="M29.9 11.3c.1.6.2 1.1.2 1.7 0 4.4-3.6 8-8 8s-8-3.6-8-8 3.6-8 8-8c1.1 0 2.1.2 3 .6" fill="none" stroke="#3a51a2" stroke-width="2" stroke-linecap="round" stroke-miterlimit="10"/><path d="m19.2 11.6 2.9 2.8 8-8.6" fill="none" stroke="#3a51a2" stroke-width="2" stroke-linecap="round" stroke-linejoin="round" stroke-miterlimit="10"/></svg>