<svg xmlns="http://www.w3.org/2000/svg" width="96" height="64"><circle cx="48" cy="24" r="17.5" fill="#ffb508"/><path d="m56.4 18.4 3.5 3.7-5.7 5.3m-4.7-11.5 5.2 1.2-2.1 8.7m-10.7-8.2 5.4-1.8 3.4 10.5m-14.6-3.7 4.1-4 11.3 11.2-4.1 4-11.3-11.2zM47.3 28c-1 0-1.8.8-1.8 1.8s.8 1.8 1.8 1.8 1.8-.8 1.8-1.8-.8-1.8-1.8-1.8z" fill="#fff"/><path d="M31.5 53h-2.9v3h-1.2v-7.1h4.5v1h-3.3V52h2.9v1zm2.7 3H33v-7.1h1.2V56zm7.2 0h-1.2L37 51v5h-1.2v-7.1H37l3.2 5.1v-5.1h1.2V56zm2.7 0h-1.2v-7.1h1.2V56zm5.3-1.8c0-.3-.1-.6-.3-.7s-.6-.3-1.2-.5-1-.4-1.4-.6c-.6-.4-1-.9-1-1.6 0-.6.2-1 .7-1.4s1.1-.6 1.8-.6c.5 0 .9.1 1.3.3s.7.4.9.8c.2.3.3.7.3 1.1h-1.2c0-.4-.1-.7-.3-.9s-.6-.3-1-.3-.7.1-.9.3-.3.4-.3.7.1.5.4.6c.2.2.6.3 1.2.5s1 .3 1.3.6c.3.2.6.5.7.7.2.3.2.6.2 1 0 .6-.2 1.1-.7 1.4-.5.4-1.1.5-1.8.5-.5 0-1-.1-1.4-.3s-.8-.5-1-.8-.4-.7-.4-1.2h1.2c0 .4.1.7.4.9s.6.3 1.1.3c.4 0 .8-.1 1-.3.3 0 .4-.2.4-.5zm7.9 1.8h-1.2v-3.2h-3.2V56h-1.2v-7.1h1.2v3h3.2v-3h1.2V56zm5.6-3.2H60V55h3.4v1h-4.6v-7.1h4.6v1H60v2h2.9v.9zm5.3 1.4c0-.3-.1-.6-.3-.7s-.6-.3-1.2-.5-1-.4-1.4-.6c-.6-.4-1-.9-1-1.6 0-.6.2-1 .7-1.4s1.1-.6 1.8-.6c.5 0 .9.1 1.3.3s.7.4.9.8c.2.3.3.7.3 1.1h-1.2c0-.4-.1-.7-.3-.9-.2-.2-.6-.3-1-.3s-.7.1-.9.3c-.2.2-.3.4-.3.7s.1.5.4.6c.2.2.6.3 1.2.5s1 .3 1.3.6c.3.2.6.5.7.7.2.3.2.6.2 1 0 .6-.2 1.1-.7 1.4-.5.4-1.1.5-1.8.5-.5 0-1-.1-1.4-.3s-.8-.5-1-.8-.4-.7-.4-1.2h1.2c0 .4.1.7.4.9s.6.3 1.1.3c.4 0 .8-.1 1-.3.3 0 .4-.2.4-.5z" fill="#787878"/></svg>