<svg xmlns="http://www.w3.org/2000/svg" width="132" height="26"><path d="M127 25H5c-2.2 0-4-1.8-4-4V5c0-2.2 1.8-4 4-4h122c2.2 0 4 1.8 4 4v16c0 2.2-1.8 4-4 4z" fill="#fff"/><path d="M63.7 13.5h-2.9v3h-1.2V9.4h4.5v1h-3.3v2.1h2.9v1zm2.8 3h-1.2V9.4h1.2v7.1zm7.3 0h-1.2l-3.2-5v5h-1.2V9.4h1.2l3.2 5.1V9.4h1.2v7.1zm2.8 0h-1.2V9.4h1.2v7.1zm5.4-1.8c0-.3-.1-.6-.3-.7s-.6-.3-1.2-.5-1-.4-1.4-.6c-.6-.4-1-.9-1-1.6 0-.6.2-1 .7-1.4s1.1-.6 1.8-.6c.5 0 .9.1 1.3.3s.7.4.9.8c.2.3.3.7.3 1.1H82c0-.4-.1-.7-.3-.9-.2-.2-.6-.3-1-.3s-.7.1-.9.3c-.2.2-.3.4-.3.7s.1.5.4.7c.2.2.6.3 1.2.5s1 .4 1.3.6c.3.2.6.5.7.7s.2.6.2 1c0 .6-.2 1.1-.7 1.4-.5.3-1.1.5-1.8.5-.5 0-1-.1-1.4-.3s-.8-.5-1-.8-.4-.7-.4-1.2h1.2c0 .4.1.7.4.9s.6.3 1.1.3c.4 0 .8-.1 1-.3.2-.1.3-.3.3-.6zm8 1.8h-1.2v-3.2h-3.2v3.2h-1.2V9.4h1.2v3h3.2v-3H90v7.1zm5.8-3.2h-2.9v2.2h3.4v1h-4.6V9.4h4.6v1h-3.4v2h2.9v.9zm5.3 1.4c0-.3-.1-.6-.3-.7s-.6-.3-1.2-.5-1-.4-1.4-.6c-.6-.4-1-.9-1-1.6 0-.6.2-1 .7-1.4s1.1-.6 1.8-.6c.5 0 .9.1 1.3.3s.7.4.9.8c.2.3.3.7.3 1.1H101c0-.4-.1-.7-.3-.9-.2-.2-.6-.3-1-.3s-.7.1-.9.3c-.2.2-.3.4-.3.7s.1.5.4.7c.2.2.6.3 1.2.5s1 .4 1.3.6c.3.2.6.5.7.7s.2.6.2 1c0 .6-.2 1.1-.7 1.4-.5.3-1.1.5-1.8.5-.5 0-1-.1-1.4-.3s-.8-.5-1-.8-.4-.8-.4-1.2h1.2c0 .4.1.7.4.9s.6.3 1.1.3c.4 0 .8-.1 1-.3.3-.1.4-.3.4-.6z" fill="#787878"/><path d="M18.3 6.5 13.8 11c-.6.6-.6 1.6 0 2.1l7.7 7.7c.6.6 1.6.6 2.1 0l4.5-4.5c.6-.6.6-1.6 0-2.1l-7.7-7.7c-.6-.6-1.5-.6-2.1 0zm6.4 10.9c-.5.5-1.4.5-2 0-.5-.5-.5-1.4 0-2 .5-.5 1.4-.5 2 0 .6.6.6 1.5 0 2zm4.4-12.6h-6.3c-.6 0-1 .3-1.3.7l7.6 7.6c1.2 1.2 1.2 3.1 0 4.3l-1.3 1.3H29c.8 0 1.5-.7 1.5-1.5l.1-10.8c.1-.9-.6-1.6-1.5-1.6z" fill="#ffb508"/></svg>