<svg xmlns="http://www.w3.org/2000/svg" width="132" height="26"><style>.st0{fill:#fff}</style><path class="st0" d="M127 25H5c-2.2 0-4-1.8-4-4V5c0-2.2 1.8-4 4-4h122c2.2 0 4 1.8 4 4v16c0 2.2-1.8 4-4 4z"/><path d="M63 13.5h-2.9v3h-1.2V9.4h4.5v1h-3.3v2.1H63v1zm7.2-.4c0 .7-.1 1.3-.4 1.8-.2.5-.6.9-1 1.2-.4.3-1 .4-1.5.4-.6 0-1.1-.1-1.5-.4-.5-.3-.8-.7-1-1.2s-.4-1.1-.4-1.8v-.4c0-.7.1-1.3.4-1.8.2-.5.6-.9 1-1.2s1-.4 1.5-.4c.6 0 1.1.1 1.5.4.4.3.8.7 1 1.2s.4 1.1.4 1.8v.4zm-1.3-.3c0-.8-.1-1.4-.4-1.8s-.7-.6-1.3-.6c-.5 0-1 .2-1.3.6-.3.4-.5 1-.5 1.8v.4c0 .8.2 1.4.5 1.8.3.4.7.6 1.3.6.5 0 1-.2 1.3-.6.3-.4.4-1 .4-1.8v-.4zm5.2 1h-1.4v2.7h-1.2V9.4H74c.8 0 1.5.2 1.9.6.4.4.7.9.7 1.6 0 .5-.1.9-.3 1.2s-.5.6-1 .7l1.6 3v.1h-1.3l-1.5-2.8zm-1.4-1H74c.4 0 .7-.1 1-.3s.4-.5.4-.9-.1-.7-.3-.9c-.2-.2-.5-.3-1-.3h-1.3l-.1 2.4zm10.6 2.8c-.3.3-.6.6-1.1.8-.5.2-1 .3-1.6.3s-1.1-.1-1.6-.4-.7-.8-1-1.3-.4-1.1-.4-1.8v-.6c0-1.1.3-1.9.8-2.5s1.2-.9 2.2-.9c.8 0 1.4.2 1.9.6.5.4.7 1 .8 1.7h-1.2c-.1-.9-.6-1.3-1.5-1.3-.6 0-1 .2-1.3.6s-.4 1-.4 1.8v.5c0 .8.2 1.4.5 1.8.3.4.8.6 1.3.6.6 0 1.1-.1 1.3-.4v-1.4h-1.5v-.9h2.7l.1 2.8zm2.7.9h-1.2V9.4H86v7.1zm7.3 0h-1.2l-3.2-5v5h-1.2V9.4h1.2l3.2 5.1V9.4h1.2v7.1zm7-.9c-.3.3-.6.6-1.1.8-.5.2-1 .3-1.6.3s-1.1-.1-1.6-.4-.8-.7-1.1-1.2-.4-1.1-.4-1.8v-.6c0-1.1.3-1.9.8-2.5s1.2-.9 2.2-.9c.8 0 1.4.2 1.9.6.5.4.7 1 .8 1.7H99c-.1-.9-.6-1.3-1.5-1.3-.6 0-1 .2-1.3.6s-.4 1-.4 1.8v.5c0 .8.2 1.4.5 1.8.3.4.8.6 1.4.6s1.1-.1 1.3-.4v-1.4h-1.5v-.9h2.7l.1 2.7z" fill="#787878"/><path d="M27.6 3.9h-1.2c-.3 0-.5.2-.5.5v1H20v-.7c0-.4-.3-.8-.8-.8h-3.4c-.4 0-.8.3-.8.8v16.6c0 .4.3.8.8.8h3.4c.4 0 .8-.3.8-.8v-.8h5.9v1c0 .3.2.5.5.5h1.2c.3 0 .5-.2.5-.5V4.4c0-.2-.2-.5-.5-.5z" fill="#51b941"/><path class="st0" d="M25 8.4V7.3h-5V6c0-.3-.2-.5-.5-.5H17c-.2 0-.3.2-.3.3v14.4c0 .2.2.3.3.3h2.5c.2 0 .4-.2.4-.4v-1.4h5v-1.2h-1.7V8.4H25z"/></svg>