<svg xmlns="http://www.w3.org/2000/svg" width="96" height="64"><style>.st1,.st3,.st4{stroke-width:.1;stroke-miterlimit:10}.st1{fill-rule:evenodd;clip-rule:evenodd;fill:#e6e6e6;stroke:#1a1a1a}.st3{fill:#fff;stroke:#000}.st4{fill:none;stroke:#1a1a1a}.st7{fill-rule:evenodd;clip-rule:evenodd;fill:#fff}</style><path d="M32 53h-2.9v3h-1.2v-7.1h4.5v1h-3.3V52H32v1zm7-.4c0 .7-.1 1.3-.4 1.8-.2.5-.6.9-1 1.2s-1 .4-1.5.4c-.6 0-1.1-.1-1.5-.4-.5-.3-.8-.7-1-1.2s-.4-1.1-.4-1.8v-.4c0-.7.1-1.3.4-1.8.2-.5.6-.9 1-1.2s1-.4 1.5-.4 1.1.1 1.5.4c.4.3.8.7 1 1.2s.4 1.1.4 1.8v.4zm-1.2-.3c0-.8-.1-1.4-.4-1.8s-.7-.6-1.3-.6c-.5 0-1 .2-1.3.6-.3.4-.5 1-.5 1.8v.4c0 .8.2 1.4.5 1.8.3.4.7.6 1.3.6.5 0 1-.2 1.3-.6.3-.4.4-1 .4-1.8v-.4zm5.1 1h-1.4V56h-1.2v-7.1h2.5c.8 0 1.5.2 1.9.6.4.4.7.9.7 1.6 0 .5-.1.9-.3 1.2s-.5.6-1 .7l1.6 3h-1.3l-1.5-2.7zm-1.4-1h1.3c.4 0 .7-.1 1-.3.2-.2.4-.5.4-.9s-.1-.7-.3-.9-.5-.3-1-.3h-1.3v2.4h-.1zm10.4 2.8c-.3.3-.6.6-1.1.8s-1 .3-1.6.3-1.1-.1-1.6-.4-.8-.7-1.1-1.2c-.2-.5-.4-1.1-.4-1.8v-.6c0-1.1.3-1.9.8-2.5s1.2-.9 2.2-.9c.8 0 1.4.2 1.9.6.5.4.7 1 .8 1.7h-1.2c-.1-.9-.6-1.3-1.5-1.3-.6 0-1 .2-1.3.6s-.4 1-.4 1.8v.5c0 .8.2 1.4.5 1.8.3.4.8.6 1.4.6.6 0 1.1-.1 1.3-.4v-1.4h-1.5v-.9h2.7l.1 2.7zm2.7.9h-1.2v-7.1h1.2V56zm7.2 0h-1.2l-3.2-5v5h-1.2v-7.1h1.2l3.2 5.1v-5.1h1.2V56zm6.9-.9c-.3.3-.6.6-1.1.8s-1 .3-1.6.3-1.1-.1-1.6-.4-.8-.7-1.1-1.2c-.1-.6-.3-1.1-.3-1.8v-.6c0-1.1.3-1.9.8-2.5s1.2-.9 2.2-.9c.8 0 1.4.2 1.9.6.5.4.7 1 .8 1.7h-1.2c-.1-.9-.6-1.3-1.5-1.3-.6 0-1 .2-1.3.6-.3.4-.4 1-.4 1.8v.5c0 .8.2 1.4.5 1.8.3.4.8.6 1.4.6s1.1-.1 1.3-.4v-1.4H66v-.9h2.7v2.7z" fill="#787878"/><path class="st1" d="M57.5 38.4c1.8 1.3 3.9 2.1 6.1 2.1 6.6 0 12-6.6 12.1-14.8 0-8.1-5.3-14.7-11.9-14.7-2.1 0-4.1.7-5.8 1.8-.8-.2-1.6-.2-2.5-.2-6.2.3-11 6.4-10.8 13.5.2 7.2 5.4 12.8 11.6 12.5 0 0 .5 0 .6-.1.2 0 .6-.1.6-.1z"/><path d="M24 39.2c.2 0 .3-.3.3-.3s-.1-.6.7-.6 5.9-.3 5.9-.3l1.3-.7h2.3s.2.8.5.8.8.1.8.1.4 0 .4.5.7.4.7.4v-.5h-.2v-.8s-.2-.1-.2-.4.4-1.7.4-4.1V17.7s-.4-3.8-.4-4.1.2-.3.2-.4v-.8h.3v-.5s-.7-.1-.7.4-.4.5-.4.5-.6 0-.8.1-.5.8-.5.8h-2.3L31 13s-5.2-.3-5.9-.3-.7-.6-.7-.6-.1-.3-.3-.3c-.2 0-.3-.1-.3.1s.1.2.2.2c.2 0 .1.3.2.7s.2.3.5.3c.2 0 6.1.3 6.1.3s1.2.7 1.3.7h2.3c.3 0 .6-.1.6-.1 1.1 0 .9 1.7.7 4.1s-1.2 3-2.1 3.3-1.8.8-1.8.8V29l1.8.8s1.8.9 2.1 3.3c.2 2.4.4 4.1-.7 4.1 0 0-.2-.1-.6-.1h-2.3l-1.3.7s-5.9.2-6.1.2-.3 0-.5.3-.1.7-.3.7c-.2 0-.2 0-.2.2s.1 0 .3 0z" fill="#e6e6e6" stroke="#000" stroke-width=".1" stroke-miterlimit="10"/><path class="st3" d="M37 27c-.1-.4-.7-1.4-.7-1.4v-.5s.7-.4.7-1v-4.9s-.7 3.5-1.2 3.5c-.6 0-3.9.1-3.9.1v.5h3.2s-.7.6-.7.7v3.2l.5.6h-1.4s-.7 0-.7.3v.8s0 .3.7.3h2.7s.6 1.4.8 3.3V27z"/><path class="st3" d="M32.8 28v.7h-.9V28h.9z"/><path class="st4" d="M56.9 38h-.8c-6 0-10.8-5.6-10.8-12.4 0-6.9 4.9-12.4 10.8-12.4.4 0 .8 0 1.2.1"/><path class="st1" d="M63.6 11.1c6.6 0 11.9 6.6 11.9 14.8S70 40.7 63.4 40.7 51.5 34 51.5 25.9c.1-8.2 5.5-14.8 12.1-14.8z"/><path class="st4" d="M56.3 38.6c-6.2.3-11.3-5.3-11.6-12.5-.2-7.2 4.6-13.2 10.8-13.5.8 0 1.7 0 2.5.2"/><path class="st4" d="m65.2 21.9.1.1c.5.4 1.2.2 1.2.2s2.2-.7 4.3-1.5c1.2-.4 2.3-.8 3-1.1.1 0 .2-.1.2-.2.1-.1.1-.3.1-.3-2.8-6.7-8-7.6-8.5-7.7-.5-.1-.4.4-.4.4v2.5M53.3 24.5c1.9.8 3.5 1.5 4.3 1.9.3.2.5.3.5.3.2 1.2.7 1.8.7 1.8v.4c-.6 3.1-1.6 6.1-1.9 6.8-.1.1-.1.2-.2.3m8.8-10.3s2.2-.9 3.7-1.5 3.1-1.3 4.3-1.8c.1 0 .3-.1.3-.1s.1 0 .2-.1c.3-.2.8-.5.6-1.1-.3-1-1-.7-1.3-.6"/><path class="st4" d="M65.2 14.4s0 3.2-.4 6.5c0 0 0 .7.3 1 0 0 .2.1.5.1 0 0 1.3-.4 2.5-.8.9-.3 1.8-.7 1.8-.7M59.5 38.3s1.1-2.3 1.9-4.3c.6-1.4 1-2.6 1.1-2.9.2-.6.4-.8.4-.8.5.1.8.4.8.4 2.2 2 3.8 3.8 3.8 3.8l1 1.1s.1 0 .3.3c.2.3-.1.2-.1.2l-.2-.1c-.2-.1-.4-.3-.6-.2m2-15.3 2.2-.7s-.4.1-.9.1m-4.1 4.4c.3.1.6 0 .6 0s.9-.3 3.1-1.2c.5-.2 1.3-.5 1.9-.8.8-.3 1.1-.7.9-1.2 0 0-.1-.2-.4-.3-.2 0-.5 0-.9.1 0 0-.1 0-.1.1l-1.9.8s-1.1.4-2.7 1c0 0-1.1.2-.9 1.1-.1 0 0 .3.4.4l3.5-1.3s.7-.3 1.5-.6c.2-.1.3-.1.6-.2s-.6.1-.6.1.6-.1.5-.6-.2-.7-.6-.6m-1.3 3.3s2-.9 2-1"/><path class="st1" d="M69.7 31.1s.6.8 1.4 1.9"/><path class="st4" d="M62.2 20.4c-.2 1-.3 1.6-.3 1.7-.1.2-.2.3-.3.5s.1.7.9.8c.7.1 1.1-.8 1.1-.9s.3-.3.4-.4c.2-.1.1-.3.1-.3.6-3.9.7-7.7.7-9.3v-.1c0-1.1-.8-1.1-.8-1.1h-.1s-.9-.1-.9 1.1v.9m-10.4 8.2c.3-.8 1.2-.4 1.1-.5.8.3 2.2.7 3.5 1.2 1.8.6 3.3 1.2 3.3 1.2v.3s.5.4.4 1.2c0 .7-.5 1.1-.9 1.2h-.1s-2.2-.9-4.2-1.8c-.9-.3-1.8-.7-2.6-1H53c-.9-.3-.7-1.2-.7-1.2l.3-.6zm9.6-10.1s.5-.1.5.6c0 1.5-.2 4.7-.9 8.6 0 0-.1.5-.2.9s-.3.6-.5.8c-.5.4-.8.4-1.3.2-.2-.1-1.6-.6-3-1-1.1-.3-2.4-.7-3.3-1h-.1c-.5-.1-.3-.6-.3-.6s2.2-7.2 9.1-8.5zM60.1 30c.2-.6.3-1.3.5-1.9V28s-.1-.3 0-.4c0-.1.2-.3.6-.3.3 0 1.3.3 1.1 1.5 0 0 0 .1.1.2s.2.3.2.4-.8 2.7-1.8 5.1c-.5 1.3-1.1 2.5-1.5 3.4v.1c-.5 1-1.2.5-1.2.5l-.2-.2s-.7-.4-.2-1.5v-.1c.3-.7.7-1.8 1.2-2.9.3-.8.6-1.6.8-2.3.2-.8.4-1.5.4-1.5.1 0 .3.3.3.3.2.3.2.7.2.7-.4 2.2-1.7 5.5-1.8 5.9-.1.2-.2.4-.4.6m4.5-7.1c.1-.2.4-.4.7-.4 0 0 .6-.1 1.3.5.3.3 1.5 1.5 2.8 2.9 1.1 1.2 2 2.2 2.6 3l.2.2c.3.4 0 .8 0 .8s-4.7 4.7-11 1.8c0 0-.4-.1-.1-.6.1-.1.1-.2.2-.3m5.9-7.8c-.7-.7-1.2-1.1-1.2-1.1s-.1-.1-.3-.2-.5-.3-.6-.9c0-.6.5-1.1.8-1.2.3-.1.6 0 .8.1 0 0 .1.1.3.1.1 0 .2.1.3.1.2 0 .3.1.3.1s3 3.3 5.6 7c.7 1 .2 1.5 0 1.7 0 0-.5.7-1.3-.2v-.1c-.2-.2-.2-.3-.2-.3-.5-.6-1.7-2.1-1.7-2.1s-1-1.3-2.7-2.9c-.4-.4-.3-.8-.3-.8 0-.5.4-.5.4-.5.3.1.6.4.6.4l2.7 2.9s.8.9 1.2 1.4c.2.3.2.2-.1.2 0 0-.3-.1-.4 0 0 0 .5.4.2.8l-.2.2M67.1 26c.2-.2.4-.3.6-.4s2.1-.9 4-1.8c1-.5 2-1 2.7-1.4-.1 0 .5-.3.6.2.1.3 1.3 6.7-2.4 12.2 0 0 0 .1-.1.1s-.2 0-.4-.2c-.1-.2-.2-.4-.4-.6-.4-.6-.8-1.1-.8-1.1m1.8-9.6.8-.4s.5-.2.6.2c.1.4 1 5.9-2.2 10.9m2.7-13.5c-.2-.7-1.1-.4-1.2-.4-.8.3-2 .8-3.2 1.2-2.2.8-4.3 1.5-4.4 1.5-.3.1-.5.2-1 .4s-.4 1.1-.4 1.1c.1.9.8 1.2 1 1.2h.7c.2 0 .4-.1.4-.1s2.3-1 4.5-1.9c1-.4 2.2-1 3-1.4.9-.5.9-.8.6-1.6zm-12.7 1.6s-.8.5-1.3 1.3m1-.9s-.6.4-1 1.1m-.4 2.4s0 .9.4 1.5m-.5-1.5s0 1.1.5 1.7m1.7 1.1s.8.1 1.3-.1m-1 .6s.8.2 1.6-.1m1.3-3.6s0 .8-.3 1.5m1.2-1.6s.1.8-.4 1.9M64.2 22s.9.3 1.4 1m-1.9-.5s.5.2 1.1.8"/><path class="st4" d="M60.6 23.7c-.2-.1-2.5-1-4.3-1.6-.9-.3-1.7-.6-2.5-.8-.9-.3-1.2.4-1.2.4s-.6 1.3.7 1.7m10.4-.9c.4-1.7.6-4 .7-4.6.2-1.9.3-3.6.3-4.8V13c0-.8-.1-1.1-.3-1.3-.2-.2-.5-.2-.5-.2s-.5 0-.7.4c-.1.2-.2.5-.2.5m2.2 14.8c.8.9 3.3 3.6 3.6 4 .9 1.1 2.1 2.5 2.7 3.4.5.6.3 1.1.3 1.1s0 .1-.1.2l-.2.2c-.2.2-.6.4-1.1 0l-.1-.1m-8-7.1c-.1.3-.2.8-.2.8-.1.3-.6 2-1.3 4.1-.5 1.5-1.2 3-1.7 4.1-.3.8-1 .5-1 .5s-.5-.2-.6-.7M60 24c.4 0 .7.4.7.8 0 .5-.3.9-.7.9s-.7-.4-.7-.8c0-.5.3-.9.7-.9zm2-2.2c.2-.2.4-.3.6-.4.4 0 .7.4.6.8 0 .5-.4.9-.8.9s-.7-.3-.7-.8m2.7 1.9c.1-.3.4-.6.8-.6.5 0 .8.4.8.8 0 .5-.4.8-.9.8-.2 0-.4-.1-.6-.2m-.5 2.3h.3c.5.1.8.5.8 1s-.4.8-.8.7c-.4-.1-.7-.4-.8-.8m-2.9-.4c.1-.2.2-.3.4-.3.4 0 .7.3.8.8s-.2.9-.5 1c-.4 0-.7-.3-.8-.8"/><path class="st4" d="M62 23.1s.5 0 .6-.7c0 0 .1-.6-.5-.7"/><path class="st4" d="M61.8 22.8s.2 0 .3-.4c0 0 0-.3-.1-.4m2.7 3.1c.2 0 .5-.2.5-.6 0-.7-.5-.7-.5-.7m-.2 1c.1-.1.1-.2.1-.4 0-.3-.2-.4-.2-.4m-.5 4.8s.5-.1.5-.7c0-.7-.6-.7-.6-.7"/><path class="st4" d="M63.6 28.5s.2-.1.3-.4c0-.3-.2-.4-.2-.4m-2.9 1.4s.5-.1.5-.7-.4-.7-.5-.7h-.1m-.1 1.1s.1-.1.1-.4c0-.2-.1-.3-.1-.3m-1-2.6s.5-.1.5-.7-.5-.7-.5-.7m-.2 1.1s.2-.1.2-.4c0-.2-.2-.3-.2-.3"/><path d="M62.8 23.6c.9 0 1.7.9 1.7 2s-.7 2-1.7 2c-.9 0-1.7-.9-1.7-2s.8-2 1.7-2z" fill-rule="evenodd" clip-rule="evenodd" fill="#fff" stroke="#1a1a1a" stroke-width=".1" stroke-miterlimit="10"/><path class="st4" d="M56.6 37.3s.4.3.6-.1c.3-.8.9-2.2 1.4-3.5.7-2.1 1.4-4.2 1.4-4.5.1-.4.3-.8.1-1.6-.2-.8-.7-1.1-.7-1.1-.5-.3-2.7-1.2-3.9-1.7-1-.4-1.9-.8-2.6-1h-.1c-.5-.2-.5.4-.5.4s-1.1 7.4 4.1 12.9l.2.2zM68.1 36s.5.4.1.7-3.9 3.2-8.5 1.3m12.9-14.5s.2 0 .3.2c.1.2.8 4.8-1.6 9.2-.1.2-.3.1-.3.1m.2-13.1s.5-.2.4-.7c-.2-.5-2.2-4.6-6.4-5.9m-3.7.2s-.1-.3-.4-.3c-.3.1-2.7.6-4.6 2.7m7.2-2.4s.1-.4-.2-.5c0 0-.4-.1-.5.1"/><path d="M65 32s-1.6 3.3-4.6 4.6" fill="none" stroke="#cdcfd0" stroke-width=".1" stroke-miterlimit="10"/><path class="st1" d="M61.5 15.2s.2-1 .1-1.5c0 0 .1-.2-.2-.2-.2 0-1 .1-2.2.6.1 0 1.4.5 2.3 1.1z"/><path class="st7" d="m59.2 22.2-5-1.6s-.1 0-.1-.1c-.1-.1-.2-.2-.1-.5.2-.4 1-2.6 2.3-4 0 0 1.3-1.3 3-2 0 0 1.1.4 2.2 1.2 0 0-.4 2.6-.6 3.6s-.3 2.1-.7 2.5c-.3.4-1 .9-1 .9zm-1.3 2.7s0-.3.1-.5.1-.4.2-.5v-.2s0-.2-.2-.3c-.2-.1-.4-.2-.5-.3-.2-.1-.9-.4-1.1-.5s-.9-.4-1.2-.5-1.2-.3-1.2-.3-.3 0-.4.2c-.1.2-.2.4-.2.7 0 .3.1.6.5.8.2.1.8.3 1.5.6 1.1.3 2.2.7 2.5.8zm-4.6-.4s1.3.5 2.4 1c1.1.5 2 .9 2.3 1.1 0 0 .1 1.2.7 1.8v.4c0 .1-.2 1-.3 1.2 0 .2-.5 2.1-.6 2.5-.1.4-.9 2.9-1.2 3.3 0 0-.5-.4-1-1.2-.5-.7-1.2-1.9-1.5-2.7s-.8-2-1-3.3-.3-2.8-.2-3.7c.1-.4.4-.4.4-.4zm5.1 12.9s.3-.2.5-.8c0 0 .5-1.2.6-1.6.1-.4.3-1 .4-1.3.1-.3.2-.8.3-1s.3-1 .3-1.2c.1-.3.1-.5.1-.6s0-.5-.5-.8c0 0-.9 2.8-1.3 3.9s-.7 1.9-.8 2.1c-.1.1-.2.6-.1.9.1.2.4.4.5.4z"/><path class="st1" d="m65.6 30.6 1.9 1.9c.9 1 1.8 2.1 1.8 2.1s.5-.5.7-.9c0 0-.5-.6-1.3-1.4-1.1-1.2-2.5-2.7-2.5-2.7l-.2-.2s-.2.7-.4 1.2zm6.6-6.9-4.9 2.2s-.6.4-.6 1.1c0 0-.1.5.4 1 .2.2 1.1 1.3 1.9 2.4.9 1.1 1.7 2.2 1.7 2.2s2.3-3.9 1.5-8.9zm-.5-2.5s-1 .4-2.1.8c-1.2.4-2.4.9-2.4.9s-.7.3-.6 1c0 0 .1.4.5.4l4.9-1.9s-.1-.8-.3-1.2zm-6.5-7.3s0 3.1-.2 5.3c0 0 .5.7 1 2.6 0 0 .7-.2 1.6-.5.7-.2 1.6-.6 2.2-.8.8-.3 1.4-.5 1.4-.5s-1.5-4.5-6-6.1zM63.5 17s.3-2 .3-3.5l-.8-.1-.2 2.8s.4.3.7.8z"/><path class="st7" d="M62.9 30.4s-.2.2-.3.7-.6 1.9-.9 2.4c-.2.6-1.3 3.1-1.3 3.1s2.4-.8 4.6-4.6l-.8-.8c-.5-.4-1-.8-1.3-.8z"/><path class="st1" d="m60.3 36.6-.5 1.2s4.8 1.7 8.7-2.2c0 0-.7-.8-1.5-1.6l-2-2s-1.6 3.2-4.7 4.6z"/><path class="st7" d="M66 29.4s-.3 1-.4 1.2c0 0-.3-.3-.3-.6s.2-.6.4-.6c0-.1.2-.1.3 0zm-1-10.2s-.1 1.3-.2 1.6v.1c0 .3 0 .8.3 1s.5.1.5.1l.4-.1c0-.1-.5-1.9-1-2.7zm-2.2-3s.5.3.7.8l-.2 1.4c-.1.5-.2 1-.3 1.3-.2.9-.7.9-.7.9l-.1-.1-.1-.1s.3-1.6.3-2.2c.2-.5.4-2 .4-2z"/><path class="st4" d="M65.6 22c.3 0 .7-.1.7-.1s2.3-.8 4.4-1.5c.9-.3 1.3-.4 1.7-.6 0 0 .3-.1.4-.3.2-.2 0-.6 0-.6s-2.2-5.4-7.6-6.4m-6 9.7c.4.1.8.2 1.2-.2.4-.4.5-.8.6-1.1 0-.1.1-.4.1-.4.5-2.6.8-5.3.9-7.2v-.1c.1-.9-.6-.6-.6-.6s-4.9 1-7.4 7.3c0 0-.1.2 0 .4s.3.2.3.2 1.9.6 2.9.9c1.1.5 2 .8 2 .8s.5-.4.8-.7c.2-.2.4-.5.5-1s.9-4.3 1.1-6.5v-.4c0-.2-.1-.1-.2-.1 0 0-2.6.1-5.1 2.6M53 25s0-.6.6-.5h.1l1.5.6c1.2.5 3 1.2 3.5 1.5 0 0 .5.1.7 1 .2.8 0 1.1-.1 1.6 0 .2-.6 2.3-1.3 4.4-.2.6-.5 1.3-.7 2v.1c-.3.7-.7.1-.7.1s-4-4.1-3.6-10.8zm10 5.4c.1 0 .2-.1.3-.1 0 0 .5-.1 1.1.5.3.3 1.7 1.6 3 3 .5.6 1.4 1.5 2 2.3l.1.1c.2.2.3.5-.1.8 0 0-4.4 3.8-9.7 1.2m2.7-17.6c.1 0 .1.1.3.1.7.1.9-.8.9-.8.3-1.9.5-4.4.6-6.2.1-1.4-.7-1.3-.7-1.3s-.4 0-.5.3m-5 12.2c.2.1.4.1.7 0 .1-.1.3-.2.3-.5 0-.1.1-.4 0-.7-.1-.3-.4-.4-.4-.4s-.8-.3-1.7-.7c-.7-.3-1.4-.6-2.2-.8-1.4-.5-1.5.7-1.3 1.1s.7.6.7.6l3.9 1.4s.1-.6.3-1.1c0 0 .1-.3-.3-.5 0 0-2.3-1-4-1.6m6.1 8.3s.1-.3.4-.2c.4.1.7.7.5 1.4 0 .1-.2.9-1.2 3.5-.2.7-.5 1.4-.8 2v.1c-.4.9-.9.5-.9.5s-.6-.3-.2-1.3l.2-.6m7.6-6.1c.1-.1.3-.1.5 0 .3.1.6.4.6.4s1.4 1.5 2.7 3.1c.3.4.6.8.9 1.1.9 1.1.4 1.5.4 1.5s-.4.5-1.1-.1l-.1-.3"/><path class="st4" d="M63 13.3s-.1 3-.8 7.1l.2.2s.4-.1.6-.8c.2-.7.6-2.8.8-5.5v-.9c0-.2-.1 0-.1.1"/></svg>