<svg xmlns="http://www.w3.org/2000/svg" width="375" height="32" xml:space="preserve"><switch><g><path fill="#363636" d="M-.4 0h375v32H-.4V0z"/><path fill="#FFF" d="M266.7 9.5c0-1.4 1.1-2.5 2.5-2.5h79.7c1.4 0 2.5 1.1 2.5 2.5v13.8c0 1.4-1.1 2.5-2.5 2.5h-79.7c-1.4 0-2.5-1.1-2.5-2.5V9.5z"/><path fill="#363636" d="m289.9 18.3 1.4-4.6h1.3l-2 5.8h-.9l.2-1.2zm-1.2-4.6 1.4 4.6.2 1.2h-.9l-2-5.8h1.3zm5.9 0v5.8h-1.2v-5.8h1.2zm5.2 4.9v.9h-3.1v-.9h3.1zm-2.7-4.9v5.8h-1.2v-5.8h1.2zm2.3 2.4v.9h-2.7v-.9h2.7zm.4-2.4v.9h-3.1v-.9h3.1zm2.3 4.9 1.2-4.9h.6l.1.8-1.2 5h-.7v-.9zm-.6-4.9 1 4.9-.1.9h-.8l-1.3-5.8h1.2zm3.6 4.9.9-4.8h1.2l-1.3 5.8h-.8v-1zm-.8-4.9 1.2 4.9v.9h-.7l-1.2-5 .2-.8h.5zm10.6 0v5.8h-1.2l-2.3-3.9v3.9h-1.2v-5.8h1.2l2.3 3.9v-3.9h1.2zm6 2.8v.3c0 .4-.1.8-.2 1.2-.1.3-.3.6-.5.9-.2.2-.5.4-.8.6-.3.1-.6.2-1 .2s-.7-.1-1-.2c-.3-.1-.6-.3-.8-.6-.2-.3-.4-.6-.5-.9-.1-.4-.2-.8-.2-1.2v-.3c0-.4.1-.8.2-1.2.1-.3.3-.6.5-.9.2-.2.5-.4.8-.6.3-.1.6-.2 1-.2s.7.1 1 .2c.3.1.6.3.8.6.2.2.4.5.5.9.2.3.2.7.2 1.2zm-1.2.3v-.3c0-.3 0-.6-.1-.8 0-.2-.1-.4-.2-.6-.1-.2-.2-.3-.4-.4-.2-.1-.3-.1-.5-.1-.4 0-.7.2-.9.5-.1.2-.2.4-.2.6-.1.3-.1.5-.1.8v.3c0 .3 0 .6.1.8.1.2.1.4.2.6.1.2.2.3.4.4.2.1.3.1.5.1s.4 0 .5-.1c.2-.1.3-.2.4-.4.1-.2.2-.4.2-.6.1-.3.1-.5.1-.8zm3.7 1.8 1.2-4.9h.6l.1.8-1.2 5h-.7v-.9zm-.6-4.9 1 4.9-.1.9h-.8l-1.3-5.8h1.2zm3.5 4.9.9-4.8h1.2l-1.3 5.8h-.8v-1zm-.8-4.9 1.2 4.9v.9h-.7l-1.2-5 .2-.8h.5z"/><path fill="#3398D1" d="M137 6.6h-16.5v4.8h5.5v13.9h5.4V11.4h5.6zm14 12.6c.5-.2 1-.6 1.4-1 2.2-2 2-4.5 2-4.9 0-.4.2-2.9-2-4.9-1.6-1.5-3.8-1.8-6-1.8h-8.6v18.7h5.3V20h2l3.6 5.3h6.3l-4-6.1zm-4-4h-3.7v-3.8h3.7c1.1 0 1.9.9 1.9 1.9 0 1.1-.9 1.9-1.9 1.9zm25.5 4.5c.5-1.2.8-2.5.8-3.9 0-5.1-4.1-9.2-9.2-9.2h-2.9l6.6 7.3-1.4 4.6-4.6.9-6.4-7.2-.3 1.9c-.1.6-.2 1.1-.2 1.7 0 5.1 4.1 9.2 9.2 9.2 1.4 0 2.8-.3 4-.9l1.2 1.1h8.1l-4.9-5.5z"/><path fill="#3398D1" d="m160.1 6.5-3.8.9-1.1 3.7 3.7 3.9 3.8-.9 1.1-3.7z"/><path fill="#FFF" d="m160 6.9-3.4.8-1 3.3 2.4 2.6 3.4-.8 1-3.3zM21.3 13.1v2h3.2V17h-3.2v3.5h-2v-9.3h5.5v1.9h-3.5zm8.3 4.3h-1.3v3.2h-2v-9.3H30c1.9 0 3.2 1.3 3.2 3.1 0 1.2-.7 2.2-1.7 2.7l2 3.5h-2.2l-1.7-3.2zm-1.3-1.9h1.6c.8 0 1.3-.5 1.3-1.2s-.5-1.2-1.3-1.2h-1.6v2.4zm12.5 3.2v1.9h-5.7v-9.3h5.6v1.8h-3.6V15h3.2v1.8h-3.2v1.9h3.7zm7.4 0v1.9h-5.7v-9.3H48v1.8h-3.6V15h3.2v1.8h-3.2v1.9h3.8zm4.3-1.2h2c0 .9.7 1.3 1.6 1.3.8 0 1.5-.4 1.5-1.1 0-.7-.8-.9-1.8-1.1-1.4-.3-3.1-.7-3.1-2.7 0-1.8 1.3-2.8 3.4-2.8 2.1 0 3.3 1.1 3.3 3h-2c0-.8-.7-1.2-1.4-1.2-.6 0-1.3.3-1.3.9 0 .7.8.8 1.8 1.1 1.4.4 3.2.8 3.2 2.9 0 2-1.6 3-3.5 3-2.2-.1-3.7-1.3-3.7-3.3zm16.2-6.2v9.3h-2v-3.8h-3.5v3.8h-2v-9.3h2v3.6h3.5v-3.6h2zm2.1 0h2v9.3h-2v-9.3zm11 3.2c0 1.8-1.4 3.2-3.3 3.2h-1.6v2.9h-2v-9.3h3.6c1.8 0 3.3 1.3 3.3 3.2zm-2.1 0c0-.8-.5-1.3-1.3-1.3h-1.5v2.7h1.5c.8-.1 1.3-.7 1.3-1.4zm10.3 0c0 1.8-1.4 3.2-3.3 3.2h-1.6v2.9h-2v-9.3h3.6c1.9 0 3.3 1.3 3.3 3.2zm-2.1 0c0-.8-.5-1.3-1.3-1.3h-1.5v2.7h1.5c.8-.1 1.3-.7 1.3-1.4zm3.5-3.2h2v9.3h-2v-9.3zm11.9 0v9.3h-1.7l-4.2-5.8v5.8h-2v-9.3h1.8l4.1 5.6v-5.6h2zm11.1 4.4c0 2.9-1.9 5-4.7 5-2.7 0-4.8-2-4.8-4.8s2-4.8 4.8-4.8c2.3 0 4.2 1.5 4.6 3.5h-2.1c-.4-1-1.4-1.6-2.5-1.6-1.6 0-2.8 1.2-2.8 2.9s1.1 2.9 2.8 2.9c1.2 0 2.2-.6 2.6-1.6h-2.8v-1.5h4.9zm73.8-1.5c0 1.7-1.3 3-3.1 3H183v3.3h-1.2v-9.3h3.3c1.8.1 3.1 1.3 3.1 3zm-1.2 0c0-1.1-.8-1.8-1.9-1.8H183v3.7h2.1c1.1 0 1.9-.8 1.9-1.9zm6.1 2.7H191v3.6h-1.2v-9.3h3.5c1.7 0 3 1.2 3 2.8 0 1.3-.8 2.3-2 2.7l2.2 3.8h-1.3l-2.1-3.6zm-2.1-1.1h2.3c1.1 0 1.9-.7 1.9-1.7s-.8-1.7-1.9-1.7H191v3.4zm6.7.1c0-2.7 2-4.8 4.8-4.8s4.8 2 4.8 4.8c0 2.7-2 4.8-4.8 4.8-2.7 0-4.8-2.1-4.8-4.8zm8.5 0c0-2.1-1.6-3.6-3.7-3.6s-3.7 1.6-3.7 3.6c0 2.1 1.6 3.6 3.7 3.6 2.2.1 3.7-1.5 3.7-3.6zm10.9 0c0 2.7-2 4.6-4.7 4.6h-3.1v-9.3h3.1c2.7.1 4.7 2 4.7 4.7zm-1.2 0c0-2-1.5-3.5-3.5-3.5h-1.9v7.1h1.9c2.1-.1 3.5-1.5 3.5-3.6zm3 1.2v-5.8h1.2V17c0 1.5 1 2.5 2.5 2.5 1.4 0 2.5-1 2.5-2.5v-5.7h1.2v5.8c0 2.1-1.5 3.6-3.6 3.6-2.2 0-3.8-1.5-3.8-3.6zm9.1-1.2c0-2.8 2-4.8 4.7-4.8 2.1 0 3.9 1.3 4.4 3.3h-1.2c-.5-1.3-1.7-2.1-3.2-2.1-2.1 0-3.6 1.5-3.6 3.6s1.5 3.6 3.6 3.6c1.6 0 2.8-.9 3.2-2.3h1.2c-.5 2.1-2.2 3.4-4.4 3.4-2.7.1-4.7-1.9-4.7-4.7zm16.5-3.5h-2.8v8.2h-1.2v-8.2h-2.8v-1.1h6.8v1.1zm.8 5.3h1.2c0 1.2.9 1.8 2.2 1.8 1.2 0 2.1-.6 2.1-1.6 0-1.1-1.1-1.3-2.3-1.6-1.4-.3-3-.7-3-2.6 0-1.6 1.2-2.6 3.1-2.6 1.9 0 3.1 1.1 3.1 2.7h-1.1c0-1-.8-1.6-2-1.6-1.1 0-2 .5-2 1.4 0 1 1.1 1.3 2.2 1.6 1.5.4 3.1.7 3.1 2.7 0 1.7-1.4 2.7-3.3 2.7-1.9.1-3.3-1.1-3.3-2.9z"/></g></switch></svg>