<svg xmlns="http://www.w3.org/2000/svg" width="1920" height="48" style="enable-background:new 0 0 1920 48" xml:space="preserve"><style>.st0{fill:#363636}.st1{fill:#fff}.st2{fill:#3398d1}</style><path class="st0" d="M1.6 0h1920v48H1.6V0z"/><path class="st1" d="M1139.3 13c0-2.2 1.8-4 4-4h127.4c2.2 0 4 1.8 4 4v22c0 2.2-1.8 4-4 4h-127.4c-2.2 0-4-1.8-4-4V13z"/><path class="st0" d="m1176.5 27.1 2.2-7.3h2.1l-3.2 9.2h-1.4l.3-1.9zm-2-7.3 2.2 7.3.3 1.9h-1.4l-3.2-9.2h2.1zm9.5 0V29h-1.9v-9.2h1.9zm8.3 7.7V29h-4.9v-1.5h4.9zm-4.3-7.7V29h-1.9v-9.2h1.9zm3.7 3.7V25h-4.3v-1.4h4.3zm.6-3.7v1.5h-4.9v-1.5h4.9zm3.7 7.7 1.8-7.8h1l.2 1.3-2 7.9h-1.1l.1-1.4zm-1-7.7 1.5 7.8-.1 1.5h-1.2l-2.1-9.2h1.9zm5.7 7.7 1.5-7.7h1.9l-2 9.2h-1.2l-.2-1.5zm-1.3-7.7 1.8 7.8-.1 1.4h-1.1l-2-8 .3-1.3 1.1.1zm17.1 0V29h-1.9l-3.7-6.2V29h-1.9v-9.2h1.9l3.7 6.2v-6.2h1.9zm9.6 4.4v.4c0 .7-.1 1.3-.3 1.9-.2.5-.4 1-.8 1.4-.3.4-.8.7-1.2.9s-1 .3-1.6.3c-.5 0-1.1-.1-1.6-.3-.5-.2-.9-.5-1.2-.9-.3-.4-.6-.9-.8-1.4-.2-.6-.3-1.2-.3-1.9v-.4c0-.7.1-1.3.3-1.9.2-.5.4-1 .8-1.4.3-.4.8-.7 1.2-.9.5-.2 1-.3 1.6-.3.6 0 1.1.1 1.6.3.5.2.9.5 1.2.9.3.4.6.9.8 1.4.2.5.3 1.2.3 1.9zm-1.9.4v-.5c0-.5 0-.9-.1-1.3-.1-.3-.2-.7-.4-.9l-.6-.6c-.3-.1-.6-.2-.9-.2-.3 0-.6.1-.8.2-.2.1-.5.3-.6.6s-.3.6-.4.9c-.1.4-.1.8-.1 1.3v.5c0 .5 0 .9.1 1.3s.2.7.4.9c.2.3.4.4.6.6.2.1.5.2.9.2s.6-.1.8-.2c.2-.1.5-.3.6-.6.2-.3.3-.6.4-.9 0-.4.1-.8.1-1.3zm5.8 2.9 1.8-7.8h1l.2 1.3-2 7.9h-1.1l.1-1.4zm-.9-7.7 1.5 7.8-.1 1.5h-1.2l-2.1-9.2h1.9zm5.6 7.7 1.5-7.7h1.9L1236 29h-1.2l-.1-1.5zm-1.2-7.7 1.9 7.8-.1 1.4h-1.1l-2-8 .2-1.3 1.1.1z"/><path class="st2" d="M1055.6 9.1h-25.8v7.5h8.8v21.7h8.3V16.6h8.7zm22 19.7c.8-.4 1.6-.9 2.3-1.5 3.5-3.2 3.2-7.1 3.1-7.7.1-.7.4-4.6-3.1-7.7-2.5-2.3-5.9-2.8-9.3-2.8h-13.5v29.3h8.4v-8.2h3.2l5.6 8.2h9.9l-6.6-9.6zm-6.4-6.2h-5.9v-6h5.9c1.7 0 3 1.3 3 3 0 1.6-1.3 3-3 3z"/><path class="st2" d="M1111.1 29.6c.8-1.8 1.3-3.9 1.3-6 0-8-6.5-14.5-14.5-14.5h-4.6l10.3 11.4-2.2 7.1-7.1 1.5-10.1-11.3-.5 3c-.2.9-.3 1.8-.3 2.7 0 8 6.5 14.5 14.5 14.5 2.3 0 4.4-.5 6.3-1.4l1.9 1.7h12.7l-7.7-8.7z"/><path class="st2" d="m1091.9 9-6 1.4-1.8 5.8 5.8 6 5.9-1.3 1.8-5.9z"/><path class="st1" d="m1091.7 9.5-5.4 1.3-1.6 5.3 3.8 4 5.3-1.3 1.6-5.2zM649.2 19.8v3.4h5.3v3h-5.3v5.9h-3.3V16.7h9.2v3.1h-5.9zm13.9 7H661V32h-3.3V16.7h6.2c3.1 0 5.4 2.1 5.4 5.1 0 2-1.1 3.6-2.8 4.5l3.4 5.8h-3.7l-3.1-5.3zm-2.2-3h2.7c1.4 0 2.2-.8 2.2-2 0-1.1-.8-2-2.2-2h-2.7v4zm20.7 5.2v3.1h-9.4V16.7h9.2v3.1h-5.9v3h5.3v3h-5.3V29h6.1zm12.2 0v3.1h-9.4V16.7h9.2v3.1h-5.9v3h5.3v3h-5.3V29h6.1zm7.2-1.9h3.3c0 1.5 1.2 2.2 2.6 2.2 1.2 0 2.5-.7 2.5-1.8 0-1.2-1.4-1.5-3.1-1.9-2.3-.6-5.1-1.2-5.1-4.5 0-2.9 2.2-4.6 5.6-4.6 3.5 0 5.5 1.9 5.5 4.9H709c0-1.3-1.1-1.9-2.3-1.9-1.1 0-2.2.5-2.2 1.5 0 1.1 1.3 1.4 3 1.8 2.3.6 5.3 1.3 5.3 4.8 0 3.3-2.6 4.9-5.8 4.9-3.6-.1-6-2.1-6-5.4zm26.8-10.4V32h-3.3v-6.3h-5.8V32h-3.3V16.7h3.3v5.9h5.8v-5.9h3.3zm3.5 0h3.3V32h-3.3V16.7zm18.2 5.3c0 3-2.3 5.3-5.4 5.3h-2.6v4.8h-3.3V16.7h5.9c3 0 5.4 2.3 5.4 5.3zm-3.4 0c0-1.3-.9-2.2-2.2-2.2h-2.4v4.4h2.4c1.3 0 2.2-.9 2.2-2.2zm17 0c0 3-2.3 5.3-5.4 5.3h-2.6v4.8h-3.3V16.7h5.9c3.1 0 5.4 2.3 5.4 5.3zm-3.3 0c0-1.3-.9-2.2-2.2-2.2h-2.4v4.4h2.4c1.3 0 2.2-.9 2.2-2.2zm5.6-5.3h3.3V32h-3.3V16.7zm19.8 0V32h-2.8l-6.9-9.6V32h-3.3V16.7h3l6.7 9.4v-9.4h3.3zm18.4 7.3c0 4.8-3.2 8.3-7.8 8.3-4.5 0-7.9-3.4-7.9-8s3.3-8 7.9-8c3.8 0 7 2.4 7.7 5.8H800c-.7-1.6-2.3-2.7-4.2-2.7-2.7 0-4.6 2-4.6 4.8s1.8 4.8 4.6 4.8c2 0 3.7-1 4.3-2.6h-4.6V24h8.1zm10.1-5.5v5.1h6.1v1.8h-6.1v6.7h-1.9V16.7h8.6v1.8h-6.7zm8.3 5.9c0-4.5 3.4-7.9 8-7.9s8 3.4 8 7.9-3.4 7.9-8 7.9-8-3.4-8-7.9zm14.1 0c0-3.5-2.6-6-6.1-6-3.5 0-6.1 2.6-6.1 6s2.6 6 6.1 6c3.5 0 6.1-2.6 6.1-6zm10.5 1.7h-3.5v6h-1.9V16.7h5.8c2.9 0 5 2 5 4.7 0 2.2-1.4 3.8-3.4 4.4l3.7 6.2h-2.2l-3.5-5.9zm-3.4-1.9h3.8c1.9 0 3.1-1.2 3.1-2.8 0-1.6-1.3-2.8-3.1-2.8h-3.8v5.6zm26.5 4.2h-7.4l-1.5 3.7h-2l6.3-15.3h1.8l6.4 15.3h-2.1l-1.5-3.7zm-6.7-1.8h5.9l-3-7.3-2.9 7.3zm21.4 3.7v1.8h-8.7V16.7h1.9v13.5h6.8zm11.2 0v1.8H887V16.7h1.9v13.5h6.7zm18.2-8.7c0 2.8-2.2 4.9-5.1 4.9h-3.6V32h-1.9V16.7h5.5c2.9 0 5.1 2.1 5.1 4.9zm-2 0c0-1.7-1.3-3-3.2-3h-3.5v6.1h3.5c1.9 0 3.2-1.3 3.2-3.1zm10.2 4.5h-3.5v6h-1.9V16.7h5.8c2.9 0 5 2 5 4.7 0 2.2-1.4 3.8-3.4 4.4l3.7 6.2h-2.2l-3.5-5.9zm-3.5-1.9h3.8c1.9 0 3.1-1.2 3.1-2.8 0-1.6-1.3-2.8-3.1-2.8h-3.8v5.6zm11.2.2c0-4.5 3.4-7.9 8-7.9s8 3.4 8 7.9-3.4 7.9-8 7.9c-4.7 0-8-3.4-8-7.9zm14 0c0-3.5-2.6-6-6.1-6-3.5 0-6.1 2.6-6.1 6s2.6 6 6.1 6c3.6 0 6.1-2.6 6.1-6zm18.1 0c0 4.4-3.3 7.7-7.8 7.7h-5.1V16.7h5.1c4.5 0 7.8 3.2 7.8 7.7zm-2 0c0-3.4-2.4-5.9-5.9-5.9h-3.1v11.7h3.1c3.5.1 5.9-2.4 5.9-5.8zm4.9 1.9v-9.6h1.9v9.5c0 2.5 1.7 4.2 4.1 4.2 2.4 0 4.1-1.7 4.1-4.2v-9.5h1.9v9.6c0 3.5-2.6 6-6 6s-6-2.5-6-6zm15-1.9c0-4.6 3.3-7.9 7.9-7.9 3.5 0 6.4 2.1 7.3 5.4h-2c-.8-2.2-2.8-3.5-5.3-3.5-3.4 0-5.9 2.5-5.9 6s2.5 6 5.9 6c2.6 0 4.6-1.4 5.4-3.8h2c-.9 3.5-3.7 5.6-7.3 5.6-4.7.1-8-3.2-8-7.8zm27.5-5.9h-4.7V32h-1.9V18.5h-4.7v-1.8h11.3v1.8zm1.3 8.8h2c0 1.9 1.6 3 3.7 3 1.9 0 3.4-1 3.4-2.6 0-1.8-1.8-2.2-3.8-2.7-2.4-.6-5-1.2-5-4.3 0-2.6 2-4.3 5.2-4.3s5.1 1.8 5.1 4.5h-1.9c0-1.7-1.4-2.7-3.3-2.7s-3.3.9-3.3 2.3c0 1.7 1.8 2.1 3.7 2.6 2.4.6 5.1 1.2 5.1 4.4 0 2.9-2.4 4.5-5.4 4.5-3.2.3-5.5-1.6-5.5-4.7z"/></svg>