<?xml version="1.0" encoding="utf-8"?>
<!-- Generator: Adobe Illustrator 22.1.0, SVG Export Plug-In . SVG Version: 6.00 Build 0)  -->
<svg version="1.1" id="Layer_1" xmlns="http://www.w3.org/2000/svg" xmlns:xlink="http://www.w3.org/1999/xlink" x="0px" y="0px"
	 width="43px" height="43px" viewBox="0 0 43 43" enable-background="new 0 0 43 43" xml:space="preserve">
<path fill="none" stroke="#8798AA" stroke-width="1.5" stroke-linecap="round" stroke-miterlimit="10" d="M32.1,1.9l7.7,6.9V30
	c0,0-0.1,3.2-3.2,3.1C33.5,33,33,30,33,30l-0.1-13.7c0,0,0.1-1.7-0.8-2.5c-0.9-0.8-2.2-0.7-2.2-0.7h-2.4 M27.5,2.5H3.2v38.2h24.3
	V2.5z M22.3,7.8h-14v10.7h14V7.8z"/>
<path fill="#8798AA" d="M17.7,29.8c0,1.3-1.1,2.4-2.4,2.4S13,31.1,13,29.8c0-1.3,2.3-4,2.3-4S17.7,28.5,17.7,29.8z"/>
</svg>
