<svg xmlns="http://www.w3.org/2000/svg" width="132" height="26"><path d="M127 25H5c-2.2 0-4-1.8-4-4V5c0-2.2 1.8-4 4-4h122c2.2 0 4 1.8 4 4v16c0 2.2-1.8 4-4 4z" fill="#fff"/><path d="M73.4 15.6c-.3.3-.6.6-1.1.8-.5.2-1 .3-1.6.3s-1.1-.1-1.6-.4-.8-.7-1.1-1.2-.4-1.1-.4-1.8v-.6c0-1.1.3-1.9.8-2.5s1.2-.9 2.2-.9c.8 0 1.4.2 1.9.6s.7 1 .8 1.7h-1.2c-.1-.9-.6-1.3-1.5-1.3-.6 0-1 .2-1.3.6s-.4 1-.4 1.8v.5c0 .8.2 1.4.5 1.8s.8.6 1.4.6 1.1-.1 1.3-.4v-1.4h-1.5v-.9h2.7l.1 2.7zm6.7-6.2v4.8c0 .8-.2 1.4-.7 1.8-.5.4-1.1.7-1.9.7s-1.5-.2-1.9-.7-.7-1-.7-1.8V9.4H76v4.8c0 .5.1.8.4 1.1s.6.4 1.1.4c1 0 1.4-.5 1.4-1.5V9.4h1.2zm2.7 7.1h-1.2V9.4h1.2v7.1zm1.6 0V9.4h2.1c.6 0 1.2.1 1.7.4s.9.7 1.1 1.2.4 1.1.4 1.8v.4c0 .7-.1 1.3-.4 1.8s-.7.9-1.1 1.2c-.4.3-1.1.4-1.7.4l-2.1-.1zm1.3-6.1v5.1h.8c.6 0 1.1-.2 1.5-.6s.5-1 .5-1.7v-.4c0-.8-.2-1.4-.5-1.8s-.8-.6-1.5-.6h-.8zm9.5 2.9h-2.9v2.2h3.4v1h-4.6V9.4h4.6v1h-3.4v2h2.9v.9z" fill="#787878"/><circle cx="22" cy="13" r="8" fill="none" stroke="#2d9cda" stroke-width="2" stroke-miterlimit="10"/><path d="m23.8 17.2-.1.6c-.4.2-.8.3-1.1.4-.3.1-.6.1-.9.1-.5 0-1-.1-1.3-.4s-.5-.6-.5-1v-.5l.1-.6.6-2c0-.2.1-.4.1-.5l.1-.5c0-.3-.1-.4-.2-.5s-.3-.1-.6-.1c-.1 0-.3 0-.4.1s-.3.1-.4.1l.1-.6 1.1-.4c.3-.1.7-.2 1-.2.5 0 1 .1 1.2.4.3.3.4.6.4 1v1.1l-.6 2-.1.5c0 .2-.1.4-.1.5 0 .3.1.4.2.5s.3.1.6.1c.1 0 .3 0 .5-.1.1.1.3 0 .3 0zm.2-8.3c0 .3-.1.6-.4.9-.3.2-.6.3-1 .3s-.6-.1-.9-.3-.4-.5-.4-.9c0-.3.1-.6.4-.9.3-.2.6-.4.9-.4s.7.1.9.4c.3.2.5.5.5.9z" fill="#2d9cda"/></svg>