<svg xmlns="http://www.w3.org/2000/svg" width="96" height="64"><circle cx="48" cy="24" r="17.5" fill="#2d9cda"/><path d="M40.2 55.1c-.3.3-.6.6-1.1.8s-1 .3-1.6.3-1.1-.1-1.6-.4-.7-.8-.9-1.3-.4-1.1-.4-1.8v-.6c0-1.1.3-1.9.8-2.5s1.2-.9 2.2-.9c.8 0 1.4.2 1.9.6.5.4.7 1 .8 1.7H39c-.1-.9-.6-1.3-1.5-1.3-.6 0-1 .2-1.3.6s-.4 1-.4 1.8v.5c0 .8.2 1.4.5 1.8.3.4.8.6 1.4.6.6 0 1.1-.1 1.3-.4v-1.4h-1.5v-.9h2.7v2.8zm6.6-6.2v4.8c0 .8-.2 1.4-.7 1.8-.5.4-1.1.7-1.9.7-.8 0-1.5-.2-1.9-.7-.5-.4-.7-1-.7-1.8V49h1.2v4.7c0 .5.1.8.4 1.1.2.3.6.4 1.1.4 1 0 1.4-.5 1.4-1.5V49h1.1v-.1zm2.6 7.1h-1.2v-7.1h1.2V56zm1.5 0v-7.1H53c.6 0 1.2.1 1.7.4s.9.7 1.1 1.2c.3.5.4 1.1.4 1.8v.4c0 .7-.1 1.3-.4 1.8-.3.5-.7.9-1.1 1.2s-1.1.3-1.7.3h-2.1zm1.3-6.1V55h.8c.6 0 1.1-.2 1.5-.6.3-.4.5-1 .5-1.7v-.4c0-.8-.2-1.4-.5-1.8-.3-.4-.8-.6-1.5-.6h-.8zm9.4 2.9h-2.9V55h3.4v1h-4.6v-7.1h4.6v1h-3.4v2h2.9v.9z" fill="#787878"/><path d="M51.7 30.5c.1.1.1.1 0 .4s-2.3 3.5-6.6 3.5c-1 0-1.4-.5-1.4-1 0-.6.6-2.1 2-6.3l.9-2.6c.3-.9.5-1.5.5-1.9 0-.3-.1-.5-.5-.5-.5 0-2 1.8-2.5 2.3-.1.1-.3.1-.4 0l-.3-.3c-.1-.1-.1-.3-.1-.3.1-.3 2.9-4.1 6.5-4.1 1 0 1.5.5 1.5 1.3s-.4 1.8-1.1 3.8l-1.9 5.1c-.5 1.3-.5 1.8-.5 2 0 .3.1.5.5.5.6 0 2.3-1.8 2.5-2.1.1-.1.3-.1.3 0l.6.2zm1-14.6c0 1-1.1 2.3-2.4 2.3-1.4 0-2.1-.8-2.1-2 0-1 1-2 2.1-2 1.6-.1 2.4.7 2.4 1.7z" fill="#fff"/></svg>