<svg xmlns="http://www.w3.org/2000/svg" width="96" height="64"><circle cx="48" cy="24" r="17.5" fill="#da3c2d"/><path d="M22.3 56h-1.2v-7.1h1.2V56zm3.2-7.1 2.1 5.4 2-5.4h1.6V56H30v-2.3l.1-3.1-2.2 5.4H27l-2-5.5.1 3.1V56h-1.2v-7.1h1.6zm8.4 4.5V56h-1.2v-7.1h2.7c.8 0 1.4.2 1.9.6.5.4.7 1 .7 1.6 0 .7-.2 1.2-.7 1.6s-1.1.6-1.9.6h-1.5v.1zm0-1h1.5c.4 0 .8-.1 1-.3s.3-.5.3-.9-.1-.7-.4-.9c-.2-.2-.6-.3-1-.4h-1.5v2.5h.1zm10.8.2c0 .7-.1 1.3-.4 1.8-.2.5-.6.9-1 1.2s-1 .4-1.5.4c-.6 0-1.1-.1-1.5-.4-.5-.3-.8-.7-1-1.2s-.4-1.1-.4-1.8v-.4c0-.7.1-1.3.4-1.8.2-.5.6-.9 1-1.2s1-.4 1.5-.4c.6 0 1.1.1 1.5.4.4.3.8.7 1 1.2s.4 1.1.4 1.8v.4zm-1.3-.3c0-.8-.1-1.4-.4-1.8-.3-.4-.7-.6-1.3-.6-.5 0-1 .2-1.3.6-.3.4-.5 1-.5 1.8v.4c0 .8.2 1.4.5 1.8s.7.6 1.3.6c.5 0 1-.2 1.3-.6s.4-1 .4-1.8v-.4zm5.1 1h-1.4V56h-1.2v-7.1h2.5c.8 0 1.5.2 1.9.6.4.4.7.9.7 1.6 0 .5-.1.9-.3 1.2s-.5.6-1 .7l1.6 3H50l-1.5-2.7zm-1.4-1h1.3c.4 0 .7-.1 1-.3.2-.2.4-.5.4-.9s-.1-.7-.3-.9-.5-.3-1-.3h-1.3v2.4h-.1zm9.9-2.4h-2.2V56h-1.2v-6.1h-2.2v-1H57v1zm4.4 4.5h-2.8L58 56h-1.3l2.7-7.1h1.1l2.7 7.1H62l-.6-1.6zm-2.4-1h2l-1-2.9-1 2.9zM69.7 56h-1.2l-3.2-5v5H64v-7.1h1.2l3.2 5.1v-5.1h1.2V56h.1zm6.4-6.1h-2.2V56h-1.2v-6.1h-2.2v-1h5.6v1z" fill="#787878"/><path d="M51.8 30.3c.1.1.1.1 0 .4s-2.3 3.6-6.8 3.6c-1 0-1.4-.5-1.4-1 0-.6.6-2.2 2-6.4l.9-2.7c.3-.9.5-1.5.5-1.9 0-.3-.1-.5-.5-.5-.5 0-2 1.8-2.6 2.3-.1.1-.3.1-.4 0l-.3-.3c-.1-.1-.1-.3-.1-.3.1-.3 2.9-4.2 6.6-4.2 1 0 1.5.5 1.5 1.3s-.4 1.8-1.2 3.8l-1.9 5.2c-.5 1.3-.5 1.8-.5 2 0 .3.1.5.5.5.6 0 2.3-1.8 2.6-2.2.1-.1.3-.1.3 0l.8.4zm1-14.8c0 1-1.2 2.3-2.4 2.3-1.4 0-2.2-.8-2.2-2 0-1 1-2 2.2-2 1.6-.2 2.4.7 2.4 1.7z" fill="#fff"/></svg>