<svg xmlns="http://www.w3.org/2000/svg" width="132" height="26"><path d="M127 25H5c-2.2 0-4-1.8-4-4V5c0-2.2 1.8-4 4-4h122c2.2 0 4 1.8 4 4v16c0 2.2-1.8 4-4 4z" fill="#fff"/><path d="M55.3 16.5h-1.2V9.4h1.2v7.1zm3.2-7.1 2.1 5.4 2-5.4h1.6v7.1H63v-2.3l.1-3.1-2.1 5.4h-.9L58 11l.1 3.1v2.3h-1.2v-7h1.6zm8.5 4.5v2.6h-1.2V9.4h2.7c.8 0 1.4.2 1.9.6.5.4.7 1 .7 1.6 0 .7-.2 1.2-.7 1.6s-1.1.6-1.9.6l-1.5.1zm0-1h1.5c.4 0 .8-.1 1-.3s.3-.5.3-.9-.1-.7-.4-.9-.6-.3-1-.4H67v2.5zm11 .2c0 .7-.1 1.3-.4 1.8s-.6.9-1 1.2c-.4.3-1 .4-1.5.4-.6 0-1.1-.1-1.5-.4s-.8-.7-1-1.2-.4-1.1-.4-1.8v-.4c0-.7.1-1.3.4-1.8s.6-.9 1-1.2 1-.4 1.5-.4 1.1.1 1.5.4.8.7 1 1.2.4 1.1.4 1.8v.4zm-1.3-.3c0-.8-.1-1.4-.4-1.8s-.7-.7-1.3-.7c-.5 0-1 .2-1.3.6s-.5 1-.5 1.8v.4c0 .8.2 1.4.5 1.8s.7.6 1.3.6c.5 0 1-.2 1.3-.6s.4-1 .4-1.8v-.3zm5.2 1h-1.4v2.7h-1.2V9.4h2.5c.8 0 1.5.2 1.9.6s.7.9.7 1.6c0 .5-.1.9-.3 1.2s-.5.6-1 .7l1.6 3v.1h-1.3l-1.5-2.8zm-1.4-1h1.3c.4 0 .7-.1 1-.3s.4-.5.4-.9-.1-.7-.3-.9-.5-.3-1-.3h-1.3l-.1 2.4zm10-2.4h-2.2v6.1h-1.2v-6.1h-2.2v-1h5.6v1zm4.4 4.4h-2.8l-.6 1.7h-1.3L93 9.4h1.1l2.7 7.1h-1.3l-.6-1.7zm-2.4-1h2.1l-1-2.9-1.1 2.9zm10.9 2.7h-1.2l-3.2-5v5h-1.2V9.4H99l3.2 5.1V9.4h1.2v7.1zm6.5-6.1h-2.2v6.1h-1.2v-6.1h-2.2v-1h5.6v1z" fill="#787878"/><circle cx="21.8" cy="13" r="8" fill="none" stroke="#da3c2d" stroke-width="2" stroke-miterlimit="10"/><path d="M20.5 17.2c0-.3.1-.6.4-.8.2-.2.6-.3.9-.3.4 0 .7.1.9.3.2.2.4.5.4.8s-.1.6-.4.8c-.2.2-.6.3-.9.3-.4 0-.7-.1-.9-.3-.2-.1-.4-.4-.4-.8zm2.3-2.1h-1.9l-.3-6.9h2.5l-.3 6.9z" fill="#da3c2d"/></svg>