<svg xmlns="http://www.w3.org/2000/svg" width="96" height="64"><style>.st0{fill:#f2c40d}.st2{fill:#fff}</style><circle class="st0" cx="48" cy="24" r="17.5"/><path d="M15.2 56H14v-7.1h1.2V56zm7.2 0h-1.2L18 51v5h-1.2v-7.1H18l3.2 5.1v-5.1h1.2V56zm5.1-1.8c0-.3-.1-.6-.3-.7-.2-.2-.6-.3-1.2-.5s-1-.4-1.4-.6c-.6-.4-1-.9-1-1.6 0-.6.2-1 .7-1.4s1.1-.6 1.8-.6c.5 0 .9.1 1.3.3s.7.4.9.8c.2.3.3.7.3 1.1h-1.2c0-.4-.1-.7-.3-.9-.2-.2-.6-.3-1-.3s-.7.1-.9.3c-.2.2-.3.4-.3.7s.1.5.4.7c.2.2.6.3 1.2.5s1 .3 1.3.6c.3.2.6.4.7.7.2.3.2.6.2 1 0 .6-.2 1.1-.7 1.4s-1.1.5-1.8.5c-.5 0-1-.1-1.4-.3s-.8-.5-1-.8-.4-.7-.4-1.2h1.2c0 .4.1.7.4.9s.6.3 1.1.3c.4 0 .8-.1 1-.3.3-.1.4-.3.4-.6zm7.5-4.3h-2.2V56h-1.2v-6.1h-2.2v-1H35v1zm3.5 3.4h-1.4V56h-1.2v-7.1h2.5c.8 0 1.5.2 1.9.6.4.4.7.9.7 1.6 0 .5-.1.9-.3 1.2s-.5.6-1 .7l1.6 3H40l-1.5-2.7zm-1.3-1h1.3c.4 0 .7-.1 1-.3.2-.2.4-.5.4-.9s-.1-.7-.3-.9-.5-.3-1-.3h-1.3v2.4h-.1zm10.2-3.4v4.8c0 .8-.2 1.4-.7 1.8s-1.1.7-1.9.7c-.8 0-1.5-.2-1.9-.7-.5-.4-.7-1-.7-1.8V49h1.2v4.7c0 .5.1.8.4 1.1.2.3.6.4 1.1.4 1 0 1.4-.5 1.4-1.5V49l1.1-.1zm6.7 4.8c-.1.8-.4 1.3-.8 1.8-.5.4-1.1.6-1.9.6-.6 0-1.1-.1-1.5-.4-.4-.3-.8-.7-1-1.1-.2-.5-.4-1.1-.4-1.7v-.7c0-.7.1-1.3.4-1.8.2-.5.6-.9 1-1.2s1-.4 1.5-.4c.8 0 1.4.2 1.9.6.5.4.8 1 .8 1.8h-1.2c-.1-.5-.2-.9-.4-1.1-.2-.2-.6-.3-1.1-.3s-1 .2-1.2.6-.4 1-.4 1.7v.6c0 .8.1 1.4.4 1.8.3.4.7.6 1.2.6s.8-.1 1.1-.3c.2-.2.4-.6.5-1.1h1.1zm6.1-3.8H58V56h-1.2v-6.1h-2.2v-1h5.6v1zm2.2 6.1h-1.2v-7.1h1.2V56zm7.2-3.4c0 .7-.1 1.3-.4 1.8-.2.5-.6.9-1 1.2s-1 .4-1.5.4c-.6 0-1.1-.1-1.5-.4-.5-.3-.8-.7-1-1.2-.2-.5-.4-1.1-.4-1.8v-.4c0-.7.1-1.3.4-1.8.2-.5.6-.9 1-1.2s1-.4 1.5-.4 1.1.1 1.5.4c.4.3.8.7 1 1.2s.4 1.1.4 1.8v.4zm-1.2-.3c0-.8-.1-1.4-.4-1.8s-.7-.6-1.3-.6c-.5 0-1 .2-1.3.6-.3.4-.5 1-.5 1.8v.4c0 .8.2 1.4.5 1.8.3.4.7.6 1.3.6.5 0 1-.2 1.3-.6.3-.4.4-1 .4-1.8v-.4zm8.1 3.7h-1.2l-3.2-5v5h-1.2v-7.1h1.2l3.2 5.1v-5.1h1.2V56zm5.2-1.8c0-.3-.1-.6-.3-.7-.2-.2-.6-.3-1.2-.5s-1-.4-1.4-.6c-.6-.4-1-.9-1-1.6 0-.6.2-1 .7-1.4s1.1-.6 1.8-.6c.5 0 .9.1 1.3.3s.7.4.9.8c.2.3.3.7.3 1.1h-1.2c0-.4-.1-.7-.3-.9-.2-.2-.6-.3-1-.3s-.7.1-.9.3c-.2.2-.3.4-.3.7s.1.5.4.7c.2.2.6.3 1.2.5s1 .3 1.3.6c.3.2.6.4.7.7.2.3.2.6.2 1 0 .6-.2 1.1-.7 1.4s-1.1.5-1.8.5c-.5 0-1-.1-1.4-.3s-.8-.5-1-.8-.4-.7-.4-1.2h1.2c0 .4.1.7.4.9s.6.3 1.1.3c.4 0 .8-.1 1-.3.3-.1.4-.3.4-.6z" fill="#787878"/><path class="st2" d="M51.4 13.4v-.1H40.2c-.4 0-.7.3-.7.7v20c0 .4.3.7.7.7h15.5c.4 0 .7-.3.7-.7V18.3h-5v-4.9z"/><path class="st2" d="M53.1 13.3v3.4h3.3"/><path class="st0" d="M47.1 30.6c-.4 0-.7-.1-.9-.3-.2-.2-.3-.4-.3-.6v-.6c0-.2.1-.4.1-.6l.9-4.2-.9-.2v-.8h.1c.1-.1.4-.1.6-.2.2-.1.5-.1.8-.2.3 0 .5-.1.8-.1s.5-.1.7-.1h.1l.4.3-1.3 6h1v.8l-.1.1c-.1.1-.3.2-.5.3-.2.1-.4.2-.6.2-.2.1-.4.1-.6.1 0 .1-.2.1-.3.1zm1.6-8.6c-.4 0-.7-.1-1-.3-.3-.2-.4-.5-.4-.9s.1-.7.4-.9c.3-.2.6-.3 1-.3s.7.1 1 .3c.3.2.4.5.4.9s-.1.7-.4.9c-.2.2-.6.3-1 .3z"/></svg>