<svg xmlns="http://www.w3.org/2000/svg" width="96" height="64"><path d="M16.3 56H15v-7.1h1.2l.1 7.1zm7.1 0h-1.2L19 51v5h-1.2v-7.1H19l3.2 5.1v-5.1h1.2V56zm5.2-1.8c0-.3-.1-.6-.3-.7-.2-.2-.6-.3-1.2-.5s-1-.4-1.4-.6c-.6-.4-1-.9-1-1.6 0-.6.2-1 .7-1.4s1.1-.6 1.8-.6c.5 0 .9.1 1.3.3s.7.4.9.8c.2.3.3.7.3 1.1h-1.2c0-.4-.1-.7-.3-.9-.2-.2-.6-.3-1-.3s-.7.1-.9.3-.3.4-.3.7.1.5.4.6c.2.2.6.3 1.2.5s1 .3 1.3.6c.3.2.6.5.7.7.2.3.2.6.2 1 0 .6-.2 1.1-.7 1.4-.5.4-1.1.5-1.8.5-.5 0-1-.1-1.4-.3s-.8-.5-1-.8-.4-.7-.4-1.2h1.2c0 .4.1.7.4.9s.7.3 1.1.3.8-.1 1-.3c.3 0 .4-.2.4-.5zm7.5-4.3h-2.2V56h-1.2v-6.1h-2.2v-1h5.6v1zm4.3 4.5h-2.8l-.5 1.6h-1.3l2.7-7.1h1.1l2.7 7.1H41l-.6-1.6zm-2.4-1h2l-1-2.9-1 2.9zm6.3 1.6h3.2v1H43v-7.1h1.2l.1 6.1zm5.4 0h3.2v1h-4.5v-7.1h1.2l.1 6.1zm8.2-.6h-2.8l-.5 1.6h-1.3l2.7-7.1h1.1l2.7 7.1h-1.3l-.6-1.6zm-2.4-1h2.1l-1-2.9-1.1 2.9zm9.7-3.5H63V56h-1.2v-6.1h-2.2v-1h5.6v1zm2.2 6.1h-1.2v-7.1h1.2V56zm7.2-3.4c0 .7-.1 1.3-.4 1.8-.2.5-.6.9-1 1.2s-1 .4-1.5.4c-.6 0-1.1-.1-1.5-.4-.5-.3-.8-.7-1-1.2s-.4-1.1-.4-1.8v-.4c0-.7.1-1.3.4-1.8.2-.5.6-.9 1-1.2s1-.4 1.5-.4c.6 0 1.1.1 1.5.4.4.3.8.7 1 1.2s.4 1.1.4 1.8v.4zm-1.2-.3c0-.8-.1-1.4-.4-1.8-.3-.4-.7-.6-1.3-.6-.5 0-1 .2-1.3.6-.3.4-.5 1-.5 1.8v.4c0 .8.2 1.4.5 1.8s.7.6 1.3.6c.5 0 1-.2 1.3-.6s.4-1 .4-1.8v-.4zm8.1 3.7h-1.2l-3.2-5v5h-1.2v-7.1h1.2l3.2 5.1v-5.1h1.2V56z" fill="#787878"/><circle cx="48" cy="24" r="17.5" fill="#ffb508"/><path d="M46.2 27.4v-7.3c1-.4 1.6-1.4 1.6-2.5 0-.9-.5-1.8-1.2-2.3v3.1h-3.1v-3.1c-.7.5-1.2 1.3-1.2 2.3 0 1.1.7 2.1 1.6 2.5v7.3c-1 .4-1.6 1.4-1.6 2.5 0 1.5 1.2 2.7 2.7 2.7s2.7-1.2 2.7-2.7c.1-1.1-.6-2.1-1.5-2.5zm.4 3.5-1.5.9-1.5-.9v-1.7l1.5-.9 1.5.9v1.7zm4.1-13.4.5.7v5.1c-.7 0-1.3.6-1.3 1.3v6.7c0 .7.6 1.3 1.3 1.3h1.1c.7 0 1.3-.6 1.3-1.3v-6.7c0-.7-.6-1.3-1.3-1.3v-5.1l.6-.7-.4-2.2H51l-.3 2.2z" fill="#fff"/></svg>