<svg xmlns="http://www.w3.org/2000/svg" width="132" height="26"><path d="M127 25H5c-2.2 0-4-1.8-4-4V5c0-2.2 1.8-4 4-4h122c2.2 0 4 1.8 4 4v16c0 2.2-1.8 4-4 4z" fill="#fff"/><path d="M48.7 16.5h-1.2V9.4h1.2v7.1zm7.3 0h-1.2l-3.2-5v5h-1.2V9.4h1.2l3.2 5.1V9.4H56v7.1zm5.3-1.8c0-.3-.1-.6-.3-.7s-.6-.3-1.2-.5-1-.4-1.4-.6c-.6-.4-1-.9-1-1.6 0-.6.2-1 .7-1.4s1.1-.6 1.8-.6c.5 0 .9.1 1.3.3s.7.4.9.8.3.7.3 1.1h-1.2c0-.4-.1-.7-.3-.9s-.6-.3-1-.3-.7.1-.9.3-.3.4-.3.7.1.5.4.7.6.3 1.2.5 1 .4 1.3.6.6.5.7.7.2.6.2 1c0 .6-.2 1.1-.7 1.4-.5.3-1.1.5-1.8.5-.5 0-1-.1-1.4-.3s-.8-.5-1-.8-.4-.7-.4-1.2h1.2c0 .4.1.7.4.9s.6.3 1.1.3c.4 0 .8-.1 1-.3s.4-.3.4-.6zm7.5-4.3h-2.2v6.1h-1.2v-6.1h-2.2v-1h5.6v1zm4.4 4.4h-2.8l-.6 1.7h-1.3l2.7-7.1h1.1l2.7 7.1h-1.3l-.5-1.7zm-2.4-1h2.1l-1-2.9-1.1 2.9zm6.5 1.7h3.2v1H76V9.4h1.2v6.1h.1zm5.5 0H86v1h-4.5V9.4h1.2v6.1h.1zm8.3-.7h-2.8l-.6 1.7h-1.3l2.7-7.1h1.1l2.7 7.1h-1.3l-.5-1.7zm-2.4-1h2.1l-1-2.9-1.1 2.9zm9.7-3.4h-2.2v6.1H95v-6.1h-2.2v-1h5.6v1zm2.4 6.1h-1.2V9.4h1.2v7.1zm7.3-3.4c0 .7-.1 1.3-.4 1.8s-.6.9-1 1.2c-.4.3-1 .4-1.5.4-.6 0-1.1-.1-1.5-.4s-.8-.7-1-1.2-.4-1.1-.4-1.8v-.4c0-.7.1-1.3.4-1.8s.6-.9 1-1.2 1-.4 1.5-.4 1.1.1 1.5.4.8.7 1 1.2.4 1.1.4 1.8v.4zm-1.3-.3c0-.8-.1-1.4-.4-1.8s-.7-.6-1.3-.6c-.5 0-1 .2-1.3.6s-.5 1-.5 1.8v.4c0 .8.2 1.4.5 1.8s.7.6 1.3.6c.5 0 1-.2 1.3-.6s.4-1 .4-1.8v-.4zm8.2 3.7h-1.2l-3.2-5v5h-1.2V9.4h1.2l3.2 5.1V9.4h1.2v7.1z" fill="#787878"/><path d="M30.1 10.1c0-.2-.3-.3-.4-.1-1 .9-3 2.9-3.6 3.3-.7.5-2.3-1.2-2.4-1.2-.1-.1-1.7-1.7-1.2-2.4.3-.7 2.4-2.8 3.3-3.7.1-.1.1-.3-.1-.4-1-.2-3.6-.6-5.6 1.4-2.4 2.4-2.1 4.5-2.1 5.5 0 1.2.1 1.6-.8 2.5l-2.4 2.5c-.5.5-.5 1.4 0 1.9l1.7 1.7c.5.5 1.4.5 1.9 0l2.4-2.5c.9-.9 1.2-1 2.3-1 1.3 0 3.1.3 5.5-2.1 2-1.8 1.7-4.4 1.5-5.4z" fill="#ffb508"/></svg>