<svg xmlns="http://www.w3.org/2000/svg" width="96" height="64"><style>.st1{fill:#acacac}.st2{fill:#fff}</style><path d="M18.6 53.3h-1.4V56H16v-7.1h2.5c.8 0 1.5.2 1.9.6.4.4.7.9.7 1.6 0 .5-.1.9-.3 1.2-.2.3-.5.6-1 .7l1.6 3H20l-1.4-2.7zm-1.4-1h1.3c.4 0 .7-.1 1-.3.2-.2.4-.5.4-.9s-.1-.7-.3-.9c-.2-.2-.5-.3-1-.3h-1.3v2.4h-.1zm9.2.5h-2.9V55h3.4v1h-4.6v-7.1h4.6v1h-3.4v2h2.9v.9zm1.5 3.2v-7.1h2.4c.8 0 1.4.2 1.8.5s.6.8.6 1.4c0 .3-.1.6-.3.9s-.4.5-.8.6c.4.1.7.3.9.6s.3.6.3 1c0 .7-.2 1.2-.6 1.5-.4.4-1 .5-1.8.5l-2.5.1zm1.2-4.1h1.2c.4 0 .7-.1.9-.3.2-.2.3-.4.3-.7 0-.4-.1-.6-.3-.8s-.5-.2-.9-.2h-1.2v2zm0 .9V55h1.4c.4 0 .7-.1.9-.3.2-.2.3-.5.3-.8 0-.7-.4-1.1-1.1-1.1h-1.5zm9.1 1.6h-2.8l-.5 1.6h-1.3l2.7-7.1h1.1l2.7 7.1h-1.3l-.6-1.6zm-2.4-1h2.1l-1-2.9-1.1 2.9zm9.6-3.5h-2.2V56H42v-6.1h-2.2v-1h5.6v1zm5.1 2.9h-2.9V55H51v1h-4.6v-7.1H51v1h-3.4v2h2.9v.9zm8.1.2h-2.9v3h-1.2v-7.1H59v1h-3.3V52h2.9v1zm7.1-.4c0 .7-.1 1.3-.4 1.8-.2.5-.6.9-1 1.2s-1 .4-1.5.4c-.6 0-1.1-.1-1.5-.4-.5-.3-.8-.7-1-1.2s-.4-1.1-.4-1.8v-.4c0-.7.1-1.3.4-1.8.2-.5.6-.9 1-1.2s1-.4 1.5-.4 1.1.1 1.5.4c.4.3.8.7 1 1.2s.4 1.1.4 1.8v.4zm-1.3-.3c0-.8-.1-1.4-.4-1.8s-.7-.6-1.3-.6c-.5 0-1 .2-1.3.6-.3.4-.5 1-.5 1.8v.4c0 .8.2 1.4.5 1.8.3.4.7.6 1.3.6.5 0 1-.2 1.3-.6.3-.4.4-1 .4-1.8v-.4zm5.1 1h-1.4V56h-1.2v-7.1h2.5c.8 0 1.5.2 1.9.6.4.4.7.9.7 1.6 0 .5-.1.9-.3 1.2-.2.3-.5.6-1 .7l1.6 3H71l-1.5-2.7zm-1.4-1h1.3c.4 0 .7-.1 1-.3.2-.2.4-.5.4-.9s-.1-.7-.3-.9c-.2-.2-.5-.3-1-.3h-1.3l-.1 2.4zm6.6-3.4 2.1 5.4 2-5.4h1.6V56h-1.2v-2.3l.1-3.1-2.1 5.4h-.9l-2.1-5.5.1 3.1V56h-1.2v-7.1h1.6z" fill="#787878"/><circle class="st1" cx="48" cy="24" r="17.5"/><path class="st2" d="M58.3 21v9.6c0 .2-.2.3-.3.1L53.3 26c-.1-.1-.1-.2 0-.3l4.7-4.9c.1-.1.3 0 .3.2zm-20-.1v9.7c0 .2.2.3.3.1l4.7-4.7c.1-.1.1-.2 0-.3l-4.7-5c-.1 0-.3.1-.3.2zm13.1 6.5-3 3c-.1.1-.2.1-.3 0l-3-3c-.1-.1-.2-.1-.3 0l-5.3 5.3c-.1.1 0 .4.2.4h17.1c.2 0 .3-.2.2-.4l-5.3-5.3c-.1-.1-.2-.1-.3 0z"/><path class="st2" d="M41.6 15.3v5.6c0 .1 0 .1.1.2l6.4 6.7c.1.1.3.1.4 0l6.4-6.5s.1-.1.1-.2v-5.8c0-.1-.1-.3-.3-.3H41.8c-.1 0-.2.1-.2.3z"/><path class="st1" d="M47.9 24v-.9c-1.1-.1-1.7-.3-1.7-.3h-.1v-.9h.1s1.2.2 2.1.2c.9 0 1.1-.2 1.1-.7 0-.4-.3-.6-1.3-.8-1.2-.3-1.9-.9-1.9-1.7 0-.7.7-1.4 1.7-1.6v-.9H49v.9c.9.1 1.4.3 1.5.3h.1v.9h-.1s-1-.1-1.9-.1-1.1.4-1.1.6 0 .6 1.2.7c1.3.2 2.2.9 2.2 1.8s-.7 1.6-1.8 1.7v1h-1.2V24z"/></svg>