<svg xmlns="http://www.w3.org/2000/svg" width="132" height="26"><path d="M127 25H5c-2.2 0-4-1.8-4-4V5c0-2.2 1.8-4 4-4h122c2.2 0 4 1.8 4 4v16c0 2.2-1.8 4-4 4z" fill="#fff"/><path d="m61.9 9.4 2.1 5.4 2-5.4h1.6v7.1h-1.2v-2.3l.1-3.1-2.1 5.5h-.9l-2-5.6.1 3.1v2.3h-1.2v-7h1.5zm11.4 5.4h-2.8l-.6 1.7h-1.3l2.7-7.1h1.1l2.7 7.1h-1.3l-.5-1.7zm-2.4-1H73l-1-2.9-1.1 2.9zm10.8 2.7h-1.2l-3.2-5v5H76V9.4h1.2l3.2 5.1V9.4h1.2v7.1h.1zm6.7-7.1v4.8c0 .8-.2 1.4-.7 1.8-.5.4-1.1.7-1.9.7s-1.5-.2-1.9-.7-.7-1-.7-1.8V9.4h1.2v4.8c0 .5.1.8.4 1.1.2.3.6.4 1.1.4 1 0 1.4-.5 1.4-1.5V9.4h1.1zm5.3 5.4H91l-.6 1.7h-1.3l2.7-7.1h1.1l2.7 7.1h-1.3l-.6-1.7zm-2.4-1h2.1l-1-2.9-1.1 2.9zm6.4 1.7h3.2v1h-4.5V9.4h1.2v6.1h.1z" fill="#787878"/><path d="M26 13v2h-8v-2h8zm0 3v2h-8v-2h8z" fill="#3a67c3"/><path d="M28 21H16c-.5 0-1-.4-1-1V6c0-.5.4-1 1-1h8l5 5v10c0 .6-.4 1-1 1zM24 5v5h5l-5-5z" fill="none" stroke="#3a67c3" stroke-width="2" stroke-linecap="round" stroke-linejoin="round" stroke-miterlimit="10"/></svg>