<svg xmlns="http://www.w3.org/2000/svg" width="96" height="64"><style>.st2{fill:#fff}</style><circle cx="48" cy="24" r="17.5" fill="#3a67c3"/><path d="m30 48.9 2.1 5.4 2-5.4h1.6V56h-1.2v-2.3l.1-3.1-2.1 5.4h-.9l-2.1-5.5.1 3.1V56h-1.2v-7.1H30zm11.2 5.5h-2.8l-.5 1.6h-1.3l2.7-7.1h1.1l2.7 7.1h-1.3l-.6-1.6zm-2.4-1h2.1l-1-2.9-1.1 2.9zM49.5 56h-1.2l-3.2-5v5h-1.2v-7.1h1.2l3.2 5.1v-5.1h1.2V56zm6.7-7.1v4.8c0 .8-.2 1.4-.7 1.8-.5.4-1.1.7-1.9.7-.8 0-1.5-.2-1.9-.7-.5-.4-.7-1-.7-1.8V49h1.2v4.7c0 .5.1.8.4 1.1.2.3.6.4 1.1.4 1 0 1.4-.5 1.4-1.5V49l1.1-.1zm5.2 5.5h-2.8l-.5 1.6h-1.3l2.7-7.1h1.1l2.7 7.1H62l-.6-1.6zm-2.4-1h2.1l-1-2.9-1.1 2.9zm6.3 1.6h3.2v1H64v-7.1h1.2V55h.1z" fill="#787878"/><path class="st2" d="M58.6 16.3h-2.4v-2.2h-.5c-4.4 0-6.9 1.4-7.5 1.8H37.4V33H41v.3h14.8V33h2.8V16.3zm-9.7.3c.6-.4 2.7-1.4 6.4-1.5v13.7c-1.1 0-3.7.4-6.4 2.6V16.6zm-10.5.2h9.5V32h-9.5V16.8zM57.6 32h-7.9c3-2.4 6-2.2 6-2.2h.5V17.2h1.4V32z"/><path class="st2" d="M40.4 18.9H46v1h-5.6v-1zm0 2.5H46v1h-5.6v-1zm0 2.5H46v1h-5.6v-1zm-.1 2.5h5.6v1h-5.6v-1zm0 2.5h5.6v1h-5.6v-1zm10.2-10c0-.1.9-1.3 3.4-1.3v-.7c-1.7 0-2.8.6-3.4 1v1zm0 2.4c0-.1.9-1.3 3.4-1.3v-.7c-1.7 0-2.8.6-3.4 1v1zm0 2.3c0-.1.9-1.3 3.4-1.3v-.7c-1.7 0-2.8.6-3.4 1v1zm0 2.4c0-.1.9-1.3 3.4-1.3V24c-1.7 0-2.8.6-3.4 1v1zm0 2.3c0-.1.9-1.3 3.4-1.3v-.7c-1.7 0-2.8.6-3.4 1v1z"/></svg>