<svg xmlns="http://www.w3.org/2000/svg" width="132" height="26"><style>.st2{fill:none;stroke:#d4584c;stroke-width:2;stroke-miterlimit:10}</style><path d="M127 25H5c-2.2 0-4-1.8-4-4V5c0-2.2 1.8-4 4-4h122c2.2 0 4 1.8 4 4v16c0 2.2-1.8 4-4 4z" fill="#fff"/><path d="m56.7 9.4 2.1 5.4 2-5.4h1.6v7.1h-1.2v-2.3l.1-3.1-2.1 5.5h-.9L56.2 11l.1 3.1v2.3h-1.2v-7h1.6zM68 14.8h-2.8l-.6 1.7h-1.3L66 9.4h1.1l2.7 7.1h-1.3l-.5-1.7zm-2.4-1h2.1l-1-2.9-1.1 2.9zm9.7-3.4h-2.2v6.1h-1.2v-6.1h-2.2v-1h5.6v1zm5.2 2.9h-2.9v2.2H81v1h-4.6V9.4H81v1h-3.4v2h2.9v.9zm4.2.5h-1.4v2.7h-1.2V9.4h2.5c.8 0 1.5.2 1.9.6.4.4.7.9.7 1.6 0 .5-.1.9-.3 1.2s-.5.6-1 .7l1.6 3v.1h-1.3l-1.5-2.8zm-1.3-1h1.3c.4 0 .7-.1 1-.3s.3-.5.3-.9-.1-.7-.3-.9c-.2-.2-.5-.3-1-.3h-1.3v2.4zm6.4 3.7h-1.2V9.4h1.2v7.1zm5.7-1.7h-2.8l-.6 1.7h-1.3l2.7-7.1h1.1l2.7 7.1H96l-.5-1.7zm-2.4-1h2.1l-1-2.9-1.1 2.9zm6.4 1.7h3.2v1h-4.5V9.4h1.2v6.1h.1zm8-.8c0-.3-.1-.6-.3-.7s-.6-.3-1.2-.5-1-.4-1.4-.6c-.6-.4-1-.9-1-1.6 0-.6.2-1 .7-1.4s1.1-.6 1.8-.6c.5 0 .9.1 1.3.3s.7.4.9.8c.2.3.3.7.3 1.1h-1.2c0-.4-.1-.7-.3-.9-.2-.2-.6-.3-1-.3s-.7.1-.9.3c-.2.2-.3.4-.3.7s.1.5.4.7c.2.2.6.3 1.2.5s1 .4 1.3.6c.3.2.6.5.7.7s.2.6.2 1c0 .6-.2 1.1-.7 1.4-.5.3-1.1.5-1.8.5-.5 0-1-.1-1.4-.3s-.8-.5-1-.8-.4-.7-.4-1.2h1.2c0 .4.1.7.4.9s.6.3 1.1.3c.4 0 .8-.1 1-.3.3-.1.4-.3.4-.6z" fill="#787878"/><path class="st2" d="M12 18V8.2c0-.6.5-1.1 1.1-1.1h17.8c.6 0 1.1.5 1.1 1.1V18c0 .6-.5 1.1-1.1 1.1H13.1c-.6 0-1.1-.5-1.1-1.1zM22 7.1v12"/><path d="M28 12.1v2h-2v-2h2zm0 3v2h-2v-2h2zm0-6v2h-2v-2h2z" fill="#d4584c"/><path class="st2" d="m12 8.1 10 10m-6-11 6 6m-10 0 6 6"/></svg>