<svg xmlns="http://www.w3.org/2000/svg" width="96" height="64"><style>.st8{fill:#1a1a1a}</style><path d="m23.6 48.9 2.1 5.4 2-5.4h1.6V56h-1.2v-2.3l.1-3.1-2.1 5.4h-.9l-2.1-5.5.1 3.1V56H22v-7.1h1.6zm11.2 5.5H32l-.5 1.6h-1.3l2.7-7.1H34l2.7 7.1h-1.3l-.6-1.6zm-2.4-1h2.1l-1-2.9-1.1 2.9zm9.7-3.5h-2.2V56h-1.2v-6.1h-2.2v-1h5.6v1zm5 2.9h-2.9V55h3.4v1H43v-7.1h4.6v1h-3.4v2h2.9v.9zm4.2.5h-1.4V56h-1.2v-7.1h2.5c.8 0 1.5.2 1.9.6.4.4.7.9.7 1.6 0 .5-.1.9-.3 1.2s-.5.6-1 .7l1.6 3h-1.3l-1.5-2.7zm-1.4-1h1.3c.4 0 .7-.1 1-.3.2-.2.4-.5.4-.9s-.1-.7-.3-.9-.5-.3-1-.3H50v2.4h-.1zm6.3 3.7H55v-7.1h1.2V56zm5.6-1.6H59l-.6 1.6h-1.3l2.7-7.1h1.1l2.7 7.1h-1.3l-.5-1.6zm-2.4-1h2.1l-1-2.9-1.1 2.9zm6.3 1.6h3.2v1h-4.5v-7.1h1.2V55h.1zm7.9-.8c0-.3-.1-.6-.3-.7-.2-.2-.6-.3-1.2-.5s-1-.4-1.4-.6c-.6-.4-1-.9-1-1.6 0-.6.2-1 .7-1.4s1.1-.6 1.8-.6c.5 0 .9.1 1.3.3s.7.4.9.8c.2.3.3.7.3 1.1h-1.2c0-.4-.1-.7-.3-.9-.2-.2-.6-.3-1-.3s-.7.1-.9.3-.3.4-.3.7.1.5.4.6c.2.2.6.3 1.2.5s1 .3 1.3.6c.3.2.6.5.7.7.2.3.2.6.2 1 0 .6-.2 1.1-.7 1.4-.5.4-1.1.5-1.8.5-.5 0-1-.1-1.4-.3s-.8-.5-1-.8-.4-.7-.4-1.2h1.2c0 .4.1.7.4.9s.7.3 1.1.3.8-.1 1-.3c.3 0 .4-.2.4-.5z" fill="#787878"/><path d="M31.1 13.9h16.2v4.8H31.1v-4.8z" fill="#4e4e4e"/><linearGradient id="SVGID_1_" gradientUnits="userSpaceOnUse" x1="48.675" y1="49.7" x2="64.875" y2="49.7" gradientTransform="matrix(1 0 0 -1 0 66)"><stop offset=".005" stop-color="#a26f30"/><stop offset=".13" stop-color="#976130"/><stop offset=".232" stop-color="#8c522f"/><stop offset=".337" stop-color="#97602f"/><stop offset=".422" stop-color="#a26f30"/><stop offset=".55" stop-color="#976130"/><stop offset=".654" stop-color="#8c522f"/><stop offset=".77" stop-color="#97602f"/><stop offset=".865" stop-color="#a26f30"/></linearGradient><path d="M48.7 13.9h16.2v4.8H48.7v-4.8z" fill="url(#SVGID_1_)"/><path d="M31.1 20.1h16.2v4.8H31.1v-4.8z" fill="#6a4434"/><path d="M48.7 20.1h16.2v4.8H48.7v-4.8z" fill="#efe091"/><linearGradient id="SVGID_2_" gradientUnits="userSpaceOnUse" x1="31.1" y1="37.4" x2="47.3" y2="37.4" gradientTransform="matrix(1 0 0 -1 0 66)"><stop offset="0" stop-color="#9f1815"/><stop offset=".1" stop-color="#911815"/><stop offset=".222" stop-color="#7a1815"/><stop offset=".319" stop-color="#881815"/><stop offset=".438" stop-color="#9f1815"/><stop offset=".508" stop-color="#911815"/><stop offset=".595" stop-color="#7a1815"/><stop offset=".695" stop-color="#881815"/><stop offset=".816" stop-color="#9f1815"/></linearGradient><path d="M31.1 26.2h16.2V31H31.1v-4.8z" fill="url(#SVGID_2_)"/><radialGradient id="SVGID_3_" cx="-404.196" cy="439.366" r="6.364" gradientTransform="matrix(.9383 0 0 -.944 436.021 443.352)" gradientUnits="userSpaceOnUse"><stop offset="0" stop-color="#7d7d7d"/><stop offset=".271" stop-color="#8b8b8b"/><stop offset=".781" stop-color="#b0b0b0"/><stop offset="1" stop-color="#c2c2c2"/></radialGradient><path d="M48.7 26.2h16.2V31H48.7v-4.8z" fill="url(#SVGID_3_)"/><path d="M48.7 32.3h16.2v4.8H48.7v-4.8z" fill="#7a1815"/><path class="st8" d="m48.7 35.9 1.1 1.2h.6l-1.7-1.8m0-1.4 3.1 3.2h.7l-3.8-3.9m.5-.9 4.7 4.8h.7l-4.8-4.8m1.4 0 4.7 4.8h.7l-4.7-4.8m1.4 0 4.7 4.8h.7l-4.8-4.8m1.4 0 4.8 4.8h.6L56 32.3m1.4 0 4.7 4.8h.7L58 32.3m1.4 0 4.8 4.8h.6l-4.7-4.8m1.4 0 3.4 3.4v-.6l-2.7-2.8m2.7.7-.7-.7h-.7l1.4 1.4"/><path d="M31.1 32.3h16.2v4.8H31.1v-4.8z" fill="#eae4d2"/><path class="st8" d="m31.1 35.9 1.1 1.2h.7l-1.8-1.8m0-1.4 3.2 3.2h.6l-3.8-3.9m.5-.9 4.7 4.8h.7l-4.7-4.8m1.4 0 4.7 4.8h.6l-4.7-4.8m1.4 0 4.7 4.8h.7l-4.7-4.8m1.4 0 4.7 4.8h.7l-4.8-4.8m1.4 0 4.7 4.8h.7l-4.7-4.8m1.4 0 4.7 4.8h.7l-4.8-4.8m1.4 0 3.4 3.4v-.6l-2.7-2.8m2.7.7-.7-.7H46l1.3 1.4"/></svg>