<svg xmlns="http://www.w3.org/2000/svg" width="96" height="64"><style>.st2{fill:none;stroke:#fff;stroke-miterlimit:10}</style><path d="M48.3 6.7c9.5 0 17.2 7.7 17.2 17.3s-8.4 17.7-17.8 17.7S30.5 34 30.5 24.4 38.9 6.7 48.3 6.7z" fill="#d4584c"/><path d="m23.6 49.6 2.1 5.4 2-5.4h1.6v7.1H28v-2.3l.1-3.1-2.1 5.5h-.9L23 51.3l.1 3.1v2.3H22v-7.1h1.6zM34.8 55H32l-.6 1.7h-1.3l2.7-7.1H34l2.7 7.1h-1.3l-.6-1.7zm-2.4-1h2.1l-1-2.9-1.1 2.9zm9.6-3.4h-2.2v6.1h-1.2v-6.1h-2.2v-1H42v1zm5.1 2.9h-2.9v2.2h3.4v1H43v-7.1h4.6v1h-3.4v2h2.9v.9zm4.1.5h-1.4v2.7h-1.2v-7.1h2.5c.8 0 1.5.2 1.9.6.4.4.7.9.7 1.6 0 .5-.1.9-.3 1.2s-.5.6-1 .7l1.6 3v.1h-1.3L51.2 54zm-1.4-1h1.3c.4 0 .7-.1 1-.3.2-.2.4-.5.4-.9s-.1-.7-.3-.9-.5-.3-1-.3h-1.3V53h-.1zm6.3 3.7h-1.2v-7.1h1.2v7.1zm5.6-1.7H59l-.6 1.7h-1.3l2.7-7.1h1.1l2.7 7.1h-1.3l-.6-1.7zm-2.4-1h2.1l-1-2.9-1.1 2.9zm6.3 1.7h3.2v1h-4.5v-7.1h1.2v6.1h.1zm7.9-.8c0-.3-.1-.6-.3-.7s-.6-.3-1.2-.5-1-.4-1.4-.6c-.6-.4-1-.9-1-1.6 0-.6.2-1 .7-1.4s1.1-.6 1.8-.6c.5 0 .9.1 1.3.3s.7.4.9.8c.2.3.3.7.3 1.1h-1.2c0-.4-.1-.7-.3-.9-.2-.2-.6-.3-1-.3s-.7.1-.9.3c-.2.2-.3.4-.3.7s.1.5.4.6c.2.2.6.3 1.2.5s1 .3 1.3.6c.3.2.6.5.7.7.2.3.2.6.2 1 0 .6-.2 1.1-.7 1.4-.5.4-1.1.5-1.8.5-.5 0-1-.1-1.4-.3s-.8-.5-1-.8-.4-.7-.4-1.2h1.2c0 .4.1.7.4.9s.6.3 1.1.3c.4 0 .8-.1 1-.3.3 0 .4-.3.4-.5z" fill="#787878"/><path class="st2" d="M58.2 34.9H37.8V14.5h20.4v20.4zm.1-10.2H37.7M48 14.5v20.4m-6.8-20.4v10.2m3.4-10.2v10.2m-3.4.1v10.1m3.4-10.1v10.1"/><path class="st2" d="m52.4 24.5-1.8 5.1 1.8 5.1M56 24.5l-1.8 5.1 1.8 5.1m-18.2-3.2H48m-10.2-3.4H48"/><path d="M49.9 17.3h1v1h-1v-1zm2.8 0h1v1h-1v-1zm2.8 0h1v1h-1v-1zm-5.6 3.5h1v1h-1v-1zm2.8 0h1v1h-1v-1zm2.8 0h1v1h-1v-1z" fill="#fff"/></svg>