<svg xmlns="http://www.w3.org/2000/svg" width="96" height="64"><style>.st1{fill:#ffb508}.st2{fill:#fff}</style><path d="m23.6 48.9 2.1 5.4 2-5.4h1.6V56h-1.2v-2.3l.1-3.1-2.1 5.4h-.9l-2.1-5.5.1 3.1V56H22v-7.1h1.6zm11.2 5.5H32l-.5 1.6h-1.3l2.7-7.1H34l2.7 7.1h-1.3l-.6-1.6zm-2.4-1h2.1l-1-2.9-1.1 2.9zm9.7-3.5h-2.2V56h-1.2v-6.1h-2.2v-1h5.6v1zm5 2.9h-2.9V55h3.4v1H43v-7.1h4.6v1h-3.4v2h2.9v.9zm4.2.5h-1.4V56h-1.2v-7.1h2.5c.8 0 1.5.2 1.9.6.4.4.7.9.7 1.6 0 .5-.1.9-.3 1.2s-.5.6-1 .7l1.6 3h-1.3l-1.5-2.7zm-1.4-1h1.3c.4 0 .7-.1 1-.3.2-.2.4-.5.4-.9s-.1-.7-.3-.9-.5-.3-1-.3H50v2.4h-.1zm6.3 3.7H55v-7.1h1.2V56zm5.6-1.6H59l-.6 1.6h-1.3l2.7-7.1h1.1l2.7 7.1h-1.3l-.5-1.6zm-2.4-1h2.1l-1-2.9-1.1 2.9zm6.3 1.6h3.2v1h-4.5v-7.1h1.2V55h.1zm7.9-.8c0-.3-.1-.6-.3-.7s-.6-.3-1.2-.5-1-.4-1.4-.6c-.6-.4-1-.9-1-1.6 0-.6.2-1 .7-1.4s1.1-.6 1.8-.6c.5 0 .9.1 1.3.3s.7.4.9.8c.2.3.3.7.3 1.1h-1.2c0-.4-.1-.7-.3-.9-.2-.2-.6-.3-1-.3s-.7.1-.9.3c-.2.2-.3.4-.3.7s.1.5.4.6c.2.2.6.3 1.2.5s1 .3 1.3.6c.3.2.6.5.7.7.2.3.2.6.2 1 0 .6-.2 1.1-.7 1.4-.5.4-1.1.5-1.8.5-.5 0-1-.1-1.4-.3s-.8-.5-1-.8-.4-.7-.4-1.2h1.2c0 .4.1.7.4.9s.6.3 1.1.3c.4 0 .8-.1 1-.3.3 0 .4-.2.4-.5z" fill="#787878"/><path class="st1" d="M48.3 6.5c9.5 0 17.2 7.7 17.2 17.3s-8.4 17.7-17.8 17.7-17.2-7.7-17.2-17.3S38.9 6.5 48.3 6.5z"/><circle class="st1" cx="41.4" cy="26.1" r=".7"/><circle class="st1" cx="45.7" cy="26.1" r=".7"/><circle class="st1" cx="50" cy="26.1" r=".7"/><circle class="st1" cx="54.3" cy="26.1" r=".7"/><path class="st2" d="M51.8 29.3H39.1c-.5 0-.9-.4-.9-.9V15.8c0-.5.4-.9.9-.9h12.6c.5 0 .9.4.9.9v12.6c0 .5-.4.9-.8.9z"/><path class="st2" d="m58.8 23.2-4.2-2.3v7.5c0 1.6-1.3 2.9-2.9 2.9h-8.2l8.5 4.6c.4.2 1 .1 1.2-.4l6-11.1c.2-.5.1-1-.4-1.2z"/></svg>