<svg xmlns="http://www.w3.org/2000/svg" width="96" height="13"><style>.st0{fill:#fff}</style><path class="st0" d="M0 0h96v13H0z"/><path d="M35.1 3.2 37 8l1.8-4.8h1.4v6.3h-1.1V7.4l.1-2.8-1.9 4.9h-.8l-1.9-4.9.1 2.8v2.1h-1.1V3.2h1.5zm11.5 3.3c0 .6-.1 1.2-.3 1.6s-.5.8-.9 1.1-.9.4-1.4.4c-.5 0-1-.1-1.4-.4s-.7-.6-.9-1.1c-.2-.5-.3-1-.3-1.6v-.3c0-.6.1-1.2.3-1.6.2-.5.5-.8.9-1.1.4-.3.9-.4 1.4-.4s1 .1 1.4.4c.4.2.7.6.9 1.1.2.5.3 1 .3 1.6v.3zm-1.1-.3c0-.7-.1-1.2-.4-1.6S44.5 4 44 4c-.5 0-.9.2-1.1.6-.3.4-.4.9-.4 1.6v.4c0 .7.1 1.2.4 1.6.3.4.7.6 1.1.6.5 0 .9-.2 1.1-.6.3-.4.4-.9.4-1.6v-.4zm4.6.9h-1.2v2.4h-1.1V3.2H50c.7 0 1.3.2 1.7.5.4.3.6.8.6 1.4 0 .4-.1.8-.3 1.1-.2.3-.5.5-.9.7l1.4 2.6v.1h-1.2l-1.2-2.5zm-1.2-.9H50c.4 0 .7-.1.9-.3.2-.2.3-.4.3-.8 0-.3-.1-.6-.3-.8s-.5-.2-.9-.2h-1.2v2.1zm8.2.5h-2.6v1.9h3.1v.9h-4.2V3.2h4.1v.9h-3v1.7h2.6v.9zm4.7 2.8h-1.1V3.2h1.1v6.3zm6.5 0h-1.1L64.3 5v4.5h-1.1V3.2h1.1l2.9 4.5V3.2h1.1v6.3zm5-2.7h-2.6v2.7h-1.1V3.2h4.1v.9h-2.9V6h2.6v.8zm6.3-.3c0 .6-.1 1.2-.3 1.6s-.5.8-.9 1.1-.9.4-1.4.4c-.5 0-1-.1-1.4-.4s-.7-.6-.9-1.1c-.2-.5-.3-1-.3-1.6v-.3c0-.6.1-1.2.3-1.6.2-.5.5-.8.9-1.1.4-.3.8-.4 1.4-.4s1 .1 1.4.4c.4.2.7.6.9 1.1.2.5.3 1 .3 1.6v.3zm-1.1-.3c0-.7-.1-1.2-.4-1.6S77.5 4 77 4c-.5 0-.9.2-1.1.6-.3.4-.4.9-.4 1.6v.4c0 .7.1 1.2.4 1.6.3.4.7.6 1.1.6.5 0 .9-.2 1.1-.6.3-.4.4-.9.4-1.6v-.4z" fill="#7a7a7a"/><path d="M0 0h20v13H0z" fill="#c0392b"/><path class="st0" d="M10 0h1.4v5.8H10zM8.6 5.8H10v1.4H8.6zM7.1 7.2h1.4v1.4H7.1zM5.7 8.7h1.4v1.4H5.7zm-1.4 1.4h1.4v1.4H4.3zm7.1-4.3h1.4v1.4h-1.4zm1.5 1.4h1.4v1.4h-1.4zm1.4 1.5h1.4v1.4h-1.4z"/></svg>