<svg xmlns="http://www.w3.org/2000/svg" xml:space="preserve" viewBox="0 0 313 22"><path d="M1.69 3.06h8.69l6.56 11.96 6.53-11.96h8.64v18h-5.34l.27-13.9-7.99 13.9h-4.37L6.82 7.16l.16 13.9H1.69v-18zm54.67.08c2.78.51 4.13 1.94 4.51 4.83.11.73.16 2.19.16 4.37 0 4.35-.46 6.1-2 7.37-1.08.92-2.59 1.35-5.21 1.46-.97.05-3.37.08-5.13.08-4.29 0-6.48-.08-7.56-.3-2-.35-3.16-1.11-3.83-2.43-.7-1.32-.86-2.65-.86-6.59 0-3.02.05-3.78.38-4.99.51-1.92 1.57-2.94 3.59-3.54 1.51-.43 3.16-.54 7.91-.54 5.18.01 6.77.06 8.04.28zM42.92 7.92c-.73.57-.94 1.46-.94 4.05 0 2.65.22 3.62.89 4.18.73.59 1.62.7 5.75.7 4.72 0 5.7-.16 6.32-1.03.51-.65.65-1.57.65-3.97 0-4.54-.08-4.59-6.83-4.59-4.03.01-5.14.14-5.84.66zm29.32-.41h-8.02V3.06h21.51v4.45h-8.02v13.55h-5.48V7.51zm36.61-4.37c2.78.51 4.13 1.94 4.51 4.83.11.73.16 2.19.16 4.37 0 4.35-.46 6.1-2 7.37-1.08.92-2.59 1.35-5.21 1.46-.97.05-3.37.08-5.13.08-4.29 0-6.48-.08-7.56-.3-2-.35-3.16-1.11-3.83-2.43-.7-1.32-.86-2.65-.86-6.59 0-3.02.05-3.78.38-4.99.51-1.91 1.56-2.94 3.59-3.53 1.51-.43 3.16-.54 7.91-.54 5.18 0 6.77.05 8.04.27zM95.41 7.92c-.73.57-.94 1.46-.94 4.05 0 2.65.22 3.62.89 4.18.73.59 1.62.7 5.75.7 4.72 0 5.7-.16 6.32-1.03.51-.65.65-1.57.65-3.97 0-4.54-.08-4.59-6.83-4.59-4.04.01-5.14.14-5.84.66zm22.43-4.86h15.52c3.19 0 4.59.27 5.62 1.13 1.05.84 1.54 2.38 1.54 4.8 0 3.35-.81 4.67-3.1 5.18 2.24.38 2.92 1.32 2.86 4.05v2.83h-5.56v-2.24c-.03-1.94-.57-2.35-3.02-2.29h-8.4v4.54h-5.45v-18zm14.01 9.07c2.65 0 3.16-.32 3.16-2.11 0-1.16-.11-1.65-.46-2.02-.41-.43-.86-.51-2.51-.51h-8.75v4.64h8.56zm35.59 2.16c-.03 2.62-.11 3.51-.49 4.32-.7 1.54-2.16 2.27-4.97 2.46-1.11.11-3.27.13-6.86.13-5.18 0-6.86-.24-8.31-1.19-1.78-1.13-2.29-3.02-2.29-8.37 0-4.75.54-6.45 2.43-7.53 1.62-.95 3.35-1.19 8.39-1.19 6.72 0 8.18.14 9.72.89 1.46.73 2.13 2.32 2.13 4.97v.59h-5.24c-.11-1.97-.51-2.13-5.26-2.13-4.48 0-5.29.11-5.96.7-.65.59-.78 1.32-.78 4.24 0 4.32.41 4.64 5.67 4.64 4.08 0 4.67-.03 5.43-.35.78-.32 1.08-.89 1.08-2.19h5.31zm12.2.54L169.36 3.06h6.99l6.07 7.45 6.02-7.45h6.86l-10.15 11.77v6.24h-5.51v-6.24zm40.39-.54c-.03 2.62-.11 3.51-.49 4.32-.7 1.54-2.16 2.27-4.97 2.46-1.11.11-3.27.13-6.86.13-5.18 0-6.86-.24-8.31-1.19-1.78-1.13-2.29-3.02-2.29-8.37 0-4.75.54-6.45 2.43-7.53 1.62-.95 3.35-1.19 8.39-1.19 6.72 0 8.18.14 9.72.89 1.46.73 2.13 2.32 2.13 4.97v.59h-5.24c-.11-1.97-.51-2.13-5.26-2.13-4.48 0-5.29.11-5.96.7-.65.59-.78 1.32-.78 4.24 0 4.32.41 4.64 5.67 4.64 4.08 0 4.67-.03 5.43-.35.78-.32 1.08-.89 1.08-2.19h5.31zm4.33-11.23h5.48v13.55h12.39v4.45h-17.87v-18zm40.71 0v4.08h-14.55v3.1h13.71v3.56h-13.71v3.18h14.74v4.08h-20.14v-18h19.95zm3.84 0h4.64v3.37h-4.64V3.06zm0 5.4h4.64v12.61h-4.64V8.46zm8.99-5.4h15.55c3.81 0 5.59.43 6.83 1.67 1 .97 1.4 2.11 1.59 4.4.05.84.11 2.08.11 2.94 0 1.62-.11 3.48-.27 4.51-.3 2.16-1.81 3.83-3.78 4.21-1.03.22-1.84.27-3.75.27H277.9v-18zm14.66 13.71c1.49 0 1.59 0 2.24-.22 1.32-.41 1.67-1.35 1.67-4.45 0-3.78-.65-4.56-3.81-4.56h-9.29v9.23h9.19zm11.39-12.83c0-.63.14-1.21.43-1.74s.69-.96 1.2-1.27 1.07-.46 1.66-.46 1.15.15 1.66.46c.51.31.91.73 1.2 1.27s.43 1.12.43 1.74c0 .61-.14 1.18-.42 1.71s-.67.96-1.19 1.28-1.08.49-1.69.49c-.61 0-1.17-.16-1.68-.48s-.91-.75-1.19-1.28c-.27-.53-.41-1.1-.41-1.72zm.54 0c0 .53.12 1.02.37 1.48.25.45.58.81 1.01 1.06.43.26.89.39 1.38.39.5 0 .96-.13 1.39-.39.43-.26.76-.62 1.01-1.06.24-.45.36-.94.36-1.47s-.12-1.02-.36-1.46c-.24-.45-.58-.8-1.01-1.06a2.63 2.63 0 0 0-1.39-.39c-.5 0-.96.13-1.38.38-.43.26-.76.61-1.01 1.06-.25.45-.37.94-.37 1.46zm2.08.35v1.57h-.65V1.92h1.28c.47 0 .84.1 1.1.3s.39.5.39.88-.2.67-.59.87c.38.15.57.47.57.95v.28c0 .27.03.46.08.58v.07h-.67c-.04-.11-.07-.31-.07-.6s0-.46-.01-.51c-.05-.3-.25-.45-.61-.46h-.82zm0-.59h.72c.22-.01.4-.06.54-.16s.2-.24.2-.4c0-.23-.06-.38-.18-.48-.12-.09-.34-.14-.65-.14h-.64V3.7z" fill="#444445"/></svg>