<svg width="44" height="26" xmlns="http://www.w3.org/2000/svg" xmlns:xlink="http://www.w3.org/1999/xlink"><defs><path id="a" d="M0 .929h13.072v13.07H0z"/><path id="c" d="M.194.929h13.071V14H.194z"/><path id="e" d="M0 25.997h43.265V0H0z"/></defs><g fill="none" fill-rule="evenodd"><g transform="translate(0 11.997)"><mask id="b" fill="#fff"><use xlink:href="#a"/></mask><path d="M6.536 11.788a4.328 4.328 0 01-4.324-4.323A4.329 4.329 0 016.536 3.14a4.329 4.329 0 014.324 4.324 4.328 4.328 0 01-4.324 4.323m0-10.86A6.536 6.536 0 106.535 14a6.536 6.536 0 000-13.071" fill="#414141" mask="url(#b)"/></g><path d="M4.166 19.461a2.37 2.37 0 114.739-.001 2.37 2.37 0 01-4.739.001" fill="#B3B3B3"/><path d="M5.32 19.461a1.217 1.217 0 112.433 0 1.217 1.217 0 01-2.434 0" fill="#414141"/><g transform="translate(30 11.997)"><mask id="d" fill="#fff"><use xlink:href="#c"/></mask><path d="M6.694 11.788a4.329 4.329 0 01-4.288-4.36 4.328 4.328 0 014.359-4.287A4.328 4.328 0 0111.053 7.5a4.329 4.329 0 01-4.36 4.288m.09-10.86A6.536 6.536 0 106.676 14 6.536 6.536 0 006.783.93" fill="#414141" mask="url(#d)"/></g><path d="M26.511 11.133s-5.873 2.435-6.145 2.492c-.272.058-7.048.03-7.313 0-.264-.028-.865-1.305-1.037-1.369-.172-.063-3.58-1.725-3.58-1.725s-1.92.086-2.12.115c-.2.03-4.699.573-5.759 3.638l-.034.146a7.693 7.693 0 016.658-2.845c3.586.302 6.531 3.121 6.98 6.692a7.688 7.688 0 01-.536 3.953.197.197 0 00.18.276h12.804a.796.796 0 00.78-.634l2.13-10.195-3.008-.544z" fill="#414141"/><path d="M3.198 11.33s.23-1.457 2.206-1.457c2.24 0 3.552-.258 3.924 0 .373.258 2.641 1.514 4.498 1.66 2.177.173 3.094-.027 4.125-.486 1.031-.459 1.346.114.974.858 0 0-.974 2.952-3.38 2.78-2.407-.171-4.269-1.498-6.245-3.356H3.198z" fill="#B3B3B3"/><path d="M26.7 21.554l-10.693-1.146s.229-3.333 2.062-5.046l3.615-1.562s7.003-1.75 6.965-1.524c-.038.225-1.948 9.278-1.948 9.278" fill="#FFF"/><path d="M18.622 14.226s6.188-.229 8.223-.945c2.033-.716 3.036-1.381 2.32-3.226-.716-1.845-1.346-3.391-3.724-2.331s-5.465 3.919-6.037 4.501c-.573.582-1.953 2.058-.782 2.001" fill="#B3B3B3"/><path fill="#414141" d="M35.933 17.229l-.506-.786.106-.065-5.153-8.502-.861.523 5.153 8.5.134-.08.49.756z"/><path d="M34.36 19.461a2.37 2.37 0 114.738-.001 2.37 2.37 0 01-4.739.001" fill="#B3B3B3"/><path d="M35.513 19.461a1.217 1.217 0 112.434 0 1.217 1.217 0 01-2.434 0" fill="#414141"/><path d="M40.892 14.735a6.78 6.78 0 00-10.515 6.768l-.439.05a7.106 7.106 0 0111.597-7.326l-.643.508z" fill="#B3B3B3"/><path fill="#414141" d="M6.959 18.625l7.224-2.65.286.714L7.5 19.195zm.52.836l7.542.724-.438.687-7.624-.706zm21.916-7.569s1.331-.416 1.789-3.18h1.877V5.776s-1.562-.573-2.679.773l-.415-.243s-.888-2.393-3.051-2.335c-1.461.039-2.72.607-3.383.972a.574.574 0 00.55 1.006c.584-.31 1.651-.755 2.904-.717 1.906.056 1.748 1.642 1.719 2.146-.028.503-.057.875-.516 1.062l1.205 3.452z"/><mask id="f" fill="#fff"><use xlink:href="#e"/></mask><path fill="#414141" mask="url(#f)" d="M28.649 5.576h.43V1.078h-.43z"/><path d="M27.718.15v2.672a.15.15 0 00.22.132c.479-.265.81-.82.81-1.468s-.331-1.202-.81-1.468a.15.15 0 00-.22.132" fill="#414141" mask="url(#f)"/><path d="M33.433 5.976c-.037-.044 0 2.578 0 2.578s.516-.572.516-1.289c0-.716-.325-1.06-.516-1.289m-7.3 12.059c-.012.057-.55-.011-1.2-.15-.648-.141-1.165-.3-1.153-.357.013-.056.549.01 1.199.15.65.14 1.166.3 1.154.357m.154-.353c-.012.057-.582-.019-1.273-.167-.69-.148-1.241-.315-1.228-.372.012-.057.582.018 1.272.167.69.148 1.24.315 1.229.372m.153-.352c-.012.057-.615-.025-1.347-.183-.732-.159-1.315-.332-1.302-.388.012-.058.615.024 1.346.181.732.16 1.315.332 1.303.39m.154-.354c-.012.058-.648-.032-1.421-.198-.773-.167-1.39-.348-1.377-.405.012-.056.649.033 1.42.2.774.166 1.39.346 1.378.403m.153-.353c-.012.057-.681-.039-1.495-.215-.813-.175-1.463-.363-1.451-.42.012-.056.682.04 1.496.215.813.177 1.462.364 1.45.42m.154-.353c-.012.058-.715-.046-1.57-.23-.855-.184-1.538-.38-1.526-.436.013-.057.716.047 1.57.23.855.185 1.538.38 1.526.437m.154-.353c-.012.057-.749-.054-1.644-.247-.896-.192-1.612-.396-1.6-.452.012-.057.748.053 1.644.247.896.193 1.612.395 1.6.452m-7.518 2.127c.012.057.55-.01 1.2-.15.648-.14 1.165-.3 1.153-.357-.013-.056-.549.011-1.199.151-.649.14-1.166.3-1.154.356m-.154-.353c.012.058.582-.018 1.273-.166.69-.15 1.241-.315 1.228-.372-.012-.057-.582.017-1.272.166-.69.149-1.24.315-1.229.372m-.153-.352c.012.056.615-.025 1.347-.184.732-.157 1.315-.33 1.302-.387-.012-.057-.615.024-1.346.182-.732.158-1.315.331-1.303.388m-.154-.352c.012.057.648-.032 1.421-.198.773-.167 1.39-.348 1.377-.405-.012-.056-.648.033-1.42.199-.774.167-1.39.347-1.378.404m-.154-.353c.012.057.682-.039 1.496-.215.813-.175 1.463-.363 1.451-.42-.012-.056-.682.04-1.496.215-.813.175-1.463.363-1.45.42m-.155-.352c.012.057.715-.047 1.57-.231.855-.184 1.538-.38 1.526-.436-.012-.057-.716.047-1.57.23-.855.185-1.538.38-1.526.437m-.153-.352c.012.056.749-.056 1.645-.248.895-.193 1.61-.396 1.599-.452-.012-.057-.748.053-1.644.247-.896.192-1.612.394-1.6.452" fill="#B3B3B3" mask="url(#f)"/><path fill="#FFF" mask="url(#f)" d="M23.388 17.575l-4.355-.44.35 2.878 5.4.86 1.503-.985z"/><path d="M22.982 17.456l.515-2.01a.354.354 0 00-.343-.442h-.638a.354.354 0 00-.343.441l.515 2.01c.039.152.255.152.294 0m-2.794 1.383a1.394 1.394 0 11-2.788.002 1.394 1.394 0 012.788-.002" fill="#414141" mask="url(#f)"/><path d="M24.537 20.547l-5.89-.61.226-2.174 5.89.612a1.091 1.091 0 11-.226 2.172" fill="#414141" mask="url(#f)"/><path d="M18.794 19.888a1.05 1.05 0 11.002-2.1 1.05 1.05 0 01-.002 2.1" fill="#B3B3B3" mask="url(#f)"/></g></svg>