<svg xmlns="http://www.w3.org/2000/svg" width="132" height="26"><style>.st2{fill:#efae00}</style><path d="M127 25H5c-2.2 0-4-1.8-4-4V5c0-2.2 1.8-4 4-4h122c2.2 0 4 1.8 4 4v16c0 2.2-1.8 4-4 4z" fill="#fff"/><path d="m45.7 9.4 2.1 5.4 2-5.4h1.6v7.1h-1.2v-2.3l.1-3.1-2.1 5.5h-.9L45.2 11l.1 3.1v2.3h-1.2v-7h1.6zm12.5 0v4.8c0 .8-.2 1.4-.7 1.8-.5.4-1.1.7-1.9.7-.8 0-1.5-.2-1.9-.7s-.7-1-.7-1.8V9.4h1.2v4.8c0 .5.1.8.4 1.1s.6.4 1.1.4c1 0 1.4-.5 1.4-1.5V9.4h1.1zm5.5 4.1h-2.9v3h-1.2V9.4h4.5v1h-3.3v2.1h2.9v1zm5.6 0h-2.9v3h-1.2V9.4h4.5v1h-3.3v2.1h2.9v1zm2.7 2h3.2v1h-4.5V9.4H72v6.1zm8.5-2.2h-2.9v2.2H81v1h-4.6V9.4H81v1h-3.4v2h2.9v.9zm4.2.5h-1.4v2.7H82V9.4h2.5c.8 0 1.5.2 1.9.6s.7.9.7 1.6c0 .5-.1.9-.3 1.2s-.5.6-1 .7l1.6 3v.1h-1.3l-1.4-2.8zm-1.4-1h1.3c.4 0 .7-.1 1-.3s.4-.5.4-.9-.1-.7-.3-.9-.5-.3-1-.3h-1.3l-.1 2.4zm12.5-2.4h-2.2v6.1h-1.2v-6.1h-2.2v-1h5.6v1zm3.5 2.4 1.6-3.4h1.4l-2.4 4.5v2.6h-1.2v-2.6l-2.4-4.5h1.4l1.6 3.4zm5.1 1.1v2.6h-1.2V9.4h2.7c.8 0 1.4.2 1.9.6.5.4.7 1 .7 1.6 0 .7-.2 1.2-.7 1.6s-1.1.6-1.9.6l-1.5.1zm0-1h1.5c.4 0 .8-.1 1-.3s.3-.5.3-.9-.1-.7-.4-.9-.6-.3-1-.4h-1.5l.1 2.5zm9.4.4h-2.9v2.2h3.4v1h-4.6V9.4h4.6v1h-3.4v2h2.9v.9zm5.3 1.4c0-.3-.1-.6-.3-.7s-.6-.3-1.2-.5-1-.4-1.4-.6c-.6-.4-1-.9-1-1.6 0-.6.2-1 .7-1.4s1.1-.6 1.8-.6c.5 0 .9.1 1.3.3s.7.4.9.8.3.7.3 1.1H119c0-.4-.1-.7-.3-.9s-.6-.3-1-.3-.7.1-.9.3-.3.4-.3.7.1.5.4.7.6.3 1.2.5 1 .4 1.3.6.6.5.7.7.2.6.2 1c0 .6-.2 1.1-.7 1.4-.5.3-1.1.5-1.8.5-.5 0-1-.1-1.4-.3s-.8-.5-1-.8-.4-.7-.4-1.2h1.2c0 .4.1.7.4.9s.6.3 1.1.3c.4 0 .8-.1 1-.3s.4-.3.4-.6z" fill="#787878"/><path class="st2" d="M28.3 20H15.6c-.9 0-1.6-.7-1.6-1.6V8.5c0-.9.7-1.6 1.6-1.6h12.8c.9 0 1.6.7 1.6 1.6v9.9c-.1.9-.8 1.6-1.7 1.6zM16 18h11.9V8.9H16V18z"/><path class="st2" d="M15.6 18.1h-4.1c-.4 0-.7-.3-.7-.7v-2.5c0-.4.3-.7.7-.7h4.1v3.9zm0-5.9h-4.1c-.4 0-.7-.3-.7-.7V8.9c0-.4.3-.7.7-.7h4.1v4zm13 2.8h3.3c.4 0 .7-.3.7-.7v-2.7c0-.4-.3-.7-.7-.7h-3.3V15z"/></svg>