<svg xmlns="http://www.w3.org/2000/svg" width="96" height="64"><style>.st2{fill:none;stroke:#fff;stroke-miterlimit:10}</style><path d="m12.5 48.9 2.1 5.4 2-5.4h1.6V56H17v-2.3l.1-3.1L15 56h-.9L12 50.5l.1 3.1V56h-1.2v-7.1h1.6zm12.4 0v4.8c0 .8-.2 1.4-.7 1.8-.5.4-1.1.7-1.9.7s-1.5-.2-1.9-.7c-.5-.4-.7-1-.7-1.8V49h1.2v4.7c0 .5.1.8.4 1.1.2.3.6.4 1.1.4 1 0 1.4-.5 1.4-1.5V49l1.1-.1zm5.4 4.1h-2.9v3h-1.2v-7.1h4.5v1h-3.3V52h2.9v1zm5.5 0h-2.9v3h-1.2v-7.1h4.5v1h-3.3V52h2.9v1zm2.6 2h3.2v1h-4.5v-7.1h1.2l.1 6.1zm8.3-2.2h-2.9V55h3.4v1h-4.6v-7.1h4.6v1h-3.4v2h2.9v.9zm4.1.5h-1.4V56h-1.2v-7.1h2.5c.8 0 1.5.2 1.9.6.4.4.7.9.7 1.6 0 .5-.1.9-.3 1.2s-.5.6-1 .7l1.6 3h-1.3l-1.5-2.7zm-1.3-1h1.3c.4 0 .7-.1 1-.3.2-.2.4-.5.4-.9s-.1-.7-.3-.9-.5-.3-1-.3h-1.3v2.4h-.1zm12.3-2.4h-2.2V56h-1.2v-6.1h-2.2v-1h5.6v1zm3.3 2.4 1.6-3.4h1.4l-2.4 4.5V56h-1.2v-2.6l-2.4-4.5h1.4l1.6 3.4zm5 1.1V56h-1.2v-7.1h2.7c.8 0 1.4.2 1.9.6.5.4.7 1 .7 1.6 0 .7-.2 1.2-.7 1.6-.5.4-1.1.6-1.9.6h-1.5v.1zm0-1h1.5c.4 0 .8-.1 1-.3s.3-.5.3-.9-.1-.7-.4-.9c-.2-.2-.6-.3-1-.4H70l.1 2.5zm9.4.4h-2.9V55H80v1h-4.6v-7.1H80v1h-3.4v2h2.9v.9zm5.2 1.4c0-.3-.1-.6-.3-.7s-.6-.3-1.2-.5-1-.4-1.4-.6c-.6-.4-1-.9-1-1.6 0-.6.2-1 .7-1.4s1.1-.6 1.8-.6c.5 0 .9.1 1.3.3s.7.4.9.8c.2.3.3.7.3 1.1h-1.2c0-.4-.1-.7-.3-.9-.2-.2-.6-.3-1-.3s-.7.1-.9.3c-.2.2-.3.4-.3.7s.1.5.4.6c.2.2.6.3 1.2.5s1 .3 1.3.6c.3.2.6.5.7.7.2.3.2.6.2 1 0 .6-.2 1.1-.7 1.4-.5.4-1.1.5-1.8.5-.5 0-1-.1-1.4-.3s-.8-.5-1-.8-.4-.7-.4-1.2h1.2c0 .4.1.7.4.9s.6.3 1.1.3c.4 0 .8-.1 1-.3.3 0 .4-.2.4-.5z" fill="#787878"/><circle cx="48" cy="24" r="17.5" fill="#efae00"/><path class="st2" d="m37.5 26-.6-.5c-1.8-1.9-1.7-4.9.2-6.7 1.9-1.8 4.9-1.7 6.7.2l6.1 6.5c1.8 1.9 1.7 4.9-.2 6.7-1.9 1.8-4.9 1.7-6.7-.2l-.7-.6"/><path class="st2" d="M38 18.1c.5-.2.9-.4 1.4-.5 5-1 11.9-2 11.9-2l-.4.1c1.7-.3 3.5.1 4.7 1.4l4 4.3c1.8 1.9 1.7 4.9-.3 6.7-.2.1-.3.3-.5.4L48 33.3"/><path class="st2" d="m37.2 26.2 6.2-2s3.6.7 2.7 5.3l-5.9 3.1"/><path class="st2" d="M40.5 28.7c.8 1.9.7 3.4-.3 3.9-.9.4-2.3-.5-3.1-2.3-.8-1.9-.8-3.6.1-4 1.1-.5 2.4.5 3.3 2.4z"/></svg>