<svg xmlns="http://www.w3.org/2000/svg" width="474" height="24"><path d="M8.1 16.4c0 .9-.2 1.7-.5 2.4s-.8 1.2-1.4 1.6-1.2.6-2 .6c-1.2 0-2.1-.4-2.9-1.2-.7-.9-1.1-2-1.1-3.4v-1c0-.9.2-1.7.5-2.4s.8-1.2 1.4-1.6 1.3-.6 2.1-.6 1.4.2 2 .6c.6.4 1.1.9 1.4 1.6s.5 1.4.5 2.3v1.1zm-.8-1c0-1.2-.3-2.1-.8-2.8s-1.3-1-2.3-1c-.9 0-1.7.3-2.3 1s-.8 1.6-.8 2.8v1c0 1.2.3 2.1.8 2.8.6.7 1.3 1 2.3 1s1.7-.3 2.3-1c.5-.7.8-1.6.8-2.8v-1zm6.3-1.2H13c-.5 0-1 .1-1.3.4s-.6.7-.8 1.2v5h-.8v-7.3h.8v1.2c.4-.9 1.2-1.3 2.1-1.3.2 0 .4 0 .6.1v.7zm.9 2.9c0-1.1.3-2 .8-2.7s1.2-1 2.1-1c1 0 1.8.4 2.3 1.2v-4.2h.8v10.4h-.8v-1c-.5.7-1.3 1.1-2.4 1.1-.9 0-1.6-.3-2.1-1-.5-.6-.7-1.6-.7-2.8zm.8.1c0 .9.2 1.7.6 2.2s.9.8 1.6.8c1 0 1.8-.4 2.2-1.3v-3.4c-.4-1-1.2-1.4-2.2-1.4-.7 0-1.3.3-1.6.8s-.6 1.3-.6 2.3zM25.7 21c-.6 0-1.2-.2-1.7-.5s-.9-.7-1.2-1.3c-.3-.6-.4-1.2-.4-1.9V17c0-.7.1-1.3.4-1.9s.7-1 1.2-1.3 1-.5 1.6-.5c.9 0 1.6.3 2.2.9.6.6.8 1.4.8 2.5v.5h-5.4v.2c0 .8.2 1.5.7 2.1s1.1.8 1.9.8c.4 0 .8-.1 1.2-.2.3-.2.7-.4.9-.8l.5.4c-.6.8-1.5 1.3-2.7 1.3zm-.2-7c-.6 0-1.2.2-1.6.7-.4.4-.7 1-.8 1.8h4.5v-.1c0-.7-.2-1.3-.6-1.7-.3-.4-.8-.7-1.5-.7zm8.2.2h-.6c-.5 0-1 .1-1.3.4-.4.2-.7.7-.8 1.2v5h-.8v-7.3h.8v1.2c.4-.9 1.2-1.3 2.1-1.3.2 0 .4 0 .6.1v.7zm12.5 6.6h-.9l-5.9-8.5v8.5h-.9V11h.9l5.9 8.5V11h.9v9.8zm2-3.7c0-.7.1-1.3.4-1.9.3-.6.7-1 1.2-1.3s1.1-.5 1.8-.5c1 0 1.8.3 2.4 1 .6.7.9 1.6.9 2.7v.2c0 .7-.1 1.3-.4 1.9-.3.6-.7 1-1.2 1.3s-1.1.5-1.8.5c-1 0-1.8-.3-2.4-1-.6-.7-.9-1.6-.9-2.7v-.2zm.8.2c0 .9.2 1.6.7 2.2s1.1.8 1.8.8c.8 0 1.4-.3 1.8-.8.5-.6.7-1.3.7-2.2v-.2c0-.6-.1-1.1-.3-1.5-.2-.5-.5-.8-.9-1.1s-.8-.4-1.3-.4c-.7 0-1.4.3-1.8.9-.5.6-.7 1.3-.7 2.3zm9.5 1.8.1.6.2-.7 1.8-5.6h.7l1.8 5.6.2.8.2-.7 1.6-5.6h.9l-2.3 7.3H63L61.1 15l-.1-.4-.1.4-2 5.8h-.7L56 13.5h.9l1.6 5.6zm7.9 3.6-.5-.4c.4-.6.6-1.1.7-1.7v-1.1h.8v.8c0 1-.3 1.8-1 2.4zm7.5-5.9v4H73V11h3.5c1.1 0 1.9.3 2.5.8s.9 1.2.9 2.2c0 .9-.3 1.6-.9 2.1s-1.4.8-2.6.8l-2.5-.1zm0-.7h2.6c.8 0 1.5-.2 1.9-.6.4-.4.7-.9.7-1.6s-.2-1.2-.7-1.6c-.4-.4-1.1-.6-1.9-.6h-2.7l.1 4.4zm12.4 4.7c-.1-.2-.1-.5-.1-1-.3.4-.7.7-1.1.9-.5.2-.9.3-1.4.3-.7 0-1.3-.2-1.8-.6s-.7-.9-.7-1.5c0-.7.3-1.3.9-1.7s1.5-.6 2.6-.6h1.5v-.9c0-.5-.2-.9-.5-1.2s-.8-.5-1.5-.5c-.6 0-1.1.1-1.4.4s-.6.7-.6 1.1h-.8c0-.6.3-1.1.8-1.5.6-.4 1.2-.6 2.1-.6.8 0 1.5.2 2 .6.5.4.7 1 .8 1.7v3.5c0 .7.1 1.2.2 1.6h-1zm-2.6-.5c.6 0 1.1-.1 1.5-.4s.8-.6 1-1.1v-1.6h-1.5c-.8 0-1.5.2-2 .4-.5.3-.7.7-.7 1.2 0 .4.2.8.5 1s.7.5 1.2.5zm7.8-.6 2.2-6.2h.9l-3.2 8.6-.2.4c-.4.9-1 1.3-1.9 1.3-.2 0-.4 0-.6-.1V23h.4c.4 0 .7-.1 1-.3.3-.2.5-.5.6-1l.4-1-2.9-7.3h1l2.3 6.3zm9 .4h5v.7h-5.9V11h.9v9.1zm11.2.7c-.1-.2-.1-.6-.2-1-.3.4-.7.7-1.1.9-.5.2-.9.3-1.4.3-.7 0-1.3-.2-1.8-.6s-.7-.9-.7-1.5c0-.7.3-1.3.9-1.7s1.5-.6 2.6-.6h1.5v-.9c0-.5-.2-.9-.5-1.2s-.8-.5-1.5-.5c-.6 0-1.1.1-1.4.4-.4.3-.6.6-.6 1h-.8c0-.6.3-1.1.8-1.5.6-.4 1.2-.6 2.1-.6.8 0 1.5.2 2 .6.5.4.7 1 .8 1.7v3.5c0 .7.1 1.2.2 1.6v.1h-.9zm-2.6-.5c.6 0 1.1-.1 1.5-.4s.8-.6 1-1.1v-1.6h-1.5c-.8 0-1.5.2-2 .4-.5.3-.7.7-.7 1.2 0 .4.2.8.5 1s.7.5 1.2.5zm6.8-8.7v1.9h1.6v.7h-1.6v4.9c0 .4.1.7.2.9.2.2.4.3.8.3.1 0 .4 0 .7-.1v.7c-.2.1-.5.1-.9.1-.6 0-1-.2-1.3-.5s-.4-.8-.4-1.4v-4.9h-1.4v-.7h1.4v-1.9h.9zm6.3 9.4c-.6 0-1.2-.2-1.7-.5s-.9-.7-1.2-1.3c-.3-.6-.4-1.2-.4-1.9V17c0-.7.1-1.3.4-1.9s.7-1 1.2-1.3 1-.5 1.6-.5c.9 0 1.6.3 2.2.9.6.6.8 1.4.8 2.5v.5h-5.4v.2c0 .8.2 1.5.7 2.1s1.1.8 1.9.8c.4 0 .8-.1 1.2-.2.4-.1.7-.4.9-.8l.5.4c-.7.8-1.6 1.3-2.7 1.3zm-.2-7c-.6 0-1.2.2-1.6.7-.4.4-.7 1-.8 1.8h4.5v-.1c0-.7-.2-1.3-.6-1.7-.3-.4-.9-.7-1.5-.7zm8.1.2h-.6c-.5 0-1 .1-1.3.4-.4.3-.6.7-.8 1.2v5h-.8v-7.3h.8v1.2c.4-.9 1.2-1.3 2.1-1.3.2 0 .4 0 .6.1v.7zm6.7 4.9.1.6.2-.7 1.8-5.6h.7l1.8 5.6.2.8.2-.7 1.6-5.6h.9l-2.2 7.3h-.9l-1.9-5.8-.1-.4-.1.4-1.9 5.8h-.7l-2.2-7.3h.9l1.6 5.6zm8.9-7.7c0-.2.1-.3.2-.4.1-.1.2-.2.4-.2s.3.1.4.2c.1.1.2.2.2.4s-.1.3-.2.4c-.1.1-.2.2-.4.2s-.3-.1-.4-.2c-.2-.2-.2-.3-.2-.4zm1 9.4h-.8v-7.3h.8v7.3zm3.6-9.2v1.9h1.6v.7h-1.6v4.9c0 .4.1.7.2.9.2.2.4.3.8.3.1 0 .4 0 .7-.1v.7c-.2.1-.5.1-.9.1-.6 0-1-.2-1.3-.5s-.4-.8-.4-1.4v-4.9H148v-.7h1.4v-1.9h.9zm4.1 3.1c.3-.4.6-.8 1.1-1 .4-.2.9-.4 1.4-.4.8 0 1.4.2 1.8.7.4.4.6 1.1.6 2v4.8h-.8V16c0-.7-.1-1.1-.4-1.5s-.7-.5-1.4-.5c-.5 0-1 .2-1.4.5s-.7.7-.9 1.3v5h-.8V10.4h.8v4.3zm78.3 1.5H228v4.6h-.9V11h6.3v.7H228v3.8h4.7v.7zm2.2-4.8c0-.2.1-.3.2-.4.1-.1.2-.2.4-.2s.3.1.4.2c.1.1.2.2.2.4l-.2.4s-.2.2-.4.2-.3-.1-.4-.2c-.1-.2-.2-.3-.2-.4zm1 9.4h-.8v-7.3h.8v7.3zm4.7-4.3 2-3h1l-2.6 3.6 2.7 3.7h-1l-2.2-3.1-2.2 3.1h-1l2.7-3.7-2.6-3.6h1l2.2 3zm7.3 4.5c-.6 0-1.2-.2-1.7-.5s-.9-.7-1.2-1.3-.4-1.2-.4-1.9V17c0-.7.1-1.3.4-1.9.3-.6.7-1 1.2-1.3s1-.5 1.6-.5c.9 0 1.6.3 2.2.9.5.6.8 1.4.8 2.5v.5h-5.4v.2c0 .8.2 1.5.7 2.1s1.1.8 1.9.8c.4 0 .8-.1 1.2-.2.3-.2.7-.4.9-.8l.5.4c-.6.8-1.5 1.3-2.7 1.3zm-.1-7c-.6 0-1.2.2-1.6.7-.4.4-.7 1-.8 1.8h4.5v-.1c0-.7-.2-1.3-.6-1.7-.4-.4-.9-.7-1.5-.7zm4.3 3.1c0-1.1.3-2 .8-2.7s1.2-1 2.1-1c1 0 1.8.4 2.3 1.2v-4.2h.8v10.4h-.8v-1c-.5.7-1.3 1.1-2.4 1.1-.9 0-1.6-.3-2.1-1-.5-.6-.7-1.6-.7-2.8zm.8.1c0 .9.2 1.7.6 2.2.4.5.9.8 1.6.8 1 0 1.8-.4 2.2-1.3v-3.4c-.4-1-1.2-1.4-2.2-1.4-.7 0-1.3.3-1.6.8s-.6 1.3-.6 2.3zm11.7-3.7v1.2c.3-.4.6-.8 1-1s.9-.3 1.4-.3c1.2 0 2 .5 2.3 1.4.3-.5.6-.8 1.1-1.1.5-.2 1-.4 1.5-.4 1.6 0 2.5.9 2.5 2.6v4.9h-.8V16c0-.7-.1-1.1-.4-1.5-.3-.3-.8-.5-1.4-.5s-1.1.2-1.5.6c-.4.4-.6.8-.7 1.3v4.9h-.8v-4.9c0-.6-.2-1.1-.5-1.4-.3-.3-.8-.5-1.4-.5-.5 0-1 .1-1.4.4s-.7.7-.8 1.3v5h-.8v-7.2h.7zm11.5 3.6c0-.7.1-1.3.4-1.9s.7-1 1.2-1.3 1.1-.5 1.8-.5c1 0 1.8.3 2.4 1s.9 1.6.9 2.7v.2c0 .7-.1 1.3-.4 1.9s-.7 1-1.2 1.3-1.1.5-1.8.5c-1 0-1.8-.3-2.4-1s-.9-1.6-.9-2.7v-.2zm.8.2c0 .9.2 1.6.7 2.2s1.1.8 1.8.8c.8 0 1.4-.3 1.8-.8.5-.6.7-1.3.7-2.2v-.2c0-.6-.1-1.1-.3-1.5-.2-.5-.5-.8-.9-1.1s-.8-.4-1.3-.4c-.7 0-1.4.3-1.8.9s-.7 1.3-.7 2.3zm8.5-3.8v1.3c.3-.5.6-.8 1.1-1 .4-.2.9-.4 1.4-.4.8 0 1.4.2 1.8.7s.6 1.1.6 2v4.7h-.8V16c0-.7-.1-1.1-.4-1.5-.3-.3-.7-.5-1.4-.5-.5 0-1 .2-1.4.5s-.7.8-.9 1.3v5h-.8v-7.3h.8zm8.3-1.9v1.9h1.6v.7h-1.6v4.9c0 .4.1.7.2.9.2.2.4.3.8.3.1 0 .4 0 .7-.1v.7c-.2.1-.5.1-.9.1-.6 0-1-.2-1.3-.5s-.4-.8-.4-1.4v-4.9h-1.4v-.7h1.4v-1.9h.9zm4.2 3.1c.3-.4.6-.8 1.1-1s.9-.4 1.4-.4c.8 0 1.4.2 1.8.7.4.4.6 1.1.6 2v4.8h-.9V16c0-.7-.1-1.1-.4-1.5-.3-.3-.7-.5-1.4-.5-.5 0-1 .2-1.4.5-.3.3-.6.8-.8 1.3v5h-.8V10.4h.8v4.3zm7.9 6.1h-.8V10.4h.8v10.4zm4.7-1.1 2.2-6.2h.9l-3.2 8.6-.2.4c-.4.9-1.1 1.3-1.9 1.3-.2 0-.4 0-.6-.1V23h.4c.4 0 .7-.1 1-.3.3-.2.5-.5.6-1l.4-1-2.9-7.3h.9l2.4 6.3zm14-2.5c0 1.1-.3 2.1-.8 2.7-.5.7-1.2 1-2.1 1-1 0-1.8-.4-2.4-1.1v3.7h-.8v-10h.8v1c.5-.8 1.3-1.2 2.4-1.2.9 0 1.6.3 2.1 1s.8 1.6.8 2.9zm-.8-.1c0-.9-.2-1.7-.6-2.2s-.9-.8-1.7-.8c-.5 0-1 .1-1.3.4-.4.2-.7.6-.8 1V19c.2.4.5.7.9 1s.8.3 1.3.3c.7 0 1.3-.3 1.6-.8.4-.6.6-1.4.6-2.4zm7.4 3.7c-.1-.2-.1-.6-.2-1-.3.4-.7.7-1.1.9-.5.2-.9.3-1.4.3-.7 0-1.3-.2-1.8-.6s-.7-.9-.7-1.5c0-.7.3-1.3.9-1.7s1.5-.6 2.6-.6h1.5v-.9c0-.5-.2-.9-.5-1.2s-.8-.5-1.5-.5c-.6 0-1.1.1-1.4.4-.4.3-.6.6-.6 1h-.8c0-.6.3-1.1.8-1.5.6-.4 1.2-.6 2.1-.6.8 0 1.5.2 2 .6.5.4.7 1 .8 1.7v3.5c0 .7.1 1.2.2 1.6v.1h-.9zm-2.6-.5c.6 0 1.1-.1 1.5-.4s.8-.6 1-1.1v-1.6h-1.5c-.8 0-1.5.2-2 .4-.5.3-.7.7-.7 1.2 0 .4.2.8.5 1 .3.3.7.5 1.2.5zm7.8-.6 2.2-6.2h.9l-3.2 8.6-.2.4c-.4.9-1.1 1.3-1.9 1.3-.2 0-.4 0-.6-.1V23h.4c.4 0 .7-.1 1-.3.3-.2.5-.5.6-1l.4-1-2.9-7.3h.9l2.4 6.3zm5.2-6.2v1.2c.3-.4.6-.8 1-1s.9-.3 1.4-.3c1.2 0 2 .5 2.3 1.4.3-.5.6-.8 1.1-1.1.5-.2 1-.4 1.5-.4 1.6 0 2.5.9 2.5 2.6v4.9h-.8V16c0-.7-.1-1.1-.4-1.5-.3-.3-.8-.5-1.4-.5s-1.1.2-1.5.6c-.4.4-.6.8-.7 1.3v4.9h-.8v-4.9c0-.6-.2-1.1-.5-1.4-.3-.3-.8-.5-1.4-.5-.5 0-1 .1-1.4.4s-.7.7-.8 1.3v5h-.8v-7.2h.7zm14.8 7.5c-.6 0-1.2-.2-1.7-.5s-.9-.7-1.2-1.3c-.3-.6-.4-1.2-.4-1.9V17c0-.7.1-1.3.4-1.9s.7-1 1.2-1.3 1-.5 1.6-.5c.9 0 1.6.3 2.2.9.5.6.8 1.4.8 2.5v.5h-5.4v.2c0 .8.2 1.5.7 2.1s1.1.8 1.9.8c.4 0 .8-.1 1.2-.2.3-.2.7-.4.9-.8l.5.4c-.6.8-1.5 1.3-2.7 1.3zm-.1-7c-.6 0-1.2.2-1.6.7-.4.4-.7 1-.8 1.8h4.5v-.1c0-.7-.2-1.3-.6-1.7s-.9-.7-1.5-.7zm5.4-.5v1.3c.3-.5.6-.8 1.1-1 .4-.2.9-.4 1.4-.4.8 0 1.4.2 1.8.7s.6 1.1.6 2v4.7h-.8V16c0-.7-.1-1.1-.4-1.5-.3-.3-.7-.5-1.4-.5-.5 0-1 .2-1.4.5s-.7.7-.9 1.3v5h-.8v-7.3h.8zm8.4-1.9v1.9h1.6v.7H370v4.9c0 .4.1.7.2.9.2.2.4.3.8.3.1 0 .4 0 .7-.1v.7c-.2.1-.5.1-.9.1-.6 0-1-.2-1.3-.5s-.4-.8-.4-1.4v-4.9h-1.4v-.7h1.4v-1.9h.9zm7.8 7.4c0-.4-.2-.7-.5-1-.3-.2-.8-.4-1.5-.6-.7-.1-1.2-.3-1.6-.5s-.6-.4-.8-.7c-.2-.3-.3-.6-.3-.9 0-.6.2-1.1.7-1.4s1.1-.6 1.9-.6 1.5.2 2 .6c.5.4.8.9.8 1.6h-.8c0-.4-.2-.8-.6-1.1s-.8-.4-1.4-.4-1 .1-1.3.4c-.3.2-.5.5-.5.9s.1.7.4.9c.3.2.8.4 1.5.6s1.3.3 1.7.5c.4.2.6.4.8.7.2.3.3.6.3 1 0 .6-.3 1.1-.8 1.5s-1.2.6-2 .6c-.9 0-1.6-.2-2.1-.6s-.8-.9-.8-1.6h.8c0 .5.2.8.6 1.1.4.3.9.4 1.5.4s1.1-.1 1.4-.4c.4-.3.6-.7.6-1zm2.7 1.3c0-.2.1-.3.2-.4s.3-.2.4-.2c.2 0 .3.1.4.2s.2.2.2.4-.1.3-.2.4-.3.2-.4.2c-.2 0-.3-.1-.4-.2-.2-.1-.2-.2-.2-.4zm14.7.5h-.9v-4.7h-5.8v4.7h-.9V11h.9v4.4h5.8V11h.9v9.8zm1.9-3.7c0-.7.1-1.3.4-1.9s.7-1 1.2-1.3 1.1-.5 1.8-.5c1 0 1.8.3 2.4 1s.9 1.6.9 2.7v.2c0 .7-.1 1.3-.4 1.9s-.7 1-1.2 1.3-1.1.5-1.8.5c-1 0-1.8-.3-2.4-1s-.9-1.6-.9-2.7v-.2zm.9.2c0 .9.2 1.6.7 2.2s1.1.8 1.8.8c.8 0 1.4-.3 1.8-.8.5-.6.7-1.3.7-2.2v-.2c0-.6-.1-1.1-.3-1.5-.2-.5-.5-.8-.9-1.1s-.8-.4-1.3-.4c-.7 0-1.4.3-1.8.9-.5.6-.7 1.3-.7 2.3zm9.4 1.8.1.6.2-.7 1.8-5.6h.7L412 19l.2.8.2-.7 1.6-5.6h.9l-2.2 7.3h-.8L410 15l-.1-.4-.1.4-1.9 5.8h-.7l-2.2-7.3h.9l1.5 5.6zm12.4-7.7c0-.2.1-.3.2-.4.1-.1.2-.2.4-.2s.3.1.4.2c.1.1.2.2.2.4l-.2.4c-.1.1-.2.2-.4.2s-.3-.1-.4-.2-.2-.3-.2-.4zm1 9.4h-.8v-7.3h.8v7.3zm3.6-9.2v1.9h1.6v.7h-1.6v4.9c0 .4.1.7.2.9.2.2.4.3.8.3.1 0 .4 0 .7-.1v.7c-.2.1-.5.1-.9.1-.6 0-1-.2-1.3-.5s-.4-.8-.4-1.4v-4.9h-1.4v-.7h1.4v-1.9h.9zm8.6 7.5.1.6.2-.7 1.8-5.6h.7l1.8 5.6.2.8.2-.7 1.6-5.6h.9l-2.2 7.3h-.7l-1.9-5.8-.1-.4-.1.4-1.9 5.8h-.7l-2.2-7.3h.9l1.4 5.6zm8.5-2c0-.7.1-1.3.4-1.9s.7-1 1.2-1.3 1.1-.5 1.8-.5c1 0 1.8.3 2.4 1s.9 1.6.9 2.7v.2c0 .7-.1 1.3-.4 1.9s-.7 1-1.2 1.3-1.1.5-1.8.5c-1 0-1.8-.3-2.4-1s-.9-1.6-.9-2.7v-.2zm.9.2c0 .9.2 1.6.7 2.2s1.1.8 1.8.8c.8 0 1.4-.3 1.8-.8.5-.6.7-1.3.7-2.2v-.2c0-.6-.1-1.1-.3-1.5-.2-.5-.5-.8-.9-1.1s-.8-.4-1.3-.4c-.7 0-1.4.3-1.8.9s-.7 1.3-.7 2.3zm11.1-3.1h-.6c-.5 0-1 .1-1.3.4-.4.3-.6.7-.8 1.2v5h-.8v-7.3h.8v1.2c.4-.9 1.2-1.3 2.1-1.3.2 0 .4 0 .6.1v.7zm3.1 2.9-1 .9v2.8h-.8V10.4h.8v6.7l.8-.8 2.9-2.8h1.1l-3.2 3.1 3.5 4.2h-1l-3.1-3.7zm9.8 1.9c0-.4-.2-.7-.5-1-.3-.2-.8-.4-1.5-.6-.7-.1-1.2-.3-1.6-.5s-.6-.4-.8-.7c-.2-.3-.3-.6-.3-.9 0-.6.2-1.1.7-1.4s1.1-.6 1.9-.6 1.5.2 2 .6c.5.4.8.9.8 1.6h-.8c0-.4-.2-.8-.6-1.1s-.8-.4-1.4-.4-1 .1-1.3.4c-.3.2-.5.5-.5.9s.1.7.4.9c.3.2.8.4 1.5.6s1.3.3 1.7.5c.4.2.6.4.8.7.2.3.3.6.3 1 0 .6-.3 1.1-.8 1.5s-1.2.6-2 .6c-.9 0-1.6-.2-2.1-.6s-.8-.9-.8-1.6h.8c0 .5.2.8.6 1.1.4.3.9.4 1.5.4s1.1-.1 1.4-.4c.4-.3.6-.7.6-1zm4.2-.9c0-.5.1-1 .2-1.3s.4-.7.9-1.2c.5-.4.8-.8.9-.9l.3-.6c.1-.2.1-.5.1-.7 0-.6-.2-1-.5-1.3s-.7-.5-1.3-.5c-.6 0-1 .2-1.4.5-.3.3-.5.7-.5 1.3h-.8c0-.7.3-1.3.8-1.8.5-.4 1.2-.7 1.9-.7.8 0 1.4.2 1.9.7s.7 1.1.7 1.8c0 .5-.1.9-.3 1.4-.2.4-.7.9-1.3 1.5-.5.4-.8 1.1-.8 1.9l-.8-.1zm-.1 2.3c0-.2 0-.3.1-.4s.2-.2.4-.2.3.1.4.2.2.2.2.4-.1.3-.2.4-.2.2-.4.2-.3-.1-.4-.2c0-.2-.1-.3-.1-.4z"/><g fill-rule="evenodd" clip-rule="evenodd"><path d="M170.5 19.3c-.6 0-1-.3-1-.8 0-1 1.1-1.3 3.1-1.5 0 1.2-.9 2.3-2.1 2.3m.8-7.4c-1.4 0-3 .7-3.9 1.4l.8 1.7c.7-.6 1.9-1.2 2.9-1.2s1.5.3 1.5 1c0 .4-.4.7-1 .8-2.5.3-4.5 1-4.5 3 0 1.6 1.1 2.5 2.8 2.5 1.2 0 2.3-.7 2.9-1.6v1.3h2.3v-5.6c0-2.3-1.7-3.3-3.8-3.3m23.1.3v8.6h2.5v-4.1c0-2 1.2-2.5 2-2.5.3 0 .8.1 1.1.3l.4-2.3c-.4-.2-.8-.2-1.1-.2-1.3 0-2.1.6-2.6 1.7v-1.5h-2.3zm17.4-.3c-1.3 0-2.3.8-2.8 1.5-.5-1-1.5-1.5-2.7-1.5-1.3 0-2.2.7-2.6 1.6v-1.3h-2.4v8.6h2.5v-4.4c0-1.6.8-2.4 1.6-2.4.7 0 1.3.5 1.3 1.6v5.2h2.5v-4.4c0-1.6.8-2.4 1.6-2.4.7 0 1.3.5 1.3 1.6v5.2h2.5v-5.9c.1-2-1.2-3-2.8-3m-23.4.3h-2.2v-.9c0-1.1.6-1.5 1.2-1.5s1.1.3 1.1.3l.8-1.7s-.8-.5-2.2-.5c-1.6 0-3.4.9-3.4 3.7v.6H180v-.9c0-1.1.6-1.5 1.2-1.5.3 0 .7.1 1.1.3l.8-1.7c-.5-.3-1.2-.5-2.2-.5-1.6 0-3.4.9-3.4 3.7v.6h-1.4v1.9h1.4v6.7h2.5v-6.7h3.7v6.7h2.5v-6.7h2.2v-1.9zm1.5 8.6h2.5v-8.6h-2.5v8.6z" fill="#060809"/><path d="M204.2.2c-6.6 0-12.5 4.6-14.2 10.5h2.4c1.4-4.4 6.2-8.3 11.8-8.3 6.9 0 12.8 5.2 12.8 13.4 0 1.8-.2 3.5-.7 4.9h2.3v-.1c.4-1.5.6-3.1.6-4.9.1-8.9-6.5-15.5-15-15.5" fill="#0fa0ea"/></g></svg>