<svg xmlns="http://www.w3.org/2000/svg" width="96" height="64"><path d="M19.2 53.4V56H18v-7.1h2.7c.8 0 1.4.2 1.9.6.5.4.7 1 .7 1.6 0 .7-.2 1.2-.7 1.6-.5.4-1.1.6-1.9.6h-1.5v.1zm0-1h1.5c.4 0 .8-.1 1-.3s.3-.5.3-.9-.1-.7-.4-.9c-.2-.2-.6-.3-1-.4h-1.5v2.5h.1zm8.3 2h-2.8l-.5 1.6h-1.3l2.7-7.1h1.1l2.7 7.1h-1.3l-.6-1.6zm-2.4-1h2.1l-1-2.9-1.1 2.9zm6.4 2.6h-1.2v-7.1h1.2V56zm7.1 0h-1.2l-3.2-5v5H33v-7.1h1.2l3.2 5.1v-5.1h1.2V56zm6.5-6.1h-2.2V56h-1.2v-6.1h-2.2v-1h5.6v1zm8.6 3.8c-.1.8-.4 1.3-.8 1.8-.5.4-1.1.6-1.9.6-.6 0-1.1-.1-1.5-.4-.4-.3-.8-.7-1-1.1s-.5-1.1-.5-1.8v-.7c0-.7.1-1.3.4-1.8s.6-.9 1-1.2 1-.4 1.5-.4c.8 0 1.4.2 1.9.6.5.4.8 1 .8 1.8h-1.2c-.1-.5-.2-.9-.4-1.1-.2-.2-.6-.3-1.1-.3s-1 .2-1.2.6-.4 1-.4 1.7v.6c0 .8.1 1.4.4 1.8.3.4.7.6 1.2.6s.8-.1 1.1-.3.4-.6.5-1.1h1.2v.1zm6.7-1.1c0 .7-.1 1.3-.4 1.8-.2.5-.6.9-1 1.2s-1 .4-1.5.4c-.6 0-1.1-.1-1.5-.4-.5-.3-.8-.7-1-1.2s-.4-1.1-.4-1.8v-.4c0-.7.1-1.3.4-1.8.2-.5.6-.9 1-1.2s1-.4 1.5-.4 1.1.1 1.5.4c.4.3.8.7 1 1.2s.4 1.1.4 1.8v.4zm-1.2-.3c0-.8-.1-1.4-.4-1.8s-.7-.6-1.3-.6c-.5 0-1 .2-1.3.6-.3.4-.5 1-.5 1.8v.4c0 .8.2 1.4.5 1.8.3.4.7.6 1.3.6.5 0 1-.2 1.3-.6.3-.4.4-1 .4-1.8v-.4zm2.5 3.7v-7.1h2.1c.6 0 1.2.1 1.7.4.5.3.9.7 1.1 1.2s.4 1.1.4 1.8v.4c0 .7-.1 1.3-.4 1.8s-.7.9-1.1 1.2c-.5.3-1.1.4-1.7.4h-2.1V56zm1.2-6.1V55h.8c.6 0 1.1-.2 1.5-.6.3-.4.5-1 .5-1.7v-.4c0-.8-.2-1.4-.5-1.8s-.8-.6-1.5-.6h-.8zm9.5 2.9h-2.9V55h3.4v1h-4.6v-7.1h4.6v1h-3.4v2h2.9v.9zm5.2 1.4c0-.3-.1-.6-.3-.7s-.6-.3-1.2-.5-1-.4-1.4-.6c-.6-.4-1-.9-1-1.6 0-.6.2-1 .7-1.4s1.1-.6 1.8-.6c.5 0 .9.1 1.3.3s.7.4.9.8c.2.3.3.7.3 1.1h-1.2c0-.4-.1-.7-.3-.9-.2-.2-.6-.3-1-.3s-.7.1-.9.3c-.2.2-.3.4-.3.7s.1.5.4.6c.2.2.6.3 1.2.5s1 .3 1.3.6c.3.2.6.5.7.7.2.3.2.6.2 1 0 .6-.2 1.1-.7 1.4-.5.4-1.1.5-1.8.5-.5 0-1-.1-1.4-.3s-.8-.5-1-.8-.4-.7-.4-1.2h1.2c0 .4.1.7.4.9s.6.3 1.1.3c.4 0 .8-.1 1-.3.3 0 .4-.2.4-.5z" fill="#787878"/><path d="M31.1 12.8h16.2v4.8H31.1v-4.8z" fill="#eae4d2"/><path d="M48.7 12.8h16.2v4.8H48.7v-4.8z" fill="#6b7b73"/><path d="M31.1 18.9h16.2v4.8H31.1v-4.8z" fill="#50657f"/><path d="M48.7 18.9h16.2v4.8H48.7v-4.8z" fill="#efe091"/><path d="M31.1 25h16.2v4.8H31.1V25z" fill="#0d131e"/><path d="M48.7 25h16.2v4.8H48.7V25z" fill="#837d69"/><path d="M31.1 31.1h16.2v4.8H31.1v-4.8z" fill="#7a6646"/><path d="M48.7 31.1h16.2v4.8H48.7v-4.8z" fill="#7a1815"/></svg>