<svg xmlns="http://www.w3.org/2000/svg" width="132" height="26"><path d="M127 25H5c-2.2 0-4-1.8-4-4V5c0-2.2 1.8-4 4-4h122c2.2 0 4 1.8 4 4v16c0 2.2-1.8 4-4 4z" fill="#fff"/><path d="M52.2 13.9v2.6H51V9.4h2.7c.8 0 1.4.2 1.9.6.5.4.7 1 .7 1.6 0 .7-.2 1.2-.7 1.6s-1.1.6-1.9.6l-1.5.1zm0-1h1.5c.4 0 .8-.1 1-.3s.3-.5.3-.9-.1-.7-.4-.9-.6-.3-1-.4h-1.5v2.5h.1zm8.3 1.9h-2.8l-.6 1.7h-1.3l2.7-7.1h1.1l2.7 7.1H61l-.5-1.7zm-2.4-1h2.1l-1-2.9-1.1 2.9zm6.5 2.7h-1.2V9.4h1.2v7.1zm7.3 0h-1.2l-3.2-5v5h-1.2V9.4h1.2l3.2 5.1V9.4h1.2v7.1zm6.5-6.1h-2.2v6.1H75v-6.1h-2.2v-1h5.6v1zm8.8 3.8c-.1.8-.4 1.4-.8 1.8-.4.4-1.1.6-1.9.6-.6 0-1.1-.1-1.5-.4s-.8-.7-1-1.1-.4-1.1-.4-1.7v-.7c0-.7.1-1.3.4-1.8s.6-.9 1-1.2 1-.4 1.5-.4c.8 0 1.4.2 1.9.6s.8 1 .8 1.8H86c-.1-.5-.2-.9-.4-1.1s-.6-.3-1.1-.3-.9.2-1.2.6-.4 1-.4 1.7v.6c0 .8.1 1.4.4 1.8.3.4.7.6 1.2.6s.8-.1 1.1-.3.4-.6.5-1.1h1.1zm6.9-1.1c0 .7-.1 1.3-.4 1.8s-.6.9-1 1.2c-.4.3-1 .4-1.5.4-.6 0-1.1-.1-1.5-.4s-.8-.7-1-1.2-.4-1.1-.4-1.8v-.4c0-.7.1-1.3.4-1.8s.6-.9 1-1.2 1-.4 1.5-.4 1.1.1 1.5.4.8.7 1 1.2.4 1.1.4 1.8v.4zm-1.3-.3c0-.8-.1-1.4-.4-1.8s-.7-.6-1.3-.6c-.5 0-1 .2-1.3.6s-.5 1-.5 1.8v.4c0 .8.2 1.4.5 1.8s.7.6 1.3.6c.5 0 1-.2 1.3-.6s.4-1 .4-1.8v-.4zm2.6 3.7V9.4h2.1c.6 0 1.2.1 1.7.4s.8.7 1.1 1.2.4 1.1.4 1.8v.4c0 .7-.1 1.3-.4 1.8s-.7.9-1.1 1.2c-.4.3-1.1.4-1.7.4l-2.1-.1zm1.2-6.1v5.1h.8c.6 0 1.1-.2 1.5-.6s.5-1 .5-1.7v-.4c0-.8-.2-1.4-.5-1.8s-.8-.6-1.5-.6h-.8zm9.6 2.9h-2.9v2.2h3.4v1H102V9.4h4.6v1h-3.4v2h2.9l.1.9zm5.3 1.4c0-.3-.1-.6-.3-.7s-.6-.3-1.2-.5-1-.4-1.4-.6c-.6-.4-1-.9-1-1.6 0-.6.2-1 .7-1.4s1.1-.6 1.8-.6c.5 0 .9.1 1.3.3s.7.4.9.8.3.7.3 1.1h-1.2c0-.4-.1-.7-.3-.9s-.6-.3-1-.3-.7.1-.9.3-.3.4-.3.7.1.5.4.7.6.3 1.2.5 1 .4 1.3.6.6.5.7.7.2.6.2 1c0 .6-.2 1.1-.7 1.4-.5.3-1.1.5-1.8.5-.5 0-1-.1-1.4-.3s-.8-.5-1-.8-.4-.7-.4-1.2h1.2c0 .4.1.7.4.9s.6.3 1.1.3c.4 0 .8-.1 1-.3s.4-.3.4-.6z" fill="#787878"/><path d="m17.8 6.9-4.4 4.3c-.6.6-.6 1.5 0 2.1l7.5 7.4c.6.6 1.5.6 2.1 0l4.4-4.3c.6-.6.6-1.5 0-2.1L20 6.9c-.6-.6-1.6-.6-2.2 0zm6.4 10.4c-.5.5-1.4.5-1.9 0s-.5-1.4 0-1.9 1.4-.5 1.9 0c.5.6.5 1.4 0 1.9zm4.3-12.1h-6.2c-.5 0-1 .3-1.3.7l7.5 7.3c1.2 1.1 1.2 3 0 4.1l-1.3 1.2h1.2c.8 0 1.5-.6 1.5-1.4L30 6.7c0-.8-.6-1.5-1.5-1.5z" fill="#36bc9b"/></svg>