<svg xmlns="http://www.w3.org/2000/svg" width="96" height="64"><path d="M41.5 53.6V56h-1.1v-6.4h2.4c.7 0 1.3.2 1.7.6.4.4.6.9.6 1.5s-.2 1.1-.6 1.5c-.4.3-1 .5-1.7.5l-1.3-.1zm0-.9h1.3c.4 0 .7-.1.9-.3s.3-.5.3-.8-.1-.6-.3-.8-.5-.3-.9-.3h-1.4v2.2h.1zm4.6 3.3v-6.4H48c.6 0 1.1.1 1.5.4.4.3.8.6 1 1.1s.4 1 .4 1.6v.3c0 .6-.1 1.1-.4 1.6-.2.5-.6.8-1 1.1-.4.2-1 .4-1.5.4l-1.9-.1zm1.1-5.6V55h.8c.6 0 1-.2 1.3-.5.3-.4.5-.9.5-1.6v-.4c0-.7-.2-1.2-.5-1.6-.3-.4-.7-.5-1.3-.5h-.8zm8.5 2.8h-2.6V56H52v-6.4h4.1v.9h-3v1.9h2.6v.8z" fill="#7a7a7a"/><circle cx="48.4" cy="25" r="18" fill="#c0392b"/><path d="M55 26.4c-.7 0-1.6.1-2.6.3-1.5-1.5-2.9-3.8-3.9-6 1.1-4.5.5-5.1.3-5.4-.2-.3-.6-.8-1-.8-.2 0-.6.1-.8.1-.5.2-.7.5-.9 1-.6 1.3.2 3.6 1 5.3-.7 2.7-1.8 5.9-2.9 8.5-2.9 1.4-4.5 2.7-4.7 4-.1.5.1 1.2.9 1.8.2.2.5.3.8.3.7 0 1.4-.5 2.2-1.7.6-.8 1.2-2 1.9-3.4 2.1-.9 4.7-1.8 6.9-2.2 1.3 1.2 2.3 1.8 3.2 1.8.7 0 1.3-.3 1.8-.9s.6-1.2.3-1.7c-.6-.7-1.3-1-2.5-1zm-13.9 7.7c-.4-.3-.4-.5-.3-.5 0-.4.7-1.2 2.3-2.2-1.3 2.4-1.9 2.7-2 2.7zm6.3-18.2s.8.9.1 2.6c-1.1-1.2-.2-2.6-.1-2.6zm-1.5 12.7c.8-1.9 1.6-4 2.1-6 .9 1.6 2 3.2 2.9 4.4-1.7.4-3.5 1-5 1.6zm9.9-.3c-.2.3-.8.4-1 .4-.4 0-.6-.3-1.2-.7.5-.1 1-.1 1.4-.1.7 0 .8.1.9.2.1-.1 0 0-.1.2z" fill="#fff"/></svg>