<svg width="152" height="40" xmlns="http://www.w3.org/2000/svg"><g fill="none" fill-rule="evenodd"><path d="M54.1 12.575h.847c.792 0 1.384-.156 1.777-.47.393-.31.59-.767.59-1.364 0-.6-.166-1.047-.495-1.335-.33-.287-.847-.43-1.55-.43H54.1v3.6zm5.81-1.926c0 1.304-.407 2.303-1.223 2.995-.816.692-1.977 1.038-3.482 1.038H54.1V19h-2.573V6.864h3.877c1.472 0 2.59.317 3.357.95.77.634 1.15 1.58 1.15 2.835zM64.536 19h-2.532V6.084h2.532V19zm8.55 0-.49-1.262h-.067c-.427.537-.865.91-1.316 1.117-.45.207-1.04.31-1.764.31-.892 0-1.594-.254-2.106-.763-.51-.51-.767-1.234-.767-2.174 0-.985.344-1.712 1.033-2.18.69-.467 1.728-.726 3.117-.776l1.61-.05v-.406c0-.94-.48-1.41-1.444-1.41-.74 0-1.613.223-2.615.67l-.838-1.71c1.068-.558 2.252-.837 3.553-.837 1.245 0 2.2.27 2.863.81.665.544.997 1.368.997 2.475V19h-1.77zm-.748-4.3-.98.033c-.735.023-1.283.155-1.643.4-.36.242-.54.613-.54 1.11 0 .715.41 1.072 1.23 1.072.586 0 1.055-.17 1.406-.506.353-.34.528-.788.528-1.347V14.7zm3.794-4.98h2.773l1.752 5.22c.15.455.252.99.307 1.61h.05c.06-.57.18-1.105.357-1.61l1.718-5.22H85.8l-3.925 10.467c-.36.968-.873 1.693-1.54 2.175-.667.48-1.446.722-2.336.722-.44 0-.87-.047-1.29-.14v-2.01c.305.072.637.108.997.108.448 0 .84-.137 1.175-.41.334-.275.596-.688.784-1.242l.15-.456L76.13 9.72zM98.67 6.864h2.6L97.14 19h-2.806L90.217 6.864h2.598l2.283 7.222c.127.426.26.923.394 1.49.136.567.22.96.254 1.183.06-.51.268-1.4.622-2.675l2.3-7.222zm3.82.457c0-.823.457-1.235 1.376-1.235.918 0 1.378.412 1.378 1.237 0 .394-.115.7-.345.918-.23.22-.575.328-1.034.328-.92 0-1.378-.415-1.378-1.245zM105.123 19h-2.53V9.72h2.53V19zm5.595.166c-1.09 0-1.947-.423-2.57-1.27-.62-.847-.934-2.02-.934-3.52 0-1.52.317-2.707.95-3.556.634-.85 1.507-1.275 2.62-1.275 1.167 0 2.058.454 2.672 1.362h.082a10.38 10.38 0 0 1-.19-1.85V6.083h2.54V19h-1.943l-.49-1.204h-.108c-.577.913-1.454 1.37-2.633 1.37zm.887-2.017c.648 0 1.122-.19 1.424-.567.303-.376.467-1.015.495-1.917v-.274c0-.996-.154-1.71-.46-2.142-.308-.43-.807-.646-1.5-.646-.564 0-1.002.24-1.315.718-.31.48-.468 1.175-.468 2.088s.158 1.598.473 2.054c.316.457.767.685 1.353.685zm10.775-5.804c-.537 0-.958.17-1.262.51-.303.34-.478.823-.522 1.45h3.553c-.01-.627-.172-1.11-.49-1.45-.313-.34-.74-.51-1.276-.51zm.357 7.82c-1.495 0-2.663-.413-3.504-1.238-.84-.825-1.262-1.993-1.262-3.504 0-1.555.39-2.757 1.166-3.606.78-.85 1.854-1.275 3.226-1.275 1.312 0 2.333.374 3.063 1.12.73.748 1.094 1.78 1.094 3.097v1.23h-5.985c.027.718.24 1.28.64 1.684.397.404.956.606 1.675.606.56 0 1.087-.058 1.585-.175.5-.116 1.02-.3 1.562-.556v1.96a6.01 6.01 0 0 1-1.42.493c-.503.108-1.117.162-1.842.162zm7.86-4.824c0 .92.15 1.613.452 2.084.302.47.793.705 1.473.705.676 0 1.16-.232 1.457-.7.296-.47.444-1.164.444-2.09 0-.916-.15-1.605-.448-2.065-.3-.46-.79-.69-1.47-.69-.675 0-1.162.23-1.46.686-.3.458-.45 1.148-.45 2.07zm6.416 0c0 1.51-.398 2.692-1.195 3.545-.796.852-1.906 1.278-3.33 1.278-.89 0-1.675-.195-2.355-.585a3.905 3.905 0 0 1-1.57-1.68c-.364-.73-.547-1.583-.547-2.557 0-1.516.395-2.695 1.186-3.536.79-.84 1.904-1.262 3.337-1.262.89 0 1.678.194 2.358.58.68.39 1.204.945 1.57 1.67.364.725.547 1.574.547 2.548z" fill="#464646"/><path d="M57.896 31.063c0 1.257-.318 2.245-.954 2.965-.635.72-1.52 1.08-2.65 1.08-1.157 0-2.05-.354-2.678-1.06-.628-.71-.943-1.707-.943-2.996 0-1.278.317-2.27.948-2.973.63-.705 1.525-1.057 2.685-1.057 1.128 0 2.01.358 2.643 1.074.634.716.95 1.705.95 2.965zm-6.258 0c0 1.063.227 1.87.68 2.42.453.55 1.11.824 1.974.824.87 0 1.527-.274 1.97-.822.445-.548.667-1.355.667-2.422 0-1.056-.223-1.858-.666-2.404-.442-.548-1.096-.82-1.963-.82-.87 0-1.53.274-1.983.824-.453.55-.68 1.35-.68 2.398zm8.712-1.95v3.82c0 .48.11.837.328 1.073.218.237.56.355 1.026.355.616 0 1.066-.166 1.35-.503.285-.337.427-.886.427-1.65v-3.093h.894V35h-.736l-.13-.79h-.047c-.182.29-.435.512-.76.666a2.55 2.55 0 0 1-1.11.23c-.714 0-1.25-.17-1.607-.51-.356-.34-.534-.883-.534-1.632v-3.85h.9zm8.6-.107c.26 0 .495.02.703.064l-.124.827a3.106 3.106 0 0 0-.646-.08c-.476 0-.884.193-1.222.58-.34.387-.508.868-.508 1.445V35h-.89v-5.887H67l.102 1.09h.043c.218-.383.48-.678.79-.886.307-.207.645-.31 1.014-.31zm9.775.43c0 .794-.272 1.406-.814 1.834-.54.428-1.317.642-2.326.642h-.924V35h-.914v-7.853h2.035c1.964 0 2.946.763 2.946 2.29zm-4.066 1.69h.82c.81 0 1.394-.13 1.756-.39.36-.262.542-.68.542-1.257 0-.52-.17-.908-.51-1.163-.34-.254-.87-.38-1.59-.38h-1.02v3.19zm8.26-2.12c.26 0 .494.02.702.064l-.123.827a3.106 3.106 0 0 0-.646-.08c-.476 0-.884.193-1.222.58-.338.387-.508.868-.508 1.445V35h-.89v-5.887h.735l.1 1.09h.044c.218-.383.48-.678.79-.886.307-.207.646-.31 1.014-.31zm6.664 3.045c0 .96-.242 1.71-.725 2.25-.485.54-1.15.808-2.005.808-.526 0-.993-.123-1.4-.37a2.439 2.439 0 0 1-.947-1.064c-.223-.462-.334-1.002-.334-1.622 0-.958.24-1.706.72-2.24.48-.536 1.146-.804 1.998-.804.824 0 1.478.274 1.963.822.485.547.728 1.29.728 2.223zm-4.485 0c0 .754.15 1.327.45 1.72.3.395.743.59 1.327.59s1.027-.194 1.33-.586c.302-.392.453-.966.453-1.722 0-.747-.15-1.316-.453-1.704-.302-.39-.75-.583-1.34-.583-.583 0-1.024.192-1.32.575-.298.383-.447.954-.447 1.713zm10.054 2.16h-.05c-.41.6-1.026.898-1.846.898-.77 0-1.37-.263-1.798-.79-.428-.525-.642-1.274-.642-2.244 0-.97.215-1.724.645-2.26.43-.54 1.028-.807 1.794-.807.797 0 1.41.29 1.836.87h.07l-.038-.424-.022-.414v-2.396h.892V35h-.725l-.118-.79zm-1.783.15c.61 0 1.05-.164 1.325-.495.273-.33.41-.866.41-1.603v-.187c0-.835-.138-1.43-.416-1.786-.278-.357-.72-.536-1.33-.536-.523 0-.923.204-1.2.61-.278.406-.417.98-.417 1.72 0 .753.138 1.32.414 1.704.275.383.68.575 1.214.575zm5.356-5.246v3.82c0 .48.11.837.327 1.073.22.237.56.355 1.026.355.615 0 1.065-.167 1.35-.504.285-.337.427-.886.427-1.65v-3.093h.892V35h-.737l-.13-.79h-.048c-.182.29-.436.512-.76.666-.324.154-.693.23-1.11.23-.715 0-1.25-.17-1.607-.51-.358-.34-.536-.883-.536-1.632v-3.85h.903zm8.266 5.994c-.853 0-1.512-.262-1.98-.786-.467-.524-.7-1.266-.7-2.226 0-.984.237-1.745.71-2.282.476-.538 1.15-.806 2.03-.806.282 0 .565.03.847.09.282.062.504.134.665.216l-.274.757a3.981 3.981 0 0 0-.643-.196 2.886 2.886 0 0 0-.618-.078c-1.197 0-1.795.763-1.795 2.288 0 .724.146 1.28.438 1.666.292.385.724.58 1.297.58.492 0 .995-.107 1.51-.318v.79c-.393.203-.89.305-1.487.305zm4.785-.735a3.175 3.175 0 0 0 .807-.108v.682c-.098.047-.24.085-.428.116-.188.03-.357.045-.508.045-1.14 0-1.71-.6-1.71-1.8v-3.5h-.842v-.43l.843-.37.376-1.258h.516v1.363h1.708v.693h-1.707v3.465c0 .356.084.628.252.818.17.19.4.285.693.285zm5.887-2.638V35h-.913v-7.853h2.155c.963 0 1.675.185 2.135.554.46.37.69.926.69 1.667 0 1.038-.525 1.74-1.578 2.105l2.132 3.53h-1.08l-1.9-3.266h-1.64zm0-.784h1.252c.644 0 1.117-.127 1.417-.383.3-.256.452-.64.452-1.152 0-.52-.153-.893-.46-1.122-.306-.23-.797-.344-1.474-.344h-1.186v3zm8.24 4.158c-.87 0-1.557-.265-2.06-.794-.504-.53-.755-1.266-.755-2.208 0-.95.232-1.703.7-2.26.467-.56 1.095-.84 1.882-.84.738 0 1.322.243 1.75.73.43.484.646 1.124.646 1.92v.563h-4.056c.018.69.192 1.214.523 1.573.332.358.798.537 1.4.537.633 0 1.26-.134 1.88-.4v.796a4.748 4.748 0 0 1-.895.293 5.19 5.19 0 0 1-1.018.086zm-.242-5.355c-.473 0-.85.154-1.13.462-.282.308-.448.734-.498 1.28h3.078c0-.564-.126-.994-.376-1.293-.25-.298-.61-.448-1.074-.448zM130.658 35l-2.235-5.887h.956l1.266 3.49c.286.818.455 1.348.505 1.59h.044c.04-.188.164-.58.373-1.178.21-.596.68-1.897 1.41-3.902h.956L131.7 35h-1.042zm5.113 0h-.89v-5.887h.89V35zm-.965-7.482c0-.204.05-.354.15-.448a.527.527 0 0 1 .377-.143c.144 0 .267.05.37.145.105.097.157.246.157.446s-.053.35-.157.45a.52.52 0 0 1-.37.146.518.518 0 0 1-.375-.147c-.1-.1-.15-.248-.15-.45zm5.344 7.59c-.87 0-1.557-.266-2.06-.795-.503-.53-.755-1.266-.755-2.208 0-.95.234-1.703.7-2.26.468-.56 1.096-.84 1.883-.84.738 0 1.322.243 1.75.73.43.484.646 1.124.646 1.92v.563h-4.055c.017.69.19 1.215.522 1.574.333.358.8.537 1.4.537.634 0 1.26-.135 1.88-.4v.795a4.717 4.717 0 0 1-.894.293c-.28.058-.62.087-1.018.087zm-.24-5.356c-.475 0-.85.154-1.133.462-.28.308-.447.734-.497 1.28h3.077c0-.564-.125-.994-.376-1.293-.25-.297-.607-.447-1.072-.447zM148.42 35l-1.08-3.454c-.068-.21-.195-.69-.38-1.44h-.044c-.143.628-.27 1.11-.376 1.45L145.428 35h-1.03l-1.607-5.887h.937l.867 3.38c.2.772.312 1.293.34 1.562h.044c.04-.204.103-.468.19-.793.088-.324.165-.58.23-.77l1.08-3.38h.965l1.053 3.38c.2.616.337 1.133.408 1.552h.043c.015-.13.053-.328.116-.596.062-.27.436-1.714 1.12-4.335h.923L149.478 35h-1.058z" fill="#A9A9A9"/><circle fill="#CE4E45" cx="20" cy="20" r="20"/><path d="M17.97 14.157c-.534-.343-.97-.105-.97.525v10.66c0 .63.42.846.936.478l7.686-5.495c.516-.37.502-.95-.034-1.29l-7.62-4.878z" fill="#FFF"/></g></svg>