<svg xmlns="http://www.w3.org/2000/svg" width="183" height="40"><circle fill="#1C7CC6" cx="20.4" cy="20" r="20"/><path fill="#FFF" d="M26.8 25.9c-1 1.3-2.4 2.2-3.9 2.6-.9.4-1.8.5-2.8.5-3.8 0-7.2-2.4-8.3-6.1-.7-2.3-.6-4.7.5-6.7s2.9-3.7 5.1-4.3c.9-.3 1.8-.5 2.7-.5 3.8 0 7.2 2.4 8.3 6.1v.1l-3.2.9 7.8 5.6 3.1-9.1-3.5 1.1V16c-1.8-5.5-6.9-9.1-12.6-9.1-1.4 0-2.7.2-4.1.7-7 2.3-10.6 9.6-8.5 16.7 1.8 5.5 6.9 9.1 12.6 9.1 1.4 0 2.7-.2 4.1-.7 2.3-.8 4.3-2.2 5.8-3.9l-3.1-2.9z"/><path fill="#414141" d="M55.7 14.3v4.2h-2.4v-12H58c.9 0 1.7.2 2.3.5s1.2.8 1.6 1.4c.4.6.6 1.3.6 2.1 0 1.2-.4 2.1-1.2 2.8-.8.7-1.9 1-3.4 1h-2.2zm0-2h2.2c.7 0 1.1-.2 1.5-.5.4-.3.5-.7.5-1.3s-.2-1-.6-1.4-.8-.6-1.4-.6h-2.2v3.8zm10.7 6.2h-2.3V5.9h2.3v12.6zm7.2 0c-.1-.2-.2-.5-.3-.8-.6.7-1.3.9-2.2.9-.8 0-1.6-.3-2.1-.7s-1-1.2-1-1.9c0-.9.4-1.7 1-2.1.7-.5 1.7-.7 3-.7h1.1v-.5c0-.4-.1-.7-.3-1-.2-.3-.6-.4-1-.4s-.7.1-.9.3c-.2.2-.4.5-.4.7h-2.3c0-.6.2-1 .5-1.4.3-.4.7-.7 1.3-1 .6-.3 1.2-.4 2-.4 1.1 0 2 .3 2.6.8s.9 1.3.9 2.3v3.8c0 .8.1 1.5.4 1.9v.1l-2.3.1zm-2-1.7c.4 0 .7-.1.9-.3s.6-.4.7-.7v-1.5h-.8c-1.2 0-1.8.4-1.9 1.2v.1c0 .3.1.6.3.7.1.3.4.5.8.5zm9.1-1.7 1.7-5.5H85l-3.6 10.3-.2.5c-.6 1.1-1.4 1.8-2.6 1.8-.4 0-.7-.1-1-.2v-1.8h.4c.5 0 .7-.1 1-.2s.4-.4.6-.7l.3-.7-3.3-9h2.5l1.6 5.5zm11.7-3.6h1.2c.6 0 1-.2 1.3-.5.3-.3.5-.7.5-1.2s-.2-.8-.5-1.1c-.3-.3-.7-.4-1.2-.4s-.8.1-1.1.4-.5.6-.5.9h-2.3c0-.7.2-1.2.5-1.7s.8-.8 1.5-1.1c.7-.3 1.3-.4 2-.4 1.3 0 2.2.3 3 .9s1.1 1.4 1.1 2.5c0 .6-.2 1-.5 1.5s-.7.8-1.3 1c.7.3 1.2.6 1.5 1.1.3.6.5 1 .5 1.7 0 1-.4 1.9-1.1 2.5-.7.7-1.8.9-3.1.9-1.2 0-2.1-.3-2.9-.9-.7-.7-1.1-1.5-1.1-2.5h2.3c0 .5.2.8.5 1.1.3.3.7.5 1.2.5.6 0 1-.2 1.3-.5.3-.3.5-.7.5-1.2 0-1.2-.7-1.8-2-1.8h-1.2v-1.7zm13.7-5.1v2h-.3c-1 0-2 .3-2.6.8-.7.6-1 1.2-1.1 2.2.7-.7 1.4-.9 2.4-.9s1.9.4 2.5 1.1c.7.7.9 1.7.9 2.9 0 .7-.2 1.5-.5 2.1-.4.7-.8 1.1-1.4 1.5-.6.4-1.3.6-2.1.6-1.2 0-2.2-.5-3.1-1.3-.7-.8-1.1-2.1-1.1-3.6V13c0-1.3.3-2.4.7-3.5.5-1 1.2-1.8 2.1-2.3.9-.6 2-.8 3.2-.8h.4zm-2.4 6c-.4 0-.7.1-1 .3-.3.2-.6.5-.7.7v.7c0 .7.2 1.4.5 1.9s.7.7 1.3.7c.5 0 .9-.2 1.2-.6.3-.4.5-.9.5-1.6s-.2-1.2-.5-1.6c-.2-.3-.7-.5-1.3-.5zm13.6 1.1c0 1.7-.4 2.9-1 3.8-.7.8-1.7 1.3-3 1.3s-2.3-.5-3-1.3c-.7-.8-1-2.1-1-3.7v-2.1c0-1.7.4-2.9 1-3.8s1.7-1.3 3-1.3 2.3.5 3 1.3 1 2.1 1 3.7v2.1zm-2.3-2.4c0-1-.1-1.7-.4-2.1s-.7-.7-1.3-.7c-.6 0-.9.2-1.2.7-.3.5-.4 1.1-.5 2.1V14c0 .9.1 1.7.4 2.1.3.5.7.7 1.3.7.6 0 1-.2 1.2-.7.2-.5.4-1.1.4-2.1l.1-2.9zm12.8 4.4 2.7-9h2.7l-4.2 12h-2.6l-4.1-12h2.7l2.8 9zm8.9 3h-2.3V9.6h2.3v8.9zm-2.5-11.2c0-.4.1-.7.4-.8s.6-.4.9-.4c.4 0 .7.1.9.4.2.3.4.6.4.8 0 .4-.1.7-.4.8-.3.2-.6.4-.9.4-.4 0-.7-.1-.9-.4-.2-.3-.4-.5-.4-.8zm8.6 11.4c-1.3 0-2.3-.4-3.2-1.2-.8-.8-1.2-1.9-1.2-3.2v-.2c0-.9.2-1.7.6-2.4.4-.7.8-1.2 1.5-1.6.7-.4 1.3-.6 2.1-.6 1.2 0 2.1.4 2.9 1.1.7.7 1 1.9 1 3.3v.9h-5.7c.1.6.3 1 .7 1.4.4.4.8.6 1.5.6.9 0 1.6-.4 2.1-1l1.1 1.3c-.4.5-.8.9-1.4 1.2-.5.3-1.3.4-2 .4zm-.3-7.3c-.5 0-.8.2-1.1.5s-.5.7-.6 1.4h3.3v-.2c0-.6-.2-.9-.5-1.2s-.6-.5-1.1-.5zm13 3.8 1.1-5.7h2.3l-2.2 8.9h-2l-1.7-5.6-1.7 5.6h-2L147 9.6h2.3l1.1 5.6 1.6-5.6h1.7l1.8 5.6z"/><path d="M59.3 25.7h-2.8v7.7h-1.1v-7.7h-2.8v-.9h6.6l.1.9zm2.2 2c.5-.6 1.1-.9 1.9-.9 1.4 0 2.1.7 2.1 2.3v4.2h-1.1v-4.2c0-.5-.1-.8-.3-1-.2-.2-.6-.4-.9-.4-.4 0-.7.1-.9.3-.3.2-.5.5-.7.7v4.6h-1.1v-9.2h1.1v3.6zm8.3 5.8c-.8 0-1.6-.3-2.1-.8s-.8-1.3-.8-2.3v-.2c0-.7.1-1.2.4-1.7.3-.5.6-.9 1-1.2.5-.3.9-.5 1.4-.5.8 0 1.5.3 2 .8.5.6.7 1.3.7 2.3v.5H68c0 .7.2 1.1.6 1.5s.8.6 1.3.6c.4 0 .7-.1 1-.3.3-.2.5-.4.7-.7l.7.6c-.6 1-1.5 1.4-2.5 1.4zm-.2-5.8c-.5 0-.8.2-1.1.5-.3.3-.5.7-.6 1.4h3.3v-.1c0-.6-.2-1-.5-1.3-.2-.3-.6-.5-1.1-.5zm9.1 4.2 1.6-5h1.1l-2.3 6.4h-.8L75.9 27H77l1.7 4.9zm3.7-6.6c0-.2.1-.4.2-.5.1-.1.3-.2.5-.2s.4.1.5.2.2.3.2.5-.1.3-.2.5-.3.2-.5.2-.4-.1-.5-.2c-.1-.1-.2-.3-.2-.5zm1.2 8.1h-1.1V27h1.1v6.4zm4.4.1c-.8 0-1.6-.3-2.1-.8-.6-.6-.8-1.3-.8-2.3v-.2c0-.7.1-1.2.4-1.7s.6-.9 1-1.2c.5-.3.9-.5 1.4-.5.8 0 1.5.3 2 .8.5.6.7 1.3.7 2.3v.5h-4.4c0 .7.2 1.1.6 1.5s.8.6 1.3.6c.4 0 .7-.1 1-.3.3-.2.5-.4.7-.7l.7.6c-.6 1-1.3 1.4-2.5 1.4zm-.1-5.8c-.5 0-.8.2-1.1.5-.3.3-.5.7-.6 1.4h3.2v-.1c0-.6-.2-1-.5-1.3-.2-.3-.5-.5-1-.5zm9.6 4.2 1.2-4.9h1.1l-1.9 6.4H97l-1.5-5-1.5 5h-.9L91.2 27h1.1l1.3 4.8 1.5-4.8h.9l1.5 4.9zm7 1.5v-5.6h-1V27h1v-.7c0-.7.2-1.2.6-1.6.4-.4.9-.6 1.6-.6.3 0 .5 0 .7.1l-.1.8c-.2 0-.4-.1-.6-.1-.4 0-.7.1-.8.3-.2.2-.3.5-.3.9v.7h1.4v.8h-1.4v5.6l-1.1.2zm6.8-5.4h-.6c-.7 0-1.2.3-1.5.9v4.6h-1.1v-6.4h1v.7c.4-.6.8-.8 1.5-.8.2 0 .4 0 .5.1v.9h.2zm.6 2.2c0-.7.1-1.2.4-1.7s.6-.9 1-1.1c.5-.3.9-.4 1.5-.4.8 0 1.6.3 2.1.9.6.6.8 1.4.8 2.4v.1c0 .7-.1 1.2-.4 1.7s-.6.8-1 1.1c-.5.3-.9.4-1.5.4-.8 0-1.6-.3-2.1-.9-.5-.7-.8-1.5-.8-2.5zm1.1.1c0 .7.2 1.3.5 1.7.3.4.7.7 1.3.7s1-.2 1.3-.7c.3-.5.5-1 .5-1.9 0-.7-.2-1.3-.5-1.7s-.7-.7-1.3-.7-.9.2-1.3.7c-.3.4-.5 1.1-.5 1.9zm7.2-3.3v.7c.5-.6 1.1-.8 1.9-.8.9 0 1.5.4 1.9 1 .2-.3.5-.6.8-.7s.7-.3 1.2-.3c1.4 0 2.1.7 2.1 2.2v4.3H127v-4.2c0-.5-.1-.8-.3-1-.2-.2-.6-.4-1-.4s-.7.1-1 .4c-.3.3-.5.6-.5 1v4.3h-1.1v-4.3c0-.9-.5-1.4-1.4-1.4-.7 0-1.2.3-1.5.9v4.7h-1.1V27h1.1zm16.5 6.4c-.1-.1-.1-.4-.2-.7-.5.6-1.1.8-1.9.8-.7 0-1.1-.2-1.6-.6s-.7-.8-.7-1.4c0-.7.3-1.2.7-1.6.5-.4 1.2-.6 2.1-.6h1V29c0-.4-.1-.7-.4-.9-.2-.2-.6-.4-1-.4s-.7.1-1 .3c-.3.2-.4.5-.4.7h-1.1c0-.3.1-.7.4-.9.3-.3.6-.6.9-.7.4-.2.8-.3 1.3-.3.7 0 1.3.2 1.8.6.5.4.7.8.7 1.5v3c0 .6.1 1 .2 1.4v.1h-.8zm-1.7-.8c.4 0 .7-.1.9-.3.3-.2.6-.4.7-.7v-1.3h-.8c-1.3 0-2.1.4-2.1 1.2 0 .4.1.7.4.8.2.3.5.3.9.3zm5.6.8h-1.1v-9.2h1.1v9.2zm3 0h-1.1v-9.2h1.1v9.2zm8.6 0c-.1-.1-.1-.4-.2-.7-.5.6-1.1.8-1.9.8-.7 0-1.1-.2-1.6-.6-.5-.4-.7-.8-.7-1.4 0-.7.3-1.2.7-1.6.5-.4 1.2-.6 2.1-.6h1V29c0-.4-.1-.7-.4-.9-.2-.2-.6-.4-1-.4s-.7.1-1 .3c-.3.2-.4.5-.4.7h-1.1c0-.3.1-.7.4-.9.3-.3.6-.6.9-.7.4-.2.8-.3 1.3-.3.7 0 1.3.2 1.8.6.5.4.7.8.7 1.5v3c0 .6.1 1 .2 1.4v.1h-.8zm-1.7-.8c.4 0 .7-.1.9-.3.3-.2.6-.4.7-.7v-1.3h-.8c-1.3 0-2.1.4-2.1 1.2 0 .4.1.7.4.8.2.3.5.3.9.3zm5.4-5.6v.8c.5-.7 1.1-.9 2-.9 1.4 0 2.1.7 2.1 2.3v4.2h-1.1v-4.2c0-.5-.1-.8-.3-1-.2-.2-.6-.4-.9-.4-.4 0-.7.1-.9.3l-.7.7v4.6H155V27h.9zm5.4 3.2c0-1 .2-1.8.7-2.4.5-.6 1.1-.8 1.9-.8.7 0 1.4.3 1.9.8l.1-.7h1v6.3c0 .8-.3 1.5-.7 2s-1.1.7-2 .7c-.5 0-.9-.1-1.4-.3s-.7-.5-1-.8l.6-.7c.5.6 1 .8 1.7.8.6 0 .9-.2 1.2-.5.3-.3.5-.7.5-1.3v-.6c-.5.5-1 .7-1.8.7s-1.4-.3-1.9-.9c-.5-.5-.8-1.3-.8-2.3zm1.1.1c0 .7.2 1.3.5 1.7.3.4.7.7 1.2.7.7 0 1.2-.3 1.5-.9v-2.9c-.4-.7-.8-.9-1.5-.9-.6 0-.9.2-1.2.7s-.5.8-.5 1.6zm7.2 3.1h-1.1v-9.2h1.1v9.2zm4.4.1c-.8 0-1.6-.3-2.1-.8s-.8-1.3-.8-2.3v-.2c0-.7.1-1.2.4-1.7.3-.5.6-.9 1-1.2.5-.3.9-.5 1.4-.5.8 0 1.5.3 2 .8s.7 1.3.7 2.3v.5h-4.3c0 .7.2 1.1.6 1.5.4.4.8.6 1.3.6.4 0 .7-.1 1-.3s.5-.4.7-.7l.7.6c-.7 1-1.5 1.4-2.6 1.4zm-.1-5.8c-.5 0-.8.2-1.1.5-.3.3-.5.7-.6 1.4h3.2v-.1c0-.6-.2-1-.5-1.3-.2-.3-.6-.5-1-.5zm7.6 4c0-.3-.1-.6-.4-.7-.3-.1-.7-.3-1.2-.5-.6-.2-1-.3-1.3-.5-.3-.2-.6-.4-.7-.6s-.3-.5-.3-.8c0-.6.2-.9.7-1.3.5-.4 1-.6 1.7-.6s1.3.2 1.8.6c.5.4.7.8.7 1.4h-.8c0-.3-.1-.6-.4-.7-.3-.2-.6-.3-.9-.3-.4 0-.7.1-.9.3-.2.2-.4.4-.4.7 0 .3.1.5.3.6.2.1.6.3 1.1.4.6.1 1 .3 1.3.5.4.2.6.4.7.7s.3.6.3.8c0 .6-.2 1-.7 1.4-.5.4-1 .6-1.8.6-.5 0-.9-.1-1.4-.3-.5-.2-.7-.5-.9-.7s-.4-.7-.4-1h1.1c0 .4.2.7.5.8.3.2.7.3 1.1.3.4 0 .7-.1 1-.3s.2-.5.2-.8z" fill="#B4B4B4"/></svg>