<svg xmlns="http://www.w3.org/2000/svg" xml:space="preserve" viewBox="0 0 349 22"><path d="M2.23 3.06H16c3.48 0 4.37.11 5.51.68 1.81.89 2.48 2.54 2.48 5.94 0 3.43-.62 5.21-2.11 6.13-1.05.65-2.27.84-5.4.84h-8.8v4.43H2.23V3.06zm13.41 9.2c2.24 0 2.89-.49 2.89-2.19 0-2.16-.54-2.64-2.89-2.64H7.68v4.83h7.96zm31.97-9.12c2.78.51 4.13 1.94 4.51 4.83.11.73.16 2.19.16 4.37 0 4.35-.46 6.1-2 7.37-1.08.92-2.59 1.35-5.21 1.46-.97.05-3.37.08-5.13.08-4.29 0-6.48-.08-7.56-.3-2-.35-3.16-1.11-3.83-2.43-.7-1.32-.86-2.64-.86-6.59 0-3.02.05-3.78.38-4.99.51-1.92 1.57-2.94 3.59-3.54 1.51-.43 3.16-.54 7.91-.54 5.18.01 6.77.06 8.04.28zM34.17 7.92c-.73.57-.95 1.46-.95 4.05 0 2.64.22 3.62.89 4.18.73.59 1.62.7 5.75.7 4.72 0 5.7-.16 6.32-1.03.51-.65.65-1.56.65-3.97 0-4.54-.08-4.59-6.83-4.59-4.03.01-5.13.14-5.83.66zM60.3 3.06l5.24 13.71 4.64-13.71h6.61l4.51 13.71 5.4-13.71h5.56l-7.45 18h-7.34l-4-12.96-4.18 12.96H62l-7.26-18h5.56zm55.4 0v4.08h-14.55v3.1h13.71v3.56h-13.71v3.18h14.74v4.08H95.75v-18h19.95zm4.25 0h15.52c3.19 0 4.59.27 5.61 1.13 1.05.84 1.54 2.38 1.54 4.8 0 3.35-.81 4.67-3.1 5.18 2.24.38 2.92 1.32 2.86 4.05v2.83h-5.56v-2.24c-.03-1.94-.57-2.35-3.02-2.29h-8.39v4.54h-5.45v-18zm14 9.07c2.65 0 3.16-.32 3.16-2.11 0-1.16-.11-1.65-.46-2.03-.4-.43-.86-.51-2.51-.51h-8.75v4.64h8.56zm18.15 3.18c.05 1.24.19 1.54.84 1.78.41.16 1.94.27 3.67.27 6.34 0 7.1-.19 7.1-1.67 0-.73-.35-1.27-.92-1.46-.59-.19-.59-.19-3.43-.22h-4.97c-3.32 0-4.7-.19-5.86-.78-1.3-.67-1.89-2.11-1.89-4.56 0-3.24.92-4.62 3.51-5.24 1.46-.38 3.56-.51 7.5-.51 6.32 0 7.77.16 9.07 1 1.24.84 1.65 1.94 1.65 4.64h-5.34c0-1.56-.54-1.78-4.08-1.78-1.75 0-4.1.05-4.97.11-1.46.11-1.94.48-1.94 1.51 0 .75.38 1.24 1.16 1.43.32.08.43.11 2.21.13h5.1c.49 0 2.92.08 3.83.13 3.43.16 4.78 1.67 4.78 5.29 0 3.32-.97 4.78-3.62 5.34-1.35.3-4.02.46-7.94.46-6.24 0-7.61-.13-9.2-.94-1.11-.54-1.67-1.92-1.67-4.05 0-.16 0-.51.03-.89h5.38zm21.28-12.25h13.77c3.48 0 4.37.11 5.51.68 1.81.89 2.48 2.54 2.48 5.94 0 3.43-.62 5.21-2.11 6.13-1.05.65-2.27.84-5.4.84h-8.8v4.43h-5.45V3.06zm13.41 9.2c2.24 0 2.89-.49 2.89-2.19 0-2.16-.54-2.64-2.89-2.64h-7.96v4.83h7.96zm31.97-9.12c2.78.51 4.13 1.94 4.51 4.83.11.73.16 2.19.16 4.37 0 4.35-.46 6.1-2 7.37-1.08.92-2.59 1.35-5.21 1.46-.97.05-3.37.08-5.13.08-4.29 0-6.48-.08-7.56-.3-2-.35-3.16-1.11-3.83-2.43-.7-1.32-.86-2.64-.86-6.59 0-3.02.05-3.78.38-4.99.51-1.92 1.57-2.94 3.59-3.54 1.51-.43 3.16-.54 7.91-.54 5.18.01 6.77.06 8.04.28zm-13.44 4.78c-.73.57-.95 1.46-.95 4.05 0 2.64.22 3.62.89 4.18.73.59 1.62.7 5.75.7 4.72 0 5.7-.16 6.32-1.03.51-.65.65-1.56.65-3.97 0-4.54-.08-4.59-6.83-4.59-4.03.01-5.13.14-5.83.66zm22.44-4.86h15.52c3.19 0 4.59.27 5.61 1.13 1.05.84 1.54 2.38 1.54 4.8 0 3.35-.81 4.67-3.1 5.18 2.24.38 2.92 1.32 2.86 4.05v2.83h-5.56v-2.24c-.03-1.94-.57-2.35-3.02-2.29h-8.39v4.54h-5.45v-18zm14 9.07c2.65 0 3.16-.32 3.16-2.11 0-1.16-.11-1.65-.46-2.03-.4-.43-.86-.51-2.51-.51h-8.75v4.64h8.56zm20.04-4.62h-8.02V3.06h21.51v4.45h-8.02v13.55h-5.48V7.51zm22.22 7.8c.05 1.24.19 1.54.84 1.78.41.16 1.94.27 3.67.27 6.34 0 7.1-.19 7.1-1.67 0-.73-.35-1.27-.92-1.46-.59-.19-.59-.19-3.43-.22h-4.97c-3.32 0-4.7-.19-5.86-.78-1.3-.67-1.89-2.11-1.89-4.56 0-3.24.92-4.62 3.51-5.24 1.46-.38 3.56-.51 7.5-.51 6.32 0 7.77.16 9.07 1 1.24.84 1.65 1.94 1.65 4.64h-5.34c0-1.56-.54-1.78-4.08-1.78-1.75 0-4.1.05-4.97.11-1.46.11-1.94.48-1.94 1.51 0 .75.38 1.24 1.16 1.43.32.08.43.11 2.21.13h5.1c.49 0 2.92.08 3.83.13 3.43.16 4.78 1.67 4.78 5.29 0 3.32-.97 4.78-3.62 5.34-1.35.3-4.02.46-7.94.46-6.24 0-7.61-.13-9.2-.94-1.11-.54-1.67-1.92-1.67-4.05 0-.16 0-.51.03-.89h5.38zm20.77-12.25h4.64v3.38h-4.64V3.06zm0 5.4h4.64v12.61h-4.64V8.46zm8.99-5.4h15.55c3.81 0 5.59.43 6.83 1.67 1 .97 1.4 2.11 1.59 4.4.05.84.11 2.08.11 2.94 0 1.62-.11 3.48-.27 4.51-.3 2.16-1.81 3.83-3.78 4.21-1.03.22-1.83.27-3.75.27h-16.28v-18zm14.65 13.71c1.48 0 1.59 0 2.24-.22 1.32-.4 1.67-1.35 1.67-4.45 0-3.78-.65-4.56-3.81-4.56h-9.29v9.23h9.19zm11.52-12.83c0-.63.14-1.21.43-1.74s.69-.96 1.2-1.27 1.07-.46 1.66-.46 1.15.15 1.66.46c.51.31.91.73 1.2 1.27s.43 1.12.43 1.74c0 .61-.14 1.18-.42 1.71s-.67.96-1.19 1.28-1.08.49-1.69.49c-.61 0-1.17-.16-1.68-.48s-.91-.75-1.19-1.28c-.27-.53-.41-1.1-.41-1.72zm.54 0c0 .53.12 1.02.37 1.48.25.45.58.81 1.01 1.06.43.26.89.39 1.38.39.5 0 .96-.13 1.39-.39.43-.26.76-.62 1.01-1.06.24-.45.36-.94.36-1.47s-.12-1.02-.36-1.46c-.24-.45-.58-.8-1.01-1.06a2.63 2.63 0 0 0-1.39-.39c-.5 0-.96.13-1.38.38-.43.26-.76.61-1.01 1.06-.25.45-.37.94-.37 1.46zm2.08.35v1.57h-.65V1.92h1.28c.47 0 .84.1 1.1.3s.39.5.39.88-.2.67-.59.87c.38.15.57.47.57.95v.28c0 .27.03.46.08.58v.07h-.67c-.04-.11-.07-.31-.07-.6s0-.46-.01-.51c-.05-.3-.25-.45-.61-.46h-.82zm0-.59h.72c.22-.01.4-.06.54-.16s.2-.24.2-.4c0-.23-.06-.38-.18-.48-.12-.09-.34-.14-.65-.14h-.64V3.7z" fill="#444445"/></svg>