<svg xmlns="http://www.w3.org/2000/svg" width="132" height="26"><path d="M127 25H5c-2.2 0-4-1.8-4-4V5c0-2.2 1.8-4 4-4h122c2.2 0 4 1.8 4 4v16c0 2.2-1.8 4-4 4z" fill="#fff"/><path d="M56.1 14.7c0-.3-.1-.6-.3-.7s-.6-.3-1.2-.5-1-.4-1.4-.6c-.6-.4-1-.9-1-1.6 0-.6.2-1 .7-1.4s1.1-.6 1.8-.6c.5 0 .9.1 1.3.3s.8.4 1 .7.3.7.3 1.1h-1.2c0-.4-.1-.7-.3-.9s-.6-.3-1-.3-.7.1-.9.3-.3.4-.3.7.1.5.4.7.6.3 1.2.5 1 .4 1.3.6.6.5.7.7.2.6.2 1c0 .6-.2 1.1-.7 1.4-.5.3-1.1.5-1.8.5-.5 0-1-.1-1.4-.3s-.8-.5-1-.8-.5-.7-.5-1.1h1.2c0 .4.1.7.4.9s.6.3 1.1.3c.4 0 .8-.1 1-.3s.4-.3.4-.6zm6.6-1.4h-2.9v2.2h3.4v1h-4.6V9.4h4.6v1h-3.4v2h2.9v.9zm5.5 1.5h-2.8l-.6 1.7h-1.3l2.7-7.1h1.1l2.7 7.1h-1.3l-.5-1.7zm-2.4-1h2.1l-1-2.9-1.1 2.9zm9.8-3.4h-2.2v6.1h-1.2v-6.1H70v-1h5.6v1zm8.1 0h-2.2v6.1h-1.2v-6.1h-2.2v-1h5.6v1zm3.5 2.4 1.6-3.4h1.4l-2.4 4.5v2.6h-1.2v-2.6l-2.4-4.5h1.4l1.6 3.4zm5.1 1.1v2.6H91V9.4h2.7c.8 0 1.4.2 1.9.6.5.4.7 1 .7 1.6 0 .7-.2 1.2-.7 1.6s-1.1.6-1.9.6l-1.4.1zm0-1h1.5c.4 0 .8-.1 1-.3s.3-.5.3-.9-.1-.7-.4-.9-.6-.3-1-.4h-1.5l.1 2.5zm9.4.4h-2.9v2.2h3.4v1h-4.6V9.4h4.6v1h-3.4v2h2.9v.9zm5.3 1.4c0-.3-.1-.6-.3-.7s-.6-.3-1.2-.5-1-.4-1.4-.6c-.6-.4-1-.9-1-1.6 0-.6.2-1 .7-1.4s1.1-.6 1.8-.6c.5 0 .9.1 1.3.3s.7.4.9.8.3.7.3 1.1H107c0-.4-.1-.7-.3-.9s-.6-.3-1-.3-.7.1-.9.3-.3.4-.3.7.1.5.4.7.6.3 1.2.5 1 .4 1.3.6.6.5.7.7.2.6.2 1c0 .6-.2 1.1-.7 1.4-.5.3-1.1.5-1.8.5-.5 0-1-.1-1.4-.3s-.8-.5-1-.8-.4-.7-.4-1.2h1.2c0 .4.1.7.4.9s.6.3 1.1.3c.4 0 .8-.1 1-.3s.3-.3.3-.6z" fill="#787878"/><path d="M23.1 8H21c-.8 0-1.4-.6-1.4-1.4v-.9c0-.8.6-1.4 1.4-1.4h2.1c.8 0 1.4.6 1.4 1.4v.9c0 .8-.6 1.4-1.4 1.4zm3.8 9-.2.3c-.3.4-.8.6-1.4.6h-6.5c-.5 0-1-.2-1.4-.6-.1-.1-.2-.2-.2-.3h-.6c-.2 0-.3.1-.3.3v1.5c0 1 .8 1.8 1.8 1.8h8c1 0 1.8-.8 1.8-1.8v-1.5c0-.2-.1-.3-.3-.3h-.7zm-1.4-6.5c-.2-.8-.8-1.5-1.6-1.5h-3.8c-.8 0-1.4.7-1.6 1.4-.8 3.1-.8 4-.8 5.2 0 1 .4 1.3 1.1 1.3H25c.7 0 1.1-.3 1.1-1.3.2-1.1.3-2-.6-5.1z" fill="#d96625"/></svg>