<svg xmlns="http://www.w3.org/2000/svg" width="96" height="64"><style>.st2{fill:none;stroke:#fff;stroke-width:.75;stroke-miterlimit:10}</style><circle cx="48" cy="23.8" r="17.3" fill="#d96625"/><path d="M24.6 54.2c0-.3-.1-.6-.3-.7-.2-.2-.6-.3-1.2-.5s-1-.4-1.4-.6c-.6-.4-1-.9-1-1.6 0-.6.2-1 .7-1.4s1.1-.6 1.8-.6c.5 0 .9.1 1.3.3s.7.4.9.8c.2.3.3.7.3 1.1h-1.2c0-.4-.1-.7-.3-.9-.2-.2-.6-.3-1-.3s-.7.1-.9.3c-.2.2-.3.4-.3.7s.1.5.4.7c.2.2.6.3 1.2.5s1 .3 1.3.6c.3.2.6.4.7.7.2.3.2.6.2 1 0 .6-.2 1.1-.7 1.4s-1.1.5-1.8.5c-.5 0-1-.1-1.4-.3s-.8-.5-1-.8-.4-.7-.4-1.2h1.2c0 .4.1.7.4.9s.6.3 1.1.3c.4 0 .8-.1 1-.3.3-.1.4-.3.4-.6zm6.5-1.4h-2.9V55h3.4v1H27v-7.1h4.6v1h-3.4v2h2.9v.9zm5.5 1.6h-2.8l-.5 1.6H32l2.7-7.1h1.1l2.7 7.1h-1.3l-.6-1.6zm-2.4-1h2.1l-1-2.9-1.1 2.9zm9.6-3.5h-2.2V56h-1.2v-6.1h-2.2v-1h5.6v1zm8 0h-2.2V56h-1.2v-6.1h-2.2v-1h5.6v1zm3.3 2.4 1.6-3.4h1.4l-2.4 4.5V56h-1.2v-2.6l-2.4-4.5h1.4l1.6 3.4zm5 1.1V56h-1.2v-7.1h2.7c.8 0 1.4.2 1.9.6.5.4.7 1 .7 1.6 0 .7-.2 1.2-.7 1.6-.5.4-1.1.6-1.9.6h-1.5v.1zm0-1h1.5c.4 0 .8-.1 1-.3s.3-.5.3-.9-.1-.7-.4-.9c-.2-.2-.6-.3-1-.4H60l.1 2.5zm9.3.4h-2.9V55h3.4v1h-4.6v-7.1h4.6v1h-3.4v2h2.9v.9zm5.3 1.4c0-.3-.1-.6-.3-.7-.2-.2-.6-.3-1.2-.5s-1-.4-1.4-.6c-.6-.4-1-.9-1-1.6 0-.6.2-1 .7-1.4s1.1-.6 1.8-.6c.5 0 .9.1 1.3.3s.7.4.9.8c.2.3.3.7.3 1.1h-1.2c0-.4-.1-.7-.3-.9-.2-.2-.6-.3-1-.3s-.7.1-.9.3c-.2.2-.3.4-.3.7s.1.5.4.7c.2.2.6.3 1.2.5s1 .3 1.3.6c.3.2.6.4.7.7.2.3.2.6.2 1 0 .6-.2 1.1-.7 1.4s-1.1.5-1.8.5c-.5 0-1-.1-1.4-.3s-.8-.5-1-.8-.4-.7-.4-1.2h1.2c0 .4.1.7.4.9s.6.3 1.1.3c.4 0 .8-.1 1-.3.2-.1.4-.3.4-.6z" fill="#787878"/><path class="st2" d="M41 12.4s-2.4 4-2.1 9.1c.2 5.1 1.2 6 1.2 10.2 0 0 1.7 1.2 4.3 2.1 2.7.8 5 1.3 6.5 1.3s5.5-1.9 7.8-4.8-6.9-3.1-10.2-3.2c0 0 1.2-2.2.4-4.3s-3-3.8-3.4-6.5-.9-3.9-1.1-4c-.2-.1-1.8-.7-3.4.1z"/><path class="st2" d="M41.4 12.2s-.8 3.5-.8 6.2 1.8 4.1 2.3 6.6.5 5.5-2.8 6.7"/><path class="st2" d="M42 30.6s1.6-.6 4.1 0 4.3 2.5 5 4.3m6.5-6.8s-3.1 3.1-7.4 5M45.4 15s-.1 4 .9 6.1 2.1 4.2 1.4 6.5m-5.2 2.7 6.1-3.2m-7.1-8.8 3.6-.8m.4 2.8-3.3 1m4.1 1.1-3.1 1.1m4.1 1.7L44 26.6m10.5 1.5L50.2 31m0-2.6L47.3 30"/></svg>