<svg xmlns="http://www.w3.org/2000/svg" width="132" height="26"><path d="M127 25H5c-2.2 0-4-1.8-4-4V5c0-2.2 1.8-4 4-4h122c2.2 0 4 1.8 4 4v16c0 2.2-1.8 4-4 4z" fill="#fff"/><path d="M68.9 14.7c0-.3-.1-.6-.3-.7s-.6-.3-1.2-.5-1-.4-1.4-.6c-.6-.4-1-.9-1-1.6 0-.6.2-1 .7-1.4s1.1-.6 1.8-.6c.5 0 .9.1 1.3.3s.7.4.9.8.3.7.3 1.1h-1.2c0-.4-.1-.7-.3-.9s-.6-.3-1-.3-.7.1-.9.3-.3.4-.3.7.1.5.4.7.6.3 1.2.5 1 .4 1.3.6.6.5.7.7.2.6.2 1c0 .6-.2 1.1-.7 1.4-.5.3-1.1.5-1.8.5-.5 0-1-.1-1.4-.3s-.8-.5-1-.8-.4-.7-.4-1.2H66c0 .4.1.7.4.9s.6.3 1.1.3c.4 0 .8-.1 1-.3s.4-.3.4-.6zm8.1-1.6c0 .7-.1 1.3-.4 1.8s-.6.9-1 1.2c-.4.3-1 .4-1.5.4-.6 0-1.1-.1-1.5-.4s-.8-.7-1-1.2-.4-1.1-.4-1.8v-.4c0-.7.1-1.3.4-1.8s.6-.9 1-1.2 1-.4 1.5-.4 1.1.1 1.5.4.8.7 1 1.2.4 1.1.4 1.8v.4zm-1.2-.3c0-.8-.1-1.4-.4-1.8s-.7-.6-1.3-.6c-.5 0-1 .2-1.3.6s-.5 1-.5 1.8v.4c0 .8.2 1.4.5 1.8s.7.6 1.3.6c.5 0 1-.2 1.3-.6s.4-1 .4-1.8v-.4zm7.8-3.4v4.8c0 .8-.2 1.4-.7 1.8-.5.4-1.1.7-1.9.7s-1.5-.2-1.9-.7-.7-1-.7-1.8V9.4h1.2v4.8c0 .5.1.8.4 1.1s.6.4 1.1.4c1 0 1.4-.5 1.4-1.5V9.4h1.1zm7 7.1h-1.2l-3.2-5v5H85V9.4h1.2l3.2 5.1V9.4h1.2v7.1zm1.6 0V9.4h2.1c.6 0 1.2.1 1.7.4s.9.7 1.1 1.2.4 1.1.4 1.8v.4c0 .7-.1 1.3-.4 1.8s-.7.9-1.1 1.2c-.4.3-1.1.4-1.7.4l-2.1-.1zm1.2-6.1v5.1h.8c.6 0 1.1-.2 1.5-.6s.5-1 .5-1.7v-.4c0-.8-.2-1.4-.5-1.8s-.8-.6-1.5-.6h-.8z" fill="#787878"/><path d="m22.2 6.1-4.9 4.1h-2.1c-.9 0-1.8.8-1.8 1.7V15c0 .9.8 1.7 1.8 1.7h2.1l4.8 4.1c.3.3.8 0 .8-.4V6.5c.1-.4-.4-.7-.7-.4zm3 12.1c-.3 0-.5-.1-.7-.3-.4-.4-.4-.9 0-1.3.9-.9 1.4-2.2 1.4-3.4 0-1.3-.5-2.6-1.4-3.4-.4-.4-.4-.9 0-1.3s.9-.4 1.3 0c1.2 1.3 1.9 2.9 1.9 4.7s-.7 3.5-1.9 4.7c-.1.2-.3.3-.6.3zm2.9 2.3c-.2 0-.5-.1-.7-.3-.4-.4-.4-.9-.1-1.3.7-.8 1.2-1.6 1.6-2.6s.7-2.1.7-3.2-.2-2.2-.7-3.2c-.4-.9-.9-1.8-1.6-2.6-.4-.3-.3-.9.1-1.3s.9-.3 1.3.1c.9.9 1.5 2 2 3.1.5 1.2.8 2.6.8 4 0 1.3-.3 2.7-.8 4-.5 1.1-1.1 2.2-2 3.1 0 .1-.3.2-.6.2z" fill="#1098f6"/></svg>