<svg xmlns="http://www.w3.org/2000/svg" width="96" height="64"><style>.st3{fill:none;stroke:#fff;stroke-miterlimit:10}</style><circle cx="48" cy="24" r="17.5" fill="#1098f6"/><path d="M36.1 54.2c0-.3-.1-.6-.3-.7-.2-.2-.6-.3-1.2-.5s-1-.4-1.4-.6c-.6-.4-1-.9-1-1.6 0-.6.2-1 .7-1.4s1.1-.6 1.8-.6c.5 0 .9.1 1.3.3.4.2.7.4.9.8.2.3.3.7.3 1.1H36c0-.4-.1-.7-.3-.9s-.6-.3-1-.3-.7.1-.9.3-.3.4-.3.7.1.5.4.6.6.3 1.2.5 1 .3 1.3.6c.3.2.6.5.7.7s.2.6.2 1c0 .6-.2 1.1-.7 1.4-.5.4-1.1.5-1.8.5-.5 0-1-.1-1.4-.3s-.8-.5-1-.8-.4-.7-.4-1.2h1.2c0 .4.1.7.4.9.3.2.6.3 1.1.3.4 0 .8-.1 1-.3.3 0 .4-.2.4-.5zm8-1.6c0 .7-.1 1.3-.4 1.8s-.6.9-1 1.2-1 .4-1.5.4c-.6 0-1.1-.1-1.5-.4-.5-.3-.8-.7-1-1.2s-.4-1.1-.4-1.8v-.4c0-.7.1-1.3.4-1.8.2-.5.6-.9 1-1.2s1-.4 1.5-.4 1.1.1 1.5.4c.4.3.8.7 1 1.2s.4 1.1.4 1.8v.4zm-1.2-.3c0-.8-.1-1.4-.4-1.8s-.7-.6-1.3-.6c-.5 0-1 .2-1.3.6-.3.4-.5 1-.5 1.8v.4c0 .8.2 1.4.5 1.8.3.4.7.6 1.3.6.5 0 1-.2 1.3-.6.3-.4.4-1 .4-1.8v-.4zm7.6-3.4v4.8c0 .8-.2 1.4-.7 1.8-.5.4-1.1.7-1.9.7-.8 0-1.5-.2-1.9-.7-.5-.4-.7-1-.7-1.8V49h1.2v4.7c0 .5.1.8.4 1.1s.6.4 1.1.4c1 0 1.4-.5 1.4-1.5V49l1.1-.1zm7 7.1h-1.2l-3.2-5v5h-1.2v-7.1h1.2l3.2 5.1v-5.1h1.2V56zm1.5 0v-7.1h2.1c.6 0 1.2.1 1.7.4.5.3.9.7 1.1 1.2.3.5.4 1.1.4 1.8v.4c0 .7-.1 1.3-.4 1.8-.3.5-.7.9-1.1 1.2-.6.2-1.2.3-1.8.3h-2zm1.2-6.1V55h.8c.6 0 1.1-.2 1.5-.6.3-.4.5-1 .5-1.7v-.4c0-.8-.2-1.4-.5-1.8s-.8-.6-1.5-.6h-.8z" fill="#787878"/><path d="M46.3 19.7 43.4 22h-4v4.8h4l2.9 2.3" fill="#fff"/><path class="st3" d="M52.3 33c2.6-2 4.3-5.1 4.3-8.6s-1.7-6.6-4.2-8.6"/><path class="st3" d="M50.3 18c2 1.4 3.4 3.8 3.4 6.4 0 2.7-1.4 5.1-3.4 6.5"/><path class="st3" d="M50.2 30.9c2.1-1.4 3.4-3.8 3.4-6.5s-1.3-5-3.4-6.4"/><path class="st3" d="M48 20.3c1.5.8 2.5 2.4 2.5 4.2 0 1.8-1.1 3.4-2.6 4.2"/><path class="st3" d="M48 28.6c1.5-.8 2.6-2.4 2.6-4.2s-1-3.4-2.5-4.2"/></svg>