<svg xmlns="http://www.w3.org/2000/svg" width="132" height="26"><path d="M127 25H5c-2.2 0-4-1.8-4-4V5c0-2.2 1.8-4 4-4h122c2.2 0 4 1.8 4 4v16c0 2.2-1.8 4-4 4z" fill="#fff"/><path d="M49.2 14.7c0-.3-.1-.6-.3-.7s-.6-.3-1.2-.5-1-.4-1.4-.6c-.6-.4-1-.9-1-1.6 0-.6.2-1 .7-1.4s1.1-.6 1.8-.6c.5 0 .9.1 1.3.3s.7.4.9.8.3.7.3 1.1h-1.2c0-.4-.1-.7-.3-.9s-.6-.3-1-.3-.7.1-.9.3-.3.4-.3.7.1.5.4.7.6.3 1.2.5 1 .4 1.3.6.6.5.7.7.2.6.2 1c0 .6-.2 1.1-.7 1.4-.5.3-1.1.5-1.8.5-.5 0-1-.1-1.4-.3s-.8-.5-1-.8-.4-.7-.4-1.2h1.2c0 .4.1.7.4.9s.6.3 1.1.3c.4 0 .8-.1 1-.3s.4-.3.4-.6zm3.6-.8v2.6h-1.2V9.4h2.7c.8 0 1.4.2 1.9.6.5.4.7 1 .7 1.6 0 .7-.2 1.2-.7 1.6s-1.1.6-1.9.6l-1.5.1zm0-1h1.5c.4 0 .8-.1 1-.3s.3-.5.3-.9-.1-.7-.4-.9-.6-.3-1-.4h-1.5v2.5h.1zm9.4.4h-2.9v2.2h3.4v1h-4.6V9.4h4.6v1h-3.4v2h2.9v.9zm7.1.9c-.1.8-.4 1.4-.8 1.8-.4.4-1.1.6-1.9.6-.6 0-1.1-.1-1.5-.4s-.8-.7-1-1.1c-.2-.4-.4-1.1-.4-1.7v-.7c0-.7.1-1.3.4-1.8s.6-.9 1-1.2 1-.4 1.5-.4c.8 0 1.4.2 1.9.6s.8 1 .8 1.8H68c-.1-.5-.2-.9-.4-1.1s-.6-.3-1.1-.3-.9.2-1.2.6-.4 1-.4 1.7v.6c0 .8.1 1.4.4 1.8.3.4.7.6 1.2.6s.8-.1 1.1-.3.4-.6.5-1.1h1.2zm2.5 2.3h-1.2V9.4h1.2v7.1zm5.7-1.7h-2.8l-.6 1.7h-1.3l2.7-7.1h1.1l2.7 7.1H78l-.5-1.7zm-2.5-1h2.1l-1-2.9-1.1 2.9zm6.5 1.7h3.2v1h-4.5V9.4h1.2v6.1h.1zM94 13.1c0 .7-.1 1.3-.4 1.8-.2.5-.6.9-1 1.2-.4.3-1 .4-1.5.4-.6 0-1.1-.1-1.5-.4-.5-.3-.8-.7-1-1.2s-.4-1.1-.4-1.8v-.4c0-.7.1-1.3.4-1.8.2-.5.6-.9 1-1.2s1-.4 1.5-.4c.6 0 1.1.1 1.5.4.4.3.8.7 1 1.2s.4 1.1.4 1.8v.4zm-1.2-.3c0-.8-.1-1.4-.4-1.8s-.7-.6-1.3-.6c-.5 0-1 .2-1.3.6-.3.4-.5 1-.5 1.8v.4c0 .8.2 1.4.5 1.8.3.4.7.6 1.3.6.5 0 1-.2 1.3-.6.3-.4.4-1 .4-1.8v-.4zm6.6.7h-2.9v3h-1.2V9.4h4.5v1h-3.3v2.1h2.9v1zm5.6 0h-2.9v3h-1.2V9.4h4.5v1h-3.3v2.1h2.9v1zm5.7-.2h-2.9v2.2h3.4v1h-4.6V9.4h4.6v1h-3.4v2h2.9v.9zm4.2.5h-1.4v2.7h-1.2V9.4h2.5c.8 0 1.5.2 1.9.6.4.4.7.9.7 1.6 0 .5-.1.9-.3 1.2s-.5.6-1 .7l1.6 3v.1h-1.3l-1.5-2.8zm-1.4-1h1.3c.4 0 .7-.1 1-.3s.4-.5.4-.9-.1-.7-.3-.9c-.2-.2-.5-.3-1-.3h-1.3l-.1 2.4z" fill="#787878"/><path d="M23.4 15.3c0-.4-.1-.6-.3-.9-.2-.2-.5-.4-1-.6-.5-.2-.9-.4-1.2-.5l-.9-.6c-.2-.2-.4-.5-.6-.8-.1-.3-.2-.7-.2-1.1 0-.7.2-1.3.7-1.8s1.1-.7 1.9-.8V6.8h1.1v1.4c.8.1 1.4.4 1.8 1 .4.5.7 1.2.7 2.1h-1.9c0-.5-.1-.9-.3-1.2-.2-.3-.5-.4-.9-.4s-.6.1-.8.3-.3.5-.3.8.1.6.3.8c.2.2.6.4 1.1.6.5.2 1 .4 1.3.6l.9.6c.2.2.4.5.5.8s.2.6.2 1c0 .7-.2 1.3-.7 1.8s-1.1.7-1.9.8v1.3h-1v-1.3c-.9-.1-1.6-.4-2.1-1-.5-.5-.7-1.3-.7-2.2H21c0 .5.1.9.4 1.2.3.3.6.4 1.1.4.4 0 .7-.1.9-.3-.1 0 0-.2 0-.6zM22.1 22c-5 0-9-4-9-9s4-9 9-9 9 4 9 9-4.1 9-9 9zm0-16c-3.9 0-7 3.1-7 7s3.1 7 7 7 7-3.1 7-7-3.2-7-7-7z" fill="#acacac"/></svg>