<svg width="48" height="30" viewBox="0 0 48 30" xmlns="http://www.w3.org/2000/svg"><g fill="none" fill-rule="evenodd"><g fill-rule="nonzero"><path d="M35.667 7.667l.133 2.4c.067.466-.267.933-.667 1.066-2.733.934-11.466 3.934-16.933 4.934-6.4 1.133-13.4-1.934-14.867-2.534 0 0 5.334-.066 9.867-.8 4.533-.733 20.533-4.4 22.467-5.066z" fill="#BFBFBF"/><path d="M.467 12.733c-.134-.466.333-.866 1.4-1.533 1.066-.667 4.066-2.733 7.2-5.933C12.2 2.067 13.067.533 13.2.4c.067-.067.267-.133.533-.2.4-.133.8-.133 1.2-.067a4.77 4.77 0 001.134.134c.466 0 .8-.067 1-.134a1.64 1.64 0 01.8 0c.6.134 2.733.934 4.733 1.134 1.733.2 6.067.333 7.2.4.2 0 .333.066.467.2.4.4 1.133 1.2 1.533 1.466.467.267 1.933.867 2.533 1.134.134.066.334.2.4.333.4.6 1.6 2.133 1.8 2.333.4.534-1.4.8-2.733 1.267-1.267.467-17.067 4.333-21.8 4.867-4.733.4-11.133.533-11.533-.534z" fill="#414141"/><path d="M18.8 1.6c-.933 1-1.933 2-3 2.867-1 .933-2.133 1.8-3.2 2.666C11.467 8 10.4 8.8 9.2 9.6c-1.133.8-2.333 1.467-3.6 2.133.533-.4 1.133-.8 1.667-1.266.533-.4 1.133-.8 1.666-1.267 1.134-.867 2.2-1.667 3.334-2.533 1.066-.867 2.2-1.734 3.266-2.534L18.8 1.6zM21.267 4a35.72 35.72 0 011.666 2.667c.267.466.534.866.8 1.333.267.467.467.933.667 1.4-.8-.733-1.4-1.6-1.933-2.533-.267-.467-.534-.934-.734-1.4-.2-.467-.4-.934-.466-1.467zm-.934-2.467C20.867 1.8 21.467 2 22 2.2c.6.2 1.133.333 1.733.467 1.2.266 2.4.533 3.6.733 1.2.2 2.4.4 3.6.533 1.2.2 2.4.334 3.667.534h-1.867c-.6 0-1.2-.067-1.866-.134-.6-.066-1.2-.133-1.867-.2-.6-.066-1.2-.2-1.8-.266-1.2-.2-2.4-.467-3.6-.867-1.067-.267-2.267-.667-3.267-1.467zM20 5c-.267.6-.733 1-1.133 1.467-.467.4-.934.8-1.534 1.066.267-.6.734-1 1.134-1.466.466-.4.933-.8 1.533-1.067zm14.733 3.067c-1.4.6-2.866 1.066-4.4 1.466-1.466.467-3 .8-4.466 1.2-1.534.334-3 .667-4.534.934l-2.266.4c-.734.133-1.534.2-2.267.333 1.467-.4 3-.733 4.467-1.133l4.466-1.067L30.2 9.133l4.533-1.066z" fill="#FFF"/></g><path d="M36.2 29.2c-3-1.6-13.4-7.067-16.8-9.067-.533-.333-.467-1 .067-1.266L34 11.533c.267-.133.6-.133.867-.066l1.066.4c.534.2 1.2.133 1.667-.2l1.6-1.134c.133-.133.333-.133.533-.066l6.467 2.066c.267.067.4.4.2.6l-1.4 1.4c-.333.334-.2.8.267 1l2.266.8c.4.134.6.667.267.934L37.667 28.933c-.4.4-1 .534-1.467.267z" fill="#BFBFBF" fill-rule="nonzero"/><path d="M36.133 28.4c-3-1.6-13.4-7.067-16.8-9.067-.533-.333-.466-1 .067-1.266L33.933 10.8a.989.989 0 01.867 0l1.067.4c.533.2 1.2.133 1.666-.2l1.6-1.133c.134-.134.334-.134.534-.067l6.466 2.067c.267.066.4.4.2.6l-1.4 1.4c-.333.333-.2.8.267 1l2.267.8c.4.133.6.666.266.933l-10.2 11.533c-.333.4-.933.534-1.4.267z" fill="#414141" fill-rule="nonzero"/><path fill="#BFBFBF" fill-rule="nonzero" d="M30.067 14.333l12.066 5.134 3.534-3.867-10.4-4.2z"/><path d="M30.133 17.333c.067.067 1.134-.066 1.267-.066-.067.733-.267.866.133 2.266.4-.4.734-1.8.6-2.333.467 0 1.334-.067 1.6-.133-.2.333-.933 1.533-1.133 2.4 1.133-.267 3.467-1.2 3.667-1.4.066.266.133.733.266 1-.866 0-3.266.733-4.4 1.133-.333.133-.333.267-.333.267.133.333.4 1.466.467 1.733 1.6-1.8 3.6-2.467 4.666-2.533 0 .066.134.333.267.666-.6.134-2 .467-2.867 1.2-1.266 1.067-1.533 1.667-1.6 2.4-.4.067-.533 0-1.133.067-.133-.533-.6-2.4-.667-2.733l-.933.8c-.067.066-.6.466-.533.866-.6-.333-.734-.4-1.334-.666.467-.067 1-.467 1.2-.534l1.6-1.2c-.066-.266-.333-1.4-.333-1.533-.4.4-2 1.6-4.2 2.133 0-.133.133-1 .133-1 .6-.133 1.867-.466 2.667-1 1.133-1 .867-1.466.933-1.8z" fill="#FFF"/><path d="M30.933 15.4a.505.505 0 01-.266-.133c-.134-.134-.067-.334.066-.4l5.334-3.334c.133-.066.333-.066.4.067.133.133.066.267-.067.4l-5.333 3.4c0-.067-.067 0-.134 0zm1.267.533a.505.505 0 01-.267-.133c-.133-.133-.066-.333.067-.4l5.267-3.333c.133-.067.333-.067.4.066.133.134.066.267-.067.4l-5.267 3.4c-.066-.066-.133 0-.133 0zm1.133.534a.505.505 0 01-.266-.134c-.134-.133-.067-.333.066-.4l5.267-3.4c.133-.066.333-.066.4.067.133.133.067.267-.067.4l-5.266 3.4c0 .067-.067.067-.134.067zm1.6.466a.505.505 0 01-.266-.133c-.134-.133-.067-.333.066-.4l5.067-3.533c.133-.067.333-.067.4.066.133.134.067.267-.067.4l-5.066 3.534c0 .066-.067.066-.134.066zm1.334.667a.505.505 0 01-.267-.133c-.133-.134-.067-.267.067-.4l5.066-3.667c.134-.067.334-.067.4.067.134.133.067.266-.066.4L36.4 17.533s-.067.067-.133.067zm1.4.6c-.067 0-.2-.067-.267-.067-.133-.133-.067-.266 0-.4l4.933-3.866c.134-.067.334-.067.4.066.134.134.134.267 0 .4L37.8 18.2h-.133zm1.466.733c-.066 0-.133 0-.2-.066-.133-.134-.133-.267 0-.4l4.667-4.2c.133-.134.333-.067.4 0 .133.133.133.266 0 .4l-4.667 4.2c-.066.066-.133.066-.2.066zm1.467.667c-.067 0-.133 0-.2-.067-.133-.133-.133-.266 0-.4l4.2-4.2c.133-.133.267-.133.4 0 .133.134.133.267 0 .4l-4.2 4.2c-.067 0-.133.067-.2.067z" fill="#414141" fill-rule="nonzero"/></g></svg>