<svg xmlns="http://www.w3.org/2000/svg" width="96" height="64"><style>.st0{fill:#4fb46c}.st2{fill:#fff}</style><circle class="st0" cx="48" cy="24" r="17.5"/><path d="M14 54.2c0-.3-.1-.6-.3-.7s-.6-.3-1.2-.5-1-.4-1.4-.6c-.6-.4-1-.9-1-1.6 0-.6.2-1 .7-1.4s1.1-.6 1.8-.6c.5 0 .9.1 1.3.3s.7.4.9.8c.2.3.3.7.3 1.1H14c0-.4-.1-.7-.3-.9s-.6-.3-1-.3-.7.1-.9.3-.3.4-.3.7.1.5.4.6c.2.2.6.3 1.2.5s1 .3 1.3.6c.3.2.6.5.7.7.2.3.2.6.2 1 0 .6-.2 1.1-.7 1.4-.5.4-1.1.5-1.8.5-.5 0-1-.1-1.4-.3s-.8-.5-1-.8-.4-.7-.4-1.2h1.2c0 .4.1.7.4.9s.6.3 1.1.3c.4 0 .8-.1 1-.3.2 0 .3-.2.3-.5zm3.6-.8V56h-1.2v-7.1h2.7c.8 0 1.4.2 1.9.6.5.4.7 1 .7 1.6 0 .7-.2 1.2-.7 1.6-.5.4-1.1.6-1.9.6h-1.5v.1zm0-1h1.5c.4 0 .8-.1 1-.3s.3-.5.3-.9-.1-.7-.4-.9c-.2-.2-.6-.3-1-.4h-1.5v2.5h.1zm9.3.4H24V55h3.4v1h-4.6v-7.1h4.6v1H24v2h2.9v.9zm6.9.9c-.1.8-.4 1.3-.8 1.8-.5.4-1.1.6-1.9.6-.6 0-1.1-.1-1.5-.4-.4-.3-.8-.7-1-1.1s-.4-1.1-.4-1.7v-.7c0-.7.1-1.3.4-1.8s.6-.9 1-1.2 1-.4 1.5-.4c.8 0 1.4.2 1.9.6.5.4.8 1 .8 1.8h-1.2c-.1-.5-.2-.9-.4-1.1-.2-.2-.6-.3-1.1-.3s-1 .2-1.2.6-.4 1-.4 1.7v.6c0 .8.1 1.4.4 1.8.3.4.7.6 1.2.6s.8-.1 1.1-.3c.3-.2.4-.6.5-1.1h1.1zm2.4 2.3H35v-7.1h1.2V56zm5.6-3H39v3h-1.2v-7.1h4.5v1H39V52h2.9l-.1 1zm2.7 3h-1.2v-7.1h1.2V56zm7-2.3c-.1.8-.4 1.3-.8 1.8-.5.4-1.1.6-1.9.6-.6 0-1.1-.1-1.5-.4-.4-.3-.8-.7-1-1.1s-.4-1.1-.4-1.7v-.7c0-.7.1-1.3.4-1.8.2-.5.6-.9 1-1.2s1-.4 1.5-.4c.8 0 1.4.2 1.9.6.5.4.8 1 .8 1.8h-1.2c-.1-.5-.2-.9-.4-1.1-.2-.2-.6-.3-1.1-.3s-1 .2-1.2.6-.4 1-.4 1.7v.6c0 .8.1 1.4.4 1.8.3.4.7.6 1.2.6s.8-.1 1.1-.3.4-.6.5-1.1h1.1zm5.1.7h-2.8l-.6 1.6h-1.3l2.7-7.1h1.1l2.7 7.1h-1.3l-.5-1.6zm-2.4-1h2.1l-1-2.9-1.1 2.9zm9.6-3.5h-2.2V56h-1.2v-6.1h-2.2v-1h5.6v1zM66 56h-1.2v-7.1H66V56zm7.2-3.4c0 .7-.1 1.3-.4 1.8-.2.5-.6.9-1 1.2s-1 .4-1.5.4c-.6 0-1.1-.1-1.5-.4-.5-.3-.8-.7-1-1.2s-.4-1.1-.4-1.8v-.4c0-.7.1-1.3.4-1.8.2-.5.6-.9 1-1.2s1-.4 1.5-.4 1.1.1 1.5.4c.4.3.8.7 1 1.2s.4 1.1.4 1.8v.4zm-1.2-.3c0-.8-.1-1.4-.4-1.8s-.7-.6-1.3-.6c-.5 0-1 .2-1.3.6-.3.4-.5 1-.5 1.8v.4c0 .8.2 1.4.5 1.8.3.4.7.6 1.3.6.5 0 1-.2 1.3-.6.3-.4.4-1 .4-1.8v-.4zm8.1 3.7h-1.2l-3.2-5v5h-1.2v-7.1h1.2l3.2 5.1v-5.1h1.2V56zm5.2-1.8c0-.3-.1-.6-.3-.7s-.6-.3-1.2-.5-1-.4-1.4-.6c-.6-.4-1-.9-1-1.6 0-.6.2-1 .7-1.4s1.1-.6 1.8-.6c.5 0 .9.1 1.3.3s.7.4.9.8c.2.3.3.7.3 1.1h-1.2c0-.4-.1-.7-.3-.9-.2-.2-.6-.3-1-.3s-.7.1-.9.3c-.2.2-.3.4-.3.7s.1.5.4.6c.2.2.6.3 1.2.5s1 .3 1.3.6c.3.2.6.5.7.7.2.3.2.6.2 1 0 .6-.2 1.1-.7 1.4-.5.4-1.1.5-1.8.5-.5 0-1-.1-1.4-.3s-.8-.5-1-.8-.4-.7-.4-1.2h1.2c0 .4.1.7.4.9s.6.3 1.1.3c.4 0 .8-.1 1-.3.3 0 .4-.2.4-.5z" fill="#787878"/><path class="st2" d="M51.6 12.4v-.1H39.7c-.4 0-.7.3-.7.7v21.4c0 .4.3.7.7.7h16.6c.4 0 .7-.3.7-.7V17.6h-5.4v-5.2z"/><path class="st2" d="M52.6 12.3v4.5H57"/><path class="st0" d="M40 21.2h.7v.7H40v-.7zm.7-.6h2v.7h-2v-.7zm0 1.3H42v.7h-1.3v-.7zm1.3.6h.7v.7H42v-.7zm-2 .7h2v.7h-2v-.7zm4-2h1.3v-.6h-1.9v4.6h.6v-1.3h1.3v-.7H44m1.3-2h.7v2h-.7v-2zm3.4.7h-1.4v-.7h-.6v2h.6v-.7h2v-1.3h-.6"/><path class="st0" d="M47.3 20.6h1.3v.7h-1.3v-.7zm0 2.6h2v.7h-2v-.7zm2.7-2h.7v2H50v-2zm.7 2h2v.7h-2v-.7zm0-2.6h2v.7h-2v-.7zm3.3 0h2v.7h-2v-.7zm-.7.6h.7v.7h-.7v-.7zm.7.7h1.3v.7H54v-.7zm1.3.6h.7v.7h-.7v-.7zm-2 .7h2v.7h-2v-.7zm-13.3 3h7.6v.7H40v-.7zm0 1.4h7.6v.7H40v-.7zm0 1.4h7.6v.7H40V29zm0 1.4h7.6v.7H40v-.7zm8.4-4.2H56v.7h-7.6v-.7zm0 1.4H56v.7h-7.6v-.7zm0 1.4H56v.7h-7.6V29zm0 1.4H56v.7h-7.6v-.7z"/></svg>