<svg xmlns="http://www.w3.org/2000/svg" width="132" height="26"><path d="M127 25H5c-2.2 0-4-1.8-4-4V5c0-2.2 1.8-4 4-4h122c2.2 0 4 1.8 4 4v16c0 2.2-1.8 4-4 4z" fill="#fff"/><path d="M45.5 14.7c0-.3-.1-.6-.3-.7s-.6-.3-1.2-.5-1-.4-1.4-.6c-.6-.4-1-.9-1-1.6 0-.6.2-1 .7-1.4s1.1-.6 1.8-.6c.5 0 .9.1 1.3.3.4.2.7.4.9.8.2.3.3.7.3 1.1h-1.2c0-.4-.1-.7-.3-.9s-.6-.3-1-.3-.7.1-.9.3-.3.4-.3.7.1.5.4.7c.2.2.6.3 1.2.5s1 .4 1.3.6c.3.2.6.5.7.7s.2.6.2 1c0 .6-.2 1.1-.7 1.4-.5.3-1.1.5-1.8.5-.5 0-1-.1-1.4-.3s-.8-.5-1-.8-.4-.7-.4-1.2h1.2c0 .4.1.7.4.9.3.2.6.3 1.1.3.4 0 .8-.1 1-.3.3-.1.4-.3.4-.6zm3.7-.8v2.6H48V9.4h2.7c.8 0 1.4.2 1.9.6.5.4.7 1 .7 1.6 0 .7-.2 1.2-.7 1.6-.5.4-1.1.6-1.9.6l-1.5.1zm0-1h1.5c.4 0 .8-.1 1-.3s.3-.5.3-.9-.1-.7-.4-.9-.6-.3-1-.4h-1.5v2.5h.1zm9.4.4h-2.9v2.2h3.4v1h-4.6V9.4H59v1h-3.4v2h2.9l.1.9zm7 .9c-.1.8-.4 1.4-.8 1.8-.4.4-1.1.6-1.9.6-.6 0-1.1-.1-1.5-.4-.4-.3-.8-.7-1-1.1S60 14 60 13.3v-.7c0-.7.1-1.3.4-1.8.2-.5.6-.9 1-1.2s1-.4 1.5-.4c.8 0 1.4.2 1.9.6.5.4.8 1 .8 1.8h-1.2c-.1-.5-.2-.9-.4-1.1-.2-.2-.6-.3-1.1-.3s-1 .2-1.2.6-.4 1-.4 1.7v.6c0 .8.1 1.4.4 1.8.3.4.7.6 1.2.6s.8-.1 1.1-.3c.3-.2.4-.6.5-1.1l1.1.1zm2.5 2.3h-1.2V9.4h1.2v7.1zm5.7-3H71v3h-1.2V9.4h4.5v1H71v2.1h2.9l-.1 1zm2.8 3h-1.2V9.4h1.2v7.1zm7.1-2.3c-.1.8-.4 1.4-.8 1.8-.4.4-1.1.6-1.9.6-.6 0-1.1-.1-1.5-.4-.4-.3-.8-.7-1-1.1S78 14 78 13.3v-.7c0-.7.1-1.3.4-1.8.2-.5.6-.9 1-1.2s1-.4 1.5-.4c.8 0 1.4.2 1.9.6s.8 1 .8 1.8h-1.2c-.1-.5-.2-.9-.4-1.1s-.6-.3-1.1-.3-1 .2-1.2.6-.4 1-.4 1.7v.6c0 .8.1 1.4.4 1.8.3.4.7.6 1.2.6s.8-.1 1.1-.3.4-.6.5-1.1l1.2.1zm5.2.6h-2.8l-.6 1.7h-1.3l2.7-7.1H88l2.7 7.1h-1.3l-.5-1.7zm-2.4-1h2.1l-1-2.9-1.1 2.9zm9.7-3.4H94v6.1h-1.2v-6.1h-2.2v-1h5.6v1zm2.3 6.1h-1.2V9.4h1.2v7.1zm7.3-3.4c0 .7-.1 1.3-.4 1.8-.2.5-.6.9-1 1.2-.4.3-1 .4-1.5.4-.6 0-1.1-.1-1.5-.4-.5-.3-.8-.7-1-1.2s-.4-1.1-.4-1.8v-.4c0-.7.1-1.3.4-1.8.2-.5.6-.9 1-1.2s1-.4 1.5-.4c.6 0 1.1.1 1.5.4.4.3.8.7 1 1.2s.4 1.1.4 1.8v.4zm-1.2-.3c0-.8-.1-1.4-.4-1.8s-.7-.6-1.3-.6c-.5 0-1 .2-1.3.6-.3.4-.5 1-.5 1.8v.4c0 .8.2 1.4.5 1.8.3.4.7.6 1.3.6.5 0 1-.2 1.3-.6.3-.4.4-1 .4-1.8v-.4zm8.2 3.7h-1.2l-3.2-5v5h-1.2V9.4h1.2l3.2 5.1V9.4h1.2v7.1zm5.3-1.8c0-.3-.1-.6-.3-.7s-.6-.3-1.2-.5-1-.4-1.4-.6c-.6-.4-1-.9-1-1.6 0-.6.2-1 .7-1.4s1.1-.6 1.8-.6c.5 0 .9.1 1.3.3s.7.4.9.8c.2.3.3.7.3 1.1H118c0-.4-.1-.7-.3-.9-.2-.2-.6-.3-1-.3s-.7.1-.9.3c-.2.2-.3.4-.3.7s.1.5.4.7c.2.2.6.3 1.2.5s1 .4 1.3.6c.3.2.6.5.7.7s.2.6.2 1c0 .6-.2 1.1-.7 1.4-.5.3-1.1.5-1.8.5-.5 0-1-.1-1.4-.3s-.8-.5-1-.8-.4-.7-.4-1.2h1.2c0 .4.1.7.4.9s.6.3 1.1.3c.4 0 .8-.1 1-.3.3-.1.4-.3.4-.6z" fill="#787878"/><path d="M29 8H15.2c-.3 0-.6-.3-.6-.6v-.8c0-.3.3-.6.6-.6H29c.3 0 .6.3.6.6v.7c0 .4-.3.7-.6.7zm0 4H15.2c-.3 0-.6-.3-.6-.6v-.8c0-.3.3-.6.6-.6H29c.3 0 .6.3.6.6v.7c0 .4-.3.7-.6.7zm0 4H15.2c-.3 0-.6-.3-.6-.6v-.7c0-.3.3-.6.6-.6H29c.3 0 .6.3.6.6v.7c0 .3-.3.6-.6.6zm0 4H15.2c-.3 0-.6-.3-.6-.6v-.7c0-.3.3-.6.6-.6H29c.3 0 .6.3.6.6v.7c0 .3-.3.6-.6.6z" fill="#4fb46c"/></svg>