<svg xmlns="http://www.w3.org/2000/svg" width="96" height="64"><circle cx="48" cy="24" r="17.5" fill="#acacac"/><path d="M16.7 54.2c0-.3-.1-.6-.3-.7s-.6-.3-1.2-.5-1-.4-1.4-.6c-.6-.4-1-.9-1-1.6 0-.6.2-1 .7-1.4s1.1-.6 1.8-.6c.5 0 .9.1 1.3.3s.7.4.9.8c.2.3.3.7.3 1.1h-1.2c0-.4-.1-.7-.3-.9-.2-.2-.6-.3-1-.3s-.7.1-.9.3-.3.4-.3.7.1.5.4.6c.2.2.6.3 1.2.5s1 .3 1.3.6c.3.2.6.5.7.7.2.3.2.6.2 1 0 .6-.2 1.1-.7 1.4-.5.4-1.1.5-1.8.5-.5 0-1-.1-1.4-.3s-.8-.5-1-.8-.4-.7-.4-1.2h1.2c0 .4.1.7.4.9s.6.3 1.1.3c.4 0 .8-.1 1-.3.3 0 .4-.2.4-.5zm3.6-.8V56h-1.2v-7.1h2.7c.8 0 1.4.2 1.9.6.5.4.7 1 .7 1.6 0 .7-.2 1.2-.7 1.6-.5.4-1.1.6-1.9.6h-1.5v.1zm0-1h1.5c.4 0 .8-.1 1-.3s.3-.5.3-.9-.1-.7-.4-.9c-.2-.2-.6-.3-1-.4h-1.5v2.5h.1zm9.3.4h-2.9V55h3.4v1h-4.6v-7.1h4.6v1h-3.4v2h2.9v.9zm6.9.9c-.1.8-.4 1.3-.8 1.8-.5.4-1.1.6-1.9.6-.6 0-1.1-.1-1.5-.4-.4-.3-.8-.7-1-1.1s-.4-1.1-.4-1.7v-.7c0-.7.1-1.3.4-1.8s.6-.9 1-1.2c.4-.3 1-.4 1.5-.4.8 0 1.4.2 1.9.6.5.4.8 1 .8 1.8h-1.2c-.1-.5-.2-.9-.4-1.1-.2-.2-.6-.3-1.1-.3s-1 .2-1.2.6-.4 1-.4 1.7v.6c0 .8.1 1.4.4 1.8.3.4.7.6 1.2.6s.8-.1 1.1-.3.4-.6.5-1.1h1.1zm2.4 2.3h-1.2v-7.1h1.2V56zm5.6-1.6h-2.8l-.5 1.6h-1.3l2.7-7.1h1.1l2.7 7.1h-1.3l-.6-1.6zm-2.4-1h2.1l-1-2.9-1.1 2.9zm6.3 1.6h3.2v1h-4.5v-7.1h1.2l.1 6.1zm12.4-2.4c0 .7-.1 1.3-.4 1.8-.2.5-.6.9-1 1.2s-1 .4-1.5.4c-.6 0-1.1-.1-1.5-.4-.4-.3-.8-.7-1-1.2s-.4-1.1-.4-1.8v-.4c0-.7.1-1.3.4-1.8s.6-.9 1-1.2 1-.4 1.5-.4c.6 0 1.1.1 1.5.4.4.3.8.7 1 1.2s.4 1.1.4 1.8v.4zm-1.3-.3c0-.8-.2-1.4-.4-1.8-.3-.4-.7-.6-1.3-.6-.5 0-1 .2-1.3.6-.3.4-.5 1-.5 1.8v.4c0 .8.2 1.4.5 1.8.3.4.7.6 1.3.6.5 0 1-.2 1.3-.6.3-.4.4-1 .4-1.8v-.4zm6.6.7h-2.9v3H62v-7.1h4.5v1h-3.3V52h2.9v1zm5.5 0h-2.9v3h-1.2v-7.1H72v1h-3.3V52h2.9v1zm5.5-.2h-2.9V55h3.4v1H73v-7.1h4.6v1h-3.4v2h2.9v.9zm4.1.5h-1.4V56h-1.2v-7.1h2.5c.8 0 1.5.2 1.9.6.4.4.7.9.7 1.6 0 .5-.1.9-.3 1.2-.2.3-.5.6-1 .7l1.6 3h-1.3l-1.5-2.7zm-1.3-1h1.3c.4 0 .7-.1 1-.3.2-.2.4-.5.4-.9s-.1-.7-.3-.9c-.2-.2-.5-.3-1-.3H80l-.1 2.4z" fill="#787878"/><path d="M46.4 34.9v-2.6c-3-.2-4.7-.9-4.7-1l-.2-.1v-2.6l.3.1s3.3.6 5.8.6 3-.7 3-1.9-.8-1.7-3.8-2.3c-3.3-.7-5.3-2.5-5.3-4.8 0-2.1 2.1-4 4.9-4.6v-2.6h3v2.5c2.4.2 4 .8 4.1.8l.2.1v2.4h-.3s-2.8-.4-5.2-.4-3 1.1-3 1.8 0 1.6 3.3 2.1c3.7.6 6.1 2.6 6.1 5.1s-2 4.4-5 4.9v2.7h-3.2v-.2z" fill="#fff"/></svg>