<svg xmlns="http://www.w3.org/2000/svg" width="96" height="64"><circle cx="48" cy="24" r="17.5" fill="#36bc9b"/><path d="M36.8 22.7h2v2h-2v-2zm0 4h2v2h-2v-2zm0-7.9h2v2h-2v-2zm0 11.8h2v2h-2v-2zm0-15.8h2v2h-2v-2zm12.7 7.3-3.9-3.3 3-2.5-1.2-1.6-4.9 4 4 3.4-4 3.4 3.9 3.3-3 2.5 1.3 1.6 4.8-4-3.9-3.4m11.8-7.4 2.1-2.2-1.5-1.4-2 2.1-2-2.1-1.5 1.3 2.1 2.2-2.1 2.2.8.8-.8.8 2.1 2.2-2.1 2.2.6.6-.6.6 2.1 2.2-2.1 2.2 1.4 1.4 2-2.1 2 2.1 1.4-1.4-2.1-2.2 2.1-2.2-.5-.4.6-.6-2.1-2.2 2.1-2.2-.8-.8.8-.8-2-2.3zm-.1 8.9L56 28.3 54.7 27l1.3-1.4 1.3 1.4zm-2.8-5.9 1.5-1.6 1.5 1.6-1.5 1.6-1.5-1.6z" fill="#fff"/><path d="M10.9 54.2c0-.3-.1-.6-.3-.7-.2-.2-.6-.3-1.2-.5s-1-.4-1.4-.6c-.6-.4-1-.9-1-1.6 0-.6.2-1 .7-1.4s1.1-.6 1.8-.6c.5 0 .9.1 1.3.3.4.2.7.4.9.8.2.3.3.7.3 1.1h-1.2c0-.4-.1-.7-.3-.9s-.6-.3-1-.3-.7.1-.9.3-.3.4-.3.7.1.5.4.7c.2.2.6.3 1.2.5s1 .3 1.3.6c.3.2.6.4.7.7.2.3.2.6.2 1 0 .6-.2 1.1-.7 1.4-.5.3-1.1.5-1.8.5-.5 0-1-.1-1.4-.3-.4-.2-.8-.5-1-.8s-.4-.7-.4-1.2H8c0 .4.1.7.4.9.3.2.7.3 1.1.3.4 0 .8-.1 1-.3s.4-.3.4-.6zm7.4-4.3h-2.2V56h-1.2v-6.1h-2.2v-1h5.6v1zm2.3 6.1h-1.2v-7.1h1.2V56zm6.5-6.1h-2.2V56h-1.2v-6.1h-2.2v-1h5.6v1zm6.2 3.8c-.1.8-.4 1.3-.8 1.8-.5.4-1.1.6-1.9.6-.6 0-1.1-.1-1.5-.4-.4-.3-.8-.7-1-1.1-.2-.5-.4-1.1-.4-1.7v-.7c0-.7.1-1.3.4-1.8.2-.5.6-.9 1-1.2s1-.4 1.5-.4c.8 0 1.4.2 1.9.6.5.4.8 1 .8 1.8h-1.2c-.1-.5-.2-.9-.4-1.1-.2-.2-.6-.3-1.1-.3s-.9.2-1.2.6c-.3.4-.4 1-.4 1.7v.6c0 .8.1 1.4.4 1.8.3.4.7.6 1.2.6s.8-.1 1.1-.3c.2-.2.4-.6.5-1.1h1.1zM40 56h-1.2v-3.2h-3.2V56h-1.2v-7.1h1.2v3h3.2v-3H40V56zm2.8 0h-1.2v-7.1h1.2V56zm7.2 0h-1.2l-3.2-5v5h-1.2v-7.1h1.2l3.2 5.1v-5.1H50V56zm6.9-.9c-.3.3-.6.6-1.1.8s-1 .3-1.6.3-1.1-.1-1.6-.4c-.5-.3-.8-.7-1.1-1.2-.2-.5-.4-1.1-.4-1.8v-.6c0-1.1.3-1.9.8-2.5s1.2-.9 2.2-.9c.8 0 1.4.2 1.9.6.5.4.7 1 .8 1.7h-1.2c-.1-.9-.6-1.3-1.5-1.3-.6 0-1 .2-1.3.6-.3.4-.4 1-.4 1.8v.5c0 .8.2 1.4.5 1.8.3.4.8.6 1.4.6.6 0 1.1-.1 1.3-.4v-1.4h-1.5v-.9h2.7l.1 2.7zm8.7-5.2h-2.2V56h-1.2v-6.1H60v-1h5.6v1zm3.3 2.4 1.6-3.4h1.4l-2.4 4.5V56h-1.2v-2.6l-2.4-4.5h1.4l1.6 3.4zm5 1.1V56h-1.2v-7.1h2.7c.8 0 1.4.2 1.9.6.5.4.7 1 .7 1.6 0 .7-.2 1.2-.7 1.6-.5.4-1.1.6-1.9.6h-1.5v.1zm0-1h1.5c.4 0 .8-.1 1-.3s.3-.5.3-.9-.1-.7-.4-.9c-.2-.2-.6-.3-1-.4h-1.5l.1 2.5zm9.3.4h-2.9V55h3.4v1h-4.6v-7.1h4.6v1h-3.4v2h2.9v.9zm5.2 1.4c0-.3-.1-.6-.3-.7-.2-.2-.6-.3-1.2-.5s-1-.4-1.4-.6c-.6-.4-1-.9-1-1.6 0-.6.2-1 .7-1.4s1.1-.6 1.8-.6c.5 0 .9.1 1.3.3s.7.4.9.8c.2.3.3.7.3 1.1h-1.2c0-.4-.1-.7-.3-.9-.2-.2-.6-.3-1-.3s-.7.1-.9.3-.3.4-.3.7.1.5.4.7c.2.2.6.3 1.2.5s1 .3 1.3.6c.3.2.6.4.7.7.2.3.2.6.2 1 0 .6-.2 1.1-.7 1.4-.5.3-1.1.5-1.8.5-.5 0-1-.1-1.4-.3s-.8-.5-1-.8-.4-.7-.4-1.2h1.2c0 .4.1.7.4.9s.7.3 1.1.3.8-.1 1-.3.4-.3.4-.6z" fill="#787878"/></svg>