<svg xmlns="http://www.w3.org/2000/svg" width="132" height="26"><path d="M127 25H5c-2.2 0-4-1.8-4-4V5c0-2.2 1.8-4 4-4h122c2.2 0 4 1.8 4 4v16c0 2.2-1.8 4-4 4z" fill="#fff"/><path d="M58.9 14.7c0-.3-.1-.6-.3-.7s-.6-.3-1.2-.5-1-.4-1.4-.6c-.6-.4-1-.9-1-1.6 0-.6.2-1 .7-1.4s1.1-.6 1.8-.6c.5 0 .9.1 1.3.3.4.2.7.4.9.8.2.3.3.7.3 1.1h-1.2c0-.4-.1-.7-.3-.9s-.6-.3-1-.3-.7.1-.9.3-.3.4-.3.7.1.5.4.7c.2.2.6.3 1.2.5s1 .4 1.3.6c.3.2.6.5.7.7s.2.6.2 1c0 .6-.2 1.1-.7 1.4-.5.3-1.1.5-1.8.5-.5 0-1-.1-1.4-.3s-.8-.5-1-.8-.4-.7-.4-1.2H56c0 .4.1.7.4.9.3.2.7.3 1.1.3.4 0 .8-.1 1-.3s.4-.3.4-.6zm7.6-4.3h-2.2v6.1h-1.2v-6.1h-2.2v-1h5.6v1zm2.3 6.1h-1.2V9.4h1.2v7.1zm6.6-6.1h-2.2v6.1H72v-6.1h-2.2v-1h5.6v1zm6.4 3.8c-.1.8-.4 1.4-.8 1.8s-1.1.6-1.9.6c-.6 0-1.1-.1-1.5-.4-.4-.3-.8-.7-1-1.1s-.4-1.1-.4-1.7v-.7c0-.7.1-1.3.4-1.8s.6-.9 1-1.2 1-.4 1.5-.4c.8 0 1.4.2 1.9.6s.8 1 .8 1.8h-1.2c-.1-.5-.2-.9-.4-1.1-.2-.2-.6-.3-1.1-.3s-.9.2-1.2.6c-.3.4-.4 1-.4 1.7v.6c0 .8.1 1.4.4 1.8.3.4.7.6 1.2.6s.8-.1 1.1-.3.4-.6.5-1.1h1.1zm6.8 2.3h-1.2v-3.2h-3.2v3.2H83V9.4h1.2v3h3.2v-3h1.2v7.1zm2.9 0h-1.2V9.4h1.2v7.1zm7.2 0h-1.2l-3.2-5v5h-1.2V9.4h1.2l3.2 5.1V9.4h1.2v7.1zm7-.9c-.3.3-.6.6-1.1.8-.5.2-1 .3-1.6.3s-1.1-.1-1.6-.4-.8-.7-1.1-1.2-.4-1.1-.4-1.8v-.6c0-1.1.3-1.9.8-2.5s1.2-.9 2.2-.9c.8 0 1.4.2 1.9.6.5.4.7 1 .8 1.7h-1.2c-.1-.9-.6-1.3-1.5-1.3-.6 0-1 .2-1.3.6s-.4 1-.4 1.8v.5c0 .8.2 1.4.5 1.8s.8.6 1.4.6 1.1-.1 1.3-.4v-1.4h-1.5v-.9h2.7l.1 2.7z" fill="#787878"/><path d="M15.3 9.2c-.6 0-1-.4-1-1v-2c0-.6.4-1 1-1s1 .4 1 1v2c0 .6-.5 1-1 1zm0 5.8c-.6 0-1-.4-1-1v-2c0-.6.4-1 1-1s1 .4 1 1v2c0 .6-.5 1-1 1zm0 5.8c-.6 0-1-.4-1-1v-2c0-.6.4-1 1-1s1 .4 1 1v2c0 .5-.5 1-1 1zm4.6 0c-.2 0-.5-.1-.7-.3-.4-.4-.4-1-.1-1.4l1.8-2-1.8-2.2c-.3-.4-.3-.9 0-1.3l1.8-2-1.8-2c-.4-.4-.3-1 0-1.4l2.4-2.6c.4-.4 1-.4 1.4-.1.4.4.4 1 0 1.4l-1.8 1.9 1.8 2c.3.4.3 1 0 1.3l-1.8 2.1 1.9 2.2c.3.4.3 1 0 1.3l-2.4 2.7c-.1.2-.4.4-.7.4zm8.7-13.6h-2.1c-.6 0-1-.4-1-1s.4-1 1-1h2.1c.6 0 1 .4 1 1s-.4 1-1 1zm0 4.6h-2.1c-.6 0-1-.4-1-1s.4-1 1-1h2.1c.6 0 1 .4 1 1s-.4 1-1 1zm0 4.4h-2.1c-.6 0-1-.4-1-1s.4-1 1-1h2.1c.6 0 1 .4 1 1s-.4 1-1 1zm.1 4.6h-2.1c-.6 0-1-.4-1-1s.4-1 1-1h2.1c.6 0 1 .4 1 1s-.4 1-1 1z" fill="#36bc9b"/></svg>