<svg xmlns="http://www.w3.org/2000/svg" width="132" height="26"><style>.st2{fill:#05a689}</style><path d="M127 25H5c-2.2 0-4-1.8-4-4V5c0-2.2 1.8-4 4-4h122c2.2 0 4 1.8 4 4v16c0 2.2-1.8 4-4 4z" fill="#fff"/><path d="M62.1 10.4h-2.2v6.1h-1.2v-6.1h-2.2v-1h5.6v1zm5.2 2.9h-2.9v2.2h3.4v1h-4.6V9.4h4.6v1h-3.4v2h2.9v.9zm7 .9c-.1.8-.4 1.4-.8 1.8-.4.4-1.1.6-1.9.6-.6 0-1.1-.1-1.5-.4s-.8-.7-1-1.1-.4-1.1-.4-1.7v-.7c0-.7.1-1.3.4-1.8s.6-.9 1-1.2 1-.4 1.5-.4c.8 0 1.4.2 1.9.6s.8 1 .8 1.8h-1.2c-.1-.5-.2-.9-.4-1.1s-.7-.3-1.1-.3c-.5 0-.9.2-1.2.6s-.4 1-.4 1.7v.6c0 .8.1 1.4.4 1.8.3.4.7.6 1.2.6s.8-.1 1.1-.3.4-.6.5-1.1h1.1zm6.8 2.3h-1.2v-3.2h-3.2v3.2h-1.2V9.4h1.2v3h3.2v-3h1.2v7.1zm5.5 0h-1.2V9.4h1.2v7.1zm7.3 0h-1.2l-3.2-5v5h-1.2V9.4h1.2l3.2 5.1V9.4h1.2v7.1zm5.6-3h-2.9v3h-1.2V9.4h4.5v1h-3.3v2.1h2.9v1zm7.2-.4c0 .7-.1 1.3-.4 1.8s-.6.9-1 1.2c-.4.3-1 .4-1.5.4-.6 0-1.1-.1-1.5-.4s-.8-.7-1-1.2-.4-1.1-.4-1.8v-.4c0-.7.1-1.3.4-1.8s.6-.9 1-1.2 1-.4 1.5-.4 1.1.1 1.5.4.8.7 1 1.2.4 1.1.4 1.8v.4zm-1.3-.3c0-.8-.1-1.4-.4-1.8s-.7-.6-1.3-.6c-.5 0-1 .2-1.3.6s-.5 1-.5 1.8v.4c0 .8.2 1.4.5 1.8s.7.6 1.3.6c.5 0 1-.2 1.3-.6s.4-1 .4-1.8v-.4z" fill="#787878"/><path class="st2" d="M28.7 7.1v-.9c0-.6-.5-1.1-1.1-1.1s-1.1.5-1.1 1.1v1.7l.2.3c2 2.4 2.6 4.8 1.9 7-.4 1.2-1.1 2.1-1.5 2.5H16.8c-1.2-1.3-1.9-2.7-1.9-4.2 0-2.6 2.1-4.7 2.2-4.7l.3-.3V6.2c0-.6-.5-1.1-1.1-1.1s-1.1.5-1.1 1.1v1.3c-.8.8-2.5 3-2.5 5.9 0 2.2.9 4.2 2.8 6.1l.2.2v1h1.5v-.9h.8v.9h1.5v-.9h.7v.9h1.5v-.9h.7v.9h1.5v-.9h.7v.9h1.5v-.9h.7v.9H28v-.9h.1l.3-.2c-.1-.1 6-5.3.3-12.5zM21.9 13c.6 0 1.1-.5 1.1-1.1V6.2c0-.6-.5-1.1-1.1-1.1s-1.1.5-1.1 1.1v5.6c0 .7.5 1.2 1.1 1.2z"/><circle class="st2" cx="21.9" cy="15.5" r="1.3"/></svg>