<svg xmlns="http://www.w3.org/2000/svg" width="132" height="26"><style>.st0{fill:#fff}</style><path class="st0" d="M127 25H5c-2.2 0-4-1.8-4-4V5c0-2.2 1.8-4 4-4h122c2.2 0 4 1.8 4 4v16c0 2.2-1.8 4-4 4z"/><path d="M62.1 10.4h-2.2v6.1h-1.2v-6.1h-2.2v-1h5.6v1zm5.2 2.9h-2.9v2.2h3.4v1h-4.6V9.4h4.6v1h-3.4v2h2.9v.9zm7 .9c-.1.8-.4 1.4-.8 1.8-.4.4-1.1.6-1.9.6-.6 0-1.1-.1-1.5-.4-.4-.3-.8-.7-1-1.1s-.4-1.1-.4-1.7v-.7c0-.7.1-1.3.4-1.8.2-.5.6-.9 1-1.2s1-.4 1.5-.4c.8 0 1.4.2 1.9.6s.8 1 .8 1.8h-1.2c-.1-.5-.2-.9-.4-1.1s-.7-.3-1.1-.3c-.5 0-.9.2-1.2.6s-.4 1-.4 1.7v.6c0 .8.1 1.4.4 1.8.3.4.7.6 1.2.6s.8-.1 1.1-.3.4-.6.5-1.1h1.1zm6.8 2.3h-1.2v-3.2h-3.2v3.2h-1.2V9.4h1.2v3h3.2v-3h1.2v7.1zm5.5 0h-1.2V9.4h1.2v7.1zm7.2 0h-1.2l-3.2-5v5h-1.2V9.4h1.2l3.2 5.1V9.4h1.2v7.1zm5.7-3h-2.9v3h-1.2V9.4h4.5v1h-3.3v2.1h2.9v1zm7.2-.4c0 .7-.1 1.3-.4 1.8-.2.5-.6.9-1 1.2-.4.3-1 .4-1.5.4-.6 0-1.1-.1-1.5-.4-.5-.3-.8-.7-1-1.2s-.4-1.1-.4-1.8v-.4c0-.7.1-1.3.4-1.8.2-.5.6-.9 1-1.2s1-.4 1.5-.4c.6 0 1.1.1 1.5.4.4.3.8.7 1 1.2s.4 1.1.4 1.8v.4zm-1.3-.3c0-.8-.1-1.4-.4-1.8s-.7-.6-1.3-.6c-.5 0-1 .2-1.3.6-.3.4-.5 1-.5 1.8v.4c0 .8.2 1.4.5 1.8.3.4.7.6 1.3.6.5 0 1-.2 1.3-.6.3-.4.4-1 .4-1.8v-.4z" fill="#787878"/><path d="M12.1 6.5v1.3c0 .3.3.6.6.6h1.1v6.4H13c-.5 0-.8.4-.8.8v3.7c0 .5.4.8.8.8h18c.5 0 .8-.4.8-.8v-3.7c0-.5-.4-.8-.8-.8h-.8V8.4h1.1c.3 0 .6-.3.6-.6V6.5c0-.3-.3-.6-.6-.6H12.7c-.3 0-.6.3-.6.6z" fill="#00aeef"/><path class="st0" d="M17 9.3h-1.3v5.5h-1.4c-.3 0-.5.2-.5.5V18c0 .2.2.4.4.4h15.6c.2 0 .4-.2.4-.4v-2.7c0-.3-.2-.5-.5-.5h-1.5V9.3H27v1.9H17V9.3z"/></svg>