<svg xmlns="http://www.w3.org/2000/svg" width="96" height="64"><style>.st1,.st3{fill:none;stroke:gray;stroke-width:.1;stroke-miterlimit:10}.st3{fill:#e6e6e6;stroke:#000}.st6,.st7{fill:none;stroke:gray}.st6{stroke-width:.1;stroke-miterlimit:10;stroke-dasharray:2.4533,2.4533}.st7{stroke-dasharray:1.8115,1.8115}.st20,.st7,.st8{stroke-width:.1;stroke-miterlimit:10}.st8{fill:none;stroke:gray;stroke-dasharray:2}.st20{fill:#fff;stroke:#000}</style><path d="M29 49.9h-2.2V56h-1.2v-6.1h-2.2v-1H29v1zm5.1 2.9h-2.9V55h3.4v1H30v-7.1h4.6v1h-3.4v2h2.9v.9zm6.9.9c-.1.8-.4 1.3-.8 1.8-.5.4-1.1.6-1.9.6-.6 0-1.1-.1-1.5-.4-.4-.3-.8-.7-1-1.1s-.4-1.1-.4-1.7v-.7c0-.7.1-1.3.4-1.8s.6-.9 1-1.2 1-.4 1.5-.4c.8 0 1.4.2 1.9.6.5.4.8 1 .8 1.8h-1.2c-.1-.5-.2-.9-.4-1.1-.2-.2-.6-.3-1.1-.3s-1 .2-1.2.6-.4 1-.4 1.7v.6c0 .8.1 1.4.4 1.8.3.4.7.6 1.2.6s.8-.1 1.1-.3.4-.6.5-1.1H41zm6.8 2.3h-1.2v-3.2h-3.2V56h-1.2v-7.1h1.2v3h3.2v-3h1.2V56zm5.2 0h-1.2v-7.1H53V56zm7.2 0H59l-3.2-5v5h-1.2v-7.1h1.2L59 54v-5.1h1.2V56zm5.5-3h-2.9v3h-1.2v-7.1h4.5v1h-3.3V52h2.9v1zm7.1-.4c0 .7-.1 1.3-.4 1.8-.2.5-.6.9-1 1.2s-1 .4-1.5.4c-.6 0-1.1-.1-1.5-.4-.5-.3-.8-.7-1-1.2s-.4-1.1-.4-1.8v-.4c0-.7.1-1.3.4-1.8.2-.5.6-.9 1-1.2s1-.4 1.5-.4 1.1.1 1.5.4c.4.3.8.7 1 1.2s.4 1.1.4 1.8v.4zm-1.2-.3c0-.8-.1-1.4-.4-1.8s-.7-.6-1.3-.6c-.5 0-1 .2-1.3.6-.3.4-.5 1-.5 1.8v.4c0 .8.2 1.4.5 1.8.3.4.7.6 1.3.6.5 0 1-.2 1.3-.6.3-.4.4-1 .4-1.8v-.4z" fill="#787878"/><path class="st1" d="M67.6 33.6h-1"/><path d="M64.5 33.6H32.4" fill="none" stroke="gray" stroke-width=".1" stroke-miterlimit="10" stroke-dasharray="2.0685,2.0685"/><path class="st1" d="M31.4 33.6h-1"/><path class="st3" d="M30.8 24.2h36.3"/><path class="st1" d="M66.2 22.4h-1"/><path d="M63.2 22.4h-6.9" fill="none" stroke="gray" stroke-width=".1" stroke-miterlimit="10" stroke-dasharray="1.9658,1.9658"/><path class="st1" d="M55.4 22.4h-1m-10.9 0h-1"/><path d="M40.6 22.4h-6.9" fill="none" stroke="gray" stroke-width=".1" stroke-miterlimit="10" stroke-dasharray="1.9553,1.9553"/><path class="st1" d="M32.8 22.4h-1m11.9.3v1"/><path class="st6" d="M43.7 26.1v3.7"/><path class="st1" d="M43.7 31v1m10.5-9.3v1"/><path class="st6" d="M54.2 26.1v3.7"/><path class="st1" d="M54.2 31v1m-9-9.3v1"/><path class="st7" d="M45.2 25.5v2.7"/><path class="st1" d="M45.2 29.1v1m8.1-7.4v1"/><path class="st7" d="M53.3 25.5v2.7"/><path class="st1" d="M53.3 29.1v1"/><path class="st8" d="M45.2 29.3h8.1m.9 2H43.7"/><path class="st1" d="M49 22.7v1"/><path d="M49 25.8v11.7" fill="none" stroke="gray" stroke-width=".1" stroke-miterlimit="10" stroke-dasharray="2.1356,2.1356"/><path class="st1" d="M49 38.6v1m-20.5-30v1"/><path d="M28.5 12.6v27.2" fill="none" stroke="gray" stroke-width=".1" stroke-miterlimit="10" stroke-dasharray="2.0139,2.0139"/><path class="st1" d="M28.5 40.8v1"/><path class="st8" d="M69.4 15V9.6m-40.9.7h40.9"/><path class="st1" d="M71.6 15h-1m-.2 0h-1"/><path class="st3" d="M71.6 34.8H28.8"/><path class="st8" d="M70.8 15v19.8"/><path d="M69.4 34.8v7.1" fill="#e6e6e6" stroke="gray" stroke-width=".1" stroke-miterlimit="10" stroke-dasharray="2"/><path class="st1" d="M69.4 41h-1"/><path d="M66.4 41H30.5" fill="none" stroke="gray" stroke-width=".1" stroke-miterlimit="10" stroke-dasharray="2.0501,2.0501"/><path class="st1" d="M29.5 41h-1m13.3-22.4h-1"/><path d="M39.2 18.6h-5.6" fill="none" stroke="gray" stroke-width=".1" stroke-miterlimit="10" stroke-dasharray="1.6097,1.6097"/><path class="st1" d="M32.8 18.6h-1l.6.7m1.2 1.3.6.8m-2.6-3.7h1"/><path d="M35 17.7h3.5" fill="none" stroke="gray" stroke-width=".1" stroke-miterlimit="10" stroke-dasharray="2.3535,2.3535"/><path class="st1" d="M39.7 17.7h1m15.2 1.1h1"/><path d="M58.6 18.8h5.7" fill="none" stroke="gray" stroke-width=".1" stroke-miterlimit="10" stroke-dasharray="1.6385,1.6385"/><path class="st1" d="M65.1 18.8h1m-9.3-.8h1"/><path d="M60.2 18H64" fill="none" stroke="gray" stroke-width=".1" stroke-miterlimit="10" stroke-dasharray="2.4913,2.4913"/><path class="st1" d="M65.2 18h1m.4.8h1m1.5 0h1m-3.2 3.7h1m1.2 0h1m-.9-3.7v1m0 1.7v1m-24-11.1v1m0 1.6v1m8.1-3.6v1m0 1.6v1"/><path d="M49 12.8V15" fill="none" stroke="#000" stroke-width=".1" stroke-miterlimit="10"/><path class="st8" d="m42.2 19.1-1.4 5.1"/><path class="st1" d="m44.6 10.5-.3.9m-.7 2.6-.3 1m-2.4 8.6s.3.1 1 .2"/><path d="M43.7 24.1c1.4.2 3.3.3 5.9.3h15.6" fill="none" stroke="gray" stroke-width=".1" stroke-miterlimit="10" stroke-dasharray="1.8689,1.8689"/><path class="st1" d="M66.1 24.5h1m-35.3-3.1s.4 0 1-.1m.1 0c.3-.1.6-.2.9-.4M28.5 34h-1m-2.1 0h-1m4.1.8h-1m-2.1 0h-1m.7-1.9v1m0 1v1M29.4 16h-1"/><path d="M27.4 16h-1.6" fill="none" stroke="gray" stroke-width=".1" stroke-miterlimit="10" stroke-dasharray="1.0285,1.0285"/><path class="st1" d="M25.3 16h-1m5-1h-1m-2.9 0h-1m.7-1.2v1m0 1.6v1m5.1-2.1v-1m0-2.4v-1M29.1 15v-1m0-2.1v-1m2.4.8h-1m-1.7 0h-1"/><path class="st3" d="M69.4 34.3c0-.4-.5-.5-.5-.5s-.9.1-.9-1-.4-8.8-.4-8.8l-1-2v-3.5s1.1-.4 1.3-.7.1-1.2.1-1.2 0-.6.8-.6.6-1 .6-1h-.8v.2h-1.3s-.1.4-.6.4-2.4-.6-6.1-.6H37.3c-3.6 0-5.6.6-6.1.6s-.5-.4-.6-.4h-1.3V15h-.8s-.1 1 .6 1 .8.6.8.6 0 .9.1 1.2 1.3.7 1.3.7V22l-1 2s-.4 7.7-.4 8.8-.9 1-.9 1-.5.1-.5.5-.1.5.1.5.3-.1.3-.4.5-.1 1-.4c.5-.2.5-.4.5-.7 0-.4.4-9.1.4-9.1s1-1.7 1-2v-3.5c0-.5-.1-.9-.1-.9 0-1.6 2.5-1.4 6-1s4.4 1.7 4.9 3.1 1.1 2.7 1.1 2.7h10.6s.6-1.4 1.1-2.7 1.4-2.7 4.9-3.1 6-.6 6 1c0 0-.1.4-.1.9v3.5c0 .2 1 2 1 2s.4 8.8.4 9.1c0 .4 0 .5.5.7s1 .1 1 .4 0 .4.3.4 0-.1 0-.5z"/><path class="st20" d="M51.2 15c-.6.1-2.1 1-2.1 1h-.8s-.6-1-1.5-1h-7.3s5.2 1 5.2 1.9.1 5.8.1 5.8h.8V18s.9 1 1 1h4.8l.9-.7v2.1s0 1 .5 1h1.1s.4 0 .4-1v-4.1c0-.4 2-.9 4.9-1.2l-8-.1z"/><path class="st20" d="M52.8 21.3h1.1v1.4h-1.1v-1.4z"/></svg>