<svg xmlns="http://www.w3.org/2000/svg" width="96" height="64"><style>.st1{fill:#fff}</style><circle cx="48" cy="24" r="17.5" fill="#06c4a2"/><path class="st1" d="M48 25.3c-.7 0-1.3-.6-1.3-1.3v-6.4c0-.7.6-1.3 1.3-1.3s1.3.6 1.3 1.3V24c0 .7-.6 1.3-1.3 1.3zm0 4.4c-.7 0-1.3-.6-1.3-1.3 0-.7.6-1.3 1.3-1.3s1.3.6 1.3 1.3c0 .7-.6 1.3-1.3 1.3z"/><path class="st1" d="M50.2 34v-1.2H49V34h-2.1v-1.2h-1.2V34c-.7-.1-1.4-.1-2.2-.1v-1.2h-1.2v1.2h-.9c-.5 0-.9 0-1.5-.1-.4 0-.4-.1-.5-.4-.1-.4-.3-.8-.4-1.2-.1-.4-.3-.9-.4-1.2 0-.1-.1-.3-.2-.3-1.5-2-2.3-4.4-2.1-7.1.1-1.4.6-2.8 1.5-4.4l.3-.6.3-.6c.5-.6.7-1.3.7-1.9 0-.2 0-.4.1-.6 0-.2.1-.5.1-.7 0-.5.2-.8.7-.8h1.6c.3 0 .5.2.5.5v.5c0 .6 0 1.3-.3 1.8-.1.1-.1.2-.2.3-.2.3-.4.7-.7.9-.3.3-.5.7-.8 1-.2.3-.5.6-.7 1-.5.6-.8 1.4-1 2.4-.5 3 .4 5.8 2.6 8.1.5.4.8.6 1.4.6h11.5c.1 0 .3 0 .6-.1 2.1-2 3.1-4.1 3.2-6.6 0-1.1-.1-2.2-.4-3.1-.2-.3-.3-.6-.5-.7-.8-1-1.6-2.1-2.3-3.1-.4-.6-.7-1.2-.7-1.9v-.8c0-.3.2-.6.6-.6H56c.2 0 .8.1.8.6 0 .4 0 .7.1 1 0 .3.1.6.1.8 0 .3.1.6.3.9.1.1.1.3.2.4 1.4 1.9 2.1 3.6 2.3 5.5.1 1.5 0 2.9-.5 4.1-.4 1.1-.9 2.1-1.6 3.2-.1.1-.1.2-.2.3 0 .1-.1.2-.1.2-.3.8-.6 1.6-.9 2.3-.1.3-.2.4-.6.4-.4 0-.8 0-1.2.1-.3 0-.7.1-1 .1v-1.2h-1.2V34h-2.3z"/><path d="M29 49.9h-2.2V56h-1.2v-6.1h-2.2v-1H29v1zm5.1 2.9h-2.9V55h3.4v1H30v-7.1h4.6v1h-3.4v2h2.9v.9zm6.9.9c-.1.8-.4 1.3-.8 1.8-.5.4-1.1.6-1.9.6-.6 0-1.1-.1-1.5-.4-.4-.3-.8-.7-1-1.1s-.4-1.1-.4-1.7v-.7c0-.7.1-1.3.4-1.8s.6-.9 1-1.2 1-.4 1.5-.4c.8 0 1.4.2 1.9.6.5.4.8 1 .8 1.8h-1.2c-.1-.5-.2-.9-.4-1.1-.2-.2-.6-.3-1.1-.3s-.9.2-1.2.6c-.3.4-.4 1-.4 1.7v.6c0 .8.1 1.4.4 1.8.3.4.7.6 1.2.6s.8-.1 1.1-.3.4-.6.5-1.1H41zm6.8 2.3h-1.2v-3.2h-3.2V56h-1.2v-7.1h1.2v3h3.2v-3h1.2V56zm5.2 0h-1.2v-7.1H53V56zm7.2 0H59l-3.2-5v5h-1.2v-7.1h1.2L59 54v-5.1h1.2V56zm5.5-3h-2.9v3h-1.2v-7.1h4.5v1h-3.3V52h2.9v1zm7.1-.4c0 .7-.1 1.3-.4 1.8-.2.5-.6.9-1 1.2s-1 .4-1.5.4c-.6 0-1.1-.1-1.5-.4-.5-.3-.8-.7-1-1.2s-.4-1.1-.4-1.8v-.4c0-.7.1-1.3.4-1.8.2-.5.6-.9 1-1.2s1-.4 1.5-.4 1.1.1 1.5.4c.4.3.8.7 1 1.2s.4 1.1.4 1.8v.4zm-1.2-.3c0-.8-.1-1.4-.4-1.8-.3-.4-.7-.6-1.3-.6-.5 0-1 .2-1.3.6-.3.4-.5 1-.5 1.8v.4c0 .8.2 1.4.5 1.8.3.4.7.6 1.3.6.5 0 1-.2 1.3-.6.3-.4.4-1 .4-1.8v-.4z" fill="#787878"/></svg>