<svg xmlns="http://www.w3.org/2000/svg" width="132" height="26"><style>.st0{fill:#fff}.st2{fill:#7a67b4}</style><path class="st0" d="M127 25H5c-2.2 0-4-1.8-4-4V5c0-2.2 1.8-4 4-4h122c2.2 0 4 1.8 4 4v16c0 2.2-1.8 4-4 4z"/><path d="M53.2 10.4H51v6.1h-1.2v-6.1h-2.2v-1h5.6v1zm2.4 6.1h-1.2V9.4h1.2v7.1zm4.2-2.7h-1.4v2.7h-1.2V9.4h2.5c.8 0 1.5.2 1.9.6s.7.9.7 1.6c0 .5-.1.9-.3 1.2s-.5.6-1 .7l1.6 3v.1h-1.3l-1.5-2.8zm-1.4-1h1.3c.4 0 .7-.1 1-.3s.3-.5.3-.9-.1-.7-.3-.9-.5-.3-1-.3h-1.3v2.4zm9.3.5h-2.9v2.2h3.4v1h-4.6V9.4h4.6v1h-3.4v2h2.9v.9zm7.9 1.4c0-.3-.1-.6-.3-.7s-.6-.3-1.2-.5-1-.4-1.4-.6c-.6-.4-1-.9-1-1.6 0-.6.2-1 .7-1.4s1.1-.6 1.8-.6c.5 0 .9.1 1.3.3s.7.4.9.8.3.7.3 1.1h-1.2c0-.4-.1-.7-.3-.9s-.6-.3-1-.3-.7.1-.9.3-.3.4-.3.7.1.5.4.7.6.3 1.2.5 1 .4 1.3.6.6.5.7.7.2.6.2 1c0 .6-.2 1.1-.7 1.4-.5.3-1.1.5-1.8.5-.5 0-1-.1-1.4-.3s-.8-.5-1-.8-.4-.7-.4-1.2h1.2c0 .4.1.7.4.9s.6.3 1.1.3c.4 0 .8-.1 1-.3s.4-.3.4-.6zm7.5-4.3h-2.2v6.1h-1.2v-6.1h-2.2v-1h5.6v1zm6.6 2.7c0 .7-.1 1.3-.4 1.8s-.6.9-1 1.2c-.4.3-1 .4-1.5.4-.6 0-1.1-.1-1.5-.4s-.8-.7-1-1.2-.4-1.1-.4-1.8v-.4c0-.7.1-1.3.4-1.8s.6-.9 1-1.2 1-.4 1.5-.4 1.1.1 1.5.4.8.7 1 1.2.4 1.1.4 1.8v.4zm-1.2-.3c0-.8-.1-1.4-.4-1.8s-.7-.6-1.3-.6c-.5 0-1 .2-1.3.6s-.5 1-.5 1.7v.4c0 .8.2 1.4.5 1.8s.7.6 1.3.6c.5 0 1-.2 1.3-.6s.4-1 .4-1.8v-.3zm5.1 1h-1.4v2.7H91V9.4h2.5c.8 0 1.5.2 1.9.6s.7.9.7 1.6c0 .5-.1.9-.3 1.2s-.5.6-1 .7l1.6 3v.1h-1.3l-1.5-2.8zm-1.3-1h1.3c.4 0 .7-.1 1-.3s.4-.5.4-.9-.1-.7-.3-.9-.5-.3-1-.3h-1.3l-.1 2.4zm9.1 2h-2.8l-.6 1.7h-1.3l2.7-7.1h1.1l2.7 7.1h-1.3l-.5-1.7zm-2.5-1h2.1l-1-2.9-1.1 2.9zm10.6 1.8c-.3.3-.6.6-1.1.8-.5.2-1 .3-1.6.3s-1.1-.1-1.6-.4-.8-.7-1.1-1.2-.4-1.1-.4-1.8v-.6c0-1.1.3-1.9.8-2.5s1.2-.9 2.2-.9c.8 0 1.4.2 1.9.6s.7 1 .8 1.7h-1.2c-.1-.9-.6-1.3-1.5-1.3-.6 0-1 .2-1.3.6s-.4 1-.4 1.8v.5c0 .8.2 1.4.5 1.8s.8.6 1.4.6 1.1-.1 1.3-.4v-1.4h-1.5v-.9h2.7l.1 2.7zm5.6-2.3h-2.9v2.2h3.4v1H111V9.4h4.6v1h-3.4v2h2.9v.9z" fill="#787878"/><path class="st2" d="M18.8 19.9c-4.2 0-7.5-3.4-7.5-7.5s3.4-7.5 7.5-7.5 7.5 3.4 7.5 7.5-3.3 7.5-7.5 7.5zm0-13.1c-3.1 0-5.5 2.5-5.5 5.5 0 3.1 2.5 5.5 5.5 5.5 3.1 0 5.5-2.5 5.5-5.5.1-3-2.4-5.5-5.5-5.5zm0 9.5c-2.2 0-4-1.8-4-4s1.8-4 4-4 4 1.8 4 4-1.7 4-4 4zm0-6c-1.1 0-2 .9-2 2s.9 2 2 2 2-.9 2-2-.8-2-2-2zm10.8 8.6h-2.1c-1.1 0-2.1-1-2.1-2.1V7.9c0-1.1 1-2.1 2.1-2.1h2.1c1.1 0 2.1 1 2.1 2.1v8.9c0 1.1-1 2.1-2.1 2.1zm0 1h-2.1c-1.7 0-3.1-1.4-3.1-3.1V7.9c0-1.7 1.4-3.1 3.1-3.1h2.1c1.7 0 3.1 1.4 3.1 3.1v8.9c0 1.7-1.5 3.1-3.1 3.1z"/><path class="st0" d="M27.5 6.8c-.6 0-1.1.5-1.1 1.1v8.9c0 .6.5 1.1 1.1 1.1h2.1c.6 0 1.1-.5 1.1-1.1V7.9c0-.6-.5-1.1-1.1-1.1h-2.1z"/><path class="st2" d="M27.5 6.4h2v11.9h-2V6.4z"/></svg>