<svg xmlns="http://www.w3.org/2000/svg" width="96" height="64"><style>.st3{fill:none;stroke:#fff;stroke-miterlimit:10}</style><path d="M0 0h96v64H0V0z" fill="#fff"/><circle cx="48" cy="24" r="17.5" fill="#7a67b4"/><path d="M20 50.9h-2.2V57h-1.2v-6.1h-2.2v-1H20v1zm2.3 6.1H21v-7.1h1.2l.1 7.1zm4.1-2.7H25V57h-1.2v-7.1h2.5c.8 0 1.5.2 1.9.6.4.4.7.9.7 1.6 0 .5-.1.9-.3 1.2-.2.3-.5.6-1 .7l1.6 3h-1.3l-1.5-2.7zm-1.4-1h1.3c.4 0 .7-.1 1-.3.2-.2.4-.5.4-.9s-.1-.7-.3-.9-.5-.3-1-.3H25v2.4zm9.2.5h-2.9V56h3.4v1H30v-7.1h4.6v1h-3.4v2h2.9v.9h.1zm7.7 1.4c0-.3-.1-.6-.3-.7s-.6-.3-1.2-.5-1-.4-1.4-.6c-.6-.4-1-.9-1-1.6 0-.6.2-1 .7-1.4s1.1-.6 1.8-.6c.5 0 .9.1 1.3.3s.7.4.9.8c.2.3.3.7.3 1.1h-1.2c0-.4-.1-.7-.3-.9s-.6-.3-1-.3-.7.1-.9.3-.3.4-.3.7.1.5.4.6.6.3 1.2.5 1 .3 1.3.6c.3.2.6.5.7.7.2.3.2.6.2 1 0 .6-.2 1.1-.7 1.4-.5.4-1.1.5-1.8.5-.5 0-1-.1-1.4-.3s-.8-.5-1-.8-.4-.7-.4-1.2H39c0 .4.1.7.4.9s.6.3 1.1.3c.4 0 .8-.1 1-.3.3 0 .4-.2.4-.5zm7.4-4.3h-2.2V57h-1.2v-6.1h-2.2v-1h5.6v1zm6.5 2.7c0 .7-.1 1.3-.4 1.8-.2.5-.6.9-1 1.2s-1 .4-1.5.4c-.6 0-1.1-.1-1.5-.4-.5-.3-.8-.7-1-1.2s-.4-1.1-.4-1.8v-.4c0-.7.1-1.3.4-1.8.2-.5.6-.9 1-1.2s1-.4 1.5-.4c.6 0 1.1.1 1.5.4.4.3.8.7 1 1.2s.4 1.1.4 1.8v.4zm-1.2-.3c0-.8-.1-1.4-.4-1.8-.3-.4-.7-.6-1.3-.6-.5 0-1 .2-1.3.6-.3.4-.5 1-.5 1.8v.4c0 .8.2 1.4.5 1.8.3.4.7.6 1.3.6.5 0 1-.2 1.3-.6.3-.4.4-1 .4-1.8v-.4zm5.1 1h-1.4V57H57v-7.1h2.5c.8 0 1.5.2 1.9.6.4.4.7.9.7 1.6 0 .5-.1.9-.3 1.2s-.5.6-1 .7l1.6 3h-1.3l-1.4-2.7zm-1.4-1h1.3c.4 0 .7-.1 1-.3.2-.2.4-.5.4-.9s-.1-.7-.3-.9-.5-.3-1-.3h-1.3v2.4h-.1zm9 2h-2.8l-.6 1.7h-1.3l2.7-7.1h1.1l2.7 7.1h-1.3l-.5-1.7zm-2.4-1H67l-1-2.9-1.1 2.9zm10.4 1.8c-.3.3-.6.6-1.1.8s-1 .3-1.6.3-1.1-.1-1.6-.4-.7-.8-1-1.3-.4-1.1-.4-1.8v-.6c0-1.1.3-1.9.8-2.5s1.2-.9 2.2-.9c.8 0 1.4.2 1.9.6.5.4.7 1 .8 1.7h-1.2c-.1-.9-.6-1.3-1.5-1.3-.6 0-1 .2-1.3.6-.3.4-.4 1-.4 1.8v.5c0 .8.2 1.4.5 1.8.3.4.8.6 1.3.6.6 0 1.1-.1 1.3-.4v-1.4h-1.5v-.9h2.7l.1 2.8zm5.5-2.3h-2.9V56h3.4v1h-4.6v-7.1h4.6v1h-3.4v2h2.9v.9z" fill="#787878"/><circle class="st3" cx="46" cy="24" r="8.2"/><circle class="st3" cx="46" cy="24" r="4.1"/><path d="M55.3 32.2h-3.9c-.8 0-1.5-.7-1.5-1.5V17.3c0-.8.7-1.5 1.5-1.5h3.9c.8 0 1.5.7 1.5 1.5v13.3c0 .9-.7 1.6-1.5 1.6z" fill="#7a67b4" stroke="#fff" stroke-miterlimit="10"/><path class="st3" d="M52.2 15.8V32m2.3-16.2V32"/></svg>