<svg xmlns="http://www.w3.org/2000/svg" xml:space="preserve" viewBox="0 0 178 22"><path d="M9.72 7.51H1.7V3.06h21.51v4.45H15.2v13.55H9.72V7.51zM26.7 3.06h15.52c3.19 0 4.59.27 5.61 1.13 1.05.84 1.54 2.38 1.54 4.8 0 3.35-.81 4.67-3.1 5.18 2.24.38 2.92 1.32 2.86 4.05v2.83h-5.56v-2.24c-.03-1.94-.57-2.35-3.02-2.29h-8.4v4.54H26.7v-18zm14.01 9.07c2.65 0 3.16-.32 3.16-2.11 0-1.16-.11-1.65-.46-2.02-.41-.43-.86-.52-2.51-.52h-8.75v4.64h8.56zm18.42-9.07v8.91c0 1.97 0 2.02.08 2.51.27 2.02 1.16 2.43 5.26 2.43s5.24-.11 5.91-.62c.54-.41.81-1.19.84-2.56.03-.41.03-.41.03-2.4V3.06h5.48v9.45c.05 4.45-.32 5.78-1.92 7.21-1.3 1-2.92 1.43-5.26 1.46-.84.03-1.32.03-2.4.03l-2.05.03c-5.07-.03-6.07-.08-7.4-.43-3.27-1-4.13-2.7-4.05-8.04V3.06h5.48zm44.68 11.23c-.03 2.62-.11 3.51-.49 4.32-.7 1.54-2.16 2.27-4.97 2.46-1.11.11-3.27.13-6.86.13-5.18 0-6.86-.24-8.31-1.19-1.78-1.13-2.29-3.02-2.29-8.37 0-4.75.54-6.45 2.43-7.53 1.62-.95 3.35-1.19 8.39-1.19 6.72 0 8.18.13 9.72.89 1.46.73 2.13 2.32 2.13 4.97v.59h-5.24c-.11-1.97-.51-2.13-5.26-2.13-4.48 0-5.29.11-5.97.7-.65.59-.78 1.32-.78 4.24 0 4.32.4 4.64 5.67 4.64 4.08 0 4.67-.03 5.43-.35.78-.32 1.08-.89 1.08-2.19h5.32zM108 3.06h5.48v6.72h2.86l7.45-6.72h7.53l-10.34 8.91 11.34 9.1h-7.96l-8.12-6.91h-2.75v6.91H108V3.06zm27.08 0h4.64v3.37h-4.64V3.06zm0 5.4h4.64v12.61h-4.64V8.46zm8.99-5.4h15.55c3.81 0 5.59.43 6.83 1.67 1 .97 1.4 2.11 1.59 4.4.05.84.11 2.08.11 2.94 0 1.62-.11 3.48-.27 4.51-.3 2.16-1.81 3.83-3.78 4.21-1.03.22-1.83.27-3.75.27h-16.28v-18zm14.66 13.71c1.48 0 1.59 0 2.24-.22 1.32-.41 1.67-1.35 1.67-4.45 0-3.78-.65-4.56-3.81-4.56h-9.29v9.23h9.19zm12.22-12.83c0-.63.14-1.21.43-1.74s.69-.96 1.2-1.27 1.07-.46 1.66-.46c.59 0 1.15.15 1.66.46.51.31.91.73 1.2 1.27s.43 1.12.43 1.74c0 .61-.14 1.18-.42 1.71s-.67.96-1.19 1.28-1.08.49-1.69.49c-.61 0-1.17-.16-1.68-.48s-.91-.75-1.19-1.28-.41-1.1-.41-1.72zm.54 0c0 .53.12 1.02.37 1.48.25.45.58.81 1.01 1.06.43.26.89.39 1.38.39.5 0 .96-.13 1.39-.39.43-.26.76-.62 1.01-1.06.24-.45.36-.94.36-1.47s-.12-1.02-.36-1.46c-.24-.45-.58-.8-1.01-1.06a2.63 2.63 0 0 0-1.39-.39c-.5 0-.96.13-1.38.38-.43.26-.76.61-1.01 1.06-.25.45-.37.94-.37 1.46zm2.08.35v1.57h-.65V1.92h1.28c.47 0 .84.1 1.1.3s.39.5.39.88-.2.67-.59.87c.38.15.57.47.57.95v.28c0 .27.03.46.08.58v.07h-.67c-.04-.11-.07-.31-.07-.6s0-.46-.01-.51c-.05-.3-.25-.45-.61-.46h-.82zm0-.59h.72c.22-.01.4-.06.54-.16s.2-.24.2-.4c0-.23-.06-.38-.18-.48-.12-.09-.34-.14-.65-.14h-.64V3.7z" fill="#444445"/></svg>