<svg xmlns="http://www.w3.org/2000/svg" width="132" height="26"><style>.st0{fill:#fff}</style><path class="st0" d="M127 25H5c-2.2 0-4-1.8-4-4V5c0-2.2 1.8-4 4-4h122c2.2 0 4 1.8 4 4v16c0 2.2-1.8 4-4 4z"/><path d="m64.6 14.7 1.1-5.4H67l-1.6 7.1h-1.2l-1.4-5.2-1.4 5.2h-1.2l-1.6-7.1h1.2l1.1 5.3 1.4-5.3h1l1.3 5.4zm7.1.1H69l-.6 1.7h-1.3l2.7-7.1h1.1l2.7 7.1h-1.3l-.6-1.7zm-2.4-1h2.1l-1-2.9-1.1 2.9zm7.8 0h-1.4v2.7h-1.2V9.4H77c.8 0 1.5.2 1.9.6s.7.9.7 1.6c0 .5-.1.9-.3 1.2s-.5.6-1 .7l1.6 3v.1h-1.3l-1.5-2.8zm-1.4-1H77c.4 0 .7-.1 1-.3s.4-.5.4-.9-.1-.7-.3-.9-.5-.3-1-.3h-1.3l-.1 2.4zm10.8 3.7h-1.2l-3.2-5v5h-1.2V9.4h1.2l3.2 5.1V9.4h1.2v7.1zm2.8 0h-1.2V9.4h1.2v7.1zm7.3 0h-1.2l-3.2-5v5H91V9.4h1.2l3.2 5.1V9.4h1.2v7.1zm7-.9c-.3.3-.6.6-1.1.8-.5.2-1 .3-1.6.3s-1.1-.1-1.6-.4-.8-.7-1.1-1.2-.2-1.2-.2-1.8v-.6c0-1.1.3-1.9.8-2.5s1.2-.9 2.2-.9c.8 0 1.4.2 1.9.6s.7 1 .8 1.7h-1.2c-.1-.9-.6-1.3-1.5-1.3-.6 0-1 .2-1.3.6s-.4 1-.4 1.8v.5c0 .8.2 1.4.5 1.8s.8.6 1.4.6 1.1-.1 1.3-.4v-1.4H101v-.9h2.7l-.1 2.7z" fill="#787878"/><path d="m21.1 4.7-7.9 14.5c-.5.8.1 1.8 1 1.8h15.9c.9 0 1.5-1 1.1-1.8l-8-14.5c-.5-.8-1.7-.8-2.1 0z" fill="#f2630d"/><path class="st0" d="M20.8 18.7c0-.3.1-.6.4-.8.2-.2.6-.3.9-.3.4 0 .7.1.9.3s.4.5.4.8-.1.6-.4.8c-.2.2-.6.3-.9.3-.4 0-.7-.1-.9-.3-.3-.2-.4-.5-.4-.8zm2.3-2.8h-1.9L20.9 9h2.5l-.3 6.9z"/></svg>