<svg xmlns="http://www.w3.org/2000/svg" width="96" height="64"><style>.st3{fill:#010101}</style><path d="m31.6 55.1 1.1-5.4H34l-1.6 7.1h-1.2l-1.4-5.2-1.4 5.2h-1.2l-1.6-7.1h1.2l1.1 5.3 1.4-5.3h1l1.3 5.4zm7 .1h-2.8l-.6 1.7H34l2.7-7.1h1.1l2.7 7.1h-1.3l-.6-1.7zm-2.4-1h2.1l-1-2.9-1.1 2.9zm7.7-.1h-1.4v2.7h-1.2v-7.1h2.5c.8 0 1.5.2 1.9.6.4.4.7.9.7 1.6 0 .5-.1.9-.3 1.2s-.5.6-1 .7l1.6 3v.1h-1.3l-1.5-2.8zm-1.4-1h1.3c.4 0 .7-.1 1-.3.2-.2.4-.5.4-.9s-.1-.7-.3-.9-.5-.3-1-.3h-1.3v2.4h-.1zm10.7 3.7H52l-3.2-5v5h-1.2v-7.1h1.2l3.2 5.1v-5.1h1.2v7.1zm2.8 0h-1.2v-7.1H56v7.1zm7.1 0h-1.2l-3.2-5v5h-1.2v-7.1h1.2l3.2 5.1v-5.1h1.2v7.1zm6.9-.9c-.3.3-.6.6-1.1.8s-1 .3-1.6.3-1.1-.1-1.6-.4-.8-.7-1.1-1.2c-.2-.5-.4-1.1-.4-1.8V53c0-1.1.3-1.9.8-2.5s1.2-.9 2.2-.9c.8 0 1.4.2 1.9.6.5.4.7 1 .8 1.7h-1.2c-.1-.9-.6-1.3-1.5-1.3-.6 0-1 .2-1.3.6-.3.4-.4 1-.4 1.8v.5c0 .8.2 1.4.5 1.8.3.4.8.6 1.3.6.6 0 1.1-.1 1.3-.4v-1.4h-1.5v-.9H70v2.7z" fill="#787878"/><path d="M46.2 5.3 27.6 37.5c-.8 1.4.2 3.1 1.8 3.1h37.1c1.6 0 2.6-1.7 1.8-3.1L49.8 5.3c-.8-1.4-2.8-1.4-3.6 0z" fill="#f6d100"/><path d="M31.2 37.5 48 8.4l16.8 29.1H31.2z" fill="none" stroke="#010101" stroke-width="2" stroke-linecap="round" stroke-linejoin="round" stroke-miterlimit="10"/><path class="st3" d="M48 29.9c-.5 0-.9-.4-.9-.9l-1-10.5c-.1-1.2.8-2.2 2-2.2s2.1 1 2 2.2l-1 10.5c-.2.5-.6.9-1.1.9z"/><circle class="st3" cx="48" cy="32.7" r="1.6"/></svg>