<svg xmlns="http://www.w3.org/2000/svg" width="96" height="64"><style>.st2{fill:none;stroke:#fff;stroke-width:2;stroke-miterlimit:10}</style><circle cx="48" cy="24" r="17.5" fill="#69cf5c"/><path d="m27.7 54.3 1.1-5.4H30L28.4 56h-1.2l-1.4-5.2-1.3 5.2h-1.2l-1.6-7.1h1.2l1.1 5.3 1.4-5.3h1l1.3 5.4zm7 .1H32l-.6 1.6h-1.3l2.7-7.1h1.1l2.7 7.1h-1.3l-.6-1.6zm-2.4-1h2.1l-1-2.9-1.1 2.9zm7.7-.1h-1.4V56h-1.2v-7.1h2.5c.8 0 1.5.2 1.9.6.4.4.7.9.7 1.6 0 .5-.1.9-.3 1.2s-.5.6-1 .7l1.6 3h-1.3L40 53.3zm-1.4-1h1.3c.4 0 .7-.1 1-.3.2-.2.4-.5.4-.9s-.1-.7-.3-.9-.5-.3-1-.3h-1.3v2.4h-.1zm7.7 1h-1.4V56h-1.2v-7.1h2.5c.8 0 1.5.2 1.9.6.4.4.7.9.7 1.6 0 .5-.1.9-.3 1.2s-.5.6-1 .7l1.6 3h-1.3l-1.5-2.7zm-1.4-1h1.3c.4 0 .7-.1 1-.3.2-.2.4-.5.4-.9s-.1-.7-.3-.9-.5-.3-1-.3H45v2.4h-.1zm9 2.1h-2.8l-.6 1.6h-1.3l2.7-7.1H53l2.7 7.1h-1.3l-.5-1.6zm-2.4-1h2.1l-1-2.9-1.1 2.9zM62.2 56H61l-3.2-5v5h-1.2v-7.1h1.2L61 54v-5.1h1.2V56zm6.4-6.1h-2.2V56h-1.2v-6.1H63v-1h5.6v1zm3.4 2.4 1.6-3.4H75l-2.4 4.5V56h-1.2v-2.6L69 48.9h1.4l1.6 3.4z" fill="#787878"/><path class="st2" d="M56.4 17.4 48 14.6l-8.4 2.7S37.7 31 48 35.1c10.4-4 8.4-17.7 8.4-17.7z"/><path class="st2" d="m45.1 23.9 2.9 2.4 3.9-4.1"/></svg>