<svg xmlns="http://www.w3.org/2000/svg" width="132" height="26"><style>.st0{fill:#fff}</style><path class="st0" d="M127 25H5c-2.2 0-4-1.8-4-4V5c0-2.2 1.8-4 4-4h122c2.2 0 4 1.8 4 4v16c0 2.2-1.8 4-4 4z"/><path d="m60.4 14.7 1.1-5.4h1.2l-1.6 7.1h-1.2l-1.4-5.2-1.4 5.2H56l-1.6-7.1h1.2l1.1 5.3 1.4-5.3h1l1.3 5.4zm7.1.1h-2.8l-.6 1.7h-1.3l2.7-7.1h1.1l2.7 7.1H68l-.5-1.7zm-2.4-1h2.1l-1-2.9-1.1 2.9zm7.8 0h-1.4v2.7h-1.2V9.4h2.5c.8 0 1.5.2 1.9.6.4.4.7.9.7 1.6 0 .5-.1.9-.3 1.2s-.5.6-1 .7l1.6 3v.1h-1.3l-1.5-2.8zm-1.4-1h1.3c.4 0 .7-.1 1-.3s.4-.5.4-.9-.1-.7-.3-.9c-.2-.2-.5-.3-1-.3h-1.3l-.1 2.4zm7.7 1h-1.4v2.7h-1.2V9.4h2.5c.8 0 1.5.2 1.9.6.4.4.7.9.7 1.6 0 .5-.1.9-.3 1.2s-.5.6-1 .7l1.6 3v.1h-1.3l-1.5-2.8zm-1.3-1h1.3c.4 0 .7-.1 1-.3s.4-.5.4-.9-.1-.7-.3-.9c-.2-.2-.5-.3-1-.3H78l-.1 2.4zm9.1 2h-2.8l-.6 1.7h-1.3L85 9.4h1.1l2.7 7.1h-1.3l-.5-1.7zm-2.5-1h2.1l-1-2.9-1.1 2.9zm10.9 2.7h-1.2l-3.2-5v5h-1.2V9.4H91l3.2 5.1V9.4h1.2v7.1zm6.5-6.1h-2.2v6.1h-1.2v-6.1h-2.2v-1h5.6v1zm3.5 2.4 1.6-3.4h1.4l-2.4 4.5v2.6h-1.2v-2.6l-2.4-4.5h1.4l1.6 3.4z" fill="#787878"/><path d="m22.3 4.1-6.8 2.5c-.3.2-.5.4-.5.7V13c0 4.3 5.7 7.9 7.1 8.8.2.1.5.1.7 0C24.3 21 30 17.3 30 13V7.3c0-.3-.2-.5-.4-.6l-6.8-2.5c-.2-.1-.4-.1-.5-.1z" fill="#69cf5c"/><path class="st0" d="M21.7 16.7c-.2 0-.5-.1-.7-.3l-3-2.9c-.4-.4-.4-1 0-1.4s1-.4 1.4 0l2.3 2.2 4.6-4.7c.4-.4 1-.4 1.4 0s.4 1 0 1.4l-5.3 5.4c-.1.2-.4.3-.7.3z"/></svg>