<svg xmlns="http://www.w3.org/2000/svg" width="128" height="51"><path d="M8.4 46.6c-1.6 0-2.4-.8-2.4-2.1 0-2.4 2.7-3.2 7.5-3.7 0 3.3-2.1 5.8-5.1 5.8m2.1-17.9C7 28.7 3 30.3.9 32.1l2 4.2c1.7-1.6 4.6-3 7.1-3 2.4 0 3.7.8 3.7 2.4 0 1.1-.9 1.6-2.5 1.9C5 38.4.1 40.1.1 44.9.1 48.7 2.8 51 7 51c3 0 5.7-1.7 7-3.9v3.3h5.6V36.7c0-5.7-4-8-9.1-8m56.5.7v21.1h6V40.3c0-4.8 2.9-6.2 5-6.2.8 0 1.9.2 2.6.8l1.1-5.6c-.9-.4-1.9-.5-2.7-.5-3.1 0-5 1.4-6.3 4.2v-3.5l-5.7-.1zm42.6-.7c-3.2 0-5.6 1.9-6.8 3.7-1.2-2.3-3.6-3.7-6.5-3.7-3.2 0-5.4 1.8-6.4 3.8v-3.2h-5.8v21.1h6V39.6c0-3.9 2-5.8 3.9-5.8 1.7 0 3.3 1.1 3.3 4v12.6h6V39.6c0-3.9 2-5.8 4-5.8 1.6 0 3.3 1.2 3.3 3.9v12.7h6V35.9c.1-4.8-3.1-7.2-7-7.2m-57.2.7h-5.5v-2.1c0-2.8 1.6-3.6 3-3.6 1.5 0 2.7.7 2.7.7l1.9-4.2S52.6 19 49.2 19c-3.9 0-8.2 2.2-8.2 9v1.5h-9.1v-2.1c0-2.8 1.6-3.6 3-3.6.8 0 1.8.2 2.7.7l1.9-4.2c-1.1-.7-2.9-1.2-5.3-1.2-3.9 0-8.2 2.2-8.2 9v1.5h-3.5V34H26v16.4h6V34h9.1v16.4h6V34h5.5v-4.6h-.2zm3.5 21H62v-21h-6.1v21z" fill-rule="evenodd" clip-rule="evenodd" fill="#060809"/><path d="M91 0C74.7 0 60.2 11.3 56.1 25.8H62C65.5 15 77.2 5.5 91 5.5c16.9 0 31.4 12.8 31.4 32.8 0 4.5-.6 8.5-1.7 12.1h5.7l.1-.2c.9-3.7 1.4-7.7 1.4-11.9C128 16 111.8 0 91 0" fill-rule="evenodd" clip-rule="evenodd" fill="#0fa0ea"/></svg>