<svg xmlns="http://www.w3.org/2000/svg" width="132" height="26"><style>.st2{fill:#1c5c77}</style><path d="M127 25H5c-2.2 0-4-1.8-4-4V5c0-2.2 1.8-4 4-4h122c2.2 0 4 1.8 4 4v16c0 2.2-1.8 4-4 4z" fill="#fff"/><path d="M54.2 14.9h-2.8l-.6 1.7h-1.3l2.7-7.1h1.1l2.7 7.1h-1.3l-.5-1.7zm-2.4-1h2.1l-1-2.9-1.1 2.9zm10.3-4.5v4.8c0 .8-.2 1.4-.7 1.8-.5.4-1.1.7-1.9.7-.8 0-1.5-.2-1.9-.7-.5-.4-.7-1-.7-1.8V9.4h1.2v4.8c0 .5.1.8.4 1.1s.6.4 1.1.4c1 0 1.4-.5 1.4-1.5V9.4h1.1zm6.6 1h-2.2v6.1h-1.2v-6.1h-2.2v-1h5.6v1zm6.7 6.1h-1.2v-3.2H71v3.2h-1.2V9.4H71v3h3.2v-3h1.2v7.1zm7.2-3.4c0 .7-.1 1.3-.4 1.8-.2.5-.6.9-1 1.2-.4.3-1 .4-1.5.4-.6 0-1.1-.1-1.5-.4-.5-.3-.8-.7-1-1.2s-.4-1.1-.4-1.8v-.4c0-.7.1-1.3.4-1.8.2-.5.6-.9 1-1.2s1-.4 1.5-.4c.6 0 1.1.1 1.5.4.4.3.8.7 1 1.2s.4 1.1.4 1.8v.4zm-1.2-.3c0-.8-.1-1.4-.4-1.8s-.7-.6-1.3-.6c-.5 0-1 .2-1.3.6-.3.4-.5 1-.5 1.8v.4c0 .8.2 1.4.5 1.8.3.4.7.6 1.3.6.5 0 1-.2 1.3-.6.3-.4.4-1 .4-1.8v-.4zm5.1 1h-1.4v2.7h-1.2V9.4h2.5c.8 0 1.5.2 1.9.6.4.4.7.9.7 1.6 0 .5-.1.9-.3 1.2s-.5.6-1 .7l1.6 3v.1H88l-1.5-2.8zm-1.3-1h1.3c.4 0 .7-.1 1-.3s.4-.5.4-.9-.1-.7-.3-.9c-.2-.2-.5-.3-1-.3h-1.3l-.1 2.4zm6.4 3.7h-1.2V9.4h1.2v7.1zm2.8-1h3.8v1h-5.3v-.8l3.7-5.3h-3.7v-1H98v.8l-3.6 5.3zm9.1-2.2h-2.9v2.2h3.4v1h-4.6V9.4h4.6v1h-3.4v2h2.9v.9zm1.6 3.2V9.4h2.1c.6 0 1.2.1 1.7.4.5.3.9.7 1.1 1.2.3.5.4 1.1.4 1.8v.4c0 .7-.1 1.3-.4 1.8s-.7.9-1.1 1.2c-.5.3-1.1.4-1.7.4l-2.1-.1zm1.2-6.1v5.1h.8c.6 0 1.1-.2 1.5-.6s.5-1 .5-1.7v-.4c0-.8-.2-1.4-.5-1.8-.3-.4-.8-.6-1.5-.6h-.8z" fill="#787878"/><path class="st2" d="M21.4 21c-4.4 0-8-3.6-8-8s3.6-8 8-8 8 3.6 8 8-3.5 8-8 8zm0-14.1c-3.4 0-6.1 2.7-6.1 6.1s2.7 6.1 6.1 6.1 6.1-2.7 6.1-6.1c.1-3.4-2.7-6.1-6.1-6.1z"/><path class="st2" d="m21 16.2-2.7-2.7 1.3-1.3 1.3 1.3 3.2-3.3 1.4 1.3z"/></svg>