<svg xmlns="http://www.w3.org/2000/svg" width="96" height="64"><style>.st1{fill:#fff}</style><circle cx="48" cy="24" r="17.5" fill="#1c5c77"/><path class="st1" d="M48 36.6c-7 0-12.6-5.7-12.6-12.6S41 11.4 48 11.4 60.6 17 60.6 24 55 36.6 48 36.6zm0-22.2c-5.3 0-9.6 4.3-9.6 9.6s4.3 9.6 9.6 9.6 9.6-4.3 9.6-9.6-4.3-9.6-9.6-9.6z"/><path class="st1" d="M47.3 29.1 43 24.9l2.1-2.2 2.1 2.1 5-5.2 2.2 2.1-7.1 7.4z"/><path d="M22.4 55.3h-2.8L19 57h-1.3l2.7-7.1h1.1l2.7 7.1h-1.3l-.5-1.7zm-2.4-1h2l-1-2.9-1 2.9zm10.2-4.4v4.8c0 .8-.2 1.4-.7 1.8-.5.4-1.1.7-1.9.7s-1.5-.2-1.9-.7c-.5-.4-.7-1-.7-1.8V50h1.2v4.8c0 .5.1.8.4 1.1s.6.4 1.1.4c1 0 1.4-.5 1.4-1.5v-4.7h1.1v-.2zm6.4 1h-2.2V57h-1.2v-6.1H31v-1h5.6v1zm6.6 6.1H42v-3.2h-3.2V57h-1.2v-7.1h1.2v3H42v-3h1.2V57zm7.1-3.4c0 .7-.1 1.3-.4 1.8-.2.5-.6.9-1 1.2s-1 .4-1.5.4c-.6 0-1.1-.1-1.5-.4-.5-.3-.8-.7-1-1.2s-.4-1.1-.4-1.8v-.4c0-.7.1-1.3.4-1.8s.6-.9 1-1.2 1-.4 1.5-.4 1.1.1 1.5.4c.4.3.8.7 1 1.2s.4 1.1.4 1.8v.4zm-1.2-.3c0-.8-.1-1.4-.4-1.8s-.7-.6-1.3-.6c-.5 0-1 .2-1.3.6-.3.4-.5 1-.5 1.8v.4c0 .8.2 1.4.5 1.8s.7.6 1.3.6c.5 0 1-.2 1.3-.6s.4-1 .4-1.8v-.4zm5.1 1h-1.4V57h-1.2v-7.1H54c.8 0 1.5.2 1.9.6.4.4.7.9.7 1.6 0 .5-.1.9-.3 1.2s-.5.6-1 .7l1.6 3h-1.3l-1.4-2.7zm-1.4-1h1.3c.4 0 .7-.1 1-.3.2-.2.4-.5.4-.9s-.1-.7-.3-.9-.5-.3-1-.3h-1.3v2.4h-.1zm6.3 3.7h-1.2v-7.1h1.2V57zm2.7-1h3.8v1h-5.3v-.8l3.7-5.3h-3.7v-1h5.2v.8L61.8 56zm9-2.2h-2.9V56h3.4v1h-4.6v-7.1h4.6v1h-3.4v2h2.9v.9zm1.5 3.2v-7.1h2.1c.6 0 1.2.1 1.7.4.5.3.9.7 1.1 1.2s.4 1.1.4 1.8v.4c0 .7-.1 1.3-.4 1.8s-.7.9-1.1 1.2c-.6.2-1.1.3-1.8.3h-2zm1.2-6.1V56h.8c.6 0 1.1-.2 1.5-.6.3-.4.5-1 .5-1.7v-.4c0-.8-.2-1.4-.5-1.8s-.8-.6-1.5-.6h-.8z" fill="#787878"/></svg>