<svg xmlns="http://www.w3.org/2000/svg" width="132" height="26"><path d="M127 25H5c-2.2 0-4-1.8-4-4V5c0-2.2 1.8-4 4-4h122c2.2 0 4 1.8 4 4v16c0 2.2-1.8 4-4 4z" fill="#fff"/><path d="M45.8 14.2c-.1.8-.4 1.4-.8 1.8s-1.1.6-1.9.6c-.6 0-1.1-.1-1.5-.4s-.8-.7-1-1.1-.4-1.1-.4-1.7v-.7c0-.7.1-1.3.4-1.8s.6-.9 1-1.2 1-.4 1.5-.4c.8 0 1.4.2 1.9.6s.8 1 .8 1.8h-1.2c-.1-.5-.2-.9-.4-1.1s-.6-.3-1.1-.3-.9.2-1.2.6-.4 1-.4 1.7v.6c0 .8.1 1.4.4 1.8.3.4.7.6 1.2.6s.8-.1 1.1-.3.4-.6.5-1.1h1.1zm5.2.6h-2.8l-.6 1.7h-1.3L49 9.4h1.1l2.7 7.1h-1.3l-.5-1.7zm-2.4-1h2.1l-1-2.9-1.1 2.9zm7.8 0H55v2.7h-1.2V9.4h2.5c.8 0 1.5.2 1.9.6s.7.9.7 1.6c0 .5-.1.9-.3 1.2s-.5.6-1 .7l1.6 3v.1h-1.3l-1.5-2.8zm-1.4-1h1.3c.4 0 .7-.1 1-.3s.4-.5.4-.9-.1-.7-.3-.9-.5-.3-1-.3H55v2.4zm9.3.5h-2.9v2.2h3.4v1h-4.6V9.4h4.6v1h-3.4v2h2.9v.9zm3.9 1.3c0-.3.1-.6.3-.9s.5-.6 1.1-1c-.3-.3-.5-.6-.6-.9s-.2-.5-.2-.7c0-.6.2-1 .5-1.3s.8-.5 1.4-.5c.5 0 .9.2 1.3.5s.5.7.5 1.1c0 .3-.1.6-.2.8s-.4.5-.7.7l-.6.4 1.4 1.6c.2-.4.3-.8.3-1.3h1c0 .9-.2 1.6-.6 2.2l1 1.2h-1.4l-.4-.5c-.5.4-1.1.6-1.8.6s-1.3-.2-1.7-.6c-.4-.4-.6-.8-.6-1.4zm2.3 1.1c.4 0 .8-.1 1.1-.4L70 13.5c-.4.3-.6.6-.6 1 0 .3.1.6.3.8s.5.4.8.4zm-.6-4.6c0 .3.2.6.5 1l.5-.4.2-.1c.2-.2.3-.4.3-.7 0-.2-.1-.3-.2-.5s-.3-.2-.5-.2-.4.1-.6.2-.2.4-.2.7zm11.4 3.6c0-.3-.1-.6-.3-.7s-.6-.3-1.2-.5-1-.4-1.4-.6c-.6-.4-1-.9-1-1.6 0-.6.2-1 .7-1.4s1.1-.6 1.8-.6c.5 0 .9.1 1.3.3s.8.4 1 .7.3.7.3 1.1h-1.2c0-.4-.1-.7-.3-.9s-.6-.3-1-.3-.7.1-.9.3-.3.4-.3.7.1.5.4.7.6.3 1.2.5 1 .4 1.3.6.6.5.7.7.2.6.2 1c0 .6-.2 1.1-.7 1.4-.5.3-1.1.5-1.8.5-.5 0-1-.1-1.4-.3s-.8-.5-1-.8-.4-.7-.4-1.2h1.2c0 .4.1.7.4.9s.6.3 1.1.3c.4 0 .8-.1 1-.3s.3-.2.3-.5zm7.5-4.3h-2.2v6.1h-1.2v-6.1h-2.2v-1h5.6v1zm6.6 2.7c0 .7-.1 1.3-.4 1.8s-.6.9-1 1.2c-.4.3-1 .4-1.5.4-.6 0-1.1-.1-1.5-.4s-.8-.7-1-1.2-.4-1.1-.4-1.8v-.4c0-.7.1-1.3.4-1.8s.6-.9 1-1.2 1-.4 1.5-.4 1.1.1 1.5.4.8.7 1 1.2.4 1.1.4 1.8v.4zm-1.2-.3c0-.8-.1-1.4-.4-1.8s-.8-.7-1.3-.7-1 .2-1.3.6-.5 1-.5 1.8v.4c0 .8.2 1.4.5 1.8s.7.6 1.3.6c.5 0 1-.2 1.3-.6s.4-1 .4-1.8v-.3zm5.1 1H98v2.7h-1.2V9.4h2.5c.8 0 1.5.2 1.9.6s.7.9.7 1.6c0 .5-.1.9-.3 1.2s-.5.6-1 .7l1.6 3v.1h-1.3l-1.6-2.8zm-1.3-1h1.3c.4 0 .7-.1 1-.3s.4-.5.4-.9-.1-.7-.3-.9-.5-.3-1-.3H98v2.4zm9.1 2h-2.8l-.6 1.7h-1.3l2.7-7.1h1.1l2.7 7.1h-1.3l-.5-1.7zm-2.5-1h2.1l-1-2.9-1.1 2.9zm10.6 1.8c-.3.3-.6.6-1.1.8-.5.2-1 .3-1.6.3s-1.1-.1-1.6-.4-.8-.7-1.1-1.2-.4-1.1-.4-1.8v-.6c0-1.1.3-1.9.8-2.5s1.2-.9 2.2-.9c.8 0 1.4.2 1.9.6s.7 1 .8 1.7H114c-.1-.9-.6-1.3-1.5-1.3-.6 0-1 .2-1.3.6s-.4 1-.4 1.8v.5c0 .8.2 1.4.5 1.8s.8.6 1.4.6 1.1-.1 1.3-.4v-1.4h-1.5v-.9h2.7v2.7zm5.6-2.3h-2.9v2.2h3.4v1h-4.6V9.4h4.6v1h-3.4v2h2.9v.9z" fill="#787878"/><path d="M25.4 12h-7.9c-.3 0-.6-.3-.6-.6v-.8c.1-.3.4-.6.7-.6h7.9c.2 0 .5.3.5.6v.9c0 .2-.3.5-.6.5zm0 4h-7.9c-.3 0-.6-.3-.6-.6v-.9c0-.3.3-.6.6-.6h7.9c.3 0 .6.3.6.6v.9c0 .3-.3.6-.6.6zm-5.7 4h-2.3c-.2 0-.3-.2-.3-.3v-1.3c0-.2.2-.3.3-.3h2.3c.2 0 .3.2.3.3v1.3c0 .1-.2.3-.3.3zm6 0h-2.3c-.2 0-.3-.2-.3-.3v-1.3c0-.2.2-.3.3-.3h2.3c.2 0 .3.2.3.3v1.3c0 .1-.2.3-.3.3zM13 19.4V6.6c0-.3.3-.6.6-.6h.8c.3 0 .6.3.6.6v12.8c0 .3-.3.6-.6.6h-.8c-.3 0-.6-.3-.6-.6zm15 0V6.6c0-.3.3-.6.6-.6h.8c.3 0 .6.3.6.6v12.8c0 .3-.3.6-.6.6h-.8c-.3 0-.6-.3-.6-.6zM13.6 6h15.8c.3 0 .6.3.6.6v.8c0 .3-.3.6-.6.6H13.6c-.3 0-.6-.3-.6-.6v-.8c0-.3.3-.6.6-.6z" fill="#00b2e9"/></svg>