<svg xmlns="http://www.w3.org/2000/svg" width="96" height="64"><style>.st2{fill:#fff}</style><path d="M14.7 53.8c0 .7-.2 1.3-.7 1.8-.5.4-1.1.7-1.9.7-.8 0-1.5-.3-2-.8-.5-.6-.8-1.3-.8-2.1V52c0-.9.3-1.6.8-2.1.5-.6 1.2-.8 2-.8s1.5.2 2 .6c.5.4.7 1 .7 1.8h-1.1c0-.5-.1-.8-.4-1.1-.3-.3-.6-.4-1.1-.4s-.9.2-1.1.6c-.3.4-.4.9-.4 1.4v1.4c0 .6.1 1.1.4 1.5.3.4.7.6 1.2.6s.9-.1 1.1-.4c.3-.3.4-.6.4-1.1h.9v-.2zm4.8.6H17l-.5 1.7h-1.2l2.5-7.1h1.1l2.5 7.1h-1.2l-.7-1.7zm-2.1-1h1.9l-.9-2.8-1 2.8zm6-.3V56h-1.2v-7h2.4c.8 0 1.4.2 1.8.5.4.4.6.9.6 1.5 0 .4-.1.7-.3.9-.2.3-.5.5-.8.6.4.1.7.3.9.6.2.3.3.6.3 1.1v.6c0 .2 0 .4.1.6.1.2.1.3.3.5v.1h-1.2c-.2 0-.3-.2-.3-.4s-.1-.5-.1-.7v-.6c0-.4-.1-.7-.3-.9s-.5-.3-.9-.3h-1.3zm0-.9h1.2c.5 0 .8-.1 1-.3s.3-.5.3-.8c0-.4-.1-.6-.3-.8-.2-.2-.5-.3-1-.3h-1.3l.1 2.2zm9.1.7h-2.8v2.3H33v.9h-4.5V49H33v1h-3.2v2h2.8l-.1.9zm3.6 1.3c0-.4.1-.7.3-1s.5-.6 1-.9c-.2-.3-.4-.6-.5-.8s-.2-.5-.2-.8c0-.6.2-1 .5-1.3s.8-.5 1.4-.5c.5 0 .9.2 1.3.5.3.3.5.7.5 1.1 0 .3-.1.6-.2.9-.2.2-.4.5-.7.7l-.5.4 1.5 1.8c.1-.2.2-.4.3-.7s.1-.5.1-.8h1c0 .4-.1.9-.2 1.2-.1.4-.3.7-.5 1l.9 1.1h-1.3l-.4-.5c-.3.2-.6.3-.9.4-.3.1-.6.1-1 .1-.7 0-1.3-.2-1.7-.6s-.7-.7-.7-1.3zm2.4 1c.2 0 .4 0 .6-.1.2-.1.4-.1.6-.3L38.1 53l-.1.1-.5.5c-.1.2-.1.3-.1.5 0 .3.1.6.3.8s.4.3.8.3zm-.6-4.6c0 .2 0 .3.1.5s.2.3.3.5l.5-.4c.2-.1.3-.2.4-.4.1-.1.1-.3.1-.4 0-.2-.1-.3-.2-.5-.1-.1-.3-.2-.5-.2s-.4.1-.5.2c-.2.3-.2.5-.2.7zm11.3 3.7c0-.3-.1-.5-.3-.7s-.6-.4-1.1-.5c-.8-.2-1.4-.5-1.8-.8-.4-.3-.6-.8-.6-1.3 0-.6.2-1 .7-1.4s1-.6 1.8-.6 1.4.2 1.8.6c.5.4.7.9.7 1.5h-1.1c0-.4-.1-.7-.4-.9s-.6-.3-1-.3-.7.1-.9.3-.3.4-.3.7.1.5.4.7c.2.2.6.3 1.2.5.7.2 1.3.5 1.7.9s.6.8.6 1.4c0 .6-.2 1.1-.7 1.4-.5.4-1.1.5-1.8.5s-1.4-.2-1.9-.6-.8-.9-.8-1.6h1.1c0 .4.1.7.4 1 .3.2.7.3 1.1.3.4 0 .7-.1 1-.3.1-.3.2-.5.2-.8zm7.4-4.4h-2.2v6.2h-1.2v-6.2H51v-1h5.5v1h.1zm6.3 3.3c0 .9-.3 1.6-.8 2.2-.5.6-1.3.9-2.1.9s-1.5-.3-2.1-.9c-.5-.6-.8-1.3-.8-2.2v-1.3c0-.9.3-1.6.8-2.2s1.2-.9 2.1-.9c.9 0 1.6.3 2.1.9s.8 1.3.8 2.2v1.3zm-1.2-1.3c0-.6-.2-1.1-.5-1.5-.2-.4-.7-.6-1.2-.6s-.9.2-1.2.6c-.3.4-.5.9-.5 1.5v1.3c0 .6.2 1.1.5 1.5s.7.6 1.2.6 1-.2 1.3-.6c.3-.4.5-.9.5-1.5l-.1-1.3zm3.7 1.2V56h-1.2v-7h2.4c.8 0 1.4.2 1.8.5.4.4.6.9.6 1.5 0 .4-.1.7-.3.9-.2.3-.5.5-.8.6.4.1.7.3.9.6.2.3.3.6.3 1.1v.6c0 .2 0 .4.1.6.1.2.1.3.3.5v.1h-1.2c-.2 0-.3-.2-.3-.4s-.1-.5-.1-.7v-.6c0-.4-.1-.7-.3-.9s-.5-.3-.9-.3h-1.3zm0-.9h1.2c.5 0 .8-.1 1-.3s.3-.5.3-.8c0-.4-.1-.6-.3-.8-.2-.2-.5-.3-1-.3h-1.3v2.2h.1zm8.9 2.2h-2.5l-.5 1.7H70l2.5-7.1h1.1l2.5 7.1h-1.2l-.6-1.7zm-2.2-1H74l-1-2.8-.9 2.8zm10 1.7c-.2.3-.5.5-.9.7s-1 .3-1.7.3c-.8 0-1.5-.3-2.1-.8-.5-.5-.8-1.2-.8-2.1v-1.5c0-.9.3-1.6.8-2.1s1.2-.8 2-.8 1.5.2 1.9.6c.5.4.7 1 .7 1.6h-1.1c0-.4-.1-.7-.4-1s-.6-.4-1.1-.4-.9.2-1.2.6c-.3.4-.5.8-.5 1.4v1.5c0 .6.2 1 .5 1.4s.7.6 1.2.6c.4 0 .7 0 .9-.1.2-.1.4-.2.5-.3v-1.5h-1.5v-.9H82v2.8h.1zm5.4-2.2h-2.8v2.3H88v.9h-4.5V49H88v1h-3.2v2h2.8l-.1.9z" fill="#787878"/><circle cx="48.3" cy="24" r="17.5" fill="#00b2e9"/><path class="st2" d="M38.2 15.1h20.5V33h-1.3V16.5H39.5V33h-1.3"/><path class="st2" d="M40.2 17.1v1.3h16.6v-1.3H40.2zm0 2v1.3h16.6v-1.3H40.2zm0 2v1.3h16.6v-1.3H40.2zm0 2v1.3h16.6v-1.3H40.2zm0 2v1.3h16.6v-1.3H40.2zm0 2v1.3h16.6v-1.3H40.2zm0 1.9v1.3h16.6V29H40.2zm0 2v1.3h16.6V31H40.2zm7.3.7h2v.7h-2v-.7z"/></svg>