<svg width="22" height="20" fill="none" xmlns="http://www.w3.org/2000/svg"><path fill-rule="evenodd" clip-rule="evenodd" d="M4.867 18.11c0-.855.696-1.555 1.547-1.555.852 0 1.546.7 1.546 1.555 0 .856-.694 1.556-1.546 1.556-.85 0-1.547-.7-1.547-1.556Zm12.371 0c0-.855.696-1.555 1.547-1.555a1.556 1.556 0 0 1 0 3.111c-.85 0-1.547-.7-1.547-1.556Z" fill="#212121"/><path d="M1 1h1.034c.57 0 1.206.647 1.416 1.337l2.37 7.868c.21.69.997 1.199 1.748 1.105l12.065-1.498C20.385 9.718 21 9.064 21 8.346V4.429c0-.718-.62-1.47-1.38-1.47H3.76m15.863 11.667H6.206c-.777 0-1.23-.477-1.01-1.16l.833-2.146" stroke="#212121" stroke-width="2" stroke-linecap="round"/></svg>