<svg xmlns="http://www.w3.org/2000/svg" width="50" height="50"><path fill="#CFDC39" d="M25 13.8c.9 0 1.8.1 2.7.3L31 .8c-4.5-1.1-8.7-1-13.1.3l3.9 13.1c1-.3 2.1-.4 3.2-.4z"/><path fill="#66AE45" d="M21.9 14.2 18 1c-4.4 1.3-8 3.5-11.2 6.8l10 9.4c1.4-1.3 3.1-2.4 5.1-3z"/><path fill="#0090C9" d="M16.9 17.2 7 7.7C3.8 11 1.8 14.8.7 19.2l13.4 3.2c.4-2 1.4-3.8 2.8-5.2z"/><path fill="#3F5CA9" d="M13.8 25c0-.9.1-1.8.3-2.6L.7 19.1c-1.1 4.5-1 8.6.3 13l13.1-3.9c-.2-1-.3-2.1-.3-3.2z"/><path fill="#462F90" d="M14.2 28.1 1 32c1.3 4.4 3.5 8 6.8 11.2l9.4-10c-1.3-1.4-2.4-3.1-3-5.1z"/><path fill="#7B3994" d="M7.7 43c3.3 3.2 7 5.2 11.5 6.2l3.2-13.4c-2-.5-3.8-1.5-5.2-2.8"/><path fill="#A61D4C" d="M25 36.2c-.9 0-1.8-.1-2.7-.3L19 49.2c4.5 1.1 8.7 1 13.1-.3l-3.9-13.1c-1 .3-2.1.4-3.2.4z"/><path fill="#ED3324" d="M33.2 32.7c-1.4 1.4-3.1 2.5-5 3.1L32 49c4.4-1.3 8-3.5 11.2-6.8l-10-9.5z"/><path fill="#F05623" d="M35.9 27.6c-.5 2-1.5 3.8-2.8 5.2l9.9 9.5c3.2-3.3 5.2-7 6.3-11.5l-13.4-3.2z"/><path fill="#F7981D" d="m48.9 17.8-13.1 3.9c.3 1 .5 2.1.5 3.2 0 .9-.1 1.9-.3 2.7l13.3 3.3c1-4.3.9-8.7-.4-13.1z"/><path fill="#F8BC15" d="M35.8 21.9 49 18c-1.3-4.4-3.5-8-6.8-11.2l-9.4 10c1.3 1.4 2.4 3.1 3 5.1z"/><path fill="#F3EA38" d="M32.7 16.9 42.2 7c-3.3-3.2-7-5.1-11.4-6.2l-3.2 13.4c2 .3 3.7 1.3 5.1 2.7z"/></svg>