<svg xmlns="http://www.w3.org/2000/svg" width="132" height="26"><style>.st0{fill:#fff}</style><path class="st0" d="M127 25H5c-2.2 0-4-1.8-4-4V5c0-2.2 1.8-4 4-4h122c2.2 0 4 1.8 4 4v16c0 2.2-1.8 4-4 4z"/><path d="M67.3 14.2c-.1.8-.4 1.4-.8 1.8-.4.4-1.1.6-1.9.6-.6 0-1.1-.1-1.5-.4s-.8-.7-1-1.1-.4-1.1-.4-1.7v-.7c0-.7.1-1.3.4-1.8s.6-.9 1-1.2 1-.4 1.5-.4c.8 0 1.4.2 1.9.6s.8 1 .8 1.8H66c-.1-.5-.2-.9-.4-1.1s-.6-.3-1.1-.3-.9.2-1.2.6-.4 1-.4 1.7v.6c0 .8.1 1.4.4 1.8.3.4.7.6 1.2.6s.8-.1 1.1-.3.4-.6.5-1.1h1.2zm6.8-1.1c0 .7-.1 1.3-.4 1.8s-.6.9-1 1.2c-.4.3-1 .4-1.5.4-.6 0-1.1-.1-1.5-.4s-.8-.7-1-1.2-.4-1.1-.4-1.8v-.4c0-.7.1-1.3.4-1.8s.6-.9 1-1.2 1-.4 1.5-.4 1.1.1 1.5.4.8.7 1 1.2.4 1.1.4 1.8v.4zm-1.2-.3c0-.8-.1-1.4-.4-1.8s-.7-.6-1.3-.6c-.5 0-1 .2-1.3.6s-.5 1-.5 1.8v.4c0 .8.2 1.4.5 1.8s.7.6 1.3.6c.5 0 1-.2 1.3-.6s.4-1 .4-1.8v-.4zm3.8 2.7h3.2v1h-4.5V9.4h1.2v6.1h.1zm9.6-2.4c0 .7-.1 1.3-.4 1.8s-.6.9-1 1.2c-.4.3-1 .4-1.5.4-.6 0-1.1-.1-1.5-.4s-.8-.7-1-1.2-.4-1.1-.4-1.8v-.4c0-.7.1-1.3.4-1.8s.6-.9 1-1.2 1-.4 1.5-.4 1.1.1 1.5.4.8.7 1 1.2.4 1.1.4 1.8v.4zm-1.2-.3c0-.8-.1-1.4-.4-1.8s-.7-.6-1.3-.6c-.5 0-1 .2-1.3.6s-.5 1-.5 1.8v.4c0 .8.2 1.4.5 1.8s.7.6 1.3.6c.5 0 1-.2 1.3-.6s.4-1 .4-1.8v-.4zm5.2 1h-1.4v2.7h-1.2V9.4h2.5c.8 0 1.5.2 1.9.6s.7.9.7 1.6c0 .5-.1.9-.3 1.2s-.5.6-1 .7l1.6 3v.1h-1.3l-1.5-2.8zm-1.4-1h1.3c.4 0 .7-.1 1-.3s.4-.5.4-.9-.1-.7-.3-.9-.5-.3-1-.3H89l-.1 2.4zm8.8 1.9c0-.3-.1-.6-.3-.7s-.6-.3-1.2-.5-1-.4-1.4-.6c-.6-.4-1-.9-1-1.6 0-.6.2-1 .7-1.4s1.1-.6 1.8-.6c.5 0 .9.1 1.3.3s.7.4.9.8.3.7.3 1.1h-1.2c0-.4-.1-.7-.3-.9s-.6-.3-1-.3-.7.1-.9.3-.3.4-.3.7.1.5.4.7.6.3 1.2.5 1 .4 1.3.6.6.5.7.7.2.6.2 1c0 .6-.2 1.1-.7 1.4-.5.3-1.1.5-1.8.5-.5 0-1-.1-1.4-.3s-.8-.5-1-.8-.4-.7-.4-1.2h1.2c0 .4.1.7.4.9s.6.3 1.1.3c.4 0 .8-.1 1-.3s.4-.3.4-.6z" fill="#787878"/><path d="M15.6 18.1c1.5 1.8 3.7 3 6.2 3v-8l-6.2 5z" fill="#00ba00"/><path d="M13.9 11.3c-.1.6-.1 1.2-.1 1.8 0 1.9.6 3.5 1.8 5l6.2-5-7.9-1.8z" fill="#00d1d6"/><path d="M21.8 21c2.7 0 4.7-1.2 6.2-3l-6.2-5v8z" fill="#ffe52c"/><path d="m13.9 11.3 7.8 1.8-3.4-7.2c-2.3 1-3.8 3-4.4 5.4z" fill="#307cfb"/><path d="M25.2 5.8c-1-.4-2.2-.9-3.4-.9-1.2 0-2.5.3-3.4.9l3.4 7.2 3.4-7.2z" fill="#8e52c7"/><path d="M29.6 11.3c-.4-2.5-2.1-4.4-4.4-5.3l-3.4 7.2 7.8-1.9z" fill="#e22124"/><path d="M28 18.1c1.2-1.3 1.8-3.1 1.8-5 0-.6 0-1.2-.1-1.8l-7.8 1.8 6.1 5z" fill="#ff9408"/><circle class="st0" cx="21.8" cy="13.1" r="3.8"/></svg>