<svg xmlns="http://www.w3.org/2000/svg" width="50" height="50"><path fill="#FF2B00" d="M38.1 23.5H50c-.5-8.3-5-15.9-12.5-20.2l-5.9 10.2c3.8 2.3 6.1 6 6.5 10z"/><path fill="#AD1473" d="M19.7 12.9c3.7-1.6 8.1-1.5 11.9.7l5.9-10.2C30-1 21.2-1 13.8 2.7l5.9 10.2z"/><path fill="#F9881A" d="M36.4 31.6c-1.2 2.1-2.9 3.7-4.8 4.8l5.9 10.2c3.7-2.1 6.9-5.2 9.1-9.1 2-3.4 3.1-7.2 3.3-11H38c-.1 1.7-.6 3.5-1.6 5.1z"/><path fill="#F7D104" d="m19.7 37.1-5.9 10.3c7.7 3.9 16.6 3.4 23.7-.7l-5.9-10.2c-3.5 1.9-8 2.3-11.9.6z"/><path fill="#107CFF" d="M13.6 18.4c.9-1.6 2.2-3 3.6-4l-6-10.3c-3.2 2.1-5.9 5-7.9 8.4C1.1 16.5 0 20.8 0 25h11.8c0-2.2.6-4.5 1.8-6.6z"/><path fill="#10772A" d="M11.8 25H0c0 8.2 4 16.1 11.2 20.9l5.9-10.3c-3.4-2.5-5.3-6.5-5.3-10.6z"/></svg>