<svg xmlns="http://www.w3.org/2000/svg" width="96" height="64"><path d="M34.8 54.7c0 .7-.2 1.3-.7 1.8-.5.4-1.1.7-1.9.7-.8 0-1.5-.3-2-.8-.5-.6-.8-1.3-.8-2.1v-1.4c0-.9.3-1.6.8-2.1.5-.6 1.2-.8 2-.8s1.5.2 2 .6.7 1 .7 1.8h-1.1c0-.5-.1-.8-.4-1.1-.3-.3-.6-.4-1.1-.4s-.9.2-1.1.6c-.3.4-.4.9-.4 1.4v1.4c0 .6.1 1.1.4 1.5s.7.6 1.2.6.9-.1 1.1-.4.4-.6.4-1.1h.9v-.2zm6.8-.6c0 .9-.3 1.6-.8 2.2-.5.6-1.3.9-2.1.9s-1.5-.3-2.1-.9c-.5-.6-.8-1.3-.8-2.2v-1.3c0-.9.3-1.6.8-2.2s1.2-.9 2.1-.9c.9 0 1.6.3 2.1.9s.8 1.3.8 2.2v1.3zm-1.2-1.3c0-.6-.2-1.1-.5-1.5s-.7-.6-1.3-.6c-.5 0-.9.2-1.2.6s-.5.9-.5 1.5v1.3c0 .6.2 1.1.5 1.5s.7.6 1.2.6 1-.2 1.3-.6.5-.9.5-1.5v-1.3zm3.6 3.3h3.3v.9h-4.5v-7.1H44v6.2zm9.8-2c0 .9-.3 1.6-.8 2.2-.5.6-1.3.9-2.1.9s-1.5-.3-2.1-.9c-.5-.6-.8-1.3-.8-2.2v-1.3c0-.9.3-1.6.8-2.2.5-.6 1.2-.9 2.1-.9.9 0 1.6.3 2.1.9s.8 1.3.8 2.2v1.3zm-1.2-1.3c0-.6-.2-1.1-.5-1.5s-.7-.6-1.3-.6c-.5 0-.9.2-1.2.6-.3.4-.5.9-.5 1.5v1.3c0 .6.2 1.1.5 1.5s.7.6 1.2.6 1-.2 1.3-.6c.3-.4.5-.9.5-1.5v-1.3zm3.7 1.3V57h-1.2v-7.1h2.4c.8 0 1.4.2 1.8.5s.7.9.7 1.6c0 .4-.1.7-.3.9-.2.3-.5.5-.8.6.4.1.7.3.9.6s.3.6.3 1.1v.6c0 .2 0 .4.1.6s.1.3.3.5v.1h-1.2c-.1-.1-.2-.3-.2-.5s-.1-.5-.1-.7v-.6c0-.4-.1-.7-.3-.9s-.5-.3-.9-.3h-1.5v.1zm0-1h1.2c.5 0 .8-.1 1-.3s.3-.5.3-.8c0-.4-.1-.6-.3-.8s-.5-.3-1-.3h-1.3l.1 2.2zm8.9 2.1c0-.3-.1-.5-.3-.7-.2-.2-.6-.4-1.1-.5-.8-.2-1.4-.5-1.8-.8-.4-.3-.6-.8-.6-1.3 0-.6.2-1 .7-1.4s1-.6 1.8-.6 1.4.2 1.8.6c.5.4.7.9.7 1.5h-1.1c0-.4-.1-.7-.4-.9-.2-.2-.6-.3-1-.3s-.7.1-.9.3-.3.4-.3.7.1.5.4.7c.2.2.6.3 1.2.5.7.2 1.3.5 1.7.9.4.4.6.8.6 1.4 0 .6-.2 1.1-.7 1.4s-1.1.5-1.8.5-1.4-.2-1.9-.6-.8-.9-.8-1.6h1.1c0 .4.1.7.4 1 .3.2.7.3 1.1.3s.7-.1 1-.3c.1-.3.2-.5.2-.8z" fill="#787878"/><path d="M34.2 34.9c3.2 4 8.1 6.6 13.7 6.6V24L34.2 34.9z" fill="#00ba00"/><path d="M30.8 20.1c-.3 1.3-.4 2.6-.4 3.9 0 4.1 1.4 7.9 3.8 10.9L47.9 24l-17.1-3.9z" fill="#00d1d6"/><path d="M47.9 41.5c5.5 0 10.5-2.6 13.7-6.6L47.9 24v17.5z" fill="#ffe52c"/><path d="M30.8 20.1 47.9 24 40.3 8.2c-4.7 2.3-8.3 6.7-9.5 11.9z" fill="#307cfb"/><path d="M55.5 8.2c-2.3-1.1-4.9-1.7-7.6-1.7s-5.3.6-7.6 1.7L47.9 24l7.6-15.8z" fill="#8e52c7"/><path d="M64.9 20.1c-1.2-5.2-4.7-9.6-9.5-11.9L47.9 24l17-3.9z" fill="#e22124"/><path d="M61.5 34.9c2.4-3 3.8-6.8 3.8-10.9 0-1.3-.2-2.6-.4-3.9l-17 3.9 13.6 10.9z" fill="#ff9408"/><circle cx="48" cy="24" r="8" fill="#fff"/></svg>