<svg xmlns="http://www.w3.org/2000/svg" width="96" height="64"><circle cx="48" cy="24.2" r="17.5" fill="#6dbd63"/><path d="M44 53.7h-2.9v3h-1.2v-7.1h4.5v1h-3.3v2.1H44v1zm4.5 1.3h-2.8l-.6 1.7h-1.3l2.7-7.1h1.1l2.7 7.1H49l-.5-1.7zm-2.4-1h2.1l-1-2.9-1.1 2.9zm10.6-.7c0 .7-.1 1.3-.3 1.8s-.5.9-.9 1.2l1.2 1-.8.7-1.5-1.2c-.2 0-.4.1-.6.1-.6 0-1.1-.1-1.5-.4-.5-.3-.8-.7-1-1.2s-.4-1.1-.4-1.8V53c0-.7.1-1.3.4-1.8.2-.5.6-.9 1-1.2s1-.4 1.5-.4c.6 0 1.1.1 1.5.4.4.3.8.7 1 1.2s.4 1.1.4 1.8v.3zm-1.2-.4c0-.8-.1-1.4-.4-1.8s-.7-.6-1.3-.6c-.5 0-.9.2-1.2.6-.3.4-.5 1-.5 1.8v.4c0 .8.2 1.4.5 1.8.3.4.7.6 1.3.6.5 0 1-.2 1.3-.6.3-.4.4-1 .4-1.8l-.1-.4z" fill="#787878"/><path d="M47.8 30.3c-.6 0-1 .1-1.3.5-.3.2-.5.7-.5 1.2s.1 1 .5 1.2c.4.4.7.5 1.3.5s1-.1 1.3-.5c.4-.4.5-.7.5-1.2s-.1-.8-.5-1.2c-.3-.4-.7-.5-1.3-.5zm4.4-14.5c-1-.8-2.4-1.3-4.1-1.3-1.7 0-3 .5-4.1 1.3-.6.5-1 1.1-1.3 1.8-.2.5-.4 1.2-.3 1.8.3.6.9 1 1.6 1s1.4-.4 1.6-1c.1-.3.1-.6.1-.9.1-.3.3-.6.6-.8.5-.4 1.1-.6 1.8-.6.8 0 1.4.1 1.8.6.4.4.6 1 .6 1.8 0 .6-.1 1.2-.5 1.7-.2.4-.7 1-1.6 1.8-.8.8-1.4 1.6-1.7 2.3-.2.4-.3.8-.4 1.2-.1.4-.1 1-.1 1.6v.1c.3.5.8.9 1.5.9s1.2-.4 1.5-.9c0-.5 0-.9.1-1.2.1-.7.3-1.3.7-1.6l1.6-1.6c1.3-1.4 1.9-2.8 1.9-4.2.1-1.7-.4-3-1.3-3.8z" fill="#fff"/></svg>