<svg xmlns="http://www.w3.org/2000/svg" width="132" height="26"><path d="M127 25H5c-2.2 0-4-1.8-4-4V5c0-2.2 1.8-4 4-4h122c2.2 0 4 1.8 4 4v16c0 2.2-1.8 4-4 4z" fill="#fff"/><path d="M76.8 13.5h-2.9v3h-1.2V9.4h4.5v1h-3.3v2.1h2.9v1zm4.5 1.3h-2.8l-.5 1.7h-1.3l2.7-7.1h1.1l2.7 7.1h-1.3l-.6-1.7zm-2.4-1H81l-1-2.9-1.1 2.9zm10.7-.7c0 .7-.1 1.3-.3 1.8-.2.5-.5.9-.9 1.2l1.2 1-.8.7-1.5-1.2-.6.1c-.6 0-1.1-.1-1.5-.4-.5-.3-.8-.7-1-1.2s-.4-1.1-.4-1.8v-.4c0-.7.1-1.3.4-1.8.2-.5.6-.9 1-1.2s1-.4 1.5-.4c.6 0 1.1.1 1.5.4.4.3.8.7 1 1.2s.4 1.1.4 1.8v.2zm-1.2-.3c0-.8-.2-1.4-.4-1.8-.3-.4-.7-.6-1.3-.6-.5 0-.9.2-1.2.6-.3.4-.5 1-.5 1.8v.4c0 .8.2 1.4.5 1.8.3.4.7.6 1.3.6.5 0 1-.2 1.3-.6.3-.4.4-1 .4-1.8v-.4h-.1z" fill="#787878"/><path d="M21.2 15.3c0-.6.1-1.2.2-1.5.2-.4.4-.8.9-1.1s.7-.7.8-.9c.1-.2.2-.5.2-.7 0-.8-.4-1.2-1.1-1.2-.3 0-.6.1-.8.3-.2.2-.3.5-.3.9h-2c0-.9.3-1.6.9-2.1s1.3-.8 2.3-.8 1.7.2 2.3.7c.5.5.8 1.1.8 2 0 .4-.1.8-.3 1.1-.2.4-.5.7-.9 1.2l-.6.5c-.4.3-.6.7-.6 1.2v.4h-1.8zm-.2 2.1c0-.3.1-.6.3-.8.2-.2.5-.3.8-.3s.6.1.8.3c.2.2.3.5.3.8s-.1.6-.3.8c-.2.2-.5.3-.8.3s-.6-.1-.8-.3-.3-.5-.3-.8z" fill="#6dbd63"/><circle cx="22" cy="13" r="8" fill="none" stroke="#6dbd63" stroke-width="2" stroke-linecap="round" stroke-linejoin="round" stroke-miterlimit="10"/></svg>