<svg xmlns="http://www.w3.org/2000/svg" width="90" height="22"><path fill="none" stroke="#0B9124" stroke-miterlimit="10" d="M79 21.5H11C5.2 21.5.5 16.8.5 11S5.2.5 11 .5h68C84.8.5 89.5 5.2 89.5 11S84.8 21.5 79 21.5z"/><path d="M13.4 11.6h-2.8v2.9H9.1V7.4h4.6v1.2h-3.2v1.8h2.8v1.2zm3.9.4h-1.2v2.6h-1.5V7.4h2.6c.8 0 1.5.2 1.9.6s.9.9.9 1.6c0 .5-.1.9-.3 1.2-.2.3-.5.6-1 .8l1.5 2.9v.1h-1.6L17.3 12zm-1.1-1.2h1.2c.4 0 .7-.1.9-.3s.3-.4.3-.8c0-.3-.1-.6-.3-.8-.2-.2-.5-.3-.9-.3h-1.2v2.2zm9.3.7h-2.8v1.9H26v1.2h-4.8V7.4H26v1.2h-3.3v1.7h2.8v1.2zm5.8 0h-2.8v1.9h3.3v1.2H27V7.4h4.8v1.2h-3.3v1.7h2.8v1.2zm7.7 1.2c0-.3-.1-.5-.3-.6s-.5-.3-1.1-.5-.9-.3-1.2-.5c-.8-.4-1.2-1-1.2-1.8 0-.4.1-.7.3-1 .2-.3.5-.5.9-.7.4-.2.9-.3 1.4-.3.5 0 1 .1 1.4.3s.7.4.9.8c.2.3.3.7.3 1.1H39c0-.3-.1-.6-.3-.8s-.5-.3-.9-.3-.6.1-.8.2-.3.4-.3.6c0 .2.1.4.3.6.2.2.6.3 1 .4.8.3 1.4.6 1.8.9s.6.8.6 1.4c0 .6-.2 1.1-.7 1.4-.5.4-1.1.5-1.9.5-.5 0-1-.1-1.5-.3-.4-.2-.8-.5-1-.8-.2-.3-.4-.8-.4-1.2h1.5c0 .8.5 1.2 1.4 1.2.3 0 .6-.1.8-.2.3 0 .4-.2.4-.4zm8.4 1.9H46v-3h-2.9v3h-1.5V7.4h1.5v2.9H46V7.4h1.5v7.2zm3 0h-1.5V7.4h1.5v7.2zm2.9-2.6v2.5h-1.5V7.4h2.8c.5 0 1 .1 1.4.3.4.2.7.5.9.8s.3.8.3 1.2c0 .7-.2 1.2-.7 1.6-.5.4-1.1.6-2 .6h-1.2zm0-1.1h1.3c.4 0 .7-.1.9-.3.2-.2.3-.4.3-.8 0-.3-.1-.6-.3-.8s-.5-.4-.8-.4h-1.3v2.3zm6.6 1.1v2.5h-1.5V7.4h2.8c.5 0 1 .1 1.4.3.4.2.7.5.9.8s.3.8.3 1.2c0 .7-.2 1.2-.7 1.6-.5.4-1.1.6-2 .6h-1.2zm0-1.1h1.3c.4 0 .7-.1.9-.3.2-.2.3-.4.3-.8 0-.3-.1-.6-.3-.8s-.5-.3-.8-.3H60v2.2zm6.7 3.7h-1.5V7.4h1.5v7.2zm7.3 0h-1.5l-2.9-4.7v4.7H68V7.4h1.5l2.9 4.7V7.4h1.5v7.2zm7-.9c-.3.3-.6.6-1.1.7-.5.2-1 .3-1.6.3-.6 0-1.2-.1-1.6-.4-.5-.3-.8-.7-1.1-1.2-.3-.5-.4-1.1-.4-1.8v-.5c0-.7.1-1.3.4-1.8.2-.5.6-.9 1-1.2.5-.3 1-.4 1.6-.4.8 0 1.5.2 2 .6s.8 1 .8 1.8h-1.4c-.1-.5-.2-.8-.5-1-.2-.2-.5-.3-.9-.3-.5 0-.9.2-1.1.6s-.4.9-.4 1.7v.5c0 .7.1 1.3.4 1.7s.7.6 1.2.6.9-.1 1.2-.4V12h-1.3v-1.1h2.8v2.8z" fill="#0B9124"/></svg>