<svg xmlns="http://www.w3.org/2000/svg" width="42" height="46"><path fill="#FC5250" d="m21 6.7-19.6 10L21 26.8l19.6-10.1z"/><path fill="#FC5250" d="m21 26.8 19.6-10.1V33L21 43z"/><path fill="#D8373C" d="M1.4 16.7 21 26.8V43L1.4 33z"/><g fill="#B3373C"><path d="m21 6.7-19.6 10L21 26.8l19.6-10.1z"/><path d="m21 26.8 19.6-10.1v1L21 27.7zM1.4 16.7 21 26.8v.9l-19.6-10z"/></g><path fill="#FC5250" d="M21 .5 0 11.2 21 22l21-10.8z"/><path d="m21 22 21-10.8v5.2L21 27.1zM0 11.2 21 22v5.1L0 16.4z" fill="#D8373C"/><path fill="#ADAD29" d="M33.3 15.6v21.1l-3.8 2V17.6zm-24.7 0v21.1l3.8 2V17.6z"/><path fill="#EAEA31" d="M8.6 15.6 29.5 4.9l3.8 1.9-20.9 10.8z"/><path fill="#EAEA31" d="M33.3 15.7 12.4 4.8l-3.8 2 20.9 10.8z"/><path fill="#EAEA31" d="M22 9.4S19.9 3.3 15 0v2.9l-3.8-.3s6.7 3.7 7.5 8.5L22 9.4z"/><path fill="#EAEA31" d="M20.1 9.4s2.1-6.1 7-9.4v2.9l3.8-.3s-6.7 3.7-7.5 8.5l-3.3-1.7z"/><path fill="#2EDE98" d="M13.7 32.2v12.4c0 .8.6 1.4 1.4 1.4h21.5c.8 0 1.4-.6 1.4-1.4V32.2c0-.4-.2-.8-.6-1.1l-9.1-6.9a4.2 4.2 0 0 0-5 0l-9.1 6.9c-.3.2-.5.6-.5 1.1z"/><path fill="#23AB75" d="M25.9 23.9c.8 0 1.6.3 2.2.7l9.1 6.9c.2.2.4.4.4.7v12.4c0 .5-.4.9-.9.9H15.1c-.5 0-.9-.4-.9-.9V32.2c0-.3.1-.5.4-.7l9.1-6.9c.6-.5 1.4-.7 2.2-.7m0-.5c-.9 0-1.8.3-2.5.8l-9.1 6.9c-.3.3-.6.7-.6 1.1v12.4c0 .8.6 1.4 1.4 1.4h21.5c.8 0 1.4-.6 1.4-1.4V32.2c0-.4-.2-.8-.6-1.1l-9.1-6.9c-.6-.6-1.5-.8-2.4-.8z"/><path fill="#FFF" d="M15.9 26.6H36v15H15.9z"/><path fill="#2EDE98" d="m15.4 43.9-.6 1.6 7.8-6.2-7.7-7zm21 0 .6 1.6-7.8-6.2 7.7-7z"/><path fill="#2EDE98" d="m24.9 37.1-10 8c-.4.3-.2.9.3.9h21.5c.5 0 .7-.6.3-.9l-10.2-8c-.6-.4-1.4-.4-1.9 0z"/><path fill="#23AB75" d="M25.8 37.5c.2 0 .3.1.4.2l9.6 7.5h-20l9.5-7.5c.2-.1.3-.2.5-.2m0-.7c-.3 0-.6.1-.9.3l-10 8c-.4.3-.2.9.3.9h21.5c.5 0 .7-.6.3-.9l-10.2-8c-.4-.2-.7-.3-1-.3z"/><path fill="#2EDE98" d="m22.7 39.5-8.5-7.6"/><path fill="#23AB75" d="m13.937 32.2.462-.526 8.563 7.526-.462.526z"/><path fill="#2EDE98" d="m29 39.5 8.6-7.6"/><path fill="#23AB75" d="m29.3 39.8-.5-.6 8.6-7.6.5.6z"/></svg>