<svg xmlns="http://www.w3.org/2000/svg" width="132" height="26"><path d="M127 25H5c-2.2 0-4-1.8-4-4V5c0-2.2 1.8-4 4-4h122c2.2 0 4 1.8 4 4v16c0 2.2-1.8 4-4 4z" fill="#fff"/><path d="M52.2 16.5H51v-3.2h-3.2v3.2h-1.2V9.4h1.2v3H51v-3h1.2v7.1zm7.2-3.4c0 .7-.1 1.3-.4 1.8s-.6.9-1 1.2c-.4.3-1 .4-1.5.4-.6 0-1.1-.1-1.5-.4s-.8-.7-1-1.2-.4-1.1-.4-1.8v-.4c0-.7.1-1.3.4-1.8s.6-.9 1-1.2 1-.4 1.5-.4 1.1.1 1.5.4.8.7 1 1.2.4 1.1.4 1.8v.4zm-1.2-.3c0-.8-.1-1.4-.4-1.8s-.8-.7-1.4-.7c-.5 0-1 .2-1.3.6s-.5 1-.5 1.8v.4c0 .8.2 1.4.5 1.8s.7.6 1.3.6c.5 0 1-.2 1.3-.6s.4-1 .4-1.8l.1-.3zm8.1 1.9 1.1-5.4h1.2L67 16.5h-1.2l-1.4-5.2-1.4 5.2h-1.2l-1.6-7.1h1.2l1.1 5.3 1.4-5.3h1l1.4 5.3zm7.2 1.8h-1.2V9.4h1.2v7.1zm6.6-6.1h-2.2v6.1h-1.2v-6.1h-2.2v-1h5.6v1zm8.9 4.3 1.1-5.4h1.2l-1.6 7.1h-1.2l-1.4-5.2-1.4 5.2h-1.2l-1.5-7h1.2l1.1 5.3 1.4-5.3h1l1.3 5.3zm9-1.6c0 .7-.1 1.3-.4 1.8s-.6.9-1 1.2c-.4.3-1 .4-1.5.4-.6 0-1.1-.1-1.5-.4s-.8-.7-1-1.2-.4-1.1-.4-1.8v-.4c0-.7.1-1.3.4-1.8s.6-.9 1-1.2 1-.4 1.5-.4 1.1.1 1.5.4.8.7 1 1.2.4 1.1.4 1.8v.4zm-1.2-.3c0-.8-.1-1.4-.4-1.8s-.7-.6-1.3-.6c-.5 0-1 .2-1.3.6s-.5 1-.5 1.8v.4c0 .8.2 1.4.5 1.8s.7.6 1.3.6c.5 0 1-.2 1.3-.6s.4-1 .4-1.8v-.4zm5.2 1h-1.4v2.7h-1.2V9.4h2.5c.8 0 1.5.2 1.9.6s.7.9.7 1.6c0 .5-.1.9-.3 1.2s-.5.6-1 .7l1.6 3v.1h-1.3l-1.5-2.8zm-1.4-1h1.3c.4 0 .7-.1 1-.3s.4-.5.4-.9-.1-.7-.3-.9-.5-.3-1-.3h-1.3l-.1 2.4zm7.1.6-.8.9v2.2h-1.2V9.4h1.2v3.3l.7-.8 2.1-2.5h1.5l-2.6 3.1 2.8 4h-1.5l-2.2-3.1zm8.1 1.3c0-.3-.1-.6-.3-.7s-.6-.3-1.2-.5-1-.4-1.4-.6c-.6-.4-1-.9-1-1.6 0-.6.2-1 .7-1.4s1.1-.6 1.8-.6c.5 0 .9.1 1.3.3s.7.4.9.8.3.7.3 1.1h-1.2c0-.4-.1-.7-.3-.9s-.6-.3-1-.3-.7.1-.9.3-.3.4-.3.7.1.5.4.7.6.3 1.2.5 1 .4 1.3.6.6.5.7.7.2.6.2 1c0 .6-.2 1.1-.7 1.4-.5.3-1.1.5-1.8.5-.5 0-1-.1-1.4-.3s-.8-.5-1-.8-.4-.7-.4-1.2h1.2c0 .4.1.7.4.9s.6.3 1.1.3c.4 0 .8-.1 1-.3s.4-.3.4-.6z" fill="#787878"/><path d="m22.5 11-1.1.3c-.3.1-.4.4-.3.7l.3.8c.1.3.4.4.7.3l.7-.3c.3-.1.5 0 .6.3.1.1.2.3.3.3.2.2.2.4 0 .7l-.4.6c-.2.3-.1.6.1.8l.7.5c.3.2.6.1.8-.1l.4-.6c.2-.2.4-.3.6-.2s.3.1.4.2c.3.1.4.3.4.5v.7c0 .3.3.5.5.5h.8c.3 0 .5-.3.5-.5v-.8c0-.3.2-.4.4-.5.2 0 .3-.1.4-.2.3-.1.5 0 .6.2l.4.6c.2.3.5.3.8.1l.7-.5c.3-.2.3-.5.1-.8l-.6-.6c-.2-.2-.1-.4 0-.7.1-.1.2-.3.3-.3.2-.2.3-.3.6-.3l.7.3c.3.1.6-.1.7-.3l.3-.8c.1-.3-.1-.6-.3-.7l-1.1-.3.1-.6s0-.4-.1-.6l1.1-.3c.3-.1.4-.4.3-.7l-.3-.6c-.1-.3-.4-.4-.7-.3L32 8c-.3.1-.5 0-.6-.3-.1-.1-.2-.3-.3-.3-.1-.2-.1-.4.1-.7l.4-.6c.2-.3.1-.6-.1-.8l-.7-.5c-.3-.2-.6-.1-.8.1l-.4.6c-.2.2-.4.3-.6.2-.2-.1-.3-.1-.4-.2-.3-.1-.4-.3-.4-.5v-.6c0-.3-.3-.5-.5-.5h-.8c-.3 0-.5.3-.5.5V5c0 .3-.2.4-.4.5-.2 0-.3.1-.4.2-.3.1-.5 0-.6-.2l-.5-.5c-.2-.3-.5-.3-.8-.1l-.7.5c-.3.2-.3.5-.1.8l.4.6c.2.2.1.4 0 .7-.1.1-.2.3-.3.3 0 .1-.2.3-.4.2l-.7-.3c-.3-.1-.6.1-.7.3l-.2.8c-.1.3.1.6.3.7l1.1.3-.1.6s.2.5.2.6zm4.9-4c1.9 0 3.5 1.5 3.5 3.5S29.4 14 27.4 14s-3.5-1.5-3.5-3.5S25.5 7 27.4 7zM14.5 18.2h.6c.2 0 .3.1.4.3l.3.5c.1.2.1.3-.1.5l-.4.4c-.2.2-.2.4 0 .6l.5.5c.2.2.4.2.6 0l.4-.4c.2-.2.3-.2.5-.1l.5.3c.2 0 .2.2.2.3v.6c0 .3.2.4.4.4h.8c.3 0 .4-.2.4-.4v-.6c0-.2.1-.3.3-.4l.5-.3c.2-.1.3-.1.5.1l.4.4c.2.2.4.2.6 0l.5-.5c.2-.2.2-.4 0-.6l-.4-.4c-.2-.2-.2-.3-.1-.5l.3-.5c.1-.2.3-.3.4-.3h.6c.3 0 .4-.2.4-.4V17c0-.3-.2-.4-.4-.4h-.6c-.2 0-.3-.1-.4-.3l-.3-.5c-.1-.2-.1-.3.1-.5l.4-.4c.2-.2.2-.4 0-.6l-.5-.5c-.2-.2-.4-.2-.6 0l-.4.4c-.2.2-.3.2-.5.1l-.5-.3c-.2-.1-.3-.3-.3-.4V13c0-.3-.2-.4-.4-.4h-.7c-.3 0-.4.2-.4.4v.6c0 .2-.1.3-.3.4l-.5.3c-.2.1-.3.1-.5-.1l-.4-.4c-.2-.2-.4-.2-.6 0l-.5.5c-.2.2-.2.4 0 .6l.4.4c.2.2.2.3.1.5l-.3.5c-.1.2-.3.3-.4.3h-.6c-.3 0-.4.2-.4.4v.7c0 .3.2.5.4.5zm1.9-.8c0-1.3 1.1-2.5 2.5-2.5 1.3 0 2.5 1.1 2.5 2.5 0 1.3-1.1 2.5-2.5 2.5s-2.5-1.1-2.5-2.5zM19.8 9v-.4c0-.2.1-.3.3-.4l.3-.2c.2-.1.3-.3.2-.5l-.3-.8c-.1-.2-.3-.3-.5-.2l-.3.2c-.2.1-.3.1-.4-.1-.2-.2-.4-.3-.7-.4S18 6 18 5.8v-.4c0-.3-.1-.4-.3-.4l-.8-.1c-.3 0-.4.2-.4.3v.4c0 .2-.1.3-.3.3-.3.1-.5.2-.7.3-.2.1-.3.1-.4 0l-.3-.2c-.2 0-.5 0-.6.1l-.4.7c-.1.2-.1.4.1.6l.3.3c.2.1.2.3.2.4l-.1.4v.4c0 .2-.1.3-.3.4l-.3.2c-.2.1-.3.3-.2.5l.3.8c.1.2.3.3.5.2l.3-.2c.2-.1.3-.1.4.1.2.2.4.3.7.4.2.1.3.3.3.4v.4c0 .3.2.4.3.4l.8.1c.3 0 .4-.2.4-.3v-.4c0-.2.1-.3.3-.3.3-.1.5-.2.7-.3s.3-.1.4 0l.3.3c.2.1.4.1.6-.1l.4-.7c.1-.2.1-.4-.1-.6l-.3-.3c-.2-.1-.2-.3-.2-.4.1-.2.2-.3.2-.5zm-2.9 1.7c-1-.1-1.8-.9-1.7-1.9s.9-1.8 2-1.8c1 .1 1.8.9 1.8 2s-1.1 1.8-2.1 1.7z" fill="#00ba00"/></svg>