<svg width="50" height="50" xmlns="http://www.w3.org/2000/svg"><g fill="none" fill-rule="evenodd"><path d="M25 49C11.745 49 1 38.255 1 25S11.745 1 25 1s24 10.745 24 24-10.745 24-24 24z" stroke="#E8E8E8"/><path d="M27.264 28.857c0-.643-.159-1.148-.476-1.514-.317-.366-.875-.712-1.672-1.037a34.064 34.064 0 0 1-2.21-.99 7.664 7.664 0 0 1-1.745-1.159 4.556 4.556 0 0 1-1.123-1.526c-.26-.577-.391-1.277-.391-2.1 0-1.375.464-2.508 1.392-3.399.927-.891 2.164-1.41 3.71-1.556V13h1.941v2.625c1.49.22 2.66.832 3.51 1.837.85 1.005 1.276 2.28 1.276 3.827H27.35c0-.847-.163-1.498-.489-1.954-.325-.455-.79-.683-1.391-.683-.537 0-.954.169-1.251.506-.298.338-.446.804-.446 1.398 0 .602.17 1.08.513 1.434.341.354.89.692 1.648 1.014.756.321 1.47.655 2.142 1a8.19 8.19 0 0 1 1.74 1.179c.488.44.87.952 1.147 1.538.277.586.415 1.29.415 2.112 0 1.391-.442 2.526-1.325 3.405-.883.88-2.085 1.392-3.607 1.538v2.454h-1.94v-2.466c-1.775-.187-3.136-.795-4.084-1.825C19.474 30.91 19 29.553 19 27.87h4.114c0 .927.205 1.633.616 2.117.411.484.995.726 1.752.726.553 0 .989-.164 1.306-.494.317-.33.476-.783.476-1.361z" fill="#969FA6"/></g></svg>