<svg xmlns="http://www.w3.org/2000/svg" width="41" height="36"><path fill="#F6D100" d="M18.8 1 .3 32.9C-.5 34.3.5 36 2.1 36H39c1.6 0 2.6-1.7 1.8-3.1L22.3 1c-.8-1.3-2.7-1.3-3.5 0z"/><path fill="none" stroke="#010101" stroke-width="2" stroke-linecap="round" stroke-linejoin="round" stroke-miterlimit="10" d="M3.9 32.9 20.5 4.1l16.7 28.8z"/><g fill="#010101"><path d="M20.5 25.4c-.5 0-.9-.4-.9-.9l-1-10.4c-.1-1.2.8-2.2 2-2.2s2.1 1 2 2.2l-1 10.4c-.2.5-.6.9-1.1.9z"/><circle cx="20.5" cy="28.2" r="1.6"/></g></svg>