<svg xmlns="http://www.w3.org/2000/svg" width="96" height="64"><style>.st2{fill:#fff}</style><path d="M17.1 56h-1.2v-7.1h1.2V56zm7.1 0H23l-3.2-5v5h-1.2v-7.1h1.2L23 54v-5.1h1.2V56zm5.6-3h-2.9v3h-1.2v-7.1h4.5v1h-3.3V52h2.9v1zm7.1-.4c0 .7-.1 1.3-.4 1.8-.2.5-.6.9-1 1.2s-1 .4-1.5.4c-.6 0-1.1-.1-1.5-.4-.5-.3-.8-.7-1-1.2s-.5-1-.5-1.7v-.4c0-.7.1-1.3.4-1.8.2-.5.6-.9 1-1.2s1-.4 1.5-.4c.6 0 1.1.1 1.5.4.4.3.8.7 1 1.2s.4 1.1.4 1.8l.1.3zm-1.3-.3c0-.8-.1-1.4-.4-1.8-.3-.4-.7-.6-1.3-.6-.5 0-1 .2-1.3.6-.3.4-.5 1-.5 1.8v.4c0 .8.2 1.4.5 1.8s.7.6 1.3.6c.5 0 1-.2 1.3-.6s.4-1 .4-1.8v-.4zm5.1 1h-1.4V56h-1.2v-7.1h2.5c.8 0 1.5.2 1.9.6.4.4.7.9.7 1.6 0 .5-.1.9-.3 1.2s-.5.6-1 .7l1.6 3h-1.3l-1.5-2.7zm-1.4-1h1.3c.4 0 .7-.1 1-.3.2-.2.4-.5.4-.9s-.1-.7-.3-.9-.5-.3-1-.3h-1.3v2.4h-.1zm6.6-3.4 2.1 5.4 2-5.4h1.6V56h-1.2v-2.3l.1-3.1-2.1 5.4h-.9l-2.1-5.5.1 3.1V56h-1.2v-7.1h1.6zm11.2 5.5h-2.8l-.5 1.6h-1.3l2.7-7.1h1.1L59 56h-1.3l-.6-1.6zm-2.4-1h2.1l-1-2.9-1.1 2.9zm9.7-3.5h-2.2V56H61v-6.1h-2.2v-1h5.6v1zm2.2 6.1h-1.2v-7.1h1.2V56zm7.2-3.4c0 .7-.1 1.3-.4 1.8-.2.5-.6.9-1 1.2s-1 .4-1.5.4c-.6 0-1.1-.1-1.5-.4-.5-.3-.8-.7-1-1.2s-.4-1.1-.4-1.8v-.4c0-.7.1-1.3.4-1.8.2-.5.6-.9 1-1.2s1-.4 1.5-.4c.6 0 1.1.1 1.5.4.4.3.8.7 1 1.2s.4 1.1.4 1.8v.4zm-1.2-.3c0-.8-.1-1.4-.4-1.8-.3-.4-.7-.6-1.3-.6-.5 0-1 .2-1.3.6-.3.4-.5 1-.5 1.8v.4c0 .8.2 1.4.5 1.8s.7.6 1.3.6c.5 0 1-.2 1.3-.6s.4-1 .4-1.8v-.4zm8.1 3.7h-1.2l-3.2-5v5H75v-7.1h1.2l3.2 5.1v-5.1h1.2l.1 7.1z" fill="#787878"/><circle cx="48" cy="24" r="17.5" fill="#00a0dc"/><path class="st2" d="M40.4 14.6h1.9v2h-1.9v-2zm2.7 0h7.4v2h-7.4v-2zm-2.7 4h1.9v2h-1.9v-2zm2.7 0h7.4v2h-7.4v-2zm-2.7 4.1h1.9v2h-1.9v-2zm2.7 0h7.4v2h-7.4v-2zm-2.7 4h1.9v2h-1.9v-2zm2.7 0h7.4v2h-7.4v-2z"/><path class="st2" d="M62 26.7c0-2.8-2.1-5.2-4.8-5.5v-3.8L52 12.1H38v22.2h19.2v-2.1c2.7-.4 4.8-2.7 4.8-5.5zm-9.5-12.2 2.4 2.4h-2.4v-2.4zM39.4 32.9V13.5h11.7v4.9h4.7v2.8c-2.7.3-4.8 2.7-4.8 5.5s2.1 5.2 4.8 5.5v.7H39.4zm17.1-2.1c-2.3 0-4.1-1.9-4.1-4.2s1.8-4.2 4.1-4.2 4.1 1.9 4.1 4.2-1.8 4.2-4.1 4.2z"/><path class="st2" d="M55.8 26h1.4v3.5h-1.4V26zm0-2.1h1.4v1.4h-1.4v-1.4z"/></svg>