<svg xmlns="http://www.w3.org/2000/svg" width="132" height="26"><style>.st0{fill:#fff}</style><path class="st0" d="M127 25H5c-2.2 0-4-1.8-4-4V5c0-2.2 1.8-4 4-4h122c2.2 0 4 1.8 4 4v16c0 2.2-1.8 4-4 4z"/><path d="M48.5 16.5h-1.2V9.4h1.2v7.1zm7.3 0h-1.2l-3.2-5v5h-1.2V9.4h1.2l3.2 5.1V9.4h1.2v7.1zm5.7-3h-2.9v3h-1.2V9.4h4.5v1h-3.3v2.1h2.9v1zm7.1-.4c0 .7-.1 1.3-.4 1.8s-.6.9-1 1.2c-.4.3-1 .4-1.5.4-.6 0-1.1-.1-1.5-.4s-.8-.7-1-1.2-.4-1.1-.4-1.8v-.4c0-.7.1-1.3.4-1.8s.6-.9 1-1.2 1-.4 1.5-.4 1.1.1 1.5.4.8.7 1 1.2.4 1.1.4 1.8v.4zm-1.2-.3c0-.8-.1-1.4-.4-1.8s-.7-.6-1.3-.6c-.5 0-1 .2-1.3.6-.3.4-.4 1-.4 1.7v.4c0 .8.2 1.4.5 1.8s.7.6 1.3.6c.5 0 1-.2 1.3-.6s.4-1 .4-1.8l-.1-.3zm5.2 1h-1.4v2.7H70V9.4h2.5c.8 0 1.5.2 1.9.6s.6.8.6 1.5c0 .5-.1.9-.3 1.2s-.5.6-1 .7l1.6 3v.1H74l-1.4-2.7zm-1.4-1h1.3c.4 0 .7-.1 1-.3s.4-.5.4-.9-.1-.7-.3-.9-.5-.3-1-.3h-1.3l-.1 2.4zm6.7-3.4 2.1 5.4 2-5.4h1.6v7.1h-1.2v-2.3l.1-3.1-2.1 5.5h-.9L77.4 11l.1 3.1v2.3h-1.2v-7h1.6zm11.3 5.4h-2.8l-.6 1.7h-1.3l2.7-7.1h1.1l2.7 7.1h-1.3l-.5-1.7zm-2.4-1h2.1l-1-2.9-1.1 2.9zm9.7-3.4h-2.2v6.1h-1.2v-6.1h-2.2v-1h5.6v1zm2.4 6.1h-1.2V9.4h1.2v7.1zm7.3-3.4c0 .7-.1 1.3-.4 1.8s-.6.9-1 1.2c-.4.3-1 .4-1.5.4-.6 0-1.1-.1-1.5-.4s-.8-.7-1-1.2-.4-1.1-.4-1.8v-.4c0-.7.1-1.3.4-1.8s.6-.9 1-1.2 1-.4 1.5-.4 1.1.1 1.5.4.8.7 1 1.2.4 1.1.4 1.8v.4zm-1.3-.3c0-.8-.1-1.4-.4-1.8s-.7-.6-1.3-.6c-.5 0-1 .2-1.3.6s-.5 1-.5 1.8v.4c0 .8.2 1.4.5 1.8s.7.6 1.3.6c.5 0 1-.2 1.3-.6s.4-1 .4-1.8v-.4zm8.2 3.7h-1.2l-3.2-5v5h-1.2V9.4h1.2l3.2 5.1V9.4h1.2v7.1z" fill="#787878"/><circle cx="22" cy="13.2" r="8" fill="#5ab9dc"/><path class="st0" d="m23.8 17.4-.1.6c-.4.2-.8.3-1.1.4-.3.1-.6.1-.9.1-.5 0-1-.1-1.3-.4s-.5-.6-.5-1v-.5l.1-.6.6-2c0-.2.1-.4.1-.5l.1-.5c0-.3-.1-.4-.2-.5s-.3-.1-.6-.1c-.1 0-.3 0-.4.1s-.3.1-.4.1l.1-.6 1.1-.4c.3-.1.7-.2 1-.2.5 0 1 .1 1.2.4s.4.6.4 1v.5s0 .5-.1.7l-.6 2-.1.5c0 .2-.1.4-.1.5 0 .3.1.4.2.5s.3.1.6.1c.1 0 .3 0 .5-.1.2 0 .3 0 .4-.1zm.2-8.3c0 .3-.1.6-.4.9-.3.2-.6.4-.9.4s-.8-.1-1-.4c-.3-.2-.4-.5-.4-.9 0-.3.1-.6.4-.9.3-.2.6-.4.9-.4s.7.1.9.4c.2.3.5.6.5.9z"/></svg>