<svg width="49" height="47" xmlns="http://www.w3.org/2000/svg"><g fill="none" fill-rule="evenodd"><g stroke="#022344" stroke-linecap="round" stroke-linejoin="round" stroke-width="2"><path d="m15.9 1.5 3.8 3.8-5.4 5.4-3.8-3.8c-.8 2.8-.2 5.9 2 8.1 2.3 2.3 5.6 2.8 8.5 1.7l21.1 21.1c1.3 1.3 3.4 1.3 4.7 0 1.3-1.3 1.3-3.4 0-4.7L25.7 12c1.1-2.9.7-6.2-1.7-8.5-2.2-2.2-5.3-2.8-8.1-2z" fill="#FFF"/><path d="m22.7 45.1 6.4-6.4c2.2.9 4.8.4 6.6-1.3l10.2-10.2c.9-.9.9-2.3 0-3.1-.9-.9-2.3-.9-3.1 0l.4-.4c1.1-1.1 1.1-2.8 0-3.8-1.1-1.1-2.8-1.1-3.8 0l1.6-1.6c.9-.9.9-2.3 0-3.1l-.3-.3c-.9-.9-2.3-.9-3.1 0l-1 1c.9-.9.9-2.3 0-3.1l-.2-.2c-.9-.9-2.3-.9-3.1 0L22.8 22.7l2-2.3-2.8-2.8-3 3c-2.2 2.2-2.3 5.7-.4 8.1l-6.1 6.1" fill="#FFF"/><path d="m35.9 16.4 1-1.1" fill="#F3F3F3"/></g><g transform="translate(0 29)"><circle fill="#5DB04A" cx="9.5" cy="8.9" r="8.7"/><path stroke="#F3F3F3" stroke-width="2" stroke-linecap="round" stroke-linejoin="round" d="M6.5 9.3 9 11.5l4.2-4.4"/></g></g></svg>