<svg xmlns="http://www.w3.org/2000/svg" width="96" height="64"><circle cx="48" cy="24" r="17.5" fill="#f0f0f0"/><path d="M48 24h17.5c0-1.6-.2-3.1-.6-4.6H48V24zm0-9.1h15c-1.1-1.8-2.4-3.3-4.1-4.6H48v4.6zm0 26.6c4.1 0 7.9-1.5 10.9-3.8H37.1c3 2.3 6.8 3.8 10.9 3.8zm-15-8.4h29.8c.9-1.4 1.6-2.9 1.9-4.6H31.1c.5 1.7 1.2 3.3 1.9 4.6z" fill="#d80027"/><path d="M38.6 9.2h1.7l-1.5 1.1.6 1.8-1.5-1.1-1.6 1 .5-1.5c-1.3 1.1-2.4 2.3-3.4 3.8h.5l-1 .7c-.2.3-.3.5-.4.8l.5 1.4-.9-.6c-.2.5-.4.9-.6 1.4l.5 1.6h1.8l-1.5 1 .6 1.7-1.5-1.1-1 .7c-.1.7-.1 1.4-.1 2.1H48V6.5c-3.5 0-6.7 1-9.4 2.7zm.7 13.1-1.5-1.1-1.5 1.1.6-1.7-1.6-1.1h1.8l.6-1.8.6 1.8h1.8l-1.5 1.1.7 1.7zm-.5-6.9.6 1.7-1.5-1.1-1.6 1.1.6-1.8-1.6-1.1h1.8l.6-1.8.6 1.8h1.8l-1.3 1.2zm6.8 6.9-1.5-1.1-1.5 1.1.6-1.7-1.5-1.1h1.8l.6-1.8.6 1.8h1.8L45 20.6l.6 1.7zm-.6-6.9.6 1.7-1.5-1.1-1.5 1.1.6-1.8-1.5-1.1h1.8l.6-1.8.6 1.8h1.8L45 15.4zm0-5.1.6 1.8-1.5-1.1-1.4 1 .6-1.8-1.6-1.1h1.8l.6-1.8.6 1.8h1.8L45 10.3z" fill="#0052b4"/><path d="m19.6 48.9 2.1 5.4 2-5.4h1.6V56h-1.2v-2.3l.1-3.1-2.1 5.4h-.9l-2.1-5.5.1 3.1V56H18v-7.1h1.6zm11.3 5.5h-2.8l-.6 1.6h-1.3l2.7-7.1H30l2.7 7.1h-1.3l-.5-1.6zm-2.4-1h2.1l-1-2.9-1.1 2.9zm5 2.6v-7.1h2.1c.6 0 1.2.1 1.7.4.5.3.9.7 1.1 1.2s.4 1.1.4 1.8v.4c0 .7-.1 1.3-.4 1.8-.3.5-.7.9-1.1 1.2-.5.3-1.1.4-1.7.4h-2.1V56zm1.3-6.1V55h.8c.6 0 1.1-.2 1.5-.6.3-.4.5-1 .5-1.7v-.4c0-.8-.2-1.4-.5-1.8s-.8-.6-1.5-.6h-.8zm9.4 2.9h-2.9V55h3.4v1h-4.6v-7.1h4.6v1h-3.4v2h2.9v.9zm5.3 3.2h-1.2v-7.1h1.2V56zm7.2 0h-1.2l-3.2-5v5H51v-7.1h1.2l3.2 5.1v-5.1h1.2l.1 7.1zm9.1-7.1v4.8c0 .8-.2 1.4-.7 1.8-.5.4-1.1.7-1.9.7-.8 0-1.5-.2-1.9-.7-.5-.4-.7-1-.7-1.8V49h1.2v4.7c0 .5.1.8.4 1.1.2.3.6.4 1.1.4 1 0 1.4-.5 1.4-1.5V49l1.1-.1zm5.1 5.3c0-.3-.1-.6-.3-.7-.2-.2-.6-.3-1.2-.5s-1-.4-1.4-.6c-.6-.4-1-.9-1-1.6 0-.6.2-1 .7-1.4s1.1-.6 1.8-.6c.5 0 .9.1 1.3.3s.7.4.9.8c.2.3.3.7.3 1.1h-1.2c0-.4-.1-.7-.3-.9-.2-.2-.6-.3-1-.3s-.7.1-.9.3c-.2.2-.3.4-.3.7s.1.5.4.6c.2.2.6.3 1.2.5s1 .3 1.3.6c.3.2.6.5.7.7.2.3.2.6.2 1 0 .6-.2 1.1-.7 1.4-.5.4-1.1.5-1.8.5-.5 0-1-.1-1.4-.3s-.8-.5-1-.8-.4-.7-.4-1.2H68c0 .4.1.7.4.9s.6.3 1.1.3c.4 0 .8-.1 1-.3.3 0 .4-.2.4-.5zm6.3.2h-2.8l-.6 1.6h-1.3l2.7-7.1h1.1L79 56h-1.3l-.5-1.6zm-2.4-1h2.1l-1-2.9-1.1 2.9z" fill="#787878"/></svg>