<svg xmlns="http://www.w3.org/2000/svg" width="132" height="26"><style>.st0{fill:#fff}.st3{fill:#e6e6e6}.st4{fill:#d80027}</style><path class="st0" d="M127 25H5c-2.2 0-4-1.8-4-4V5c0-2.2 1.8-4 4-4h122c2.2 0 4 1.8 4 4v16c0 2.2-1.8 4-4 4z"/><path d="m52.6 9.4 2.1 5.4 2-5.4h1.6v7.1h-1.2v-2.3l.1-3.1-2.1 5.5h-.9L52.1 11l.1 3.1v2.3H51v-7h1.6zm11.3 5.4h-2.8l-.6 1.7h-1.3L62 9.4h1.1l2.7 7.1h-1.3l-.6-1.7zm-2.4-1h2.1l-1-2.9-1.1 2.9zm5.2 2.7V9.4h2.1c.6 0 1.2.1 1.7.4.5.3.9.7 1.1 1.2.3.5.4 1.1.4 1.8v.4c0 .7-.1 1.3-.4 1.8s-.7.9-1.1 1.2c-.5.3-1.1.4-1.7.4l-2.1-.1zm1.3-6.1v5.1h.8c.6 0 1.1-.2 1.5-.6s.5-1 .5-1.7v-.4c0-.8-.2-1.4-.5-1.8-.3-.4-.8-.6-1.5-.6H68zm9.5 2.9h-2.9v2.2H78v1h-4.6V9.4H78v1h-3.4v2h2.9v.9zm5.5 3.2h-1.2V9.4H83v7.1zm7.3 0H89l-3.2-5v5h-1.2V9.4h1.2l3.2 5.1V9.4h1.2v7.1h.1zm9.3-7.1v4.8c0 .8-.2 1.4-.7 1.8-.5.4-1.1.7-1.9.7s-1.5-.2-1.9-.7-.7-1-.7-1.8V9.4h1.2v4.8c0 .5.1.8.4 1.1.2.3.6.4 1.1.4 1 0 1.4-.5 1.4-1.5V9.4h1.1zm5.1 5.3c0-.3-.1-.6-.3-.7s-.6-.3-1.2-.5-1-.4-1.4-.6c-.6-.4-1-.9-1-1.6 0-.6.2-1 .7-1.4s1.1-.6 1.8-.6c.5 0 .9.1 1.3.3s.7.4.9.8c.2.3.3.7.3 1.1h-1.2c0-.4-.1-.7-.3-.9-.2-.2-.6-.3-1-.3s-.7.1-.9.3c-.2.2-.3.4-.3.7s.1.5.4.7c.2.2.6.3 1.2.5s1 .4 1.3.6c.3.2.6.5.7.7s.2.6.2 1c0 .6-.2 1.1-.7 1.4-.5.3-1.1.5-1.8.5-.5 0-1-.1-1.4-.3s-.8-.5-1-.8-.4-.7-.4-1.2h1.2c0 .4.1.7.4.9s.6.3 1.1.3c.4 0 .8-.1 1-.3.3-.1.4-.3.4-.6zm6.4.1h-2.8l-.6 1.7h-1.3l2.7-7.1h1.1l2.7 7.1h-1.3l-.5-1.7zm-2.4-1h2.1l-1-2.9-1.1 2.9z" fill="#787878"/><path d="M12.7 6.1h10.4v8.6H12.7V6.1z" fill="#0052b4"/><path class="st3" d="M23.1 8.9h8.6v2.8h-8.6V8.9z"/><path class="st4" d="M23.1 6.1h8.6v2.8h-8.6V6.1zm0 5.7h8.6v2.8h-8.6v-2.8z"/><path class="st3" d="M12.7 14.6h19v2.8h-19v-2.8z"/><path class="st4" d="M12.7 17.5h19v2.8h-19v-2.8z"/><path class="st0" d="m21 11.9-.4-1.2-.4 1.2h-1.4l1.1.9-.4 1.2 1.1-.7 1.1.7-.4-1.2 1.1-.9H21zm-5.3 0-.5-1.2-.3 1.2h-1.4l1.1.9-.4 1.2 1-.7 1.2.7-.4-1.2 1-.9h-1.3zM21 7.8l-.4-1.2-.4 1.2h-1.4l1.1.9-.4 1.2 1.1-.7 1.1.7-.4-1.2 1.1-.9H21zm-5.3 0-.5-1.2-.3 1.2h-1.4l1.1.9-.4 1.2 1-.7 1.2.7-.4-1.2 1-.9h-1.3z"/></svg>