<svg width="50" height="50" xmlns="http://www.w3.org/2000/svg"><g fill="none" fill-rule="evenodd"><path d="M25 49C11.745 49 1 38.255 1 25S11.745 1 25 1s24 10.745 24 24-10.745 24-24 24z" stroke="#E8E8E8"/><path d="M30.732 26.432c-.382-.396-.843-.608-1.331-.608-.485 0-.95.208-1.347.604l-1.244 1.235c-.103-.055-.205-.106-.304-.157a5.011 5.011 0 0 1-.39-.208c-1.165-.737-2.224-1.697-3.24-2.94-.492-.62-.823-1.14-1.063-1.67.323-.294.622-.6.913-.894.11-.11.22-.223.331-.333.827-.823.827-1.89 0-2.713l-1.075-1.07c-.122-.122-.248-.247-.366-.373a18.553 18.553 0 0 0-.74-.729c-.383-.376-.84-.576-1.32-.576-.48 0-.945.2-1.339.576l-.007.008-1.34 1.345a2.863 2.863 0 0 0-.854 1.823c-.094 1.144.244 2.21.504 2.909.638 1.713 1.591 3.3 3.013 5.002a18.52 18.52 0 0 0 6.17 4.81c.906.427 2.115.933 3.465 1.02.083.003.17.007.249.007.91 0 1.673-.325 2.272-.972.004-.008.011-.012.015-.02.205-.247.441-.47.69-.71.169-.16.342-.329.511-.505.39-.404.595-.874.595-1.357 0-.486-.209-.952-.606-1.344l-2.162-2.16z" fill="#969FA6"/></g></svg>