<svg xmlns="http://www.w3.org/2000/svg" width="190" height="47"><style>.st0{fill:#ce4e45}</style><path class="st0" d="M24.7 15.2c.8.4 3.3 1.8 7.7 4 2.9 1.4 4.3 2.3 4.3 2.7-.2.5-.5 1-1.2 1.3-.4.3-.8.4-1.2.4-.1 0-.3 0-.4-.1-3-1.1-5.6-2.2-7.8-3.6-2.6-1.6-4.1-2.4-4.4-2.6v3.8c-.1 1.6-.3 2.5-.8 2.7-.4.1-.8.2-1.1.2-.8 0-1.3-.2-1.5-.7-.1-.2-.1-.8-.1-1.8v-.2c0-.2 0-.5.1-1.1 0-.6.1-1.1.1-1.5v-.3c0-1-.1-1.5-.3-1.6h-.9c-.4 0-.6-.1-.8-.3-.1-.2-.2-.4-.2-.6 0-.2 0-.4.1-.7.2-.5.4-.8.7-1.1 0 0 .3-.2.9-.5.2-.2.3-.5.3-.9 0-1.1.1-2.7.1-4.9V5.3c-.1-.6-.6-1-1.3-1-.8 0-1.4-.2-1.8-.6-.1-.2-.2-.4-.2-.6 0-.3.3-.7.8-1.1.5-.4 1.4-.6 2.6-.8.3 0 .7-.3 1.2-.7.4-.3.8-.5 1.1-.5h.1c.3 0 .6.1.7.4.3.6.5.9.5.9l3.7 1c.4.1 1 .3 1.9.5.9.2 1.6.4 2.1.6 1.7.5 2.9 1.1 3.6 1.9.6.5.8 1.2.8 2.1 0 .3 0 .7-.1 1-.2 1.1-.7 2.1-1.5 2.9-.8.9-2.1 1.7-3.8 2.6-1.3.5-2.7 1-4 1.3zm-3-2.6c5.9-1.4 8.8-2.8 8.8-4.2 0-.1 0-.3-.1-.4-.3-.9-2.2-1.8-5.9-2.7-1-.2-1.7-.4-2.1-.4h-.2c-.4.2-.7.8-.7 2.1 0 2.2.1 4 .2 5.6zM49.6 17c.6-.4 1-.6 1.3-.6.3 0 .4.2.4.6-.2 1.3-.9 2.7-2.2 4.1-1.2 1.4-2.5 2.3-3.8 2.8-.5.1-.9.2-1.4.2-2.3 0-4.4-1.3-6.3-3.8-.7-.9-1-2.1-1-3.6 0-.6.1-1.3.2-2.1.2-1.4 1.3-2.3 3.3-2.7.3-.1.5-.1.8-.1.7 0 1.4.2 2 .7.7.5 1.3 1.3 1.8 2.4.1.5.2.9.2 1.3 0 1.2-.6 2.2-1.7 2.9-.2.1-.4.2-.7.3l-.6.2c-.2.1-.2.2-.2.3 0 .2.2.4.4.7.5.6 1.2.9 1.9.9.2 0 .4 0 .6-.1.9-.2 1.8-.8 2.7-1.9 1.2-1.4 2-2.3 2.3-2.5zm-9.2 1c.5 0 .9-.2 1.2-.5.3-.3.5-.7.5-1.2v-.2c0-.4-.1-.7-.3-1-.2-.4-.6-.6-1.1-.7h-.2c-.3 0-.5.1-.7.4-.2.3-.3.6-.3 1.1.1 1 .3 1.7.9 2.1zm23 2.3c.6.7 1 1.3 1 1.8 0 .2 0 .3-.1.4-.4.9-.9 1.3-1.5 1.3-.7 0-1.6-.9-2.7-2.7-.3-.4-.5-.7-.6-.9-.8 1.6-2.2 2.7-4.4 3.3-1 .3-1.9.4-2.8.4-1.2 0-1.8-.4-1.8-1.1-.1-.4-.1-.7-.1-1.1 0-2.2 1.5-4.3 4.4-6.3.2-.1.5-.3 1-.5 1.3-.5 2-1 2-1.3-.1-.5-.1-1.3-.1-2.3V5.7c0-1.5.2-2.5.7-3 .3-.3.7-.5 1.3-.5h.3c.3 0 .5.2.7.7.2.7.3 1.1.4 1.4.1.8.2 2.2.2 4.2v2.8c0 1.8.1 3.2.3 4.1.3 1.5.9 3.1 1.8 4.9zm-5.8-2.7c-.8.3-1.5.6-2.2 1.1-.8.5-1.3 1-1.5 1.5v.2c0 .2.1.3.2.5h.3c.7 0 1.4-.4 2.1-1.1.6-.7 1-1.4 1.1-2.2zm18.9 3c.5 1.4.8 2.5.8 3.1 0 .8-.3 1.2-1 1.2-.5 0-.9-.2-1.4-.5-.6-.5-1.1-1.6-1.4-3.3-.1-.5-.2-.9-.2-1.1-.6 1-1.3 1.9-2.3 2.7-1.1.8-2 1.3-2.9 1.3-.7 0-1.2-.3-1.6-.9-.4-.6-.6-1.6-.6-2.9 0-1.3.3-2.9.8-4.7.6-2.3 1.4-3.5 2.3-3.5.3 0 .6.1.8.3.2.2.3.7.3 1.3 0 .9-.2 2.2-.6 3.9-.3 1.3-.5 2.2-.5 2.6 0 .1 0 .2.1.3 0 0 .1 0 .2-.1 1.1-.6 1.8-1.6 2.4-2.8.3-.7.6-1.8.8-3.2.1-.9.3-1.5.4-1.8.2-.5.5-.7.9-.7.8 0 1.4.6 1.7 1.7.2.6.3 1.7.4 3.2 0 .8.1 1.3.1 1.6-.1.6.1 1.3.5 2.3zm7.2-.1h.4c.7-.1 1.9-.5 3.4-1.2 1.6-.7 2.7-1.1 3.2-1.2h.4c.7 0 1 .4 1.1 1.1-.2 1.3-2.2 2.8-5.9 4.2-1.2.5-2.3.7-3.3.7-1.5 0-2.6-.6-3.4-1.7-.6-.8-.9-1.8-.9-3V19c0-1.1.2-2.1.6-3.2.4-1.2 1.1-2.1 1.8-2.8.8-.7 1.7-1.1 2.7-1.1h.1c.9 0 1.5.4 1.7 1.1.1.2.1.4.1.5 0 .5-.3 1-.9 1.3-1.3.8-2 1.3-2.3 1.6-.5.5-.7 1.1-.7 1.7 0 .3.1.7.2 1 .2 1 .8 1.4 1.7 1.4z"/><path class="st0" d="M102.5 17c.6-.4 1-.6 1.3-.6.3 0 .4.2.4.6-.2 1.3-.9 2.7-2.2 4.1-1.2 1.4-2.5 2.3-3.8 2.8-.5.1-.9.2-1.4.2-2.3 0-4.4-1.3-6.3-3.8-.7-.9-1-2.1-1-3.6 0-.6.1-1.3.2-2.1.2-1.4 1.3-2.3 3.3-2.7.3-.1.5-.1.8-.1.7 0 1.4.2 2 .7.7.5 1.3 1.3 1.8 2.4.1.5.2.9.2 1.3 0 1.2-.6 2.2-1.7 2.9-.2.1-.4.2-.7.3l-.6.2c-.2.1-.2.2-.2.3 0 .2.2.4.4.7.5.6 1.2.9 1.9.9.2 0 .4 0 .6-.1.9-.2 1.8-.8 2.7-1.9 1.2-1.4 2-2.3 2.3-2.5zm-9.2 1c.5 0 .9-.2 1.2-.5.3-.3.5-.7.5-1.2v-.2c0-.4-.1-.7-.3-1-.2-.4-.6-.6-1.1-.7h-.2c-.3 0-.5.1-.7.4-.2.3-.3.6-.3 1.1.1 1 .3 1.7.9 2.1zm23.1 2.3c.6.7 1 1.3 1 1.8 0 .2 0 .3-.1.4-.4.9-.9 1.3-1.5 1.3-.7 0-1.6-.9-2.7-2.7-.3-.4-.5-.7-.6-.9-.8 1.6-2.2 2.7-4.4 3.3-1 .3-1.9.4-2.8.4-1.2 0-1.8-.4-1.8-1.1-.1-.4-.1-.7-.1-1.1 0-2.2 1.5-4.3 4.4-6.3.2-.1.5-.3 1-.5 1.3-.5 2-1 2-1.3-.1-.5-.1-1.3-.1-2.3V5.7c0-1.5.2-2.5.7-3 .3-.3.7-.5 1.3-.5h.3c.3 0 .5.2.7.7.2.4.3.7.4 1.1.1.8.2 2.2.2 4.2V11c0 1.8.1 3.2.3 4.1.2 1.8.8 3.4 1.8 5.2zm-5.9-2.7c-.8.3-1.5.6-2.2 1.1-.8.5-1.3 1-1.5 1.5v.2c0 .2.1.3.2.5h.3c.7 0 1.4-.4 2.1-1.1.7-.7 1-1.4 1.1-2.2zm30.7-14.4c2.3.9 3.8 1.8 4.6 2.7.6.7.9 1.5.9 2.3 0 .8-.2 1.6-.7 2.5-.8 1.5-2.3 2.7-4.6 3.4-.8.2-1.8.5-3.1.7-1.9.4-2.9.6-3 .6-.4.1-.6.5-.6 1.4 0 .4 0 .9.1 1.6.1.4.2 1.1.4 2.2.2.8.2 1.3.2 1.6v.3c0 1.2-.1 1.9-.4 2.3-.2.2-.4.3-.7.3-.3 0-.7-.2-1.1-.5-.8-.5-1.3-1-1.5-1.4-.1-.3-.2-1.2-.2-2.4v-1.9c0-1.5-.1-2.4-.4-2.8-.1-.1-.3-.3-.7-.5-.3-.2-.5-.5-.6-.8v-.2c0-.3.1-.5.4-.7l.8-.6c-.1-2.3-.2-4-.2-5.2 0-.1 0-.4.1-.9s.1-.9.1-1.2v-.3c0-.2.1-.4.1-.6 0-.5-.2-.7-.5-.7h-.2c-.5 0-.9-.2-1-.5-.1-.1-.1-.3-.1-.4 0-.3.2-.7.6-1.1.2-.2.5-.4 1-.6.5-.2.8-.4 1-.5.5-.5 1.1-.7 1.6-.7h.2c.4 0 .7.2.9.5.2.4.6.6 1 .7 2.7.5 4.5 1 5.6 1.4zm-1.4 7.9c2.3-.6 3.4-1.4 3.4-2.3 0-1-1.1-1.9-3.4-2.7-.2-.1-1.8-.4-4.7-1.1l-.5.1v3.1c0 2.1 0 3.4.1 4 2.7-.6 4.5-.9 5.1-1.1zm17.4.7c.4.3.6.6.6 1v.3c-1.6.8-2.9 1.9-4 3.3-1.2 1.5-2 3.3-2.4 5.4-.3 1.5-.8 2.3-1.4 2.3-.3 0-.6-.1-.9-.4-.8-.7-1.4-2.1-1.8-4.1-.4-1.6-.5-3.2-.5-4.7.1-.6.4-1.1.7-1.3.2-.1.3-.2.5-.2s.4.1.5.2c.9.5 1.3 1.8 1.5 3.7.3-1.2 1-2.4 2.2-3.7 1.3-1.4 2.6-2.2 3.8-2.2.3-.1.7.1 1.2.4zm2.9-2.8c-.5 0-.9-.2-1.2-.4-.2-.2-.3-.4-.3-.7 0-.4.2-.8.6-1.1.4-.3.8-.4 1.3-.4h.3c.5 0 .9.1 1.2.3.3.2.4.5.4.8 0 .4-.2.8-.5 1.1-.4.3-.9.4-1.4.4h-.4zm.8 2.6c.5 0 .8.2.8.7.3 1.9.5 4.1.5 6.4v.9l-.1 3.5c0 .2-.2.4-.7.6-.5.2-.8.3-1.1.3-.1 0-.3 0-.3-.1-.6-.5-1-1.3-1.1-2.4v-.8c0-.6 0-1.5.1-2.5 0-.4.1-.7.1-.9.1-.8.1-1.5.1-2.4v-.8c0-.2 0-.4-.1-.6v-.2c0-.4.1-.7.4-1.1.3-.4.7-.6 1.4-.6zm8.6 8.9h.4c.7-.1 1.9-.5 3.4-1.2 1.6-.7 2.7-1.1 3.2-1.2h.4c.7 0 1 .4 1.1 1.1-.2 1.5-2.2 2.9-5.9 4.3-1.2.5-2.3.7-3.3.7-1.5 0-2.6-.6-3.4-1.7-.6-.8-.9-1.8-.9-3V19c0-1.1.2-2.1.6-3.2.4-1.2 1.1-2.1 1.8-2.8.8-.7 1.7-1.1 2.7-1.1h.1c.9 0 1.5.4 1.7 1.1.1.2.1.4.1.5 0 .5-.3 1-.9 1.3-1.3.8-2 1.3-2.3 1.6-.5.5-.7 1.1-.7 1.7 0 .3.1.7.2 1 .2 1 .8 1.4 1.7 1.4z"/><path class="st0" d="M188.3 17c.6-.4 1-.6 1.3-.6.3 0 .4.2.4.6-.2 1.3-.9 2.7-2.2 4.1-1.2 1.4-2.5 2.3-3.8 2.8-.5.1-.9.2-1.4.2-2.3 0-4.4-1.3-6.3-3.8-.7-.9-1-2.1-1-3.6 0-.6.1-1.3.2-2.1.2-1.4 1.3-2.3 3.3-2.7.3-.1.5-.1.8-.1.7 0 1.4.2 2 .7.7.5 1.3 1.3 1.8 2.4.1.5.2.9.2 1.3 0 1.2-.6 2.2-1.7 2.9-.2.1-.4.2-.7.3l-.6.2c-.2.1-.2.2-.2.3 0 .2.2.4.4.7.5.6 1.2.9 1.9.9.2 0 .4 0 .6-.1.9-.2 1.8-.8 2.7-1.9 1.2-1.4 2-2.3 2.3-2.5zm-9.3 1c.5 0 .9-.2 1.2-.5.3-.3.5-.7.5-1.2v-.2c0-.4-.1-.7-.3-1-.2-.4-.6-.6-1.1-.7h-.2c-.3 0-.5.1-.7.4-.2.3-.3.6-.3 1.1.2 1 .4 1.7.9 2.1zM12 20.1s-12 0-12 10c0 8.5 6 12 6 12H1s6 3 11 5l-1.5-9.5L9 40s-5.5-2.5-5.5-8.5 3-7.9 8.5-11.4z"/></svg>