<svg xmlns="http://www.w3.org/2000/svg" width="132" height="26"><path d="M127 25H5c-2.2 0-4-1.8-4-4V5c0-2.2 1.8-4 4-4h122c2.2 0 4 1.8 4 4v16c0 2.2-1.8 4-4 4z" fill="#fff"/><path d="M58.1 14.7c0-.3-.1-.6-.3-.7s-.6-.3-1.2-.5-1-.4-1.4-.6c-.6-.4-1-.9-1-1.6 0-.6.2-1 .7-1.4s1.1-.6 1.8-.6c.5 0 .9.1 1.3.3s.7.4 1 .7.3.7.3 1.1h-1.2c0-.4-.1-.7-.3-.9s-.6-.3-1-.3-.7.1-.9.3-.3.4-.3.7.1.5.4.7.6.3 1.2.5 1 .4 1.3.6.6.5.7.7.2.6.2 1c0 .6-.2 1.1-.7 1.4-.5.3-1.1.5-1.8.5-.5 0-1-.1-1.4-.3s-.8-.5-1-.8-.5-.7-.5-1.1h1.2c0 .4.1.7.4.9s.6.3 1.1.3c.4 0 .8-.1 1-.3s.4-.3.4-.6zm3.7 1.8h-1.2V9.4h1.2v7.1zm2.8-1h3.8v1h-5.3v-.8l3.7-5.3h-3.7v-1h5.2v.8l-3.7 5.3zm9.1-2.2h-2.9v2.2h3.4v1h-4.6V9.4h4.6v1h-3.4v2h2.9v.9zm9.6.9c-.1.8-.4 1.4-.8 1.8-.4.4-1.1.6-1.9.6-.6 0-1.1-.1-1.5-.4s-.8-.7-1-1.1-.4-1.1-.4-1.7v-.7c0-.7.1-1.3.4-1.8s.6-.9 1-1.2 1-.4 1.5-.4c.8 0 1.4.2 1.9.6s.8 1 .8 1.8h-1.2c-.1-.5-.2-.9-.4-1.1s-.7-.3-1.1-.3c-.5 0-.9.2-1.2.6s-.4 1-.4 1.7v.6c0 .8.1 1.4.4 1.8.3.4.7.6 1.2.6s.8-.1 1.1-.3.4-.6.5-1.1h1.1zm6.9 2.3H89v-3.2h-3.2v3.2h-1.2V9.4h1.2v3H89v-3h1.2v7.1zm5.6-1.7H93l-.6 1.7h-1.3l2.7-7.1H95l2.7 7.1h-1.3l-.6-1.7zm-2.4-1h2.1l-1-2.9-1.1 2.9zm7.8 0h-1.4v2.7h-1.2V9.4h2.5c.8 0 1.5.2 1.9.6s.7.9.7 1.6c0 .5-.1.9-.3 1.2s-.5.6-1 .7l1.6 3v.1h-1.3l-1.5-2.8zm-1.4-1h1.3c.4 0 .7-.1 1-.3s.4-.5.4-.9-.1-.7-.3-.9-.5-.3-1-.3h-1.3l-.1 2.4zm10-2.4h-2.2v6.1h-1.2v-6.1h-2.2v-1h5.6v1z" fill="#787878"/><path d="M31.7 17H12.3c-.1 0-.3-.1-.3-.3V8.3c0-.2.1-.3.3-.3h19.5c.1 0 .2.1.2.3v8.5c0 .1-.1.2-.3.2zM16 8v2m3-2v4m3-4v2m3-2v4m3-4v2" fill="none" stroke="#6dbd63" stroke-width="2" stroke-linecap="round" stroke-linejoin="round" stroke-miterlimit="10"/></svg>