<svg xmlns="http://www.w3.org/2000/svg" width="96" height="64"><circle cx="48" cy="25" r="17.5" fill="#6dbd63"/><path d="M37.6 21h20.9v9.5H37.6V21zm3.5 0v2.8M48 21v2.8m6.9-2.8v2.8M51.5 21v5.1M44.6 21v5.1" fill="none" stroke="#fff" stroke-miterlimit="10"/><path d="M24.5 54.2c0-.3-.1-.6-.3-.7-.2-.2-.6-.3-1.2-.5s-1-.4-1.4-.6c-.6-.4-1-.9-1-1.6 0-.6.2-1 .7-1.4s1.1-.6 1.8-.6c.5 0 .9.1 1.3.3s.7.4.9.8c.2.3.3.7.3 1.1h-1.2c0-.4-.1-.7-.3-.9-.2-.2-.6-.3-1-.3s-.7.1-.9.3c-.2.2-.3.4-.3.7s.1.5.4.7c.2.2.6.3 1.2.5s1 .3 1.3.6c.3.2.6.4.7.7.2.3.2.6.2 1 0 .6-.2 1.1-.7 1.4s-1.1.5-1.8.5c-.5 0-1-.1-1.4-.3s-.8-.5-1-.8-.4-.7-.4-1.2h1.2c0 .4.1.7.4.9s.6.3 1.1.3c.4 0 .8-.1 1-.3.3-.1.4-.3.4-.6zm3.6 1.8h-1.2v-7.1h1.2V56zm2.7-1h3.8v1h-5.3v-.8l3.7-5.3h-3.7v-1h5.2v.8L30.8 55zm9-2.2h-2.9V55h3.4v1h-4.6v-7.1h4.6v1h-3.4v2h2.9v.9zm9.4.9c-.1.8-.4 1.3-.8 1.8-.5.4-1.1.6-1.9.6-.6 0-1.1-.1-1.5-.4-.4-.3-.8-.7-1-1.1-.2-.5-.4-1.1-.4-1.7v-.7c0-.7.1-1.3.4-1.8.2-.5.6-.9 1-1.2s1-.4 1.5-.4c.8 0 1.4.2 1.9.6.5.4.8 1 .8 1.8H48c-.1-.5-.2-.9-.4-1.1-.2-.2-.6-.3-1.1-.3s-1 .2-1.2.6-.4 1-.4 1.7v.6c0 .8.1 1.4.4 1.8.3.4.7.6 1.2.6s.8-.1 1.1-.3c.2-.2.4-.6.5-1.1h1.1zM56 56h-1.2v-3.2h-3.2V56h-1.2v-7.1h1.2v3h3.2v-3H56V56zm5.5-1.6h-2.8l-.5 1.6h-1.3l2.7-7.1h1.1l2.7 7.1h-1.3l-.6-1.6zm-2.4-1h2.1l-1-2.9-1.1 2.9zm7.7-.1h-1.4V56h-1.2v-7.1h2.5c.8 0 1.5.2 1.9.6.4.4.7.9.7 1.6 0 .5-.1.9-.3 1.2-.2.3-.5.6-1 .7l1.6 3h-1.3l-1.5-2.7zm-1.4-1h1.3c.4 0 .7-.1 1-.3.2-.2.4-.5.4-.9s-.1-.7-.3-.9c-.2-.2-.5-.3-1-.3h-1.3l-.1 2.4zm9.9-2.4h-2.2V56h-1.2v-6.1h-2.2v-1h5.6v1z" fill="#787878"/></svg>