<svg xmlns="http://www.w3.org/2000/svg" width="49" height="49"><path fill="none" stroke="#E8E8E8" d="M24.5 48.5c-13.3 0-24-10.7-24-24s10.7-24 24-24 24 10.7 24 24-10.7 24-24 24z"/><path fill="#969FA6" d="M18.9 33.5c.8 0 1.6-.3 2.1-.8l5.2-5.3h.1c.5.1 1 .2 1.5.2 1.6 0 3.1-.6 4.3-1.7 1.1-1.1 1.7-2.5 1.8-4.1V20c0-.2-.2-.3-.3-.1l-3.2 3.2h-.1l-2.8-.8c-.1 0-.1-.1-.1-.1l-.8-2.8v-.2l3.2-3.2c.1-.1 0-.3-.1-.3h-1.8c-1.6 0-3 .7-4.1 1.7-1.5 1.5-2.1 3.6-1.6 5.7v.2L17 28.6c-.6.6-.9 1.3-.9 2.1s.3 1.5.9 2.1c.3.4 1.1.7 1.9.7z"/></svg>