<svg xmlns="http://www.w3.org/2000/svg" width="54" height="66"><path fill="#E1E4E6" d="M41.2 0H7.9C6 0 4.5 1.5 4.5 3.4v59.2C4.5 64.5 6 66 7.9 66h42.8c1.8 0 3.3-1.5 3.3-3.4V12.4L41.2 0z"/><path fill="#B1B7BD" d="M41.2 0v9.8c0 1.4 1.1 2.6 2.6 2.6H54L41.2 0z"/><g fill="#364A5E"><path d="M18.9 23.6c-.6.1-1.4.3-1.8.5-.1 0 .1.2 1.4 1.5 2.6 2.6 2.8 2.8 2.9 3.1.2.4.2.6.2 1.1 0 .3 0 .4-.1.6-.3.8-1 1.3-1.8 1.3-.3 0-.6-.1-.9-.2-.2-.1-.3-.2-2.4-2.3L14.2 27l-.1.2c-.5 1.1-.6 2.5-.4 3.7.5 2.3 2.3 4.1 4.6 4.6.6.2 1.3.2 1.8.2s.9-.1 1.3-.3l.3-.1 1.8 1.9c1 1 3.8 3.9 6.2 6.3l4.3 4.4-.1.2c-.2.5-.3 1.1-.3 1.6 0 .4.1 1.2.2 1.6.4 1.7 1.5 3.3 3.1 4.1.8.5 1.7.7 2.7.7.6 0 1-.1 1.5-.2.3-.1.9-.3 1.1-.4.1 0-.1-.2-1.2-1.3-2.8-2.8-2.9-3-3.1-3.3-.2-.3-.2-.6-.2-1 0-.7.3-1.3.8-1.7.6-.4 1.4-.5 2.1-.1.2.1.4.3 2.3 2.3l2.1 2.1.1-.2c.2-.3.3-.9.4-1.3.1-.4.1-.5.1-1.1 0-.8 0-1-.2-1.7-.6-2.2-2.4-3.8-4.6-4.3-.1 0-.5-.1-.8-.1-.4-.1-.6-.1-.9 0-.5 0-.9.2-1.4.3l-.2.1-1.9-1.9c-1-1.1-3.8-3.9-6.2-6.3l-4.3-4.4.1-.2c.2-.5.3-1.1.3-1.6 0-.4 0-1.1-.1-1.6-.2-1.2-.8-2.3-1.7-3.2-.8-.8-1.8-1.3-3-1.6-.3-.1-.5-.1-1.1-.1-.3.2-.7.2-.7.3z"/><path d="M41.3 24.7c-1.2.6-2.1 1.2-2.2 1.2L38 28.1l-1 2.1-2.6 2.6c-1.4 1.5-2.6 2.7-2.6 2.7l1.1 1.1 1.1 1.1 2.6-2.6 2.6-2.6 1.8-.9c1-.5 2-1 2.1-1.1l.4-.2 1.1-2.2 1.1-2.2-.4-.4c-.9-1-1.7-1.8-1.7-1.8s-1.1.4-2.3 1zm-22 21.4c-2.7 2.8-5.1 5.2-5.1 5.3-.2.2-.4.7-.5 1-.1.4-.1 1.2 0 1.5.2.9.9 1.7 1.7 2 .7.3 1.7.3 2.4 0 .3-.2.6-.3.8-.5l4.1-4.1c2.1-2.2 4.3-4.4 4.9-5l1.1-1.1-2.1-2.2-2.1-2.2c-.2.2-2.5 2.4-5.2 5.3z"/></g><path fill="#F15843" d="M27.7 18.6h-26c-.9 0-1.7-.8-1.7-1.7V6.1c0-.9.8-1.7 1.7-1.7h26c.9 0 1.7.8 1.7 1.7v10.8c0 .9-.8 1.7-1.7 1.7z"/><path fill="#FFF" d="M8.2 8H5.6c-.4 0-.7.3-.7.7v5.6c0 .4.3.7.7.7.4 0 .7-.3.7-.7v-1.1h1.8c1.1-.1 2.4-.7 2.4-2.4 0-2-1.4-2.8-2.3-2.8zm-.1 3.7H6.4V9.4h1.8c.1 0 .9.1.9 1.3 0 .3 0 1-1 1zm15.7-2.3c.4 0 .7-.3.7-.7s-.3-.7-.7-.7h-3.7c-.4 0-.7.3-.7.7v5.6c0 .4.3.7.7.7.4 0 .7-.3.7-.7v-1.8h2.4c.4 0 .7-.3.7-.7s-.3-.7-.7-.7h-2.4V9.5l3-.1zM18 11.1C18 9.2 16.8 8 15 8h-2.5c-.4 0-.7.3-.7.7v5.6c0 .2.1.4.2.5.1.1.3.2.5.2h2.7c.9 0 1.7-.2 2.1-.8.8-.8.8-1.9.8-2.9v-.2zm-1.7 2.1c-.2.2-.6.3-1.1.3h-2V9.4H15c.8 0 1.7.3 1.7 1.7v.3c-.1.7-.1 1.5-.4 1.8z"/></svg>