<svg xmlns="http://www.w3.org/2000/svg" width="52" height="66"><path fill="#E2E5E7" d="M38.6 0H3.5C1.6 0 0 1.6 0 3.5v59C0 64.4 1.6 66 3.5 66h45c1.9 0 3.5-1.6 3.5-3.5V12.9L38.6 0z"/><path fill="#B1B7BD" d="M38.6 0v10.1c0 1.5 1.2 2.7 2.7 2.7H52L38.6 0z"/><g fill="#35495E"><path d="M14.8 18.6c-.6.1-1.5.3-1.9.6-.1 0 .1.2 1.4 1.6 2.8 2.7 2.9 2.9 3.1 3.2.2.4.2.6.2 1.1 0 .3 0 .4-.1.7-.3.8-1.1 1.3-1.9 1.3-.4 0-.6-.1-.9-.2-.2-.1-.3-.2-2.5-2.3L10 22.3l-.1.2c-.5 1.2-.7 2.6-.4 3.8.5 2.4 2.4 4.3 4.8 4.8.6.2 1.4.2 1.9.2.5-.1 1-.2 1.4-.3l.3-.1 1.9 1.9 6.5 6.5 4.6 4.6-.1.2c-.2.5-.3 1.1-.3 1.6 0 .4.1 1.2.2 1.7.4 1.8 1.6 3.4 3.2 4.3.9.5 1.8.7 2.9.7.6 0 1-.1 1.6-.2.3-.1.9-.3 1.1-.4.1 0-.1-.2-1.3-1.4-2.9-2.9-3.1-3.1-3.2-3.4-.2-.4-.2-.6-.2-1 0-.7.3-1.3.9-1.7.7-.5 1.4-.5 2.2-.1.2.1.4.3 2.4 2.3l2.2 2.2.1-.2c.2-.4.3-.9.4-1.3.1-.4.1-.5.1-1.2 0-.8 0-1.1-.2-1.7-.6-2.3-2.5-4-4.8-4.4-.2 0-.5-.1-.8-.1-.5-.1-.6-.1-.9 0-.5 0-1 .2-1.4.3l-.3.1-2-2-6.5-6.5-4.4-4.5.1-.2c.2-.5.3-1.1.3-1.6 0-.4 0-1.2-.2-1.6-.3-1.3-.9-2.4-1.8-3.3-.9-.8-1.9-1.4-3.1-1.6-.3-.1-.5-.1-1.1-.1-.3-.2-1.2-.2-1.2-.2z"/><path d="M38.4 19.8c-1.2.6-2.3 1.2-2.3 1.2s-.6 1-1.2 2.3l-1.2 2.3-2.7 2.7-2.8 2.8 1.1 1.1 1.1 1.1 2.7-2.7 2.7-2.7 1.9-1c1-.5 2-1.1 2.3-1.2l.4-.2 1.2-2.3 1.2-2.3-.4-.4-1.8-1.8c.1-.1-1 .5-2.2 1.1zM15.2 42c-2.9 2.9-5.3 5.4-5.4 5.5-.2.2-.4.8-.5 1.1-.1.4-.1 1.2 0 1.6.2.9.9 1.7 1.8 2.1.7.3 1.7.3 2.5 0 .3-.2.6-.3.8-.5l4.3-4.3 5.2-5.2 1.1-1.1-2.2-2.2c-1.2-1.2-2.2-2.2-2.3-2.2 0-.1-2.4 2.2-5.3 5.2z"/></g></svg>