<svg xmlns="http://www.w3.org/2000/svg" width="49" height="49"><path fill="none" stroke="#E8E8E8" d="M24.5 48.5c-13.3 0-24-10.7-24-24s10.7-24 24-24 24 10.7 24 24-10.7 24-24 24z"/><path fill="#969FA6" d="M38.3 24.8c0-.4-.3-.6-.6-.6h-.2l-2.6-5c-.1-.2-.3-.3-.6-.3h-4.4l.2-1.3c0-.5-.1-1-.5-1.4-.3-.4-.8-.6-1.4-.6H14.6c-.3 0-.6.3-.7.6l-.1 1.1h7.8c.5 0 .9.4.9.9s-.4.9-.9.9H11.4c-.4 0-.7.3-.7.6 0 .4.3.6.6.6h10.1c.5.1.8.5.8 1s-.5 1-1 1h-7c-.4 0-.7.3-.7.7 0 .4.3.7.6.7H21c.5.1.8.5.8 1s-.5 1-1 1h-8.5c-.4 0-.7.3-.7.7 0 .4.3.7.6.7h.6l-.2 2.3c0 .5.1 1 .5 1.4.3.4.8.6 1.4.6h.5c.2 1.3 1.4 2.4 2.8 2.4s2.6-1 2.9-2.4h6.2c.5 0 1-.2 1.3-.5.3.3.8.5 1.3.5h.1c.2 1.3 1.4 2.4 2.8 2.4s2.6-1 2.9-2.4h.4c1.1 0 2-.9 2.1-1.9l.5-4.7zm-20.4 7.4c-.9 0-1.6-.7-1.6-1.6 0-.9.8-1.6 1.7-1.6.9 0 1.6.7 1.6 1.6-.1.9-.8 1.6-1.7 1.6zm14.6 0c-.9 0-1.6-.7-1.6-1.6 0-.9.8-1.6 1.7-1.6.9 0 1.6.7 1.6 1.6 0 .9-.8 1.6-1.7 1.6zm4.1-3c0 .4-.4.7-.8.7h-.4c-.3-1.3-1.4-2.2-2.8-2.2s-2.6.9-2.9 2.2h-.1c-.2 0-.3-.1-.4-.2-.1-.1-.2-.3-.1-.4l.8-9.1h1.9l-.3 3.3c0 .5.1 1 .5 1.4.3.4.8.6 1.4.6h3.7l-.5 3.7zm0 0"/></svg>