<svg xmlns="http://www.w3.org/2000/svg" width="42.2" height="23"><path fill="#F4B429" d="M6.5 22.4h.2s1.9-5.7 5.7-11.1C16.6 5.5 23.3-.1 29.2 1.6c10 3 4.7 20.8 4.7 20.8h1.2S40.3 4.1 29.6 1C24.7-.4 19 2.6 14.8 7.6c-5.3 6.2-8.3 14.8-8.3 14.8z"/><path fill="#30A18A" d="M1.5 22.4h.3s.5-7.4 6.5-10.1c7.4-3.4 13.4-.8 16.4 2.3 3.2 3.4 3.6 7.8 3.6 7.8h1.3S28.4 9.8 15.2 10.1c-6.7.1-10.2 3.4-12 6.7-1.4 2.5-1.7 5.6-1.7 5.6z"/><path fill="#277FD2" d="M8.8 22.4s.2-.6.5-1.3c.9-1.9 3.4-4.8 10.5-5.8 18.8-2.8 20.4 7.2 20.4 7.2h-1.3s-1-7.8-17.3-6.7c-7.3.5-10.2 2.7-11.4 4.4-.8 1.1-1 2.2-1 2.2h-.4z"/><path fill="#0C5788" d="M4.6 22.4H5S3.8 4 11.6 3.9s10.6 18.5 10.6 18.5h1.2S20.8 3.1 11.6 3.2c-8.2.1-7 19.2-7 19.2z"/></svg>